  0
SECTION
  2
HEADER
  9
$ACADVER
  1
AC1009
  9
$EXTMIN
 10
-600.0
 20
-200.0
 30
0.0
  9
$EXTMAX
 10
2400.0
 20
600.0
 30
0.0
  9
$LIMMIN
 10
-600.0
 20
-200.0
  9
$LIMMAX
 10
2400.0
 20
600.0
  9
$LTSCALE
 40
10.0
  9
$INSUNITS
 70
5
  0
ENDSEC
  0
SECTION
  2
TABLES
  0
TABLE
  2
LTYPE
 70
2
  0
LTYPE
  2
CONTINUOUS
 70
64
  3
Solid line
 72
65
 73
0
 40
0.0
  0
LTYPE
  2
DASHED
 70
64
  3
_ _ _ _ _
 72
65
 73
2
 40
20.0
 49
12.0
 49
-8.0
  0
ENDTAB
  0
TABLE
  2
LAYER
 70
7
  0
LAYER
  2
0
 70
64
 62
7
  6
CONTINUOUS
  0
LAYER
  2
RAMPA
 70
64
 62
3
  6
CONTINUOUS
  0
LAYER
  2
CARROZZERIA
 70
64
 62
2
  6
CONTINUOUS
  0
LAYER
  2
RUOTE
 70
64
 62
4
  6
CONTINUOUS
  0
LAYER
  2
CRITICO
 70
64
 62
1
  6
CONTINUOUS
  0
LAYER
  2
QUOTE
 70
64
 62
5
  6
CONTINUOUS
  0
LAYER
  2
TESTO
 70
64
 62
7
  6
CONTINUOUS
  0
LAYER
  2
REF
 70
64
 62
8
  6
DASHED
  0
ENDTAB
  0
TABLE
  2
STYLE
 70
1
  0
STYLE
  2
STANDARD
 70
0
 40
0.0
 41
1.0
 50
0.0
 71
0
 42
2.5
  3
txt
  4

  0
ENDTAB
  0
ENDSEC
  0
SECTION
  2
ENTITIES
  0
LINE
  8
RAMPA
 10
-500.0
 20
380.0
 30
0.0
 11
0.0
 21
380.0
 31
0.0
  0
ARC
  8
RAMPA
 10
0.0
 20
-1120.0
 30
0.0
 40
1500.0
 50
73.13
 51
90.0
  0
LINE
  8
RAMPA
 10
435.0
 20
316.0
 30
0.0
 11
1265.0
 21
64.0
 31
0.0
  0
ARC
  8
RAMPA
 10
1700.0
 20
1500.0
 30
0.0
 40
1500.0
 50
253.13
 51
270.0
  0
LINE
  8
RAMPA
 10
1700.0
 20
0.0
 30
0.0
 11
2300.0
 21
0.0
 31
0.0
  0
LINE
  8
REF
 10
1700.0
 20
380.0
 30
0.0
 11
2100.0
 21
380.0
 31
0.0
  0
LINE
  8
CARROZZERIA
 10
1409.0
 20
57.0
 30
0.0
 11
1401.0
 21
31.0
 31
0.0
  0
LINE
  8
CARROZZERIA
 10
1401.0
 20
31.0
 30
0.0
 11
1301.0
 21
62.0
 31
0.0
  0
ARC
  8
CARROZZERIA
 10
1275.0
 20
98.0
 30
0.0
 40
44.0
 50
305.2
 51
201.0
  0
LINE
  8
CARROZZERIA
 10
1234.0
 20
82.0
 30
0.0
 11
1071.0
 21
131.0
 31
0.0
  0
ARC
  8
CARROZZERIA
 10
1045.0
 20
167.0
 30
0.0
 40
44.0
 50
305.2
 51
201.0
  0
LINE
  8
CARROZZERIA
 10
1004.0
 20
151.0
 30
0.0
 11
923.0
 21
176.0
 31
0.0
  0
LINE
  8
CARROZZERIA
 10
936.0
 20
218.0
 30
0.0
 11
923.0
 21
176.0
 31
0.0
  0
LINE
  8
CARROZZERIA
 10
981.0
 20
232.0
 30
0.0
 11
936.0
 21
218.0
 31
0.0
  0
LINE
  8
CARROZZERIA
 10
1036.0
 20
239.0
 30
0.0
 11
981.0
 21
232.0
 31
0.0
  0
LINE
  8
CARROZZERIA
 10
1094.0
 20
224.0
 30
0.0
 11
1036.0
 21
239.0
 31
0.0
  0
LINE
  8
CARROZZERIA
 10
1144.0
 20
234.0
 30
0.0
 11
1094.0
 21
224.0
 31
0.0
  0
LINE
  8
CARROZZERIA
 10
1266.0
 20
198.0
 30
0.0
 11
1144.0
 21
234.0
 31
0.0
  0
LINE
  8
CARROZZERIA
 10
1284.0
 20
145.0
 30
0.0
 11
1266.0
 21
198.0
 31
0.0
  0
LINE
  8
CARROZZERIA
 10
1312.0
 20
133.0
 30
0.0
 11
1284.0
 21
145.0
 31
0.0
  0
LINE
  8
CARROZZERIA
 10
1358.0
 20
111.0
 30
0.0
 11
1312.0
 21
133.0
 31
0.0
  0
LINE
  8
CARROZZERIA
 10
1390.0
 20
91.0
 30
0.0
 11
1358.0
 21
111.0
 31
0.0
  0
LINE
  8
CARROZZERIA
 10
1403.0
 20
77.0
 30
0.0
 11
1390.0
 21
91.0
 31
0.0
  0
LINE
  8
CARROZZERIA
 10
1409.0
 20
57.0
 30
0.0
 11
1403.0
 21
77.0
 31
0.0
  0
LINE
  8
CARROZZERIA
 10
1048.0
 20
235.0
 30
0.0
 11
1062.0
 21
280.0
 31
0.0
  0
LINE
  8
CARROZZERIA
 10
1028.0
 20
241.0
 30
0.0
 11
1042.0
 21
286.0
 31
0.0
  0
LINE
  8
CARROZZERIA
 10
1084.0
 20
271.0
 30
0.0
 11
1017.0
 21
292.0
 31
0.0
  0
LINE
  8
CARROZZERIA
 10
1086.0
 20
275.0
 30
0.0
 11
1019.0
 21
295.0
 31
0.0
  0
LINE
  8
CARROZZERIA
 10
1084.0
 20
271.0
 30
0.0
 11
1086.0
 21
275.0
 31
0.0
  0
LINE
  8
CARROZZERIA
 10
1017.0
 20
292.0
 30
0.0
 11
1019.0
 21
295.0
 31
0.0
  0
CIRCLE
  8
RUOTE
 10
1275.0
 20
98.0
 30
0.0
 40
35.0
  0
CIRCLE
  8
RUOTE
 10
1045.0
 20
167.0
 30
0.0
 40
35.0
  0
CIRCLE
  8
CRITICO
 10
1401.0
 20
31.0
 30
0.0
 40
14.0
  0
LINE
  8
CARROZZERIA
 10
140.0
 20
415.0
 30
0.0
 11
140.0
 21
388.0
 31
0.0
  0
LINE
  8
CARROZZERIA
 10
140.0
 20
388.0
 30
0.0
 11
34.7
 21
388.0
 31
0.0
  0
ARC
  8
CARROZZERIA
 10
0.0
 20
415.0
 30
0.0
 40
44.0
 50
322.1
 51
217.9
  0
LINE
  8
CARROZZERIA
 10
-34.7
 20
388.0
 30
0.0
 11
-205.3
 21
388.0
 31
0.0
  0
ARC
  8
CARROZZERIA
 10
-240.0
 20
415.0
 30
0.0
 40
44.0
 50
322.1
 51
217.9
  0
LINE
  8
CARROZZERIA
 10
-274.7
 20
388.0
 30
0.0
 11
-360.0
 21
388.0
 31
0.0
  0
LINE
  8
CARROZZERIA
 10
-360.0
 20
388.0
 30
0.0
 11
-360.0
 21
432.0
 31
0.0
  0
LINE
  8
CARROZZERIA
 10
-360.0
 20
432.0
 30
0.0
 11
-320.0
 21
458.0
 31
0.0
  0
LINE
  8
CARROZZERIA
 10
-320.0
 20
458.0
 30
0.0
 11
-270.0
 21
481.0
 31
0.0
  0
LINE
  8
CARROZZERIA
 10
-270.0
 20
481.0
 30
0.0
 11
-210.0
 21
483.0
 31
0.0
  0
LINE
  8
CARROZZERIA
 10
-210.0
 20
483.0
 30
0.0
 11
-165.0
 21
508.0
 31
0.0
  0
LINE
  8
CARROZZERIA
 10
-165.0
 20
508.0
 30
0.0
 11
-38.0
 21
508.0
 31
0.0
  0
LINE
  8
CARROZZERIA
 10
-38.0
 20
508.0
 30
0.0
 11
-5.0
 21
463.0
 31
0.0
  0
LINE
  8
CARROZZERIA
 10
-5.0
 20
463.0
 30
0.0
 11
25.0
 21
460.0
 31
0.0
  0
LINE
  8
CARROZZERIA
 10
25.0
 20
460.0
 30
0.0
 11
75.0
 21
452.0
 31
0.0
  0
LINE
  8
CARROZZERIA
 10
75.0
 20
452.0
 30
0.0
 11
112.0
 21
442.0
 31
0.0
  0
LINE
  8
CARROZZERIA
 10
112.0
 20
442.0
 30
0.0
 11
128.0
 21
432.0
 31
0.0
  0
LINE
  8
CARROZZERIA
 10
128.0
 20
432.0
 30
0.0
 11
140.0
 21
415.0
 31
0.0
  0
CIRCLE
  8
RUOTE
 10
0.0
 20
415.0
 30
0.0
 40
35.0
  0
CIRCLE
  8
RUOTE
 10
-240.0
 20
415.0
 30
0.0
 40
35.0
  0
LINE
  8
QUOTE
 10
0.0
 20
380.0
 30
0.0
 11
0.0
 21
-70.0
 31
0.0
  0
LINE
  8
QUOTE
 10
1700.0
 20
0.0
 30
0.0
 11
1700.0
 21
-70.0
 31
0.0
  0
LINE
  8
QUOTE
 10
435.0
 20
316.0
 30
0.0
 11
435.0
 21
-70.0
 31
0.0
  0
LINE
  8
QUOTE
 10
1265.0
 20
64.0
 30
0.0
 11
1265.0
 21
-70.0
 31
0.0
  0
LINE
  8
QUOTE
 10
0.0
 20
-35.0
 30
0.0
 11
1700.0
 21
-35.0
 31
0.0
  0
LINE
  8
QUOTE
 10
0.0
 20
-35.0
 30
0.0
 11
4.0
 21
-33.0
 31
0.0
  0
LINE
  8
QUOTE
 10
0.0
 20
-35.0
 30
0.0
 11
4.0
 21
-37.0
 31
0.0
  0
LINE
  8
QUOTE
 10
1700.0
 20
-35.0
 30
0.0
 11
1696.0
 21
-33.0
 31
0.0
  0
LINE
  8
QUOTE
 10
1700.0
 20
-35.0
 30
0.0
 11
1696.0
 21
-37.0
 31
0.0
  0
LINE
  8
QUOTE
 10
0.0
 20
-60.0
 30
0.0
 11
435.0
 21
-60.0
 31
0.0
  0
LINE
  8
QUOTE
 10
0.0
 20
-60.0
 30
0.0
 11
4.0
 21
-58.0
 31
0.0
  0
LINE
  8
QUOTE
 10
0.0
 20
-60.0
 30
0.0
 11
4.0
 21
-62.0
 31
0.0
  0
LINE
  8
QUOTE
 10
435.0
 20
-60.0
 30
0.0
 11
431.0
 21
-58.0
 31
0.0
  0
LINE
  8
QUOTE
 10
435.0
 20
-60.0
 30
0.0
 11
431.0
 21
-62.0
 31
0.0
  0
LINE
  8
QUOTE
 10
435.0
 20
-60.0
 30
0.0
 11
439.0
 21
-58.0
 31
0.0
  0
LINE
  8
QUOTE
 10
435.0
 20
-60.0
 30
0.0
 11
439.0
 21
-62.0
 31
0.0
  0
LINE
  8
QUOTE
 10
435.0
 20
-60.0
 30
0.0
 11
1265.0
 21
-60.0
 31
0.0
  0
LINE
  8
QUOTE
 10
1265.0
 20
-60.0
 30
0.0
 11
1261.0
 21
-58.0
 31
0.0
  0
LINE
  8
QUOTE
 10
1265.0
 20
-60.0
 30
0.0
 11
1261.0
 21
-62.0
 31
0.0
  0
LINE
  8
QUOTE
 10
1265.0
 20
-60.0
 30
0.0
 11
1269.0
 21
-58.0
 31
0.0
  0
LINE
  8
QUOTE
 10
1265.0
 20
-60.0
 30
0.0
 11
1269.0
 21
-62.0
 31
0.0
  0
LINE
  8
QUOTE
 10
1265.0
 20
-60.0
 30
0.0
 11
1700.0
 21
-60.0
 31
0.0
  0
LINE
  8
QUOTE
 10
1700.0
 20
-60.0
 30
0.0
 11
1696.0
 21
-58.0
 31
0.0
  0
LINE
  8
QUOTE
 10
1700.0
 20
-60.0
 30
0.0
 11
1696.0
 21
-62.0
 31
0.0
  0
LINE
  8
QUOTE
 10
1820.0
 20
0.0
 30
0.0
 11
1820.0
 21
380.0
 31
0.0
  0
LINE
  8
QUOTE
 10
1700.0
 20
0.0
 30
0.0
 11
1825.0
 21
0.0
 31
0.0
  0
LINE
  8
QUOTE
 10
1700.0
 20
380.0
 30
0.0
 11
1825.0
 21
380.0
 31
0.0
  0
LINE
  8
QUOTE
 10
1820.0
 20
0.0
 30
0.0
 11
1817.0
 21
4.0
 31
0.0
  0
LINE
  8
QUOTE
 10
1820.0
 20
0.0
 30
0.0
 11
1823.0
 21
4.0
 31
0.0
  0
LINE
  8
QUOTE
 10
1820.0
 20
380.0
 30
0.0
 11
1817.0
 21
376.0
 31
0.0
  0
LINE
  8
QUOTE
 10
1820.0
 20
380.0
 30
0.0
 11
1823.0
 21
376.0
 31
0.0
  0
TEXT
  8
TESTO
 10
-450.0
 20
550.0
 30
0.0
 40
16.0
  1
PROFILO RAMPA DISCENDENTE - VISTA LATERALE
  0
TEXT
  8
TESTO
 10
-450.0
 20
520.0
 30
0.0
 40
9.0
  1
Garage interrato. H=380cm, L=1700cm, theta=16.9gradi(30.3%), R_raccordi=1500cm (adottato)
  0
TEXT
  8
TESTO
 10
-450.0
 20
498.0
 30
0.0
 40
9.0
  1
PUNTO CRITICO: asse ant. a inizio SAG (x=1265) - paraurti ant. clearance +1.5cm con R=1500cm
  0
TEXT
  8
TESTO
 10
-450.0
 20
476.0
 30
0.0
 40
9.0
  1
R=1500cm adottato. Clearance +15mm. Ruote 275/35ZR20 (R_ruota=35cm).
  0
TEXT
  8
TESTO
 10
700.0
 20
-28.0
 30
0.0
 40
11.0
  1
L = 1700 cm
  0
TEXT
  8
TESTO
 10
150.0
 20
-53.0
 30
0.0
 40
8.0
  1
CREST 435cm
  0
TEXT
  8
TESTO
 10
710.0
 20
-53.0
 30
0.0
 40
8.0
  1
retto 830cm
  0
TEXT
  8
TESTO
 10
1360.0
 20
-53.0
 30
0.0
 40
8.0
  1
SAG 435cm
  0
TEXT
  8
TESTO
 10
1840.0
 20
185.0
 30
0.0
 40
11.0
 50
90.0
  1
H = 380 cm
  0
TEXT
  8
TESTO
 10
640.0
 20
200.0
 30
0.0
 40
9.0
 50
-16.9
  1
theta = 16.9 gradi = 30.3%
  0
TEXT
  8
TESTO
 10
-380.0
 20
350.0
 30
0.0
 40
8.0
  1
CREST arc
  0
TEXT
  8
TESTO
 10
-380.0
 20
336.0
 30
0.0
 40
7.0
  1
R=1500cm
  0
TEXT
  8
TESTO
 10
1560.0
 20
100.0
 30
0.0
 40
8.0
  1
SAG arc
  0
TEXT
  8
TESTO
 10
1560.0
 20
86.0
 30
0.0
 40
7.0
  1
R=1500cm
  0
TEXT
  8
TESTO
 10
-390.0
 20
530.0
 30
0.0
 40
8.0
  1
POSIZ.2: vettura in piano su strada (asse ant. a x=0)
  0
TEXT
  8
TESTO
 10
1010.0
 20
260.0
 30
0.0
 40
8.0
  1
POSIZ.1 CRITICA
  0
TEXT
  8
TESTO
 10
1010.0
 20
246.0
 30
0.0
 40
7.0
  1
asse ant. a x=1265
  0
TEXT
  8
TESTO
 10
1010.0
 20
232.0
 30
0.0
 40
7.0
  1
inclinaz. -16.9 gradi
  0
TEXT
  8
TESTO
 10
1407.0
 20
44.0
 30
0.0
 40
7.0
  1
<-- CLEARANCE +1.5cm
  0
TEXT
  8
TESTO
 10
1407.0
 20
30.0
 30
0.0
 40
6.5
  1
paraurti ant.
  0
TEXT
  8
TESTO
 10
-450.0
 20
-170.0
 30
0.0
 40
8.0
  1
Quote in cm. Raggio ruota R=35cm (275/35ZR20). Silhouette Porsche 992 GT3 RS. Raccordi archi di cerchio.
  0
TEXT
  8
TESTO
 10
-450.0
 20
-190.0
 30
0.0
 40
8.0
  1
Geometria archi: CREST centro(0,-1120); SAG centro(1700,1500); entrambi R=1500cm.
  0
ENDSEC
  0
EOF
