  0
SECTION
  2
HEADER
  9
$ACADVER
  1
AC1009
  9
$EXTMIN
 10
-300.0
 20
-700.0
 30
0.0
  9
$EXTMAX
 10
520.0
 20
340.0
 30
0.0
  9
$LIMMIN
 10
-300.0
 20
-700.0
  9
$LIMMAX
 10
520.0
 20
340.0
  9
$LTSCALE
 40
5.0
  9
$INSUNITS
 70
5
  0
ENDSEC
  0
SECTION
  2
TABLES
  0
TABLE
  2
LTYPE
 70
2
  0
LTYPE
  2
CONTINUOUS
 70
64
  3
Solid line
 72
65
 73
0
 40
0.0
  0
LTYPE
  2
DASHED
 70
64
  3
_ _ _ _ _
 72
65
 73
2
 40
10.0
 49
6.0
 49
-4.0
  0
ENDTAB
  0
TABLE
  2
LAYER
 70
7
  0
LAYER
  2
0
 70
64
 62
7
  6
CONTINUOUS
  0
LAYER
  2
GROUND
 70
64
 62
3
  6
CONTINUOUS
  0
LAYER
  2
CARROZZERIA
 70
64
 62
2
  6
CONTINUOUS
  0
LAYER
  2
RUOTE
 70
64
 62
4
  6
CONTINUOUS
  0
LAYER
  2
ANGOLI
 70
64
 62
1
  6
DASHED
  0
LAYER
  2
QUOTE
 70
64
 62
5
  6
CONTINUOUS
  0
LAYER
  2
TESTO
 70
64
 62
7
  6
CONTINUOUS
  0
ENDTAB
  0
TABLE
  2
STYLE
 70
1
  0
STYLE
  2
STANDARD
 70
0
 40
0.0
 41
1.0
 50
0.0
 71
0
 42
2.5
  3
txt
  4

  0
ENDTAB
  0
ENDSEC
  0
SECTION
  2
ENTITIES
  0
TEXT
  8
TESTO
 10
-260
 20
320
 30
0.0
 40
11
  1
SCHEMATIZZAZIONE VETTURA - ANGOLI DI ENTRATA/USCITA PER LUCE DA TERRA h = 8 / 9 / 10 cm
  0
TEXT
  8
TESTO
 10
-260
 20
300
 30
0.0
 40
5.5
  1
Porsche 992 GT3 RS. Passo 240 cm, sbalzo ant. 140 cm, sbalzo post. 120 cm, R ruota 35 cm. Quote in cm, angoli in gradi.
  0
TEXT
  8
TESTO
 10
-260
 20
286
 30
0.0
 40
5.5
  1
alfa (entrata) = arctan(h / sbalzo ant.) ; beta (uscita) = arctan(h / sbalzo post.) - misurati dal contatto ruota a terra al paraurti.
  0
TEXT
  8
TESTO
 10
250
 20
320
 30
0.0
 40
6
  1
h [cm]   alfa(ant)   beta(post)
  0
TEXT
  8
TESTO
 10
250
 20
308
 30
0.0
 40
6
  1
  8        3.27        3.81
  0
TEXT
  8
TESTO
 10
250
 20
296
 30
0.0
 40
6
  1
  9        3.68        4.29
  0
TEXT
  8
TESTO
 10
250
 20
284
 30
0.0
 40
6
  1
  10        4.09        4.76
  0
LINE
  8
GROUND
 10
-260
 20
0
 30
0.0
 11
480
 21
0
 31
0.0
  0
CIRCLE
  8
RUOTE
 10
0
 20
35
 30
0.0
 40
35
  0
LINE
  8
RUOTE
 10
-5
 20
35
 30
0.0
 11
5
 21
35
 31
0.0
  0
LINE
  8
RUOTE
 10
0
 20
30
 30
0.0
 11
0
 21
40
 31
0.0
  0
CIRCLE
  8
RUOTE
 10
240
 20
35
 30
0.0
 40
35
  0
LINE
  8
RUOTE
 10
235
 20
35
 30
0.0
 11
245
 21
35
 31
0.0
  0
LINE
  8
RUOTE
 10
240
 20
30
 30
0.0
 11
240
 21
40
 31
0.0
  0
LINE
  8
CARROZZERIA
 10
-140
 20
8
 30
0.0
 11
-34.7
 21
8
 31
0.0
  0
LINE
  8
CARROZZERIA
 10
34.7
 20
8
 30
0.0
 11
205.3
 21
8
 31
0.0
  0
LINE
  8
CARROZZERIA
 10
274.7
 20
8
 30
0.0
 11
360
 21
8
 31
0.0
  0
LINE
  8
CARROZZERIA
 10
-140
 20
8
 30
0.0
 11
-140
 21
35
 31
0.0
  0
LINE
  8
CARROZZERIA
 10
-140
 20
35
 30
0.0
 11
-128
 21
52
 31
0.0
  0
LINE
  8
CARROZZERIA
 10
-128
 20
52
 30
0.0
 11
-112
 21
62
 31
0.0
  0
LINE
  8
CARROZZERIA
 10
-112
 20
62
 30
0.0
 11
-75
 21
72
 31
0.0
  0
LINE
  8
CARROZZERIA
 10
-75
 20
72
 30
0.0
 11
-25
 21
80
 31
0.0
  0
LINE
  8
CARROZZERIA
 10
-25
 20
80
 30
0.0
 11
5
 21
83
 31
0.0
  0
LINE
  8
CARROZZERIA
 10
5
 20
83
 30
0.0
 11
38
 21
128
 31
0.0
  0
LINE
  8
CARROZZERIA
 10
38
 20
128
 30
0.0
 11
165
 21
128
 31
0.0
  0
LINE
  8
CARROZZERIA
 10
165
 20
128
 30
0.0
 11
210
 21
103
 31
0.0
  0
LINE
  8
CARROZZERIA
 10
210
 20
103
 30
0.0
 11
270
 21
101
 31
0.0
  0
LINE
  8
CARROZZERIA
 10
270
 20
101
 30
0.0
 11
320
 21
78
 31
0.0
  0
LINE
  8
CARROZZERIA
 10
320
 20
78
 30
0.0
 11
360
 21
52
 31
0.0
  0
LINE
  8
CARROZZERIA
 10
360
 20
52
 30
0.0
 11
360
 21
8
 31
0.0
  0
LINE
  8
CARROZZERIA
 10
257
 20
101
 30
0.0
 11
257
 21
148
 31
0.0
  0
LINE
  8
CARROZZERIA
 10
278
 20
101
 30
0.0
 11
278
 21
148
 31
0.0
  0
LINE
  8
CARROZZERIA
 10
233
 20
150
 30
0.0
 11
303
 21
150
 31
0.0
  0
LINE
  8
CARROZZERIA
 10
233
 20
146
 30
0.0
 11
303
 21
146
 31
0.0
  0
LINE
  8
CARROZZERIA
 10
233
 20
146
 30
0.0
 11
233
 21
150
 31
0.0
  0
LINE
  8
CARROZZERIA
 10
303
 20
146
 30
0.0
 11
303
 21
150
 31
0.0
  0
LINE
  8
ANGOLI
 10
0
 20
0
 30
0.0
 11
-220
 21
12.57
 31
0.0
  0
LINE
  8
ANGOLI
 10
240
 20
0
 30
0.0
 11
460
 21
14.67
 31
0.0
  0
ARC
  8
QUOTE
 10
0
 20
0
 30
0.0
 40
70
 50
176.73
 51
180
  0
ARC
  8
QUOTE
 10
240
 20
0
 30
0.0
 40
70
 50
0
 51
3.81
  0
CIRCLE
  8
QUOTE
 10
-140
 20
8
 30
0.0
 40
3
  0
CIRCLE
  8
QUOTE
 10
360
 20
8
 30
0.0
 40
3
  0
LINE
  8
QUOTE
 10
120
 20
0
 30
0.0
 11
120
 21
8
 31
0.0
  0
LINE
  8
QUOTE
 10
116
 20
0
 30
0.0
 11
124
 21
0
 31
0.0
  0
LINE
  8
QUOTE
 10
116
 20
8
 30
0.0
 11
124
 21
8
 31
0.0
  0
TEXT
  8
TESTO
 10
128
 20
1
 30
0.0
 40
5
  1
h=8
  0
TEXT
  8
TESTO
 10
-250
 20
18.57
 30
0.0
 40
6.5
  1
alfa = 3.27 gradi
  0
TEXT
  8
TESTO
 10
-250
 20
8.57
 30
0.0
 40
4.5
  1
(entrata, anteriore)
  0
TEXT
  8
TESTO
 10
350
 20
20.67
 30
0.0
 40
6.5
  1
beta = 3.81 gradi
  0
TEXT
  8
TESTO
 10
350
 20
10.67
 30
0.0
 40
4.5
  1
(uscita, posteriore)
  0
TEXT
  8
TESTO
 10
-250
 20
150
 30
0.0
 40
9
  1
LUCE DA TERRA  h = 8 cm
  0
LINE
  8
GROUND
 10
-260
 20
-250
 30
0.0
 11
480
 21
-250
 31
0.0
  0
CIRCLE
  8
RUOTE
 10
0
 20
-215
 30
0.0
 40
35
  0
LINE
  8
RUOTE
 10
-5
 20
-215
 30
0.0
 11
5
 21
-215
 31
0.0
  0
LINE
  8
RUOTE
 10
0
 20
-220
 30
0.0
 11
0
 21
-210
 31
0.0
  0
CIRCLE
  8
RUOTE
 10
240
 20
-215
 30
0.0
 40
35
  0
LINE
  8
RUOTE
 10
235
 20
-215
 30
0.0
 11
245
 21
-215
 31
0.0
  0
LINE
  8
RUOTE
 10
240
 20
-220
 30
0.0
 11
240
 21
-210
 31
0.0
  0
LINE
  8
CARROZZERIA
 10
-140
 20
-241
 30
0.0
 11
-34.7
 21
-241
 31
0.0
  0
LINE
  8
CARROZZERIA
 10
34.7
 20
-241
 30
0.0
 11
205.3
 21
-241
 31
0.0
  0
LINE
  8
CARROZZERIA
 10
274.7
 20
-241
 30
0.0
 11
360
 21
-241
 31
0.0
  0
LINE
  8
CARROZZERIA
 10
-140
 20
-241
 30
0.0
 11
-140
 21
-214
 31
0.0
  0
LINE
  8
CARROZZERIA
 10
-140
 20
-214
 30
0.0
 11
-128
 21
-197
 31
0.0
  0
LINE
  8
CARROZZERIA
 10
-128
 20
-197
 30
0.0
 11
-112
 21
-187
 31
0.0
  0
LINE
  8
CARROZZERIA
 10
-112
 20
-187
 30
0.0
 11
-75
 21
-177
 31
0.0
  0
LINE
  8
CARROZZERIA
 10
-75
 20
-177
 30
0.0
 11
-25
 21
-169
 31
0.0
  0
LINE
  8
CARROZZERIA
 10
-25
 20
-169
 30
0.0
 11
5
 21
-166
 31
0.0
  0
LINE
  8
CARROZZERIA
 10
5
 20
-166
 30
0.0
 11
38
 21
-121
 31
0.0
  0
LINE
  8
CARROZZERIA
 10
38
 20
-121
 30
0.0
 11
165
 21
-121
 31
0.0
  0
LINE
  8
CARROZZERIA
 10
165
 20
-121
 30
0.0
 11
210
 21
-146
 31
0.0
  0
LINE
  8
CARROZZERIA
 10
210
 20
-146
 30
0.0
 11
270
 21
-148
 31
0.0
  0
LINE
  8
CARROZZERIA
 10
270
 20
-148
 30
0.0
 11
320
 21
-171
 31
0.0
  0
LINE
  8
CARROZZERIA
 10
320
 20
-171
 30
0.0
 11
360
 21
-197
 31
0.0
  0
LINE
  8
CARROZZERIA
 10
360
 20
-197
 30
0.0
 11
360
 21
-241
 31
0.0
  0
LINE
  8
CARROZZERIA
 10
257
 20
-148
 30
0.0
 11
257
 21
-101
 31
0.0
  0
LINE
  8
CARROZZERIA
 10
278
 20
-148
 30
0.0
 11
278
 21
-101
 31
0.0
  0
LINE
  8
CARROZZERIA
 10
233
 20
-99
 30
0.0
 11
303
 21
-99
 31
0.0
  0
LINE
  8
CARROZZERIA
 10
233
 20
-103
 30
0.0
 11
303
 21
-103
 31
0.0
  0
LINE
  8
CARROZZERIA
 10
233
 20
-103
 30
0.0
 11
233
 21
-99
 31
0.0
  0
LINE
  8
CARROZZERIA
 10
303
 20
-103
 30
0.0
 11
303
 21
-99
 31
0.0
  0
LINE
  8
ANGOLI
 10
0
 20
-250
 30
0.0
 11
-220
 21
-235.86
 31
0.0
  0
LINE
  8
ANGOLI
 10
240
 20
-250
 30
0.0
 11
460
 21
-233.5
 31
0.0
  0
ARC
  8
QUOTE
 10
0
 20
-250
 30
0.0
 40
70
 50
176.32
 51
180
  0
ARC
  8
QUOTE
 10
240
 20
-250
 30
0.0
 40
70
 50
0
 51
4.29
  0
CIRCLE
  8
QUOTE
 10
-140
 20
-241
 30
0.0
 40
3
  0
CIRCLE
  8
QUOTE
 10
360
 20
-241
 30
0.0
 40
3
  0
LINE
  8
QUOTE
 10
120
 20
-250
 30
0.0
 11
120
 21
-241
 31
0.0
  0
LINE
  8
QUOTE
 10
116
 20
-250
 30
0.0
 11
124
 21
-250
 31
0.0
  0
LINE
  8
QUOTE
 10
116
 20
-241
 30
0.0
 11
124
 21
-241
 31
0.0
  0
TEXT
  8
TESTO
 10
128
 20
-248.5
 30
0.0
 40
5
  1
h=9
  0
TEXT
  8
TESTO
 10
-250
 20
-229.86
 30
0.0
 40
6.5
  1
alfa = 3.68 gradi
  0
TEXT
  8
TESTO
 10
-250
 20
-239.86
 30
0.0
 40
4.5
  1
(entrata, anteriore)
  0
TEXT
  8
TESTO
 10
350
 20
-227.5
 30
0.0
 40
6.5
  1
beta = 4.29 gradi
  0
TEXT
  8
TESTO
 10
350
 20
-237.5
 30
0.0
 40
4.5
  1
(uscita, posteriore)
  0
TEXT
  8
TESTO
 10
-250
 20
-100
 30
0.0
 40
9
  1
LUCE DA TERRA  h = 9 cm
  0
LINE
  8
GROUND
 10
-260
 20
-500
 30
0.0
 11
480
 21
-500
 31
0.0
  0
CIRCLE
  8
RUOTE
 10
0
 20
-465
 30
0.0
 40
35
  0
LINE
  8
RUOTE
 10
-5
 20
-465
 30
0.0
 11
5
 21
-465
 31
0.0
  0
LINE
  8
RUOTE
 10
0
 20
-470
 30
0.0
 11
0
 21
-460
 31
0.0
  0
CIRCLE
  8
RUOTE
 10
240
 20
-465
 30
0.0
 40
35
  0
LINE
  8
RUOTE
 10
235
 20
-465
 30
0.0
 11
245
 21
-465
 31
0.0
  0
LINE
  8
RUOTE
 10
240
 20
-470
 30
0.0
 11
240
 21
-460
 31
0.0
  0
LINE
  8
CARROZZERIA
 10
-140
 20
-490
 30
0.0
 11
-34.7
 21
-490
 31
0.0
  0
LINE
  8
CARROZZERIA
 10
34.7
 20
-490
 30
0.0
 11
205.3
 21
-490
 31
0.0
  0
LINE
  8
CARROZZERIA
 10
274.7
 20
-490
 30
0.0
 11
360
 21
-490
 31
0.0
  0
LINE
  8
CARROZZERIA
 10
-140
 20
-490
 30
0.0
 11
-140
 21
-463
 31
0.0
  0
LINE
  8
CARROZZERIA
 10
-140
 20
-463
 30
0.0
 11
-128
 21
-446
 31
0.0
  0
LINE
  8
CARROZZERIA
 10
-128
 20
-446
 30
0.0
 11
-112
 21
-436
 31
0.0
  0
LINE
  8
CARROZZERIA
 10
-112
 20
-436
 30
0.0
 11
-75
 21
-426
 31
0.0
  0
LINE
  8
CARROZZERIA
 10
-75
 20
-426
 30
0.0
 11
-25
 21
-418
 31
0.0
  0
LINE
  8
CARROZZERIA
 10
-25
 20
-418
 30
0.0
 11
5
 21
-415
 31
0.0
  0
LINE
  8
CARROZZERIA
 10
5
 20
-415
 30
0.0
 11
38
 21
-370
 31
0.0
  0
LINE
  8
CARROZZERIA
 10
38
 20
-370
 30
0.0
 11
165
 21
-370
 31
0.0
  0
LINE
  8
CARROZZERIA
 10
165
 20
-370
 30
0.0
 11
210
 21
-395
 31
0.0
  0
LINE
  8
CARROZZERIA
 10
210
 20
-395
 30
0.0
 11
270
 21
-397
 31
0.0
  0
LINE
  8
CARROZZERIA
 10
270
 20
-397
 30
0.0
 11
320
 21
-420
 31
0.0
  0
LINE
  8
CARROZZERIA
 10
320
 20
-420
 30
0.0
 11
360
 21
-446
 31
0.0
  0
LINE
  8
CARROZZERIA
 10
360
 20
-446
 30
0.0
 11
360
 21
-490
 31
0.0
  0
LINE
  8
CARROZZERIA
 10
257
 20
-397
 30
0.0
 11
257
 21
-350
 31
0.0
  0
LINE
  8
CARROZZERIA
 10
278
 20
-397
 30
0.0
 11
278
 21
-350
 31
0.0
  0
LINE
  8
CARROZZERIA
 10
233
 20
-348
 30
0.0
 11
303
 21
-348
 31
0.0
  0
LINE
  8
CARROZZERIA
 10
233
 20
-352
 30
0.0
 11
303
 21
-352
 31
0.0
  0
LINE
  8
CARROZZERIA
 10
233
 20
-352
 30
0.0
 11
233
 21
-348
 31
0.0
  0
LINE
  8
CARROZZERIA
 10
303
 20
-352
 30
0.0
 11
303
 21
-348
 31
0.0
  0
LINE
  8
ANGOLI
 10
0
 20
-500
 30
0.0
 11
-220
 21
-484.29
 31
0.0
  0
LINE
  8
ANGOLI
 10
240
 20
-500
 30
0.0
 11
460
 21
-481.67
 31
0.0
  0
ARC
  8
QUOTE
 10
0
 20
-500
 30
0.0
 40
70
 50
175.91
 51
180
  0
ARC
  8
QUOTE
 10
240
 20
-500
 30
0.0
 40
70
 50
0
 51
4.76
  0
CIRCLE
  8
QUOTE
 10
-140
 20
-490
 30
0.0
 40
3
  0
CIRCLE
  8
QUOTE
 10
360
 20
-490
 30
0.0
 40
3
  0
LINE
  8
QUOTE
 10
120
 20
-500
 30
0.0
 11
120
 21
-490
 31
0.0
  0
LINE
  8
QUOTE
 10
116
 20
-500
 30
0.0
 11
124
 21
-500
 31
0.0
  0
LINE
  8
QUOTE
 10
116
 20
-490
 30
0.0
 11
124
 21
-490
 31
0.0
  0
TEXT
  8
TESTO
 10
128
 20
-498
 30
0.0
 40
5
  1
h=10
  0
TEXT
  8
TESTO
 10
-250
 20
-478.29
 30
0.0
 40
6.5
  1
alfa = 4.09 gradi
  0
TEXT
  8
TESTO
 10
-250
 20
-488.29
 30
0.0
 40
4.5
  1
(entrata, anteriore)
  0
TEXT
  8
TESTO
 10
350
 20
-475.67
 30
0.0
 40
6.5
  1
beta = 4.76 gradi
  0
TEXT
  8
TESTO
 10
350
 20
-485.67
 30
0.0
 40
4.5
  1
(uscita, posteriore)
  0
TEXT
  8
TESTO
 10
-250
 20
-350
 30
0.0
 40
9
  1
LUCE DA TERRA  h = 10 cm
  0
TEXT
  8
TESTO
 10
-260
 20
-560
 30
0.0
 40
5
  1
Nota: alzando la luce gli angoli di entrata/uscita AUMENTANO (piu' favorevoli per i raccordi), ma la clearance al SAG resta governata dallo sbalzo. Vedi Relazione_Profilo_Ottimo.md.
  0
ENDSEC
  0
EOF
