  0
SECTION
  2
HEADER
  9
$ACADVER
  1
AC1009
  9
$EXTMIN
 10
-300.0
 20
-100.0
 30
0.0
  9
$EXTMAX
 10
500.0
 20
200.0
 30
0.0
  9
$LIMMIN
 10
-300.0
 20
-100.0
  9
$LIMMAX
 10
500.0
 20
200.0
  9
$LTSCALE
 40
5.0
  9
$INSUNITS
 70
5
  0
ENDSEC
  0
SECTION
  2
TABLES
  0
TABLE
  2
LTYPE
 70
2
  0
LTYPE
  2
CONTINUOUS
 70
64
  3
Solid line
 72
65
 73
0
 40
0.0
  0
LTYPE
  2
DASHED
 70
64
  3
_ _ _ _ _
 72
65
 73
2
 40
10.0
 49
6.0
 49
-4.0
  0
ENDTAB
  0
TABLE
  2
LAYER
 70
7
  0
LAYER
  2
0
 70
64
 62
7
  6
CONTINUOUS
  0
LAYER
  2
GROUND
 70
64
 62
3
  6
CONTINUOUS
  0
LAYER
  2
CARROZZERIA
 70
64
 62
2
  6
CONTINUOUS
  0
LAYER
  2
RUOTE
 70
64
 62
4
  6
CONTINUOUS
  0
LAYER
  2
ANGOLI
 70
64
 62
1
  6
DASHED
  0
LAYER
  2
QUOTE
 70
64
 62
5
  6
CONTINUOUS
  0
LAYER
  2
TESTO
 70
64
 62
7
  6
CONTINUOUS
  0
ENDTAB
  0
TABLE
  2
STYLE
 70
1
  0
STYLE
  2
STANDARD
 70
0
 40
0.0
 41
1.0
 50
0.0
 71
0
 42
2.5
  3
txt
  4

  0
ENDTAB
  0
ENDSEC
  0
SECTION
  2
ENTITIES
  0
LINE
  8
GROUND
 10
-300.0
 20
0.0
 30
0.0
 11
500.0
 21
0.0
 31
0.0
  0
CIRCLE
  8
RUOTE
 10
0.0
 20
35.0
 30
0.0
 40
35.0
  0
CIRCLE
  8
RUOTE
 10
240.0
 20
35.0
 30
0.0
 40
35.0
  0
LINE
  8
CARROZZERIA
 10
-5.0
 20
35.0
 30
0.0
 11
5.0
 21
35.0
 31
0.0
  0
LINE
  8
CARROZZERIA
 10
0.0
 20
30.0
 30
0.0
 11
0.0
 21
40.0
 31
0.0
  0
LINE
  8
CARROZZERIA
 10
235.0
 20
35.0
 30
0.0
 11
245.0
 21
35.0
 31
0.0
  0
LINE
  8
CARROZZERIA
 10
240.0
 20
30.0
 30
0.0
 11
240.0
 21
40.0
 31
0.0
  0
LINE
  8
CARROZZERIA
 10
-140.0
 20
8.0
 30
0.0
 11
-34.7
 21
8.0
 31
0.0
  0
ARC
  8
CARROZZERIA
 10
0.0
 20
35.0
 30
0.0
 40
44.0
 50
322.1
 51
217.9
  0
LINE
  8
CARROZZERIA
 10
34.7
 20
8.0
 30
0.0
 11
205.3
 21
8.0
 31
0.0
  0
ARC
  8
CARROZZERIA
 10
240.0
 20
35.0
 30
0.0
 40
44.0
 50
322.1
 51
217.9
  0
LINE
  8
CARROZZERIA
 10
274.7
 20
8.0
 30
0.0
 11
360.0
 21
8.0
 31
0.0
  0
LINE
  8
CARROZZERIA
 10
-140.0
 20
8.0
 30
0.0
 11
-140.0
 21
35.0
 31
0.0
  0
LINE
  8
CARROZZERIA
 10
-140.0
 20
35.0
 30
0.0
 11
-128.0
 21
52.0
 31
0.0
  0
LINE
  8
CARROZZERIA
 10
-128.0
 20
52.0
 30
0.0
 11
-112.0
 21
62.0
 31
0.0
  0
LINE
  8
CARROZZERIA
 10
-112.0
 20
62.0
 30
0.0
 11
-75.0
 21
72.0
 31
0.0
  0
LINE
  8
CARROZZERIA
 10
-75.0
 20
72.0
 30
0.0
 11
-25.0
 21
80.0
 31
0.0
  0
LINE
  8
CARROZZERIA
 10
-25.0
 20
80.0
 30
0.0
 11
5.0
 21
83.0
 31
0.0
  0
LINE
  8
CARROZZERIA
 10
5.0
 20
83.0
 30
0.0
 11
38.0
 21
128.0
 31
0.0
  0
LINE
  8
CARROZZERIA
 10
38.0
 20
128.0
 30
0.0
 11
165.0
 21
128.0
 31
0.0
  0
LINE
  8
CARROZZERIA
 10
165.0
 20
128.0
 30
0.0
 11
210.0
 21
103.0
 31
0.0
  0
LINE
  8
CARROZZERIA
 10
210.0
 20
103.0
 30
0.0
 11
270.0
 21
101.0
 31
0.0
  0
LINE
  8
CARROZZERIA
 10
270.0
 20
101.0
 30
0.0
 11
320.0
 21
78.0
 31
0.0
  0
LINE
  8
CARROZZERIA
 10
320.0
 20
78.0
 30
0.0
 11
360.0
 21
52.0
 31
0.0
  0
LINE
  8
CARROZZERIA
 10
360.0
 20
52.0
 30
0.0
 11
360.0
 21
8.0
 31
0.0
  0
LINE
  8
CARROZZERIA
 10
257.0
 20
101.0
 30
0.0
 11
257.0
 21
148.0
 31
0.0
  0
LINE
  8
CARROZZERIA
 10
278.0
 20
101.0
 30
0.0
 11
278.0
 21
148.0
 31
0.0
  0
LINE
  8
CARROZZERIA
 10
233.0
 20
150.0
 30
0.0
 11
303.0
 21
150.0
 31
0.0
  0
LINE
  8
CARROZZERIA
 10
233.0
 20
146.0
 30
0.0
 11
303.0
 21
146.0
 31
0.0
  0
LINE
  8
CARROZZERIA
 10
233.0
 20
146.0
 30
0.0
 11
233.0
 21
150.0
 31
0.0
  0
LINE
  8
CARROZZERIA
 10
303.0
 20
146.0
 30
0.0
 11
303.0
 21
150.0
 31
0.0
  0
LINE
  8
ANGOLI
 10
0.0
 20
0.0
 30
0.0
 11
-200.0
 21
11.43
 31
0.0
  0
LINE
  8
ANGOLI
 10
240.0
 20
0.0
 30
0.0
 11
440.0
 21
13.33
 31
0.0
  0
ARC
  8
QUOTE
 10
0.0
 20
0.0
 30
0.0
 40
60.0
 50
176.73
 51
180.0
  0
ARC
  8
QUOTE
 10
240.0
 20
0.0
 30
0.0
 40
60.0
 50
0.0
 51
3.81
  0
LINE
  8
QUOTE
 10
100.0
 20
0.0
 30
0.0
 11
100.0
 21
8.0
 31
0.0
  0
LINE
  8
QUOTE
 10
96.0
 20
0.0
 30
0.0
 11
104.0
 21
0.0
 31
0.0
  0
LINE
  8
QUOTE
 10
96.0
 20
8.0
 30
0.0
 11
104.0
 21
8.0
 31
0.0
  0
LINE
  8
QUOTE
 10
100.0
 20
0.0
 30
0.0
 11
98.5
 21
2.0
 31
0.0
  0
LINE
  8
QUOTE
 10
100.0
 20
0.0
 30
0.0
 11
101.5
 21
2.0
 31
0.0
  0
LINE
  8
QUOTE
 10
100.0
 20
8.0
 30
0.0
 11
98.5
 21
6.0
 31
0.0
  0
LINE
  8
QUOTE
 10
100.0
 20
8.0
 30
0.0
 11
101.5
 21
6.0
 31
0.0
  0
LINE
  8
QUOTE
 10
0.0
 20
-48.0
 30
0.0
 11
240.0
 21
-48.0
 31
0.0
  0
LINE
  8
QUOTE
 10
-140.0
 20
-33.0
 30
0.0
 11
0.0
 21
-33.0
 31
0.0
  0
LINE
  8
QUOTE
 10
240.0
 20
-33.0
 30
0.0
 11
360.0
 21
-33.0
 31
0.0
  0
LINE
  8
QUOTE
 10
-140.0
 20
-63.0
 30
0.0
 11
360.0
 21
-63.0
 31
0.0
  0
LINE
  8
QUOTE
 10
-140.0
 20
0.0
 30
0.0
 11
-140.0
 21
-67.0
 31
0.0
  0
LINE
  8
QUOTE
 10
0.0
 20
0.0
 30
0.0
 11
0.0
 21
-52.0
 31
0.0
  0
LINE
  8
QUOTE
 10
240.0
 20
0.0
 30
0.0
 11
240.0
 21
-52.0
 31
0.0
  0
LINE
  8
QUOTE
 10
360.0
 20
0.0
 30
0.0
 11
360.0
 21
-67.0
 31
0.0
  0
LINE
  8
QUOTE
 10
0.0
 20
-48.0
 30
0.0
 11
3.0
 21
-46.0
 31
0.0
  0
LINE
  8
QUOTE
 10
0.0
 20
-48.0
 30
0.0
 11
3.0
 21
-50.0
 31
0.0
  0
LINE
  8
QUOTE
 10
240.0
 20
-48.0
 30
0.0
 11
237.0
 21
-46.0
 31
0.0
  0
LINE
  8
QUOTE
 10
240.0
 20
-48.0
 30
0.0
 11
237.0
 21
-50.0
 31
0.0
  0
LINE
  8
QUOTE
 10
-140.0
 20
-33.0
 30
0.0
 11
-137.0
 21
-31.0
 31
0.0
  0
LINE
  8
QUOTE
 10
-140.0
 20
-33.0
 30
0.0
 11
-137.0
 21
-35.0
 31
0.0
  0
LINE
  8
QUOTE
 10
0.0
 20
-33.0
 30
0.0
 11
-3.0
 21
-31.0
 31
0.0
  0
LINE
  8
QUOTE
 10
0.0
 20
-33.0
 30
0.0
 11
-3.0
 21
-35.0
 31
0.0
  0
LINE
  8
QUOTE
 10
240.0
 20
-33.0
 30
0.0
 11
243.0
 21
-31.0
 31
0.0
  0
LINE
  8
QUOTE
 10
240.0
 20
-33.0
 30
0.0
 11
243.0
 21
-35.0
 31
0.0
  0
LINE
  8
QUOTE
 10
360.0
 20
-33.0
 30
0.0
 11
357.0
 21
-31.0
 31
0.0
  0
LINE
  8
QUOTE
 10
360.0
 20
-33.0
 30
0.0
 11
357.0
 21
-35.0
 31
0.0
  0
LINE
  8
QUOTE
 10
-140.0
 20
-63.0
 30
0.0
 11
-137.0
 21
-61.0
 31
0.0
  0
LINE
  8
QUOTE
 10
-140.0
 20
-63.0
 30
0.0
 11
-137.0
 21
-65.0
 31
0.0
  0
LINE
  8
QUOTE
 10
360.0
 20
-63.0
 30
0.0
 11
357.0
 21
-61.0
 31
0.0
  0
LINE
  8
QUOTE
 10
360.0
 20
-63.0
 30
0.0
 11
357.0
 21
-65.0
 31
0.0
  0
TEXT
  8
TESTO
 10
-175.0
 20
15.0
 30
0.0
 40
7.0
  1
alfa = 3.27 gradi
  0
TEXT
  8
TESTO
 10
-175.0
 20
5.0
 30
0.0
 40
5.0
  1
(ang. attacco ant.)
  0
TEXT
  8
TESTO
 10
263.0
 20
15.0
 30
0.0
 40
7.0
  1
beta = 3.81 gradi
  0
TEXT
  8
TESTO
 10
263.0
 20
5.0
 30
0.0
 40
5.0
  1
(ang. attacco post.)
  0
TEXT
  8
TESTO
 10
107.0
 20
2.5
 30
0.0
 40
5.5
  1
h = 8 cm
  0
TEXT
  8
TESTO
 10
50.0
 20
-43.0
 30
0.0
 40
7.0
  1
PASSO = 240 cm
  0
TEXT
  8
TESTO
 10
-138.0
 20
-28.0
 30
0.0
 40
5.5
  1
SBALZO ANT. = 140 cm
  0
TEXT
  8
TESTO
 10
242.0
 20
-28.0
 30
0.0
 40
5.5
  1
SBALZO POST. = 120 cm
  0
TEXT
  8
TESTO
 10
-60.0
 20
-58.0
 30
0.0
 40
6.5
  1
LUNGHEZZA TOTALE = 500 cm
  0
TEXT
  8
TESTO
 10
-60.0
 20
165.0
 30
0.0
 40
10.0
  1
SCHEMATIZZAZIONE VETTURA - VISTA LATERALE
  0
TEXT
  8
TESTO
 10
-60.0
 20
-85.0
 30
0.0
 40
5.0
  1
Quote in cm. Raggio ruota R=35cm (275/35 ZR20). Silhouette Porsche 992 GT3 RS.
  0
ENDSEC
  0
EOF
