<?xml version="1.0" encoding="UTF-8"?>
<svg xmlns="http://www.w3.org/2000/svg" viewBox="0 0 860 1080" width="860" height="1080" style="background:#fff">
  <!-- Schematizzazione_Vettura — generato da dxf_to_svg.js -->
  <text x="60.00" y="40.00" font-size="11" fill="#111111" font-family="Arial,sans-serif" dominant-baseline="text-after-edge">SCHEMATIZZAZIONE VETTURA - ANGOLI DI ENTRATA/USCITA PER LUCE DA TERRA h = 8 / 9 / 10 cm</text>
  <text x="60.00" y="60.00" font-size="5.5" fill="#111111" font-family="Arial,sans-serif" dominant-baseline="text-after-edge">Porsche 992 GT3 RS. Passo 240 cm, sbalzo ant. 140 cm, sbalzo post. 120 cm, R ruota 35 cm. Quote in cm, angoli in gradi.</text>
  <text x="60.00" y="74.00" font-size="5.5" fill="#111111" font-family="Arial,sans-serif" dominant-baseline="text-after-edge">alfa (entrata) = arctan(h / sbalzo ant.) ; beta (uscita) = arctan(h / sbalzo post.) - misurati dal contatto ruota a terra al paraurti.</text>
  <text x="570.00" y="40.00" font-size="6" fill="#111111" font-family="Arial,sans-serif" dominant-baseline="text-after-edge">h [cm]   alfa(ant)   beta(post)</text>
  <text x="570.00" y="52.00" font-size="6" fill="#111111" font-family="Arial,sans-serif" dominant-baseline="text-after-edge">8        3.27        3.81</text>
  <text x="570.00" y="64.00" font-size="6" fill="#111111" font-family="Arial,sans-serif" dominant-baseline="text-after-edge">9        3.68        4.29</text>
  <text x="570.00" y="76.00" font-size="6" fill="#111111" font-family="Arial,sans-serif" dominant-baseline="text-after-edge">10        4.09        4.76</text>
  <line x1="60.00" y1="360.00" x2="800.00" y2="360.00" stroke="#007700" stroke-width="2"/>
  <circle cx="320.00" cy="325.00" r="35.00" fill="none" stroke="#006699" stroke-width="1.5"/>
  <line x1="315.00" y1="325.00" x2="325.00" y2="325.00" stroke="#006699" stroke-width="1.5"/>
  <line x1="320.00" y1="330.00" x2="320.00" y2="320.00" stroke="#006699" stroke-width="1.5"/>
  <circle cx="560.00" cy="325.00" r="35.00" fill="none" stroke="#006699" stroke-width="1.5"/>
  <line x1="555.00" y1="325.00" x2="565.00" y2="325.00" stroke="#006699" stroke-width="1.5"/>
  <line x1="560.00" y1="330.00" x2="560.00" y2="320.00" stroke="#006699" stroke-width="1.5"/>
  <line x1="180.00" y1="352.00" x2="285.30" y2="352.00" stroke="#997700" stroke-width="2"/>
  <line x1="354.70" y1="352.00" x2="525.30" y2="352.00" stroke="#997700" stroke-width="2"/>
  <line x1="594.70" y1="352.00" x2="680.00" y2="352.00" stroke="#997700" stroke-width="2"/>
  <line x1="180.00" y1="352.00" x2="180.00" y2="325.00" stroke="#997700" stroke-width="2"/>
  <line x1="180.00" y1="325.00" x2="192.00" y2="308.00" stroke="#997700" stroke-width="2"/>
  <line x1="192.00" y1="308.00" x2="208.00" y2="298.00" stroke="#997700" stroke-width="2"/>
  <line x1="208.00" y1="298.00" x2="245.00" y2="288.00" stroke="#997700" stroke-width="2"/>
  <line x1="245.00" y1="288.00" x2="295.00" y2="280.00" stroke="#997700" stroke-width="2"/>
  <line x1="295.00" y1="280.00" x2="325.00" y2="277.00" stroke="#997700" stroke-width="2"/>
  <line x1="325.00" y1="277.00" x2="358.00" y2="232.00" stroke="#997700" stroke-width="2"/>
  <line x1="358.00" y1="232.00" x2="485.00" y2="232.00" stroke="#997700" stroke-width="2"/>
  <line x1="485.00" y1="232.00" x2="530.00" y2="257.00" stroke="#997700" stroke-width="2"/>
  <line x1="530.00" y1="257.00" x2="590.00" y2="259.00" stroke="#997700" stroke-width="2"/>
  <line x1="590.00" y1="259.00" x2="640.00" y2="282.00" stroke="#997700" stroke-width="2"/>
  <line x1="640.00" y1="282.00" x2="680.00" y2="308.00" stroke="#997700" stroke-width="2"/>
  <line x1="680.00" y1="308.00" x2="680.00" y2="352.00" stroke="#997700" stroke-width="2"/>
  <line x1="577.00" y1="259.00" x2="577.00" y2="212.00" stroke="#997700" stroke-width="2"/>
  <line x1="598.00" y1="259.00" x2="598.00" y2="212.00" stroke="#997700" stroke-width="2"/>
  <line x1="553.00" y1="210.00" x2="623.00" y2="210.00" stroke="#997700" stroke-width="2"/>
  <line x1="553.00" y1="214.00" x2="623.00" y2="214.00" stroke="#997700" stroke-width="2"/>
  <line x1="553.00" y1="214.00" x2="553.00" y2="210.00" stroke="#997700" stroke-width="2"/>
  <line x1="623.00" y1="214.00" x2="623.00" y2="210.00" stroke="#997700" stroke-width="2"/>
  <line x1="320.00" y1="360.00" x2="100.00" y2="347.43" stroke="#cc0000" stroke-width="0.8" stroke-dasharray="8 4"/>
  <line x1="560.00" y1="360.00" x2="780.00" y2="345.33" stroke="#cc0000" stroke-width="0.8" stroke-dasharray="8 4"/>
  <path d="M 250.11 356.01 A 70 70 0 0 0 250.00 360.00" fill="none" stroke="#2244bb" stroke-width="0.8"/>
  <path d="M 630.00 360.00 A 70 70 0 0 0 629.85 355.35" fill="none" stroke="#2244bb" stroke-width="0.8"/>
  <circle cx="180.00" cy="352.00" r="3.00" fill="none" stroke="#2244bb" stroke-width="0.8"/>
  <circle cx="680.00" cy="352.00" r="3.00" fill="none" stroke="#2244bb" stroke-width="0.8"/>
  <line x1="440.00" y1="360.00" x2="440.00" y2="352.00" stroke="#2244bb" stroke-width="0.8"/>
  <line x1="436.00" y1="360.00" x2="444.00" y2="360.00" stroke="#2244bb" stroke-width="0.8"/>
  <line x1="436.00" y1="352.00" x2="444.00" y2="352.00" stroke="#2244bb" stroke-width="0.8"/>
  <text x="448.00" y="359.00" font-size="5" fill="#111111" font-family="Arial,sans-serif" dominant-baseline="text-after-edge">h=8</text>
  <text x="70.00" y="341.43" font-size="6.5" fill="#111111" font-family="Arial,sans-serif" dominant-baseline="text-after-edge">alfa = 3.27 gradi</text>
  <text x="70.00" y="351.43" font-size="4.5" fill="#111111" font-family="Arial,sans-serif" dominant-baseline="text-after-edge">(entrata, anteriore)</text>
  <text x="670.00" y="339.33" font-size="6.5" fill="#111111" font-family="Arial,sans-serif" dominant-baseline="text-after-edge">beta = 3.81 gradi</text>
  <text x="670.00" y="349.33" font-size="4.5" fill="#111111" font-family="Arial,sans-serif" dominant-baseline="text-after-edge">(uscita, posteriore)</text>
  <text x="70.00" y="210.00" font-size="9" fill="#111111" font-family="Arial,sans-serif" dominant-baseline="text-after-edge">LUCE DA TERRA  h = 8 cm</text>
  <line x1="60.00" y1="610.00" x2="800.00" y2="610.00" stroke="#007700" stroke-width="2"/>
  <circle cx="320.00" cy="575.00" r="35.00" fill="none" stroke="#006699" stroke-width="1.5"/>
  <line x1="315.00" y1="575.00" x2="325.00" y2="575.00" stroke="#006699" stroke-width="1.5"/>
  <line x1="320.00" y1="580.00" x2="320.00" y2="570.00" stroke="#006699" stroke-width="1.5"/>
  <circle cx="560.00" cy="575.00" r="35.00" fill="none" stroke="#006699" stroke-width="1.5"/>
  <line x1="555.00" y1="575.00" x2="565.00" y2="575.00" stroke="#006699" stroke-width="1.5"/>
  <line x1="560.00" y1="580.00" x2="560.00" y2="570.00" stroke="#006699" stroke-width="1.5"/>
  <line x1="180.00" y1="601.00" x2="285.30" y2="601.00" stroke="#997700" stroke-width="2"/>
  <line x1="354.70" y1="601.00" x2="525.30" y2="601.00" stroke="#997700" stroke-width="2"/>
  <line x1="594.70" y1="601.00" x2="680.00" y2="601.00" stroke="#997700" stroke-width="2"/>
  <line x1="180.00" y1="601.00" x2="180.00" y2="574.00" stroke="#997700" stroke-width="2"/>
  <line x1="180.00" y1="574.00" x2="192.00" y2="557.00" stroke="#997700" stroke-width="2"/>
  <line x1="192.00" y1="557.00" x2="208.00" y2="547.00" stroke="#997700" stroke-width="2"/>
  <line x1="208.00" y1="547.00" x2="245.00" y2="537.00" stroke="#997700" stroke-width="2"/>
  <line x1="245.00" y1="537.00" x2="295.00" y2="529.00" stroke="#997700" stroke-width="2"/>
  <line x1="295.00" y1="529.00" x2="325.00" y2="526.00" stroke="#997700" stroke-width="2"/>
  <line x1="325.00" y1="526.00" x2="358.00" y2="481.00" stroke="#997700" stroke-width="2"/>
  <line x1="358.00" y1="481.00" x2="485.00" y2="481.00" stroke="#997700" stroke-width="2"/>
  <line x1="485.00" y1="481.00" x2="530.00" y2="506.00" stroke="#997700" stroke-width="2"/>
  <line x1="530.00" y1="506.00" x2="590.00" y2="508.00" stroke="#997700" stroke-width="2"/>
  <line x1="590.00" y1="508.00" x2="640.00" y2="531.00" stroke="#997700" stroke-width="2"/>
  <line x1="640.00" y1="531.00" x2="680.00" y2="557.00" stroke="#997700" stroke-width="2"/>
  <line x1="680.00" y1="557.00" x2="680.00" y2="601.00" stroke="#997700" stroke-width="2"/>
  <line x1="577.00" y1="508.00" x2="577.00" y2="461.00" stroke="#997700" stroke-width="2"/>
  <line x1="598.00" y1="508.00" x2="598.00" y2="461.00" stroke="#997700" stroke-width="2"/>
  <line x1="553.00" y1="459.00" x2="623.00" y2="459.00" stroke="#997700" stroke-width="2"/>
  <line x1="553.00" y1="463.00" x2="623.00" y2="463.00" stroke="#997700" stroke-width="2"/>
  <line x1="553.00" y1="463.00" x2="553.00" y2="459.00" stroke="#997700" stroke-width="2"/>
  <line x1="623.00" y1="463.00" x2="623.00" y2="459.00" stroke="#997700" stroke-width="2"/>
  <line x1="320.00" y1="610.00" x2="100.00" y2="595.86" stroke="#cc0000" stroke-width="0.8" stroke-dasharray="8 4"/>
  <line x1="560.00" y1="610.00" x2="780.00" y2="593.50" stroke="#cc0000" stroke-width="0.8" stroke-dasharray="8 4"/>
  <path d="M 250.14 605.51 A 70 70 0 0 0 250.00 610.00" fill="none" stroke="#2244bb" stroke-width="0.8"/>
  <path d="M 630.00 610.00 A 70 70 0 0 0 629.80 604.76" fill="none" stroke="#2244bb" stroke-width="0.8"/>
  <circle cx="180.00" cy="601.00" r="3.00" fill="none" stroke="#2244bb" stroke-width="0.8"/>
  <circle cx="680.00" cy="601.00" r="3.00" fill="none" stroke="#2244bb" stroke-width="0.8"/>
  <line x1="440.00" y1="610.00" x2="440.00" y2="601.00" stroke="#2244bb" stroke-width="0.8"/>
  <line x1="436.00" y1="610.00" x2="444.00" y2="610.00" stroke="#2244bb" stroke-width="0.8"/>
  <line x1="436.00" y1="601.00" x2="444.00" y2="601.00" stroke="#2244bb" stroke-width="0.8"/>
  <text x="448.00" y="608.50" font-size="5" fill="#111111" font-family="Arial,sans-serif" dominant-baseline="text-after-edge">h=9</text>
  <text x="70.00" y="589.86" font-size="6.5" fill="#111111" font-family="Arial,sans-serif" dominant-baseline="text-after-edge">alfa = 3.68 gradi</text>
  <text x="70.00" y="599.86" font-size="4.5" fill="#111111" font-family="Arial,sans-serif" dominant-baseline="text-after-edge">(entrata, anteriore)</text>
  <text x="670.00" y="587.50" font-size="6.5" fill="#111111" font-family="Arial,sans-serif" dominant-baseline="text-after-edge">beta = 4.29 gradi</text>
  <text x="670.00" y="597.50" font-size="4.5" fill="#111111" font-family="Arial,sans-serif" dominant-baseline="text-after-edge">(uscita, posteriore)</text>
  <text x="70.00" y="460.00" font-size="9" fill="#111111" font-family="Arial,sans-serif" dominant-baseline="text-after-edge">LUCE DA TERRA  h = 9 cm</text>
  <line x1="60.00" y1="860.00" x2="800.00" y2="860.00" stroke="#007700" stroke-width="2"/>
  <circle cx="320.00" cy="825.00" r="35.00" fill="none" stroke="#006699" stroke-width="1.5"/>
  <line x1="315.00" y1="825.00" x2="325.00" y2="825.00" stroke="#006699" stroke-width="1.5"/>
  <line x1="320.00" y1="830.00" x2="320.00" y2="820.00" stroke="#006699" stroke-width="1.5"/>
  <circle cx="560.00" cy="825.00" r="35.00" fill="none" stroke="#006699" stroke-width="1.5"/>
  <line x1="555.00" y1="825.00" x2="565.00" y2="825.00" stroke="#006699" stroke-width="1.5"/>
  <line x1="560.00" y1="830.00" x2="560.00" y2="820.00" stroke="#006699" stroke-width="1.5"/>
  <line x1="180.00" y1="850.00" x2="285.30" y2="850.00" stroke="#997700" stroke-width="2"/>
  <line x1="354.70" y1="850.00" x2="525.30" y2="850.00" stroke="#997700" stroke-width="2"/>
  <line x1="594.70" y1="850.00" x2="680.00" y2="850.00" stroke="#997700" stroke-width="2"/>
  <line x1="180.00" y1="850.00" x2="180.00" y2="823.00" stroke="#997700" stroke-width="2"/>
  <line x1="180.00" y1="823.00" x2="192.00" y2="806.00" stroke="#997700" stroke-width="2"/>
  <line x1="192.00" y1="806.00" x2="208.00" y2="796.00" stroke="#997700" stroke-width="2"/>
  <line x1="208.00" y1="796.00" x2="245.00" y2="786.00" stroke="#997700" stroke-width="2"/>
  <line x1="245.00" y1="786.00" x2="295.00" y2="778.00" stroke="#997700" stroke-width="2"/>
  <line x1="295.00" y1="778.00" x2="325.00" y2="775.00" stroke="#997700" stroke-width="2"/>
  <line x1="325.00" y1="775.00" x2="358.00" y2="730.00" stroke="#997700" stroke-width="2"/>
  <line x1="358.00" y1="730.00" x2="485.00" y2="730.00" stroke="#997700" stroke-width="2"/>
  <line x1="485.00" y1="730.00" x2="530.00" y2="755.00" stroke="#997700" stroke-width="2"/>
  <line x1="530.00" y1="755.00" x2="590.00" y2="757.00" stroke="#997700" stroke-width="2"/>
  <line x1="590.00" y1="757.00" x2="640.00" y2="780.00" stroke="#997700" stroke-width="2"/>
  <line x1="640.00" y1="780.00" x2="680.00" y2="806.00" stroke="#997700" stroke-width="2"/>
  <line x1="680.00" y1="806.00" x2="680.00" y2="850.00" stroke="#997700" stroke-width="2"/>
  <line x1="577.00" y1="757.00" x2="577.00" y2="710.00" stroke="#997700" stroke-width="2"/>
  <line x1="598.00" y1="757.00" x2="598.00" y2="710.00" stroke="#997700" stroke-width="2"/>
  <line x1="553.00" y1="708.00" x2="623.00" y2="708.00" stroke="#997700" stroke-width="2"/>
  <line x1="553.00" y1="712.00" x2="623.00" y2="712.00" stroke="#997700" stroke-width="2"/>
  <line x1="553.00" y1="712.00" x2="553.00" y2="708.00" stroke="#997700" stroke-width="2"/>
  <line x1="623.00" y1="712.00" x2="623.00" y2="708.00" stroke="#997700" stroke-width="2"/>
  <line x1="320.00" y1="860.00" x2="100.00" y2="844.29" stroke="#cc0000" stroke-width="0.8" stroke-dasharray="8 4"/>
  <line x1="560.00" y1="860.00" x2="780.00" y2="841.67" stroke="#cc0000" stroke-width="0.8" stroke-dasharray="8 4"/>
  <path d="M 250.18 855.01 A 70 70 0 0 0 250.00 860.00" fill="none" stroke="#2244bb" stroke-width="0.8"/>
  <path d="M 630.00 860.00 A 70 70 0 0 0 629.76 854.19" fill="none" stroke="#2244bb" stroke-width="0.8"/>
  <circle cx="180.00" cy="850.00" r="3.00" fill="none" stroke="#2244bb" stroke-width="0.8"/>
  <circle cx="680.00" cy="850.00" r="3.00" fill="none" stroke="#2244bb" stroke-width="0.8"/>
  <line x1="440.00" y1="860.00" x2="440.00" y2="850.00" stroke="#2244bb" stroke-width="0.8"/>
  <line x1="436.00" y1="860.00" x2="444.00" y2="860.00" stroke="#2244bb" stroke-width="0.8"/>
  <line x1="436.00" y1="850.00" x2="444.00" y2="850.00" stroke="#2244bb" stroke-width="0.8"/>
  <text x="448.00" y="858.00" font-size="5" fill="#111111" font-family="Arial,sans-serif" dominant-baseline="text-after-edge">h=10</text>
  <text x="70.00" y="838.29" font-size="6.5" fill="#111111" font-family="Arial,sans-serif" dominant-baseline="text-after-edge">alfa = 4.09 gradi</text>
  <text x="70.00" y="848.29" font-size="4.5" fill="#111111" font-family="Arial,sans-serif" dominant-baseline="text-after-edge">(entrata, anteriore)</text>
  <text x="670.00" y="835.67" font-size="6.5" fill="#111111" font-family="Arial,sans-serif" dominant-baseline="text-after-edge">beta = 4.76 gradi</text>
  <text x="670.00" y="845.67" font-size="4.5" fill="#111111" font-family="Arial,sans-serif" dominant-baseline="text-after-edge">(uscita, posteriore)</text>
  <text x="70.00" y="710.00" font-size="9" fill="#111111" font-family="Arial,sans-serif" dominant-baseline="text-after-edge">LUCE DA TERRA  h = 10 cm</text>
  <text x="60.00" y="920.00" font-size="5" fill="#111111" font-family="Arial,sans-serif" dominant-baseline="text-after-edge">Nota: alzando la luce gli angoli di entrata/uscita AUMENTANO (piu' favorevoli per i raccordi), ma la clearance al SAG resta governata dallo sbalzo. Vedi Relazione_Profilo_Ottimo.md.</text>
</svg>