  0
SECTION
  2
HEADER
  9
$ACADVER
  1
AC1009
  9
$EXTMIN
 10
-700.0
 20
-460.0
 30
0.0
  9
$EXTMAX
 10
2250.0
 20
590.0
 30
0.0
  9
$LIMMIN
 10
-700.0
 20
-460.0
  9
$LIMMAX
 10
2250.0
 20
590.0
  9
$LTSCALE
 40
10.0
  9
$INSUNITS
 70
5
  0
ENDSEC
  0
SECTION
  2
TABLES
  0
TABLE
  2
LTYPE
 70
2
  0
LTYPE
  2
CONTINUOUS
 70
64
  3
Solid line
 72
65
 73
0
 40
0.0
  0
LTYPE
  2
DASHED
 70
64
  3
_ _ _ _ _
 72
65
 73
2
 40
20.0
 49
12.0
 49
-8.0
  0
ENDTAB
  0
TABLE
  2
LAYER
 70
7
  0
LAYER
  2
0
 70
64
 62
7
  6
CONTINUOUS
  0
LAYER
  2
RAMPA
 70
64
 62
3
  6
CONTINUOUS
  0
LAYER
  2
CARROZZERIA
 70
64
 62
2
  6
CONTINUOUS
  0
LAYER
  2
RUOTE
 70
64
 62
4
  6
CONTINUOUS
  0
LAYER
  2
CRITICO
 70
64
 62
1
  6
CONTINUOUS
  0
LAYER
  2
QUOTE
 70
64
 62
5
  6
CONTINUOUS
  0
LAYER
  2
TESTO
 70
64
 62
7
  6
CONTINUOUS
  0
LAYER
  2
REF
 70
64
 62
8
  6
DASHED
  0
ENDTAB
  0
TABLE
  2
STYLE
 70
1
  0
STYLE
  2
STANDARD
 70
0
 40
0.0
 41
1.0
 50
0.0
 71
0
 42
2.5
  3
txt
  4

  0
ENDTAB
  0
ENDSEC
  0
SECTION
  2
ENTITIES
  0
TEXT
  8
TESTO
 10
-650
 20
560
 30
0.0
 40
18
  1
RAMPA GARAGE - PROFILO LONGITUDINALE (OTTIMIZZATO) - INDICAZIONI PRELIMINARI PER FASE REALIZZATIVA
  0
TEXT
  8
TESTO
 10
-650
 20
534
 30
0.0
 40
9
  1
Profilo che MASSIMIZZA la clearance a H=380 cm / L=1700 cm fissi: raccordo CREST R=950 + raccordo SAG R=3042 che si fondono; tratto retto 13 cm (praticamente assente).
  0
TEXT
  8
TESTO
 10
-650
 20
518
 30
0.0
 40
9
  1
Pendenza di PICCO 47% (25 deg). DISEGNO PRELIMINARE NON ESECUTIVO - quote in cm, angoli in gradi, da verificare in sito.
  0
LINE
  8
REF
 62
8
 10
-650
 20
506
 30
0.0
 11
2200
 21
506
 31
0.0
  0
LINE
  8
RAMPA
 10
-450
 20
380
 30
0.0
 11
0
 21
380
 31
0.0
  0
TEXT
  8
TESTO
 10
-430
 20
390
 30
0.0
 40
11
  1
STRADA (piano stradale)
  0
LINE
  8
RAMPA
 10
1700
 20
0
 30
0.0
 11
2150
 21
0
 31
0.0
  0
TEXT
  8
TESTO
 10
1870
 20
12
 30
0.0
 40
11
  1
PIANO GARAGE
  0
ARC
  8
RAMPA
 10
0
 20
-570
 30
0.0
 40
950
 50
65
 51
90
  0
LINE
  8
RAMPA
 10
401.49
 20
290.99
 30
0.0
 11
414.24
 21
285.05
 31
0.0
  0
ARC
  8
RAMPA
 10
1700
 20
3042.37
 30
0.0
 40
3042.37
 50
245
 51
270
  0
CIRCLE
  8
TESTO
 62
7
 10
0
 20
380
 30
0.0
 40
4
  0
TEXT
  8
TESTO
 62
7
 10
-30
 20
394
 30
0.0
 40
8
  1
CREST start (0, 380)
  0
CIRCLE
  8
TESTO
 62
7
 10
401.49
 20
290.99
 30
0.0
 40
4
  0
TEXT
  8
TESTO
 62
7
 10
251.49
 20
304.99
 30
0.0
 40
8
  1
giunzione (401, 291)
  0
CIRCLE
  8
TESTO
 62
7
 10
414.24
 20
285.05
 30
0.0
 40
4
  0
TEXT
  8
TESTO
 62
7
 10
422.24
 20
283.05
 30
0.0
 40
8
  1
inizio SAG (414, 285)
  0
CIRCLE
  8
TESTO
 62
7
 10
1700
 20
0
 30
0.0
 40
4
  0
TEXT
  8
TESTO
 62
7
 10
1550
 20
-16
 30
0.0
 40
8
  1
SAG end (1700, 0)
  0
CIRCLE
  8
REF
 62
8
 10
0
 20
-570
 30
0.0
 40
3
  0
TEXT
  8
RAMPA
 62
3
 10
190.82
 20
345.5
 30
0.0
 40
10
  1
CREST  R = 950 cm
  0
TEXT
  8
RAMPA
 62
3
 10
1027.12
 20
152.52
 30
0.0
 40
10
  1
SAG  R = 3042 cm
  0
LINE
  8
REF
 62
8
 10
560
 20
221.66
 30
0.0
 11
650
 21
291.66
 31
0.0
  0
TEXT
  8
RAMPA
 62
3
 10
656
 20
299.66
 30
0.0
 40
11
  1
picco 47 %
  0
TEXT
  8
RAMPA
 62
3
 10
656
 20
285.66
 30
0.0
 40
8
  1
(25 deg)
  0
LINE
  8
REF
 62
8
 10
0
 20
0
 30
0.0
 11
0
 21
-64
 31
0.0
  0
LINE
  8
REF
 62
8
 10
401.49
 20
0
 30
0.0
 11
401.49
 21
-64
 31
0.0
  0
LINE
  8
REF
 62
8
 10
414.24
 20
0
 30
0.0
 11
414.24
 21
-64
 31
0.0
  0
LINE
  8
REF
 62
8
 10
1700
 20
0
 30
0.0
 11
1700
 21
-64
 31
0.0
  0
LINE
  8
QUOTE
 62
5
 10
0
 20
-70
 30
0.0
 11
401.49
 21
-70
 31
0.0
  0
LINE
  8
QUOTE
 62
5
 10
-6
 20
-76
 30
0.0
 11
6
 21
-64
 31
0.0
  0
LINE
  8
QUOTE
 62
5
 10
395.49
 20
-76
 30
0.0
 11
407.49
 21
-64
 31
0.0
  0
TEXT
  8
QUOTE
 62
5
 10
188.74
 20
-63
 30
0.0
 40
9
  1
401
  0
TEXT
  8
QUOTE
 62
5
 10
158.74
 20
-82
 30
0.0
 40
7
  1
raccordo CREST
  0
LINE
  8
QUOTE
 62
5
 10
401.49
 20
-70
 30
0.0
 11
414.24
 21
-70
 31
0.0
  0
LINE
  8
QUOTE
 62
5
 10
408.24
 20
-76
 30
0.0
 11
420.24
 21
-64
 31
0.0
  0
LINE
  8
REF
 62
8
 10
407.86
 20
-70
 30
0.0
 11
257.86
 21
-114
 31
0.0
  0
TEXT
  8
QUOTE
 62
5
 10
107.86
 20
-120
 30
0.0
 40
8
  1
tratto retto 13 cm (praticamente assente)
  0
LINE
  8
QUOTE
 62
5
 10
414.24
 20
-70
 30
0.0
 11
1700
 21
-70
 31
0.0
  0
LINE
  8
QUOTE
 62
5
 10
1694
 20
-76
 30
0.0
 11
1706
 21
-64
 31
0.0
  0
TEXT
  8
QUOTE
 62
5
 10
1045.12
 20
-63
 30
0.0
 40
9
  1
1286
  0
TEXT
  8
QUOTE
 62
5
 10
1017.12
 20
-82
 30
0.0
 40
7
  1
raccordo SAG
  0
LINE
  8
REF
 62
8
 10
0
 20
-70
 30
0.0
 11
0
 21
-114
 31
0.0
  0
LINE
  8
REF
 62
8
 10
1700
 20
0
 30
0.0
 11
1700
 21
-114
 31
0.0
  0
LINE
  8
QUOTE
 62
5
 10
0
 20
-120
 30
0.0
 11
1700
 21
-120
 31
0.0
  0
LINE
  8
QUOTE
 62
5
 10
-6
 20
-126
 30
0.0
 11
6
 21
-114
 31
0.0
  0
LINE
  8
QUOTE
 62
5
 10
1694
 20
-126
 30
0.0
 11
1706
 21
-114
 31
0.0
  0
TEXT
  8
QUOTE
 62
5
 10
806
 20
-113
 30
0.0
 40
9
  1
L totale = 1700 cm
  0
LINE
  8
REF
 62
8
 10
0
 20
380
 30
0.0
 11
-300
 21
380
 31
0.0
  0
LINE
  8
REF
 62
8
 10
1700
 20
0
 30
0.0
 11
-300
 21
0
 31
0.0
  0
LINE
  8
QUOTE
 62
5
 10
-300
 20
0
 30
0.0
 11
-300
 21
380
 31
0.0
  0
LINE
  8
QUOTE
 62
5
 10
-306
 20
-6
 30
0.0
 11
-294
 21
6
 31
0.0
  0
LINE
  8
QUOTE
 62
5
 10
-306
 20
374
 30
0.0
 11
-294
 21
386
 31
0.0
  0
TEXT
  8
QUOTE
 62
5
 10
-292
 20
186
 30
0.0
 40
9
  1
H = 380 cm
  0
TEXT
  8
QUOTE
 62
5
 10
-360
 20
172
 30
0.0
 40
8
  1
(dislivello)
  0
LINE
  8
REF
 62
8
 10
0
 20
380
 30
0.0
 11
1880
 21
380
 31
0.0
  0
LINE
  8
REF
 62
8
 10
401.49
 20
290.99
 30
0.0
 11
1880
 21
290.99
 31
0.0
  0
LINE
  8
REF
 62
8
 10
414.24
 20
285.05
 30
0.0
 11
1880
 21
285.05
 31
0.0
  0
LINE
  8
REF
 62
8
 10
1700
 20
0
 30
0.0
 11
1880
 21
0
 31
0.0
  0
LINE
  8
QUOTE
 62
5
 10
1880
 20
290.99
 30
0.0
 11
1880
 21
380
 31
0.0
  0
LINE
  8
QUOTE
 62
5
 10
1874
 20
284.99
 30
0.0
 11
1886
 21
296.99
 31
0.0
  0
LINE
  8
QUOTE
 62
5
 10
1874
 20
374
 30
0.0
 11
1886
 21
386
 31
0.0
  0
TEXT
  8
QUOTE
 62
5
 10
1888
 20
331.5
 30
0.0
 40
9
  1
89
  0
TEXT
  8
QUOTE
 62
5
 10
1924
 20
335.5
 30
0.0
 40
7
  1
CREST
  0
LINE
  8
QUOTE
 62
5
 10
1880
 20
0
 30
0.0
 11
1880
 21
285.05
 31
0.0
  0
LINE
  8
QUOTE
 62
5
 10
1874
 20
-6
 30
0.0
 11
1886
 21
6
 31
0.0
  0
LINE
  8
QUOTE
 62
5
 10
1874
 20
279.05
 30
0.0
 11
1886
 21
291.05
 31
0.0
  0
TEXT
  8
QUOTE
 62
5
 10
1888
 20
138.52
 30
0.0
 40
9
  1
285
  0
TEXT
  8
QUOTE
 62
5
 10
1924
 20
142.52
 30
0.0
 40
7
  1
SAG
  0
TEXT
  8
QUOTE
 62
5
 10
1924
 20
284.02
 30
0.0
 40
7
  1
retto 6
  0
CIRCLE
  8
CRITICO
 62
1
 10
1300
 20
26.41
 30
0.0
 40
13
  0
TEXT
  8
CRITICO
 62
1
 10
1296.5
 20
31.41
 30
0.0
 40
12
  1
1
  0
CIRCLE
  8
CRITICO
 62
1
 10
1700
 20
0
 30
0.0
 40
13
  0
TEXT
  8
CRITICO
 62
1
 10
1696.5
 20
5
 30
0.0
 40
12
  1
2
  0
CIRCLE
  8
CRITICO
 62
1
 10
1650
 20
0.41
 30
0.0
 40
13
  0
TEXT
  8
CRITICO
 62
1
 10
1646.5
 20
5.41
 30
0.0
 40
12
  1
3
  0
CIRCLE
  8
CRITICO
 62
1
 10
520
 20
238.16
 30
0.0
 40
13
  0
TEXT
  8
CRITICO
 62
1
 10
516.5
 20
243.16
 30
0.0
 40
12
  1
4
  0
CIRCLE
  8
CRITICO
 62
1
 10
820
 20
130.05
 30
0.0
 40
13
  0
TEXT
  8
CRITICO
 62
1
 10
816.5
 20
135.05
 30
0.0
 40
12
  1
5
  0
TEXT
  8
TESTO
 62
1
 10
-650
 20
-176
 30
0.0
 40
12
  1
CRITICITA' DA RECEPIRE IN FASE REALIZZATIVA
  0
CIRCLE
  8
CRITICO
 62
1
 10
-630
 20
-207
 30
0.0
 40
11
  0
TEXT
  8
CRITICO
 62
1
 10
-633.5
 20
-202
 30
0.0
 40
10
  1
1
  0
TEXT
  8
CRITICO
 62
1
 10
-610
 20
-204
 30
0.0
 40
9
  1
TRANSITO VETTURA (governante): anche su questo profilo-LIMITE (clearance MASSIMIZZATA) il PARAURTI ANTERIORE resta a -0.80 cm a luce h=8 cm
  0
TEXT
  8
CRITICO
 62
1
 10
-610
 20
-226
 30
0.0
 40
9
  1
   (verificato a sweep continuo): la vettura estrema NON passa alla luce di progetto. Margini risicati solo aumentando la luce: +0.24 cm a h=9,
  0
TEXT
  8
CRITICO
 62
1
 10
-610
 20
-248
 30
0.0
 40
9
  1
   +1.23 cm a h=10 (ottimistici, modello a contatto puntiforme; splitter/lame reali stanno piu' in basso). Vincolo geometrico a H=380 / L=1700.
  0
CIRCLE
  8
CRITICO
 62
1
 10
-630
 20
-273
 30
0.0
 40
11
  0
TEXT
  8
CRITICO
 62
1
 10
-633.5
 20
-268
 30
0.0
 40
10
  1
2
  0
TEXT
  8
TESTO
 62
7
 10
-610
 20
-270
 30
0.0
 40
9
  1
SOGLIA GARAGE: la soglia deve essere MAX 3 cm (luce vettura 8 cm); pavimento garage ribassato ~3 cm; guaina impermeabile continua e risvoltata.
  0
CIRCLE
  8
CRITICO
 62
1
 10
-630
 20
-295
 30
0.0
 40
11
  0
TEXT
  8
CRITICO
 62
1
 10
-633.5
 20
-290
 30
0.0
 40
10
  1
3
  0
TEXT
  8
TESTO
 62
7
 10
-610
 20
-292
 30
0.0
 40
9
  1
DRENAGGIO: caditoia trasversale a fondo rampa (a monte della soglia), grata carrabile classe C250, maglia <= 20x20 mm; pozzetto + scarico dedicato.
  0
CIRCLE
  8
CRITICO
 62
1
 10
-630
 20
-317
 30
0.0
 40
11
  0
TEXT
  8
CRITICO
 62
1
 10
-633.5
 20
-312
 30
0.0
 40
10
  1
4
  0
TEXT
  8
TESTO
 62
7
 10
-610
 20
-314
 30
0.0
 40
9
  1
PENDENZA / ADERENZA: picco 47% (sconsigliato per aderenza, usura, comfort e avviamento in salita). Superficie in CLS spazzolato trasversale
  0
TEXT
  8
TESTO
 62
7
 10
-610
 20
-336
 30
0.0
 40
9
  1
   (striature ortogonali alla marcia, prof. 3-5 mm, passo 10-15 mm), coeff. attrito bagnato richiesto >= 0.50. Evitare CLS lisciato.
  0
CIRCLE
  8
CRITICO
 62
1
 10
-630
 20
-361
 30
0.0
 40
11
  0
TEXT
  8
CRITICO
 62
1
 10
-633.5
 20
-356
 30
0.0
 40
10
  1
5
  0
TEXT
  8
TESTO
 62
7
 10
-610
 20
-358
 30
0.0
 40
9
  1
ANTIGHIACCIO (consigliato): a 47% qualunque formazione di ghiaccio rende la rampa inagibile/pericolosa. Cavi scaldanti o serpentina nel massetto +
  0
TEXT
  8
TESTO
 62
7
 10
-610
 20
-380
 30
0.0
 40
9
  1
   termostato e sensore umidita'.
  0
TEXT
  8
TESTO
 62
5
 10
900
 20
-176
 30
0.0
 40
12
  1
DATI E NOTE
  0
TEXT
  8
TESTO
 62
7
 10
900
 20
-204
 30
0.0
 40
9
  1
Vettura di riferimento: Porsche 992 GT3 RS - luce da terra 8 cm, passo 240 cm, sbalzo ant. 140 / post. 120 cm.
  0
TEXT
  8
TESTO
 62
7
 10
900
 20
-224
 30
0.0
 40
9
  1
Geometria: CREST R=950 (centro 0, -570) - retto 13 cm - SAG R=3042 (centro 1700, 3042); picco 47%.
  0
TEXT
  8
CRITICO
 62
1
 10
900
 20
-244
 30
0.0
 40
9
  1
Profilo-LIMITE di fattibilita': massimizza la clearance, ma a 47% di picco NON e' un profilo di marcia confortevole (sconsigliato).
  0
TEXT
  8
CRITICO
 62
1
 10
900
 20
-264
 30
0.0
 40
9
  1
Anche al meglio la rampa resta NON percorribile a h=8: per liberare il transito servono piu' sviluppo (>1700), meno dislivello (<380) o un ausilio fisico.
  0
TEXT
  8
CRITICO
 62
1
 10
900
 20
-284
 30
0.0
 40
9
  1
Larghezza rampa: assunta 300 cm (DATO DA RILEVARE in sito - serve per verifica manovra in pianta).
  0
TEXT
  8
TESTO
 62
7
 10
900
 20
-304
 30
0.0
 40
9
  1
Sezione/solaio, planimetria di manovra e dettagli costruttivi: NON oggetto di questa tavola (preliminare di solo profilo).
  0
TEXT
  8
TESTO
 62
7
 10
900
 20
-324
 30
0.0
 40
9
  1
I raccordi sono archi di cerchio; un profilo parabolico/clotoide darebbe risultati analoghi sui transiti.
  0
ENDSEC
  0
EOF
