<?xml version="1.0" encoding="UTF-8"?>
<svg xmlns="http://www.w3.org/2000/svg" viewBox="0 0 3040 840" width="3040" height="840" style="background:#fff">
  <!-- Tavola_Profilo_Quote — generato da dxf_to_svg.js -->
  <text x="-30.00" y="120.00" font-size="18" fill="#111111" font-family="Arial,sans-serif" dominant-baseline="text-after-edge">RAMPA GARAGE - PROFILO COSTRUTTIVO - PICCHETTAZIONE QUOTE OGNI 50 cm</text>
  <text x="-30.00" y="144.00" font-size="9" fill="#111111" font-family="Arial,sans-serif" dominant-baseline="text-after-edge">Stesso profilo dell'animazione (OTTIMIZZATO: CREST R=950 + SAG R=3042, tratto retto 13 cm, picco 47%). Senza vettura.</text>
  <text x="-30.00" y="160.00" font-size="9" fill="#111111" font-family="Arial,sans-serif" dominant-baseline="text-after-edge">Altezze come LINEE DI QUOTA verticali (freccette agli estremi: apice su quota 0 e sul profilo) riferite al PIANO GARAGE (0) fino alla STRADA (380). Progressive orizzontali 0 (strada) -&gt; 1700 (garage).</text>
  <line x1="-30.00" y1="172.00" x2="2820.00" y2="172.00" stroke="#777777" stroke-width="0.8" stroke-dasharray="8 4"/>
  <line x1="170.00" y1="240.00" x2="620.00" y2="240.00" stroke="#007700" stroke-width="2"/>
  <text x="190.00" y="230.00" font-size="11" fill="#111111" font-family="Arial,sans-serif" dominant-baseline="text-after-edge">STRADA  (q. 380)</text>
  <line x1="2320.00" y1="620.00" x2="2770.00" y2="620.00" stroke="#007700" stroke-width="2"/>
  <text x="2500.00" y="608.00" font-size="11" fill="#111111" font-family="Arial,sans-serif" dominant-baseline="text-after-edge">GARAGE  (q. 0)</text>
  <path d="M 1021.49 329.01 A 950 950 0 0 0 620.00 240.00" fill="none" stroke="#007700" stroke-width="2"/>
  <line x1="1021.49" y1="329.01" x2="1034.24" y2="334.95" stroke="#007700" stroke-width="2"/>
  <path d="M 1034.24 334.95 A 3042.37 3042.37 0 0 0 2320.00 620.00" fill="none" stroke="#007700" stroke-width="2"/>
  <circle cx="620.00" cy="240.00" r="4.00" fill="none" stroke="#cc0000" stroke-width="1.5"/>
  <text x="634.00" y="238.00" font-size="9" fill="#cc0000" font-family="Arial,sans-serif" dominant-baseline="text-after-edge">quota MAX 380 cm (innesto strada)</text>
  <circle cx="2320.00" cy="620.00" r="4.00" fill="none" stroke="#cc0000" stroke-width="1.5"/>
  <text x="1850.00" y="634.00" font-size="9" fill="#cc0000" font-family="Arial,sans-serif" dominant-baseline="text-after-edge">quota MIN 0 cm (fondo garage)</text>
  <line x1="520.00" y1="620.00" x2="2420.00" y2="620.00" stroke="#777777" stroke-width="0.8" stroke-dasharray="8 4"/>
  <line x1="620.00" y1="675.00" x2="2320.00" y2="675.00" stroke="#2244bb" stroke-width="0.8"/>
  <text x="320.00" y="708.00" font-size="9" fill="#2244bb" font-family="Arial,sans-serif" dominant-baseline="text-after-edge">PROGR. (cm):</text>
  <line x1="620.00" y1="620.00" x2="620.00" y2="240.00" stroke="#2244bb" stroke-width="0.8"/>
  <line x1="620.00" y1="620.00" x2="616.64" y2="612.00" stroke="#2244bb" stroke-width="0.8"/>
  <line x1="620.00" y1="620.00" x2="623.36" y2="612.00" stroke="#2244bb" stroke-width="0.8"/>
  <line x1="620.00" y1="240.00" x2="616.64" y2="248.00" stroke="#2244bb" stroke-width="0.8"/>
  <line x1="620.00" y1="240.00" x2="623.36" y2="248.00" stroke="#2244bb" stroke-width="0.8"/>
  <text x="625.00" y="442.00" font-size="8" fill="#2244bb" font-family="Arial,sans-serif" dominant-baseline="text-after-edge" transform="rotate(-90.0,625.00,442.00)">380.0</text>
  <line x1="620.00" y1="675.00" x2="620.00" y2="680.00" stroke="#2244bb" stroke-width="0.8"/>
  <text x="623.00" y="710.00" font-size="8" fill="#111111" font-family="Arial,sans-serif" dominant-baseline="text-after-edge" transform="rotate(-90.0,623.00,710.00)">0</text>
  <line x1="670.00" y1="620.00" x2="670.00" y2="241.32" stroke="#2244bb" stroke-width="0.8"/>
  <line x1="670.00" y1="620.00" x2="666.64" y2="612.00" stroke="#2244bb" stroke-width="0.8"/>
  <line x1="670.00" y1="620.00" x2="673.36" y2="612.00" stroke="#2244bb" stroke-width="0.8"/>
  <line x1="670.00" y1="241.32" x2="666.64" y2="249.32" stroke="#2244bb" stroke-width="0.8"/>
  <line x1="670.00" y1="241.32" x2="673.36" y2="249.32" stroke="#2244bb" stroke-width="0.8"/>
  <text x="675.00" y="442.66" font-size="8" fill="#2244bb" font-family="Arial,sans-serif" dominant-baseline="text-after-edge" transform="rotate(-90.0,675.00,442.66)">378.7</text>
  <line x1="670.00" y1="675.00" x2="670.00" y2="680.00" stroke="#2244bb" stroke-width="0.8"/>
  <text x="673.00" y="710.00" font-size="8" fill="#111111" font-family="Arial,sans-serif" dominant-baseline="text-after-edge" transform="rotate(-90.0,673.00,710.00)">50</text>
  <line x1="720.00" y1="620.00" x2="720.00" y2="245.28" stroke="#2244bb" stroke-width="0.8"/>
  <line x1="720.00" y1="620.00" x2="716.64" y2="612.00" stroke="#2244bb" stroke-width="0.8"/>
  <line x1="720.00" y1="620.00" x2="723.36" y2="612.00" stroke="#2244bb" stroke-width="0.8"/>
  <line x1="720.00" y1="245.28" x2="716.64" y2="253.28" stroke="#2244bb" stroke-width="0.8"/>
  <line x1="720.00" y1="245.28" x2="723.36" y2="253.28" stroke="#2244bb" stroke-width="0.8"/>
  <text x="725.00" y="444.64" font-size="8" fill="#2244bb" font-family="Arial,sans-serif" dominant-baseline="text-after-edge" transform="rotate(-90.0,725.00,444.64)">374.7</text>
  <line x1="720.00" y1="675.00" x2="720.00" y2="680.00" stroke="#2244bb" stroke-width="0.8"/>
  <text x="723.00" y="710.00" font-size="8" fill="#111111" font-family="Arial,sans-serif" dominant-baseline="text-after-edge" transform="rotate(-90.0,723.00,710.00)">100</text>
  <line x1="770.00" y1="620.00" x2="770.00" y2="251.92" stroke="#2244bb" stroke-width="0.8"/>
  <line x1="770.00" y1="620.00" x2="766.64" y2="612.00" stroke="#2244bb" stroke-width="0.8"/>
  <line x1="770.00" y1="620.00" x2="773.36" y2="612.00" stroke="#2244bb" stroke-width="0.8"/>
  <line x1="770.00" y1="251.92" x2="766.64" y2="259.92" stroke="#2244bb" stroke-width="0.8"/>
  <line x1="770.00" y1="251.92" x2="773.36" y2="259.92" stroke="#2244bb" stroke-width="0.8"/>
  <text x="775.00" y="447.96" font-size="8" fill="#2244bb" font-family="Arial,sans-serif" dominant-baseline="text-after-edge" transform="rotate(-90.0,775.00,447.96)">368.1</text>
  <line x1="770.00" y1="675.00" x2="770.00" y2="680.00" stroke="#2244bb" stroke-width="0.8"/>
  <text x="773.00" y="710.00" font-size="8" fill="#111111" font-family="Arial,sans-serif" dominant-baseline="text-after-edge" transform="rotate(-90.0,773.00,710.00)">150</text>
  <line x1="820.00" y1="620.00" x2="820.00" y2="261.29" stroke="#2244bb" stroke-width="0.8"/>
  <line x1="820.00" y1="620.00" x2="816.64" y2="612.00" stroke="#2244bb" stroke-width="0.8"/>
  <line x1="820.00" y1="620.00" x2="823.36" y2="612.00" stroke="#2244bb" stroke-width="0.8"/>
  <line x1="820.00" y1="261.29" x2="816.64" y2="269.29" stroke="#2244bb" stroke-width="0.8"/>
  <line x1="820.00" y1="261.29" x2="823.36" y2="269.29" stroke="#2244bb" stroke-width="0.8"/>
  <text x="825.00" y="452.65" font-size="8" fill="#2244bb" font-family="Arial,sans-serif" dominant-baseline="text-after-edge" transform="rotate(-90.0,825.00,452.65)">358.7</text>
  <line x1="820.00" y1="675.00" x2="820.00" y2="680.00" stroke="#2244bb" stroke-width="0.8"/>
  <text x="823.00" y="710.00" font-size="8" fill="#111111" font-family="Arial,sans-serif" dominant-baseline="text-after-edge" transform="rotate(-90.0,823.00,710.00)">200</text>
  <line x1="870.00" y1="620.00" x2="870.00" y2="273.48" stroke="#2244bb" stroke-width="0.8"/>
  <line x1="870.00" y1="620.00" x2="866.64" y2="612.00" stroke="#2244bb" stroke-width="0.8"/>
  <line x1="870.00" y1="620.00" x2="873.36" y2="612.00" stroke="#2244bb" stroke-width="0.8"/>
  <line x1="870.00" y1="273.48" x2="866.64" y2="281.48" stroke="#2244bb" stroke-width="0.8"/>
  <line x1="870.00" y1="273.48" x2="873.36" y2="281.48" stroke="#2244bb" stroke-width="0.8"/>
  <text x="875.00" y="458.74" font-size="8" fill="#2244bb" font-family="Arial,sans-serif" dominant-baseline="text-after-edge" transform="rotate(-90.0,875.00,458.74)">346.5</text>
  <line x1="870.00" y1="675.00" x2="870.00" y2="680.00" stroke="#2244bb" stroke-width="0.8"/>
  <text x="873.00" y="710.00" font-size="8" fill="#111111" font-family="Arial,sans-serif" dominant-baseline="text-after-edge" transform="rotate(-90.0,873.00,710.00)">250</text>
  <line x1="920.00" y1="620.00" x2="920.00" y2="288.61" stroke="#2244bb" stroke-width="0.8"/>
  <line x1="920.00" y1="620.00" x2="916.64" y2="612.00" stroke="#2244bb" stroke-width="0.8"/>
  <line x1="920.00" y1="620.00" x2="923.36" y2="612.00" stroke="#2244bb" stroke-width="0.8"/>
  <line x1="920.00" y1="288.61" x2="916.64" y2="296.61" stroke="#2244bb" stroke-width="0.8"/>
  <line x1="920.00" y1="288.61" x2="923.36" y2="296.61" stroke="#2244bb" stroke-width="0.8"/>
  <text x="925.00" y="466.31" font-size="8" fill="#2244bb" font-family="Arial,sans-serif" dominant-baseline="text-after-edge" transform="rotate(-90.0,925.00,466.31)">331.4</text>
  <line x1="920.00" y1="675.00" x2="920.00" y2="680.00" stroke="#2244bb" stroke-width="0.8"/>
  <text x="923.00" y="710.00" font-size="8" fill="#111111" font-family="Arial,sans-serif" dominant-baseline="text-after-edge" transform="rotate(-90.0,923.00,710.00)">300</text>
  <line x1="970.00" y1="620.00" x2="970.00" y2="306.82" stroke="#2244bb" stroke-width="0.8"/>
  <line x1="970.00" y1="620.00" x2="966.64" y2="612.00" stroke="#2244bb" stroke-width="0.8"/>
  <line x1="970.00" y1="620.00" x2="973.36" y2="612.00" stroke="#2244bb" stroke-width="0.8"/>
  <line x1="970.00" y1="306.82" x2="966.64" y2="314.82" stroke="#2244bb" stroke-width="0.8"/>
  <line x1="970.00" y1="306.82" x2="973.36" y2="314.82" stroke="#2244bb" stroke-width="0.8"/>
  <text x="975.00" y="475.41" font-size="8" fill="#2244bb" font-family="Arial,sans-serif" dominant-baseline="text-after-edge" transform="rotate(-90.0,975.00,475.41)">313.2</text>
  <line x1="970.00" y1="675.00" x2="970.00" y2="680.00" stroke="#2244bb" stroke-width="0.8"/>
  <text x="973.00" y="710.00" font-size="8" fill="#111111" font-family="Arial,sans-serif" dominant-baseline="text-after-edge" transform="rotate(-90.0,973.00,710.00)">350</text>
  <line x1="1020.00" y1="620.00" x2="1020.00" y2="328.32" stroke="#2244bb" stroke-width="0.8"/>
  <line x1="1020.00" y1="620.00" x2="1016.64" y2="612.00" stroke="#2244bb" stroke-width="0.8"/>
  <line x1="1020.00" y1="620.00" x2="1023.36" y2="612.00" stroke="#2244bb" stroke-width="0.8"/>
  <line x1="1020.00" y1="328.32" x2="1016.64" y2="336.32" stroke="#2244bb" stroke-width="0.8"/>
  <line x1="1020.00" y1="328.32" x2="1023.36" y2="336.32" stroke="#2244bb" stroke-width="0.8"/>
  <text x="1025.00" y="486.16" font-size="8" fill="#2244bb" font-family="Arial,sans-serif" dominant-baseline="text-after-edge" transform="rotate(-90.0,1025.00,486.16)">291.7</text>
  <line x1="1020.00" y1="675.00" x2="1020.00" y2="680.00" stroke="#2244bb" stroke-width="0.8"/>
  <text x="1023.00" y="710.00" font-size="8" fill="#111111" font-family="Arial,sans-serif" dominant-baseline="text-after-edge" transform="rotate(-90.0,1023.00,710.00)">400</text>
  <line x1="1070.00" y1="620.00" x2="1070.00" y2="351.35" stroke="#2244bb" stroke-width="0.8"/>
  <line x1="1070.00" y1="620.00" x2="1066.64" y2="612.00" stroke="#2244bb" stroke-width="0.8"/>
  <line x1="1070.00" y1="620.00" x2="1073.36" y2="612.00" stroke="#2244bb" stroke-width="0.8"/>
  <line x1="1070.00" y1="351.35" x2="1066.64" y2="359.35" stroke="#2244bb" stroke-width="0.8"/>
  <line x1="1070.00" y1="351.35" x2="1073.36" y2="359.35" stroke="#2244bb" stroke-width="0.8"/>
  <text x="1075.00" y="497.67" font-size="8" fill="#2244bb" font-family="Arial,sans-serif" dominant-baseline="text-after-edge" transform="rotate(-90.0,1075.00,497.67)">268.7</text>
  <line x1="1070.00" y1="675.00" x2="1070.00" y2="680.00" stroke="#2244bb" stroke-width="0.8"/>
  <text x="1073.00" y="710.00" font-size="8" fill="#111111" font-family="Arial,sans-serif" dominant-baseline="text-after-edge" transform="rotate(-90.0,1073.00,710.00)">450</text>
  <line x1="1120.00" y1="620.00" x2="1120.00" y2="373.34" stroke="#2244bb" stroke-width="0.8"/>
  <line x1="1120.00" y1="620.00" x2="1116.64" y2="612.00" stroke="#2244bb" stroke-width="0.8"/>
  <line x1="1120.00" y1="620.00" x2="1123.36" y2="612.00" stroke="#2244bb" stroke-width="0.8"/>
  <line x1="1120.00" y1="373.34" x2="1116.64" y2="381.34" stroke="#2244bb" stroke-width="0.8"/>
  <line x1="1120.00" y1="373.34" x2="1123.36" y2="381.34" stroke="#2244bb" stroke-width="0.8"/>
  <text x="1125.00" y="508.67" font-size="8" fill="#2244bb" font-family="Arial,sans-serif" dominant-baseline="text-after-edge" transform="rotate(-90.0,1125.00,508.67)">246.7</text>
  <line x1="1120.00" y1="675.00" x2="1120.00" y2="680.00" stroke="#2244bb" stroke-width="0.8"/>
  <text x="1123.00" y="710.00" font-size="8" fill="#111111" font-family="Arial,sans-serif" dominant-baseline="text-after-edge" transform="rotate(-90.0,1123.00,710.00)">500</text>
  <line x1="1170.00" y1="620.00" x2="1170.00" y2="394.28" stroke="#2244bb" stroke-width="0.8"/>
  <line x1="1170.00" y1="620.00" x2="1166.64" y2="612.00" stroke="#2244bb" stroke-width="0.8"/>
  <line x1="1170.00" y1="620.00" x2="1173.36" y2="612.00" stroke="#2244bb" stroke-width="0.8"/>
  <line x1="1170.00" y1="394.28" x2="1166.64" y2="402.28" stroke="#2244bb" stroke-width="0.8"/>
  <line x1="1170.00" y1="394.28" x2="1173.36" y2="402.28" stroke="#2244bb" stroke-width="0.8"/>
  <text x="1175.00" y="519.14" font-size="8" fill="#2244bb" font-family="Arial,sans-serif" dominant-baseline="text-after-edge" transform="rotate(-90.0,1175.00,519.14)">225.7</text>
  <line x1="1170.00" y1="675.00" x2="1170.00" y2="680.00" stroke="#2244bb" stroke-width="0.8"/>
  <text x="1173.00" y="710.00" font-size="8" fill="#111111" font-family="Arial,sans-serif" dominant-baseline="text-after-edge" transform="rotate(-90.0,1173.00,710.00)">550</text>
  <line x1="1220.00" y1="620.00" x2="1220.00" y2="414.18" stroke="#2244bb" stroke-width="0.8"/>
  <line x1="1220.00" y1="620.00" x2="1216.64" y2="612.00" stroke="#2244bb" stroke-width="0.8"/>
  <line x1="1220.00" y1="620.00" x2="1223.36" y2="612.00" stroke="#2244bb" stroke-width="0.8"/>
  <line x1="1220.00" y1="414.18" x2="1216.64" y2="422.18" stroke="#2244bb" stroke-width="0.8"/>
  <line x1="1220.00" y1="414.18" x2="1223.36" y2="422.18" stroke="#2244bb" stroke-width="0.8"/>
  <text x="1225.00" y="529.09" font-size="8" fill="#2244bb" font-family="Arial,sans-serif" dominant-baseline="text-after-edge" transform="rotate(-90.0,1225.00,529.09)">205.8</text>
  <line x1="1220.00" y1="675.00" x2="1220.00" y2="680.00" stroke="#2244bb" stroke-width="0.8"/>
  <text x="1223.00" y="710.00" font-size="8" fill="#111111" font-family="Arial,sans-serif" dominant-baseline="text-after-edge" transform="rotate(-90.0,1223.00,710.00)">600</text>
  <line x1="1270.00" y1="620.00" x2="1270.00" y2="433.07" stroke="#2244bb" stroke-width="0.8"/>
  <line x1="1270.00" y1="620.00" x2="1266.64" y2="612.00" stroke="#2244bb" stroke-width="0.8"/>
  <line x1="1270.00" y1="620.00" x2="1273.36" y2="612.00" stroke="#2244bb" stroke-width="0.8"/>
  <line x1="1270.00" y1="433.07" x2="1266.64" y2="441.07" stroke="#2244bb" stroke-width="0.8"/>
  <line x1="1270.00" y1="433.07" x2="1273.36" y2="441.07" stroke="#2244bb" stroke-width="0.8"/>
  <text x="1275.00" y="538.53" font-size="8" fill="#2244bb" font-family="Arial,sans-serif" dominant-baseline="text-after-edge" transform="rotate(-90.0,1275.00,538.53)">186.9</text>
  <line x1="1270.00" y1="675.00" x2="1270.00" y2="680.00" stroke="#2244bb" stroke-width="0.8"/>
  <text x="1273.00" y="710.00" font-size="8" fill="#111111" font-family="Arial,sans-serif" dominant-baseline="text-after-edge" transform="rotate(-90.0,1273.00,710.00)">650</text>
  <line x1="1320.00" y1="620.00" x2="1320.00" y2="450.96" stroke="#2244bb" stroke-width="0.8"/>
  <line x1="1320.00" y1="620.00" x2="1316.64" y2="612.00" stroke="#2244bb" stroke-width="0.8"/>
  <line x1="1320.00" y1="620.00" x2="1323.36" y2="612.00" stroke="#2244bb" stroke-width="0.8"/>
  <line x1="1320.00" y1="450.96" x2="1316.64" y2="458.96" stroke="#2244bb" stroke-width="0.8"/>
  <line x1="1320.00" y1="450.96" x2="1323.36" y2="458.96" stroke="#2244bb" stroke-width="0.8"/>
  <text x="1325.00" y="547.48" font-size="8" fill="#2244bb" font-family="Arial,sans-serif" dominant-baseline="text-after-edge" transform="rotate(-90.0,1325.00,547.48)">169.0</text>
  <line x1="1320.00" y1="675.00" x2="1320.00" y2="680.00" stroke="#2244bb" stroke-width="0.8"/>
  <text x="1323.00" y="710.00" font-size="8" fill="#111111" font-family="Arial,sans-serif" dominant-baseline="text-after-edge" transform="rotate(-90.0,1323.00,710.00)">700</text>
  <line x1="1370.00" y1="620.00" x2="1370.00" y2="467.87" stroke="#2244bb" stroke-width="0.8"/>
  <line x1="1370.00" y1="620.00" x2="1366.64" y2="612.00" stroke="#2244bb" stroke-width="0.8"/>
  <line x1="1370.00" y1="620.00" x2="1373.36" y2="612.00" stroke="#2244bb" stroke-width="0.8"/>
  <line x1="1370.00" y1="467.87" x2="1366.64" y2="475.87" stroke="#2244bb" stroke-width="0.8"/>
  <line x1="1370.00" y1="467.87" x2="1373.36" y2="475.87" stroke="#2244bb" stroke-width="0.8"/>
  <text x="1375.00" y="555.94" font-size="8" fill="#2244bb" font-family="Arial,sans-serif" dominant-baseline="text-after-edge" transform="rotate(-90.0,1375.00,555.94)">152.1</text>
  <line x1="1370.00" y1="675.00" x2="1370.00" y2="680.00" stroke="#2244bb" stroke-width="0.8"/>
  <text x="1373.00" y="710.00" font-size="8" fill="#111111" font-family="Arial,sans-serif" dominant-baseline="text-after-edge" transform="rotate(-90.0,1373.00,710.00)">750</text>
  <line x1="1420.00" y1="620.00" x2="1420.00" y2="483.83" stroke="#2244bb" stroke-width="0.8"/>
  <line x1="1420.00" y1="620.00" x2="1416.64" y2="612.00" stroke="#2244bb" stroke-width="0.8"/>
  <line x1="1420.00" y1="620.00" x2="1423.36" y2="612.00" stroke="#2244bb" stroke-width="0.8"/>
  <line x1="1420.00" y1="483.83" x2="1416.64" y2="491.83" stroke="#2244bb" stroke-width="0.8"/>
  <line x1="1420.00" y1="483.83" x2="1423.36" y2="491.83" stroke="#2244bb" stroke-width="0.8"/>
  <text x="1425.00" y="563.92" font-size="8" fill="#2244bb" font-family="Arial,sans-serif" dominant-baseline="text-after-edge" transform="rotate(-90.0,1425.00,563.92)">136.2</text>
  <line x1="1420.00" y1="675.00" x2="1420.00" y2="680.00" stroke="#2244bb" stroke-width="0.8"/>
  <text x="1423.00" y="710.00" font-size="8" fill="#111111" font-family="Arial,sans-serif" dominant-baseline="text-after-edge" transform="rotate(-90.0,1423.00,710.00)">800</text>
  <line x1="1470.00" y1="620.00" x2="1470.00" y2="498.85" stroke="#2244bb" stroke-width="0.8"/>
  <line x1="1470.00" y1="620.00" x2="1466.64" y2="612.00" stroke="#2244bb" stroke-width="0.8"/>
  <line x1="1470.00" y1="620.00" x2="1473.36" y2="612.00" stroke="#2244bb" stroke-width="0.8"/>
  <line x1="1470.00" y1="498.85" x2="1466.64" y2="506.85" stroke="#2244bb" stroke-width="0.8"/>
  <line x1="1470.00" y1="498.85" x2="1473.36" y2="506.85" stroke="#2244bb" stroke-width="0.8"/>
  <text x="1475.00" y="571.42" font-size="8" fill="#2244bb" font-family="Arial,sans-serif" dominant-baseline="text-after-edge" transform="rotate(-90.0,1475.00,571.42)">121.2</text>
  <line x1="1470.00" y1="675.00" x2="1470.00" y2="680.00" stroke="#2244bb" stroke-width="0.8"/>
  <text x="1473.00" y="710.00" font-size="8" fill="#111111" font-family="Arial,sans-serif" dominant-baseline="text-after-edge" transform="rotate(-90.0,1473.00,710.00)">850</text>
  <line x1="1520.00" y1="620.00" x2="1520.00" y2="512.94" stroke="#2244bb" stroke-width="0.8"/>
  <line x1="1520.00" y1="620.00" x2="1516.64" y2="612.00" stroke="#2244bb" stroke-width="0.8"/>
  <line x1="1520.00" y1="620.00" x2="1523.36" y2="612.00" stroke="#2244bb" stroke-width="0.8"/>
  <line x1="1520.00" y1="512.94" x2="1516.64" y2="520.94" stroke="#2244bb" stroke-width="0.8"/>
  <line x1="1520.00" y1="512.94" x2="1523.36" y2="520.94" stroke="#2244bb" stroke-width="0.8"/>
  <text x="1525.00" y="578.47" font-size="8" fill="#2244bb" font-family="Arial,sans-serif" dominant-baseline="text-after-edge" transform="rotate(-90.0,1525.00,578.47)">107.1</text>
  <line x1="1520.00" y1="675.00" x2="1520.00" y2="680.00" stroke="#2244bb" stroke-width="0.8"/>
  <text x="1523.00" y="710.00" font-size="8" fill="#111111" font-family="Arial,sans-serif" dominant-baseline="text-after-edge" transform="rotate(-90.0,1523.00,710.00)">900</text>
  <line x1="1570.00" y1="620.00" x2="1570.00" y2="526.11" stroke="#2244bb" stroke-width="0.8"/>
  <line x1="1570.00" y1="620.00" x2="1566.64" y2="612.00" stroke="#2244bb" stroke-width="0.8"/>
  <line x1="1570.00" y1="620.00" x2="1573.36" y2="612.00" stroke="#2244bb" stroke-width="0.8"/>
  <line x1="1570.00" y1="526.11" x2="1566.64" y2="534.11" stroke="#2244bb" stroke-width="0.8"/>
  <line x1="1570.00" y1="526.11" x2="1573.36" y2="534.11" stroke="#2244bb" stroke-width="0.8"/>
  <text x="1575.00" y="585.05" font-size="8" fill="#2244bb" font-family="Arial,sans-serif" dominant-baseline="text-after-edge" transform="rotate(-90.0,1575.00,585.05)">93.9</text>
  <line x1="1570.00" y1="675.00" x2="1570.00" y2="680.00" stroke="#2244bb" stroke-width="0.8"/>
  <text x="1573.00" y="710.00" font-size="8" fill="#111111" font-family="Arial,sans-serif" dominant-baseline="text-after-edge" transform="rotate(-90.0,1573.00,710.00)">950</text>
  <line x1="1620.00" y1="620.00" x2="1620.00" y2="538.38" stroke="#2244bb" stroke-width="0.8"/>
  <line x1="1620.00" y1="620.00" x2="1616.64" y2="612.00" stroke="#2244bb" stroke-width="0.8"/>
  <line x1="1620.00" y1="620.00" x2="1623.36" y2="612.00" stroke="#2244bb" stroke-width="0.8"/>
  <line x1="1620.00" y1="538.38" x2="1616.64" y2="546.38" stroke="#2244bb" stroke-width="0.8"/>
  <line x1="1620.00" y1="538.38" x2="1623.36" y2="546.38" stroke="#2244bb" stroke-width="0.8"/>
  <text x="1625.00" y="591.19" font-size="8" fill="#2244bb" font-family="Arial,sans-serif" dominant-baseline="text-after-edge" transform="rotate(-90.0,1625.00,591.19)">81.6</text>
  <line x1="1620.00" y1="675.00" x2="1620.00" y2="680.00" stroke="#2244bb" stroke-width="0.8"/>
  <text x="1623.00" y="710.00" font-size="8" fill="#111111" font-family="Arial,sans-serif" dominant-baseline="text-after-edge" transform="rotate(-90.0,1623.00,710.00)">1000</text>
  <line x1="1670.00" y1="620.00" x2="1670.00" y2="549.75" stroke="#2244bb" stroke-width="0.8"/>
  <line x1="1670.00" y1="620.00" x2="1666.64" y2="612.00" stroke="#2244bb" stroke-width="0.8"/>
  <line x1="1670.00" y1="620.00" x2="1673.36" y2="612.00" stroke="#2244bb" stroke-width="0.8"/>
  <line x1="1670.00" y1="549.75" x2="1666.64" y2="557.75" stroke="#2244bb" stroke-width="0.8"/>
  <line x1="1670.00" y1="549.75" x2="1673.36" y2="557.75" stroke="#2244bb" stroke-width="0.8"/>
  <text x="1675.00" y="596.88" font-size="8" fill="#2244bb" font-family="Arial,sans-serif" dominant-baseline="text-after-edge" transform="rotate(-90.0,1675.00,596.88)">70.2</text>
  <line x1="1670.00" y1="675.00" x2="1670.00" y2="680.00" stroke="#2244bb" stroke-width="0.8"/>
  <text x="1673.00" y="710.00" font-size="8" fill="#111111" font-family="Arial,sans-serif" dominant-baseline="text-after-edge" transform="rotate(-90.0,1673.00,710.00)">1050</text>
  <line x1="1720.00" y1="620.00" x2="1720.00" y2="560.25" stroke="#2244bb" stroke-width="0.8"/>
  <line x1="1720.00" y1="620.00" x2="1716.64" y2="612.00" stroke="#2244bb" stroke-width="0.8"/>
  <line x1="1720.00" y1="620.00" x2="1723.36" y2="612.00" stroke="#2244bb" stroke-width="0.8"/>
  <line x1="1720.00" y1="560.25" x2="1716.64" y2="568.25" stroke="#2244bb" stroke-width="0.8"/>
  <line x1="1720.00" y1="560.25" x2="1723.36" y2="568.25" stroke="#2244bb" stroke-width="0.8"/>
  <text x="1725.00" y="602.12" font-size="8" fill="#2244bb" font-family="Arial,sans-serif" dominant-baseline="text-after-edge" transform="rotate(-90.0,1725.00,602.12)">59.8</text>
  <line x1="1720.00" y1="675.00" x2="1720.00" y2="680.00" stroke="#2244bb" stroke-width="0.8"/>
  <text x="1723.00" y="710.00" font-size="8" fill="#111111" font-family="Arial,sans-serif" dominant-baseline="text-after-edge" transform="rotate(-90.0,1723.00,710.00)">1100</text>
  <line x1="1770.00" y1="620.00" x2="1770.00" y2="569.87" stroke="#2244bb" stroke-width="0.8"/>
  <line x1="1770.00" y1="620.00" x2="1766.64" y2="612.00" stroke="#2244bb" stroke-width="0.8"/>
  <line x1="1770.00" y1="620.00" x2="1773.36" y2="612.00" stroke="#2244bb" stroke-width="0.8"/>
  <line x1="1770.00" y1="569.87" x2="1766.64" y2="577.87" stroke="#2244bb" stroke-width="0.8"/>
  <line x1="1770.00" y1="569.87" x2="1773.36" y2="577.87" stroke="#2244bb" stroke-width="0.8"/>
  <text x="1775.00" y="606.94" font-size="8" fill="#2244bb" font-family="Arial,sans-serif" dominant-baseline="text-after-edge" transform="rotate(-90.0,1775.00,606.94)">50.1</text>
  <line x1="1770.00" y1="675.00" x2="1770.00" y2="680.00" stroke="#2244bb" stroke-width="0.8"/>
  <text x="1773.00" y="710.00" font-size="8" fill="#111111" font-family="Arial,sans-serif" dominant-baseline="text-after-edge" transform="rotate(-90.0,1773.00,710.00)">1150</text>
  <line x1="1820.00" y1="620.00" x2="1820.00" y2="578.63" stroke="#2244bb" stroke-width="0.8"/>
  <line x1="1820.00" y1="620.00" x2="1816.64" y2="612.00" stroke="#2244bb" stroke-width="0.8"/>
  <line x1="1820.00" y1="620.00" x2="1823.36" y2="612.00" stroke="#2244bb" stroke-width="0.8"/>
  <line x1="1820.00" y1="578.63" x2="1816.64" y2="586.63" stroke="#2244bb" stroke-width="0.8"/>
  <line x1="1820.00" y1="578.63" x2="1823.36" y2="586.63" stroke="#2244bb" stroke-width="0.8"/>
  <text x="1825.00" y="611.32" font-size="8" fill="#2244bb" font-family="Arial,sans-serif" dominant-baseline="text-after-edge" transform="rotate(-90.0,1825.00,611.32)">41.4</text>
  <line x1="1820.00" y1="675.00" x2="1820.00" y2="680.00" stroke="#2244bb" stroke-width="0.8"/>
  <text x="1823.00" y="710.00" font-size="8" fill="#111111" font-family="Arial,sans-serif" dominant-baseline="text-after-edge" transform="rotate(-90.0,1823.00,710.00)">1200</text>
  <line x1="1870.00" y1="620.00" x2="1870.00" y2="586.54" stroke="#2244bb" stroke-width="0.8"/>
  <line x1="1870.00" y1="620.00" x2="1866.64" y2="612.00" stroke="#2244bb" stroke-width="0.8"/>
  <line x1="1870.00" y1="620.00" x2="1873.36" y2="612.00" stroke="#2244bb" stroke-width="0.8"/>
  <line x1="1870.00" y1="586.54" x2="1866.64" y2="594.54" stroke="#2244bb" stroke-width="0.8"/>
  <line x1="1870.00" y1="586.54" x2="1873.36" y2="594.54" stroke="#2244bb" stroke-width="0.8"/>
  <text x="1875.00" y="615.27" font-size="8" fill="#2244bb" font-family="Arial,sans-serif" dominant-baseline="text-after-edge" transform="rotate(-90.0,1875.00,615.27)">33.5</text>
  <line x1="1870.00" y1="675.00" x2="1870.00" y2="680.00" stroke="#2244bb" stroke-width="0.8"/>
  <text x="1873.00" y="710.00" font-size="8" fill="#111111" font-family="Arial,sans-serif" dominant-baseline="text-after-edge" transform="rotate(-90.0,1873.00,710.00)">1250</text>
  <line x1="1920.00" y1="620.00" x2="1920.00" y2="593.59" stroke="#2244bb" stroke-width="0.8"/>
  <line x1="1920.00" y1="620.00" x2="1916.64" y2="612.00" stroke="#2244bb" stroke-width="0.8"/>
  <line x1="1920.00" y1="620.00" x2="1923.36" y2="612.00" stroke="#2244bb" stroke-width="0.8"/>
  <line x1="1920.00" y1="593.59" x2="1916.64" y2="601.59" stroke="#2244bb" stroke-width="0.8"/>
  <line x1="1920.00" y1="593.59" x2="1923.36" y2="601.59" stroke="#2244bb" stroke-width="0.8"/>
  <text x="1925.00" y="618.00" font-size="8" fill="#2244bb" font-family="Arial,sans-serif" dominant-baseline="text-after-edge" transform="rotate(-90.0,1925.00,618.00)">26.4</text>
  <line x1="1920.00" y1="675.00" x2="1920.00" y2="680.00" stroke="#2244bb" stroke-width="0.8"/>
  <text x="1923.00" y="710.00" font-size="8" fill="#111111" font-family="Arial,sans-serif" dominant-baseline="text-after-edge" transform="rotate(-90.0,1923.00,710.00)">1300</text>
  <line x1="1970.00" y1="620.00" x2="1970.00" y2="599.80" stroke="#2244bb" stroke-width="0.8"/>
  <line x1="1970.00" y1="620.00" x2="1967.29" y2="613.54" stroke="#2244bb" stroke-width="0.8"/>
  <line x1="1970.00" y1="620.00" x2="1972.71" y2="613.54" stroke="#2244bb" stroke-width="0.8"/>
  <line x1="1970.00" y1="599.80" x2="1967.29" y2="606.26" stroke="#2244bb" stroke-width="0.8"/>
  <line x1="1970.00" y1="599.80" x2="1972.71" y2="606.26" stroke="#2244bb" stroke-width="0.8"/>
  <text x="1975.00" y="618.00" font-size="8" fill="#2244bb" font-family="Arial,sans-serif" dominant-baseline="text-after-edge" transform="rotate(-90.0,1975.00,618.00)">20.2</text>
  <line x1="1970.00" y1="675.00" x2="1970.00" y2="680.00" stroke="#2244bb" stroke-width="0.8"/>
  <text x="1973.00" y="710.00" font-size="8" fill="#111111" font-family="Arial,sans-serif" dominant-baseline="text-after-edge" transform="rotate(-90.0,1973.00,710.00)">1350</text>
  <line x1="2020.00" y1="620.00" x2="2020.00" y2="605.17" stroke="#2244bb" stroke-width="0.8"/>
  <line x1="2020.00" y1="620.00" x2="2018.01" y2="615.26" stroke="#2244bb" stroke-width="0.8"/>
  <line x1="2020.00" y1="620.00" x2="2021.99" y2="615.26" stroke="#2244bb" stroke-width="0.8"/>
  <line x1="2020.00" y1="605.17" x2="2018.01" y2="609.92" stroke="#2244bb" stroke-width="0.8"/>
  <line x1="2020.00" y1="605.17" x2="2021.99" y2="609.92" stroke="#2244bb" stroke-width="0.8"/>
  <text x="2025.00" y="618.00" font-size="8" fill="#2244bb" font-family="Arial,sans-serif" dominant-baseline="text-after-edge" transform="rotate(-90.0,2025.00,618.00)">14.8</text>
  <line x1="2020.00" y1="675.00" x2="2020.00" y2="680.00" stroke="#2244bb" stroke-width="0.8"/>
  <text x="2023.00" y="710.00" font-size="8" fill="#111111" font-family="Arial,sans-serif" dominant-baseline="text-after-edge" transform="rotate(-90.0,2023.00,710.00)">1400</text>
  <line x1="2070.00" y1="620.00" x2="2070.00" y2="609.71" stroke="#2244bb" stroke-width="0.8"/>
  <line x1="2070.00" y1="620.00" x2="2068.62" y2="616.71" stroke="#2244bb" stroke-width="0.8"/>
  <line x1="2070.00" y1="620.00" x2="2071.38" y2="616.71" stroke="#2244bb" stroke-width="0.8"/>
  <line x1="2070.00" y1="609.71" x2="2068.62" y2="613.00" stroke="#2244bb" stroke-width="0.8"/>
  <line x1="2070.00" y1="609.71" x2="2071.38" y2="613.00" stroke="#2244bb" stroke-width="0.8"/>
  <text x="2075.00" y="618.00" font-size="8" fill="#2244bb" font-family="Arial,sans-serif" dominant-baseline="text-after-edge" transform="rotate(-90.0,2075.00,618.00)">10.3</text>
  <line x1="2070.00" y1="675.00" x2="2070.00" y2="680.00" stroke="#2244bb" stroke-width="0.8"/>
  <text x="2073.00" y="710.00" font-size="8" fill="#111111" font-family="Arial,sans-serif" dominant-baseline="text-after-edge" transform="rotate(-90.0,2073.00,710.00)">1450</text>
  <line x1="2120.00" y1="620.00" x2="2120.00" y2="613.42" stroke="#2244bb" stroke-width="0.8"/>
  <line x1="2120.00" y1="620.00" x2="2119.12" y2="617.89" stroke="#2244bb" stroke-width="0.8"/>
  <line x1="2120.00" y1="620.00" x2="2120.88" y2="617.89" stroke="#2244bb" stroke-width="0.8"/>
  <line x1="2120.00" y1="613.42" x2="2119.12" y2="615.52" stroke="#2244bb" stroke-width="0.8"/>
  <line x1="2120.00" y1="613.42" x2="2120.88" y2="615.52" stroke="#2244bb" stroke-width="0.8"/>
  <text x="2125.00" y="618.00" font-size="8" fill="#2244bb" font-family="Arial,sans-serif" dominant-baseline="text-after-edge" transform="rotate(-90.0,2125.00,618.00)">6.6</text>
  <line x1="2120.00" y1="675.00" x2="2120.00" y2="680.00" stroke="#2244bb" stroke-width="0.8"/>
  <text x="2123.00" y="710.00" font-size="8" fill="#111111" font-family="Arial,sans-serif" dominant-baseline="text-after-edge" transform="rotate(-90.0,2123.00,710.00)">1500</text>
  <line x1="2170.00" y1="620.00" x2="2170.00" y2="616.30" stroke="#2244bb" stroke-width="0.8"/>
  <line x1="2170.00" y1="620.00" x2="2169.50" y2="618.82" stroke="#2244bb" stroke-width="0.8"/>
  <line x1="2170.00" y1="620.00" x2="2170.50" y2="618.82" stroke="#2244bb" stroke-width="0.8"/>
  <line x1="2170.00" y1="616.30" x2="2169.50" y2="617.48" stroke="#2244bb" stroke-width="0.8"/>
  <line x1="2170.00" y1="616.30" x2="2170.50" y2="617.48" stroke="#2244bb" stroke-width="0.8"/>
  <text x="2175.00" y="618.00" font-size="8" fill="#2244bb" font-family="Arial,sans-serif" dominant-baseline="text-after-edge" transform="rotate(-90.0,2175.00,618.00)">3.7</text>
  <line x1="2170.00" y1="675.00" x2="2170.00" y2="680.00" stroke="#2244bb" stroke-width="0.8"/>
  <text x="2173.00" y="710.00" font-size="8" fill="#111111" font-family="Arial,sans-serif" dominant-baseline="text-after-edge" transform="rotate(-90.0,2173.00,710.00)">1550</text>
  <line x1="2220.00" y1="620.00" x2="2220.00" y2="618.36" stroke="#2244bb" stroke-width="0.8"/>
  <line x1="2220.00" y1="620.00" x2="2219.58" y2="619.00" stroke="#2244bb" stroke-width="0.8"/>
  <line x1="2220.00" y1="620.00" x2="2220.42" y2="619.00" stroke="#2244bb" stroke-width="0.8"/>
  <line x1="2220.00" y1="618.36" x2="2219.58" y2="619.36" stroke="#2244bb" stroke-width="0.8"/>
  <line x1="2220.00" y1="618.36" x2="2220.42" y2="619.36" stroke="#2244bb" stroke-width="0.8"/>
  <text x="2225.00" y="618.00" font-size="8" fill="#2244bb" font-family="Arial,sans-serif" dominant-baseline="text-after-edge" transform="rotate(-90.0,2225.00,618.00)">1.6</text>
  <line x1="2220.00" y1="675.00" x2="2220.00" y2="680.00" stroke="#2244bb" stroke-width="0.8"/>
  <text x="2223.00" y="710.00" font-size="8" fill="#111111" font-family="Arial,sans-serif" dominant-baseline="text-after-edge" transform="rotate(-90.0,2223.00,710.00)">1600</text>
  <line x1="2270.00" y1="620.00" x2="2270.00" y2="619.59" stroke="#2244bb" stroke-width="0.8"/>
  <line x1="2270.00" y1="620.00" x2="2269.58" y2="619.00" stroke="#2244bb" stroke-width="0.8"/>
  <line x1="2270.00" y1="620.00" x2="2270.42" y2="619.00" stroke="#2244bb" stroke-width="0.8"/>
  <line x1="2270.00" y1="619.59" x2="2269.58" y2="620.59" stroke="#2244bb" stroke-width="0.8"/>
  <line x1="2270.00" y1="619.59" x2="2270.42" y2="620.59" stroke="#2244bb" stroke-width="0.8"/>
  <text x="2275.00" y="618.00" font-size="8" fill="#2244bb" font-family="Arial,sans-serif" dominant-baseline="text-after-edge" transform="rotate(-90.0,2275.00,618.00)">0.4</text>
  <line x1="2270.00" y1="675.00" x2="2270.00" y2="680.00" stroke="#2244bb" stroke-width="0.8"/>
  <text x="2273.00" y="710.00" font-size="8" fill="#111111" font-family="Arial,sans-serif" dominant-baseline="text-after-edge" transform="rotate(-90.0,2273.00,710.00)">1650</text>
  <text x="2325.00" y="618.00" font-size="8" fill="#2244bb" font-family="Arial,sans-serif" dominant-baseline="text-after-edge" transform="rotate(-90.0,2325.00,618.00)">0.0</text>
  <line x1="2320.00" y1="675.00" x2="2320.00" y2="680.00" stroke="#2244bb" stroke-width="0.8"/>
  <text x="2323.00" y="710.00" font-size="8" fill="#111111" font-family="Arial,sans-serif" dominant-baseline="text-after-edge" transform="rotate(-90.0,2323.00,710.00)">1700</text>
  <line x1="190.00" y1="620.00" x2="190.00" y2="240.00" stroke="#2244bb" stroke-width="0.8"/>
  <line x1="184.00" y1="626.00" x2="196.00" y2="614.00" stroke="#2244bb" stroke-width="0.8"/>
  <line x1="184.00" y1="246.00" x2="196.00" y2="234.00" stroke="#2244bb" stroke-width="0.8"/>
  <text x="150.00" y="450.00" font-size="9" fill="#2244bb" font-family="Arial,sans-serif" dominant-baseline="text-after-edge" transform="rotate(-90.0,150.00,450.00)">H = 380</text>
  <line x1="190.00" y1="240.00" x2="620.00" y2="240.00" stroke="#777777" stroke-width="0.8" stroke-dasharray="8 4"/>
  <line x1="620.00" y1="210.00" x2="2320.00" y2="210.00" stroke="#2244bb" stroke-width="0.8"/>
  <line x1="614.00" y1="216.00" x2="626.00" y2="204.00" stroke="#2244bb" stroke-width="0.8"/>
  <line x1="2314.00" y1="216.00" x2="2326.00" y2="204.00" stroke="#2244bb" stroke-width="0.8"/>
  <text x="1426.00" y="204.00" font-size="9" fill="#2244bb" font-family="Arial,sans-serif" dominant-baseline="text-after-edge">L = 1700 cm</text>
  <line x1="620.00" y1="240.00" x2="620.00" y2="210.00" stroke="#777777" stroke-width="0.8" stroke-dasharray="8 4"/>
  <line x1="2320.00" y1="620.00" x2="2320.00" y2="210.00" stroke="#777777" stroke-width="0.8" stroke-dasharray="8 4"/>
  <text x="-30.00" y="760.00" font-size="9" fill="#111111" font-family="Arial,sans-serif" dominant-baseline="text-after-edge">NB: progressive e quote su proiezione ORIZZONTALE; i raccordi sono archi di cerchio. Disegno preliminare, da verificare in sito.</text>
</svg>