  0
SECTION
  2
HEADER
  9
$ACADVER
  1
AC1009
  9
$EXTMIN
 10
-600.0
 20
-1980.0
 30
0.0
  9
$EXTMAX
 10
2400.0
 20
780.0
 30
0.0
  9
$LIMMIN
 10
-600.0
 20
-200.0
  9
$LIMMAX
 10
2400.0
 20
600.0
  9
$LTSCALE
 40
10.0
  9
$INSUNITS
 70
5
  0
ENDSEC
  0
SECTION
  2
TABLES
  0
TABLE
  2
LTYPE
 70
2
  0
LTYPE
  2
CONTINUOUS
 70
64
  3
Solid line
 72
65
 73
0
 40
0.0
  0
LTYPE
  2
DASHED
 70
64
  3
_ _ _ _ _
 72
65
 73
2
 40
20.0
 49
12.0
 49
-8.0
  0
ENDTAB
  0
TABLE
  2
LAYER
 70
7
  0
LAYER
  2
0
 70
64
 62
7
  6
CONTINUOUS
  0
LAYER
  2
RAMPA
 70
64
 62
3
  6
CONTINUOUS
  0
LAYER
  2
CARROZZERIA
 70
64
 62
2
  6
CONTINUOUS
  0
LAYER
  2
RUOTE
 70
64
 62
4
  6
CONTINUOUS
  0
LAYER
  2
CRITICO
 70
64
 62
1
  6
CONTINUOUS
  0
LAYER
  2
QUOTE
 70
64
 62
5
  6
CONTINUOUS
  0
LAYER
  2
TESTO
 70
64
 62
7
  6
CONTINUOUS
  0
LAYER
  2
REF
 70
64
 62
8
  6
DASHED
  0
ENDTAB
  0
TABLE
  2
STYLE
 70
1
  0
STYLE
  2
STANDARD
 70
0
 40
0.0
 41
1.0
 50
0.0
 71
0
 42
2.5
  3
txt
  4

  0
ENDTAB
  0
ENDSEC
  0
SECTION
  2
ENTITIES
  0
TEXT
  8
TESTO
 10
-560
 20
740
 30
0.0
 40
18
  1
PROFILO OTTIMIZZATO ESTREMO - USCITA (VETTURA GIRATA: MUSO VERSO STRADA) - CONFRONTO LUCE (h = 8 / 9 / 10 cm)
  0
TEXT
  8
TESTO
 10
-560
 20
712
 30
0.0
 40
9
  1
Profilo che MASSIMIZZA la clearance a H=380, L=1700 fissi: CREST R=950, retto 13 cm, SAG R=3042, pendenza di picco 47% (theta=25 deg). Vettura GIRATA: coda+ala verso il garage, muso verso la strada.
  0
TEXT
  8
TESTO
 10
-560
 20
695
 30
0.0
 40
9
  1
Sagoma ogni 150 cm (+ posa critica); colore = stato PEGGIORE tra muso (sbalzo 140), coda (sbalzo 120, verso SAG) e ventre. Solo pose con passo ruota valido.
  0
TEXT
  8
TESTO
 10
-560
 20
672
 30
0.0
 40
10
  1
LEGENDA:
  0
LINE
  8
REF
 62
90
 10
-430
 20
675
 30
0.0
 11
-360
 21
675
 31
0.0
  0
TEXT
  8
TESTO
 62
90
 10
-350
 20
679
 30
0.0
 40
9
  1
VERDE  = sicuro (clearance >= 1.0 cm)
  0
LINE
  8
REF
 62
30
 10
-430
 20
657
 30
0.0
 11
-360
 21
657
 31
0.0
  0
TEXT
  8
TESTO
 62
30
 10
-350
 20
661
 30
0.0
 40
9
  1
ARANCIO = a rischio (0 .. 1.0 cm)
  0
LINE
  8
REF
 62
1
 10
-430
 20
639
 30
0.0
 11
-360
 21
639
 31
0.0
  0
TEXT
  8
TESTO
 62
1
 10
-350
 20
643
 30
0.0
 40
9
  1
ROSSO  = collisione (clearance < 0)
  0
LINE
  8
RAMPA
 10
-560
 20
380
 30
0.0
 11
0
 21
380
 31
0.0
  0
ARC
  8
RAMPA
 10
0
 20
-570
 30
0.0
 40
950
 50
65
 51
90
  0
LINE
  8
RAMPA
 10
401.49
 20
290.99
 30
0.0
 11
414.24
 21
285.05
 31
0.0
  0
ARC
  8
RAMPA
 10
1700
 20
3042.37
 30
0.0
 40
3042.37
 50
245
 51
270
  0
LINE
  8
RAMPA
 10
1700
 20
0
 30
0.0
 11
2360
 21
0
 31
0.0
  0
TEXT
  8
TESTO
 10
-545
 20
392
 30
0.0
 40
11
  1
STRADA
  0
TEXT
  8
TESTO
 10
2175
 20
14
 30
0.0
 40
11
  1
GARAGE
  0
LINE
  8
CARROZZERIA
 62
90
 10
-154.38
 20
415.08
 30
0.0
 11
-144.38
 21
414.91
 31
0.0
  0
LINE
  8
CARROZZERIA
 62
90
 10
-149.47
 20
410
 30
0.0
 11
-149.29
 21
419.99
 31
0.0
  0
LINE
  8
CARROZZERIA
 62
90
 10
85.59
 20
410.81
 30
0.0
 11
95.58
 21
410.64
 31
0.0
  0
LINE
  8
CARROZZERIA
 62
90
 10
90.5
 20
405.73
 30
0.0
 11
90.67
 21
415.72
 31
0.0
  0
LINE
  8
CARROZZERIA
 62
90
 10
-289.84
 20
390.49
 30
0.0
 11
-184.55
 21
388.62
 31
0.0
  0
LINE
  8
CARROZZERIA
 62
90
 10
-115.16
 20
387.38
 30
0.0
 11
55.41
 21
384.35
 31
0.0
  0
LINE
  8
CARROZZERIA
 62
90
 10
124.8
 20
383.11
 30
0.0
 11
210.09
 21
381.6
 31
0.0
  0
LINE
  8
CARROZZERIA
 62
90
 10
-289.84
 20
390.49
 30
0.0
 11
-289.36
 21
417.48
 31
0.0
  0
LINE
  8
CARROZZERIA
 62
90
 10
-289.36
 20
417.48
 30
0.0
 11
-277.05
 21
434.27
 31
0.0
  0
LINE
  8
CARROZZERIA
 62
90
 10
-277.05
 20
434.27
 30
0.0
 11
-260.88
 21
443.98
 31
0.0
  0
LINE
  8
CARROZZERIA
 62
90
 10
-260.88
 20
443.98
 30
0.0
 11
-223.71
 21
453.32
 31
0.0
  0
LINE
  8
CARROZZERIA
 62
90
 10
-223.71
 20
453.32
 30
0.0
 11
-173.57
 21
460.43
 31
0.0
  0
LINE
  8
CARROZZERIA
 62
90
 10
-173.57
 20
460.43
 30
0.0
 11
-143.52
 21
462.9
 31
0.0
  0
LINE
  8
CARROZZERIA
 62
90
 10
-143.52
 20
462.9
 30
0.0
 11
-109.73
 21
507.3
 31
0.0
  0
LINE
  8
CARROZZERIA
 62
90
 10
-109.73
 20
507.3
 30
0.0
 11
17.25
 21
505.04
 31
0.0
  0
LINE
  8
CARROZZERIA
 62
90
 10
17.25
 20
505.04
 30
0.0
 11
61.8
 21
479.25
 31
0.0
  0
LINE
  8
CARROZZERIA
 62
90
 10
61.8
 20
479.25
 30
0.0
 11
121.75
 21
476.18
 31
0.0
  0
LINE
  8
CARROZZERIA
 62
90
 10
121.75
 20
476.18
 30
0.0
 11
171.34
 21
452.3
 31
0.0
  0
LINE
  8
CARROZZERIA
 62
90
 10
171.34
 20
452.3
 30
0.0
 11
210.87
 21
425.59
 31
0.0
  0
LINE
  8
CARROZZERIA
 62
90
 10
210.87
 20
425.59
 30
0.0
 11
210.09
 21
381.6
 31
0.0
  0
LINE
  8
CARROZZERIA
 62
90
 10
108.76
 20
476.41
 30
0.0
 11
109.59
 21
523.41
 31
0.0
  0
LINE
  8
CARROZZERIA
 62
90
 10
129.75
 20
476.04
 30
0.0
 11
130.59
 21
523.03
 31
0.0
  0
LINE
  8
CARROZZERIA
 62
90
 10
85.63
 20
525.83
 30
0.0
 11
155.62
 21
524.59
 31
0.0
  0
LINE
  8
CARROZZERIA
 62
90
 10
85.56
 20
521.83
 30
0.0
 11
155.55
 21
520.59
 31
0.0
  0
LINE
  8
CARROZZERIA
 62
90
 10
85.56
 20
521.83
 30
0.0
 11
85.63
 21
525.83
 31
0.0
  0
LINE
  8
CARROZZERIA
 62
90
 10
155.55
 20
520.59
 30
0.0
 11
155.62
 21
524.59
 31
0.0
  0
CIRCLE
  8
CARROZZERIA
 62
90
 10
90.58
 20
410.73
 30
0.0
 40
35
  0
CIRCLE
  8
CARROZZERIA
 62
90
 10
-149.38
 20
414.99
 30
0.0
 40
35
  0
LINE
  8
CARROZZERIA
 62
30
 10
-0.54
 20
415.35
 30
0.0
 11
9.38
 21
414.09
 31
0.0
  0
LINE
  8
CARROZZERIA
 62
30
 10
3.79
 20
409.76
 30
0.0
 11
5.05
 21
419.68
 31
0.0
  0
LINE
  8
CARROZZERIA
 62
30
 10
237.54
 20
385.04
 30
0.0
 11
247.46
 21
383.77
 31
0.0
  0
LINE
  8
CARROZZERIA
 62
30
 10
241.87
 20
379.44
 30
0.0
 11
243.13
 21
389.36
 31
0.0
  0
LINE
  8
CARROZZERIA
 62
30
 10
-137.87
 20
405.62
 30
0.0
 11
-33.41
 21
392.32
 31
0.0
  0
LINE
  8
CARROZZERIA
 62
30
 10
35.43
 20
383.55
 30
0.0
 11
204.67
 21
362
 31
0.0
  0
LINE
  8
CARROZZERIA
 62
30
 10
273.51
 20
353.24
 30
0.0
 11
358.13
 21
342.46
 31
0.0
  0
LINE
  8
CARROZZERIA
 62
30
 10
-137.87
 20
405.62
 30
0.0
 11
-134.46
 21
432.4
 31
0.0
  0
LINE
  8
CARROZZERIA
 62
30
 10
-134.46
 20
432.4
 30
0.0
 11
-120.41
 21
447.75
 31
0.0
  0
LINE
  8
CARROZZERIA
 62
30
 10
-120.41
 20
447.75
 30
0.0
 11
-103.27
 21
455.65
 31
0.0
  0
LINE
  8
CARROZZERIA
 62
30
 10
-103.27
 20
455.65
 30
0.0
 11
-65.3
 21
460.9
 31
0.0
  0
LINE
  8
CARROZZERIA
 62
30
 10
-65.3
 20
460.9
 30
0.0
 11
-14.69
 21
462.52
 31
0.0
  0
LINE
  8
CARROZZERIA
 62
30
 10
-14.69
 20
462.52
 30
0.0
 11
15.44
 21
461.7
 31
0.0
  0
LINE
  8
CARROZZERIA
 62
30
 10
15.44
 20
461.7
 30
0.0
 11
53.86
 21
502.17
 31
0.0
  0
LINE
  8
CARROZZERIA
 62
30
 10
53.86
 20
502.17
 30
0.0
 11
179.85
 21
486.13
 31
0.0
  0
LINE
  8
CARROZZERIA
 62
30
 10
179.85
 20
486.13
 30
0.0
 11
221.33
 21
455.65
 31
0.0
  0
LINE
  8
CARROZZERIA
 62
30
 10
221.33
 20
455.65
 30
0.0
 11
280.6
 21
446.09
 31
0.0
  0
LINE
  8
CARROZZERIA
 62
30
 10
280.6
 20
446.09
 30
0.0
 11
327.29
 21
416.95
 31
0.0
  0
LINE
  8
CARROZZERIA
 62
30
 10
327.29
 20
416.95
 30
0.0
 11
363.68
 21
386.11
 31
0.0
  0
LINE
  8
CARROZZERIA
 62
30
 10
363.68
 20
386.11
 30
0.0
 11
358.13
 21
342.46
 31
0.0
  0
LINE
  8
CARROZZERIA
 62
30
 10
267.7
 20
447.73
 30
0.0
 11
273.64
 21
494.35
 31
0.0
  0
LINE
  8
CARROZZERIA
 62
30
 10
288.53
 20
445.08
 30
0.0
 11
294.47
 21
491.7
 31
0.0
  0
LINE
  8
CARROZZERIA
 62
30
 10
250.08
 20
499.37
 30
0.0
 11
319.52
 21
490.52
 31
0.0
  0
LINE
  8
CARROZZERIA
 62
30
 10
249.58
 20
495.4
 30
0.0
 11
319.02
 21
486.56
 31
0.0
  0
LINE
  8
CARROZZERIA
 62
30
 10
249.58
 20
495.4
 30
0.0
 11
250.08
 21
499.37
 31
0.0
  0
LINE
  8
CARROZZERIA
 62
30
 10
319.02
 20
486.56
 30
0.0
 11
319.52
 21
490.52
 31
0.0
  0
CIRCLE
  8
CARROZZERIA
 62
30
 10
242.5
 20
384.4
 30
0.0
 40
35
  0
CIRCLE
  8
CARROZZERIA
 62
30
 10
4.42
 20
414.72
 30
0.0
 40
35
  0
LINE
  8
CARROZZERIA
 62
30
 10
155.05
 20
403.08
 30
0.0
 11
164.65
 21
400.26
 31
0.0
  0
LINE
  8
CARROZZERIA
 62
30
 10
158.44
 20
396.87
 30
0.0
 11
161.25
 21
406.47
 31
0.0
  0
LINE
  8
CARROZZERIA
 62
30
 10
385.35
 20
335.55
 30
0.0
 11
394.95
 21
332.74
 31
0.0
  0
LINE
  8
CARROZZERIA
 62
30
 10
388.75
 20
329.34
 30
0.0
 11
391.56
 21
338.94
 31
0.0
  0
LINE
  8
CARROZZERIA
 62
30
 10
17.91
 20
415.15
 30
0.0
 11
118.95
 21
385.52
 31
0.0
  0
LINE
  8
CARROZZERIA
 62
30
 10
185.55
 20
366
 30
0.0
 11
349.26
 21
318
 31
0.0
  0
LINE
  8
CARROZZERIA
 62
30
 10
415.85
 20
298.47
 30
0.0
 11
497.71
 21
274.47
 31
0.0
  0
LINE
  8
CARROZZERIA
 62
30
 10
17.91
 20
415.15
 30
0.0
 11
25.5
 21
441.06
 31
0.0
  0
LINE
  8
CARROZZERIA
 62
30
 10
25.5
 20
441.06
 30
0.0
 11
41.8
 21
454
 31
0.0
  0
LINE
  8
CARROZZERIA
 62
30
 10
41.8
 20
454
 30
0.0
 11
59.97
 21
459.09
 31
0.0
  0
LINE
  8
CARROZZERIA
 62
30
 10
59.97
 20
459.09
 30
0.0
 11
98.29
 21
458.28
 31
0.0
  0
LINE
  8
CARROZZERIA
 62
30
 10
98.29
 20
458.28
 30
0.0
 11
148.52
 21
451.89
 31
0.0
  0
LINE
  8
CARROZZERIA
 62
30
 10
148.52
 20
451.89
 30
0.0
 11
178.15
 21
446.32
 31
0.0
  0
LINE
  8
CARROZZERIA
 62
30
 10
178.15
 20
446.32
 30
0.0
 11
222.48
 21
480.22
 31
0.0
  0
LINE
  8
CARROZZERIA
 62
30
 10
222.48
 20
480.22
 30
0.0
 11
344.35
 21
444.49
 31
0.0
  0
LINE
  8
CARROZZERIA
 62
30
 10
344.35
 20
444.49
 30
0.0
 11
380.5
 21
407.84
 31
0.0
  0
LINE
  8
CARROZZERIA
 62
30
 10
380.5
 20
407.84
 30
0.0
 11
437.51
 21
389.04
 31
0.0
  0
LINE
  8
CARROZZERIA
 62
30
 10
437.51
 20
389.04
 30
0.0
 11
479.02
 21
352.9
 31
0.0
  0
LINE
  8
CARROZZERIA
 62
30
 10
479.02
 20
352.9
 30
0.0
 11
510.09
 21
316.69
 31
0.0
  0
LINE
  8
CARROZZERIA
 62
30
 10
510.09
 20
316.69
 30
0.0
 11
497.71
 21
274.47
 31
0.0
  0
LINE
  8
CARROZZERIA
 62
30
 10
425.04
 20
392.69
 30
0.0
 11
438.26
 21
437.79
 31
0.0
  0
LINE
  8
CARROZZERIA
 62
30
 10
445.19
 20
386.78
 30
0.0
 11
458.41
 21
431.89
 31
0.0
  0
LINE
  8
CARROZZERIA
 62
30
 10
415.79
 20
446.47
 30
0.0
 11
482.96
 21
426.77
 31
0.0
  0
LINE
  8
CARROZZERIA
 62
30
 10
414.67
 20
442.63
 30
0.0
 11
481.84
 21
422.93
 31
0.0
  0
LINE
  8
CARROZZERIA
 62
30
 10
414.67
 20
442.63
 30
0.0
 11
415.79
 21
446.47
 31
0.0
  0
LINE
  8
CARROZZERIA
 62
30
 10
481.84
 20
422.93
 30
0.0
 11
482.96
 21
426.77
 31
0.0
  0
CIRCLE
  8
CARROZZERIA
 62
30
 10
390.15
 20
334.14
 30
0.0
 40
35
  0
CIRCLE
  8
CARROZZERIA
 62
30
 10
159.85
 20
401.67
 30
0.0
 40
35
  0
LINE
  8
CARROZZERIA
 62
90
 10
309.05
 20
365.56
 30
0.0
 11
318.26
 21
361.66
 31
0.0
  0
LINE
  8
CARROZZERIA
 62
90
 10
311.71
 20
359.01
 30
0.0
 11
315.61
 21
368.22
 31
0.0
  0
LINE
  8
CARROZZERIA
 62
90
 10
530.03
 20
271.92
 30
0.0
 11
539.24
 21
268.02
 31
0.0
  0
LINE
  8
CARROZZERIA
 62
90
 10
532.68
 20
265.37
 30
0.0
 11
536.58
 21
274.57
 31
0.0
  0
LINE
  8
CARROZZERIA
 62
90
 10
174.22
 20
393.38
 30
0.0
 11
271.17
 21
352.29
 31
0.0
  0
LINE
  8
CARROZZERIA
 62
90
 10
335.07
 20
325.21
 30
0.0
 11
492.15
 21
258.65
 31
0.0
  0
LINE
  8
CARROZZERIA
 62
90
 10
556.05
 20
231.57
 30
0.0
 11
634.59
 21
198.29
 31
0.0
  0
LINE
  8
CARROZZERIA
 62
90
 10
174.22
 20
393.38
 30
0.0
 11
184.75
 21
418.24
 31
0.0
  0
LINE
  8
CARROZZERIA
 62
90
 10
184.75
 20
418.24
 30
0.0
 11
202.43
 21
429.21
 31
0.0
  0
LINE
  8
CARROZZERIA
 62
90
 10
202.43
 20
429.21
 30
0.0
 11
221.07
 21
432.17
 31
0.0
  0
LINE
  8
CARROZZERIA
 62
90
 10
221.07
 20
432.17
 30
0.0
 11
259.04
 21
426.94
 31
0.0
  0
LINE
  8
CARROZZERIA
 62
90
 10
259.04
 20
426.94
 30
0.0
 11
308.2
 21
414.8
 31
0.0
  0
LINE
  8
CARROZZERIA
 62
90
 10
308.2
 20
414.8
 30
0.0
 11
336.99
 21
405.86
 31
0.0
  0
LINE
  8
CARROZZERIA
 62
90
 10
336.99
 20
405.86
 30
0.0
 11
384.93
 21
434.42
 31
0.0
  0
LINE
  8
CARROZZERIA
 62
90
 10
384.93
 20
434.42
 30
0.0
 11
501.86
 21
384.86
 31
0.0
  0
LINE
  8
CARROZZERIA
 62
90
 10
501.86
 20
384.86
 30
0.0
 11
533.54
 21
344.29
 31
0.0
  0
LINE
  8
CARROZZERIA
 62
90
 10
533.54
 20
344.29
 30
0.0
 11
588.01
 21
319.03
 31
0.0
  0
LINE
  8
CARROZZERIA
 62
90
 10
588.01
 20
319.03
 30
0.0
 11
625.07
 21
278.35
 31
0.0
  0
LINE
  8
CARROZZERIA
 62
90
 10
625.07
 20
278.35
 30
0.0
 11
651.76
 21
238.8
 31
0.0
  0
LINE
  8
CARROZZERIA
 62
90
 10
651.76
 20
238.8
 30
0.0
 11
634.59
 21
198.29
 31
0.0
  0
LINE
  8
CARROZZERIA
 62
90
 10
576.04
 20
324.11
 30
0.0
 11
594.38
 21
367.38
 31
0.0
  0
LINE
  8
CARROZZERIA
 62
90
 10
595.37
 20
315.91
 30
0.0
 11
613.71
 21
359.19
 31
0.0
  0
LINE
  8
CARROZZERIA
 62
90
 10
573.06
 20
378.59
 30
0.0
 11
637.51
 21
351.27
 31
0.0
  0
LINE
  8
CARROZZERIA
 62
90
 10
571.5
 20
374.9
 30
0.0
 11
635.95
 21
347.59
 31
0.0
  0
LINE
  8
CARROZZERIA
 62
90
 10
571.5
 20
374.9
 30
0.0
 11
573.06
 21
378.59
 31
0.0
  0
LINE
  8
CARROZZERIA
 62
90
 10
635.95
 20
347.59
 30
0.0
 11
637.51
 21
351.27
 31
0.0
  0
CIRCLE
  8
CARROZZERIA
 62
90
 10
534.63
 20
269.97
 30
0.0
 40
35
  0
CIRCLE
  8
CARROZZERIA
 62
90
 10
313.66
 20
363.61
 30
0.0
 40
35
  0
LINE
  8
CARROZZERIA
 62
30
 10
458.47
 20
302.98
 30
0.0
 11
467.75
 21
299.23
 31
0.0
  0
LINE
  8
CARROZZERIA
 62
30
 10
461.24
 20
296.47
 30
0.0
 11
464.98
 21
305.74
 31
0.0
  0
LINE
  8
CARROZZERIA
 62
30
 10
681
 20
213.08
 30
0.0
 11
690.27
 21
209.33
 31
0.0
  0
LINE
  8
CARROZZERIA
 62
30
 10
683.76
 20
206.57
 30
0.0
 11
687.51
 21
215.84
 31
0.0
  0
LINE
  8
CARROZZERIA
 62
30
 10
323.19
 20
328.51
 30
0.0
 11
420.82
 21
289.07
 31
0.0
  0
LINE
  8
CARROZZERIA
 62
30
 10
485.17
 20
263.07
 30
0.0
 11
643.35
 21
199.17
 31
0.0
  0
LINE
  8
CARROZZERIA
 62
30
 10
707.7
 20
173.17
 30
0.0
 11
786.79
 21
141.22
 31
0.0
  0
LINE
  8
CARROZZERIA
 62
30
 10
323.19
 20
328.51
 30
0.0
 11
333.3
 21
353.54
 31
0.0
  0
LINE
  8
CARROZZERIA
 62
30
 10
333.3
 20
353.54
 30
0.0
 11
350.8
 21
364.81
 31
0.0
  0
LINE
  8
CARROZZERIA
 62
30
 10
350.8
 20
364.81
 30
0.0
 11
369.38
 21
368.09
 31
0.0
  0
LINE
  8
CARROZZERIA
 62
30
 10
369.38
 20
368.09
 30
0.0
 11
407.43
 21
363.5
 31
0.0
  0
LINE
  8
CARROZZERIA
 62
30
 10
407.43
 20
363.5
 30
0.0
 11
456.79
 21
352.19
 31
0.0
  0
LINE
  8
CARROZZERIA
 62
30
 10
456.79
 20
352.19
 30
0.0
 11
485.73
 21
343.74
 31
0.0
  0
LINE
  8
CARROZZERIA
 62
30
 10
485.73
 20
343.74
 30
0.0
 11
533.18
 21
373.1
 31
0.0
  0
LINE
  8
CARROZZERIA
 62
30
 10
533.18
 20
373.1
 30
0.0
 11
650.93
 21
325.53
 31
0.0
  0
LINE
  8
CARROZZERIA
 62
30
 10
650.93
 20
325.53
 30
0.0
 11
683.29
 21
285.49
 31
0.0
  0
LINE
  8
CARROZZERIA
 62
30
 10
683.29
 20
285.49
 30
0.0
 11
738.18
 21
261.16
 31
0.0
  0
LINE
  8
CARROZZERIA
 62
30
 10
738.18
 20
261.16
 30
0.0
 11
775.92
 21
221.11
 31
0.0
  0
LINE
  8
CARROZZERIA
 62
30
 10
775.92
 20
221.11
 30
0.0
 11
803.27
 21
182.02
 31
0.0
  0
LINE
  8
CARROZZERIA
 62
30
 10
803.27
 20
182.02
 30
0.0
 11
786.79
 21
141.22
 31
0.0
  0
LINE
  8
CARROZZERIA
 62
30
 10
726.12
 20
266.03
 30
0.0
 11
743.73
 21
309.61
 31
0.0
  0
LINE
  8
CARROZZERIA
 62
30
 10
745.59
 20
258.16
 30
0.0
 11
763.2
 21
301.74
 31
0.0
  0
LINE
  8
CARROZZERIA
 62
30
 10
722.22
 20
320.45
 30
0.0
 11
787.13
 21
294.23
 31
0.0
  0
LINE
  8
CARROZZERIA
 62
30
 10
720.73
 20
316.74
 30
0.0
 11
785.63
 21
290.52
 31
0.0
  0
LINE
  8
CARROZZERIA
 62
30
 10
720.73
 20
316.74
 30
0.0
 11
722.22
 21
320.45
 31
0.0
  0
LINE
  8
CARROZZERIA
 62
30
 10
785.63
 20
290.52
 30
0.0
 11
787.13
 21
294.23
 31
0.0
  0
CIRCLE
  8
CARROZZERIA
 62
30
 10
685.64
 20
211.2
 30
0.0
 40
35
  0
CIRCLE
  8
CARROZZERIA
 62
30
 10
463.11
 20
301.1
 30
0.0
 40
35
  0
LINE
  8
CARROZZERIA
 62
1
 10
549.83
 20
263.38
 30
0.0
 11
559.22
 21
259.94
 31
0.0
  0
LINE
  8
CARROZZERIA
 62
1
 10
552.81
 20
256.97
 30
0.0
 11
556.25
 21
266.36
 31
0.0
  0
LINE
  8
CARROZZERIA
 62
1
 10
775.21
 20
180.9
 30
0.0
 11
784.6
 21
177.46
 31
0.0
  0
LINE
  8
CARROZZERIA
 62
1
 10
778.19
 20
174.48
 30
0.0
 11
781.63
 21
183.87
 31
0.0
  0
LINE
  8
CARROZZERIA
 62
1
 10
413.78
 20
284.42
 30
0.0
 11
512.66
 21
248.23
 31
0.0
  0
LINE
  8
CARROZZERIA
 62
1
 10
577.84
 20
224.38
 30
0.0
 11
738.04
 21
165.75
 31
0.0
  0
LINE
  8
CARROZZERIA
 62
1
 10
803.22
 20
141.9
 30
0.0
 11
883.32
 21
112.58
 31
0.0
  0
LINE
  8
CARROZZERIA
 62
1
 10
413.78
 20
284.42
 30
0.0
 11
423.06
 21
309.78
 31
0.0
  0
LINE
  8
CARROZZERIA
 62
1
 10
423.06
 20
309.78
 30
0.0
 11
440.17
 21
321.62
 31
0.0
  0
LINE
  8
CARROZZERIA
 62
1
 10
440.17
 20
321.62
 30
0.0
 11
458.63
 21
325.51
 31
0.0
  0
LINE
  8
CARROZZERIA
 62
1
 10
458.63
 20
325.51
 30
0.0
 11
496.81
 21
322.18
 31
0.0
  0
LINE
  8
CARROZZERIA
 62
1
 10
496.81
 20
322.18
 30
0.0
 11
546.52
 21
312.51
 31
0.0
  0
LINE
  8
CARROZZERIA
 62
1
 10
546.52
 20
312.51
 30
0.0
 11
575.72
 21
305.02
 31
0.0
  0
LINE
  8
CARROZZERIA
 62
1
 10
575.72
 20
305.02
 30
0.0
 11
622.18
 21
335.94
 31
0.0
  0
LINE
  8
CARROZZERIA
 62
1
 10
622.18
 20
335.94
 30
0.0
 11
741.44
 21
292.29
 31
0.0
  0
LINE
  8
CARROZZERIA
 62
1
 10
741.44
 20
292.29
 30
0.0
 11
775.11
 21
253.35
 31
0.0
  0
LINE
  8
CARROZZERIA
 62
1
 10
775.11
 20
253.35
 30
0.0
 11
830.77
 21
230.85
 31
0.0
  0
LINE
  8
CARROZZERIA
 62
1
 10
830.77
 20
230.85
 30
0.0
 11
869.81
 21
192.06
 31
0.0
  0
LINE
  8
CARROZZERIA
 62
1
 10
869.81
 20
192.06
 30
0.0
 11
898.44
 21
153.9
 31
0.0
  0
LINE
  8
CARROZZERIA
 62
1
 10
898.44
 20
153.9
 30
0.0
 11
883.32
 21
112.58
 31
0.0
  0
LINE
  8
CARROZZERIA
 62
1
 10
818.56
 20
235.31
 30
0.0
 11
834.71
 21
279.45
 31
0.0
  0
LINE
  8
CARROZZERIA
 62
1
 10
838.28
 20
228.1
 30
0.0
 11
854.43
 21
272.23
 31
0.0
  0
LINE
  8
CARROZZERIA
 62
1
 10
812.86
 20
289.58
 30
0.0
 11
878.6
 21
265.52
 31
0.0
  0
LINE
  8
CARROZZERIA
 62
1
 10
811.48
 20
285.82
 30
0.0
 11
877.22
 21
261.76
 31
0.0
  0
LINE
  8
CARROZZERIA
 62
1
 10
811.48
 20
285.82
 30
0.0
 11
812.86
 21
289.58
 31
0.0
  0
LINE
  8
CARROZZERIA
 62
1
 10
877.22
 20
261.76
 30
0.0
 11
878.6
 21
265.52
 31
0.0
  0
CIRCLE
  8
CARROZZERIA
 62
1
 10
779.91
 20
179.18
 30
0.0
 40
35
  0
CIRCLE
  8
CARROZZERIA
 62
1
 10
554.53
 20
261.66
 30
0.0
 40
35
  0
LINE
  8
CARROZZERIA
 62
1
 10
606.63
 20
240.55
 30
0.0
 11
616.09
 21
237.3
 31
0.0
  0
LINE
  8
CARROZZERIA
 62
1
 10
609.74
 20
234.2
 30
0.0
 11
612.98
 21
243.66
 31
0.0
  0
LINE
  8
CARROZZERIA
 62
1
 10
833.64
 20
162.67
 30
0.0
 11
843.1
 21
159.42
 31
0.0
  0
LINE
  8
CARROZZERIA
 62
1
 10
836.75
 20
156.32
 30
0.0
 11
839.99
 21
165.77
 31
0.0
  0
LINE
  8
CARROZZERIA
 62
1
 10
470.17
 20
258.82
 30
0.0
 11
569.77
 21
224.65
 31
0.0
  0
LINE
  8
CARROZZERIA
 62
1
 10
635.42
 20
202.13
 30
0.0
 11
796.79
 21
146.77
 31
0.0
  0
LINE
  8
CARROZZERIA
 62
1
 10
862.43
 20
124.25
 30
0.0
 11
943.11
 21
96.57
 31
0.0
  0
LINE
  8
CARROZZERIA
 62
1
 10
470.17
 20
258.82
 30
0.0
 11
478.93
 21
284.36
 31
0.0
  0
LINE
  8
CARROZZERIA
 62
1
 10
478.93
 20
284.36
 30
0.0
 11
495.8
 21
296.54
 31
0.0
  0
LINE
  8
CARROZZERIA
 62
1
 10
495.8
 20
296.54
 30
0.0
 11
514.18
 21
300.81
 31
0.0
  0
LINE
  8
CARROZZERIA
 62
1
 10
514.18
 20
300.81
 30
0.0
 11
552.42
 21
298.26
 31
0.0
  0
LINE
  8
CARROZZERIA
 62
1
 10
552.42
 20
298.26
 30
0.0
 11
602.31
 21
289.6
 31
0.0
  0
LINE
  8
CARROZZERIA
 62
1
 10
602.31
 20
289.6
 30
0.0
 11
631.66
 21
282.71
 31
0.0
  0
LINE
  8
CARROZZERIA
 62
1
 10
631.66
 20
282.71
 30
0.0
 11
677.48
 21
314.56
 31
0.0
  0
LINE
  8
CARROZZERIA
 62
1
 10
677.48
 20
314.56
 30
0.0
 11
797.61
 21
273.35
 31
0.0
  0
LINE
  8
CARROZZERIA
 62
1
 10
797.61
 20
273.35
 30
0.0
 11
832.06
 21
235.1
 31
0.0
  0
LINE
  8
CARROZZERIA
 62
1
 10
832.06
 20
235.1
 30
0.0
 11
888.16
 21
213.74
 31
0.0
  0
LINE
  8
CARROZZERIA
 62
1
 10
888.16
 20
213.74
 30
0.0
 11
927.99
 21
175.76
 31
0.0
  0
LINE
  8
CARROZZERIA
 62
1
 10
927.99
 20
175.76
 30
0.0
 11
957.39
 21
138.18
 31
0.0
  0
LINE
  8
CARROZZERIA
 62
1
 10
957.39
 20
138.18
 30
0.0
 11
943.11
 21
96.57
 31
0.0
  0
LINE
  8
CARROZZERIA
 62
1
 10
875.87
 20
217.96
 30
0.0
 11
891.12
 21
262.41
 31
0.0
  0
LINE
  8
CARROZZERIA
 62
1
 10
895.73
 20
211.14
 30
0.0
 11
910.98
 21
255.6
 31
0.0
  0
LINE
  8
CARROZZERIA
 62
1
 10
869.07
 20
272.09
 30
0.0
 11
935.28
 21
249.38
 31
0.0
  0
LINE
  8
CARROZZERIA
 62
1
 10
867.77
 20
268.31
 30
0.0
 11
933.98
 21
245.59
 31
0.0
  0
LINE
  8
CARROZZERIA
 62
1
 10
867.77
 20
268.31
 30
0.0
 11
869.07
 21
272.09
 31
0.0
  0
LINE
  8
CARROZZERIA
 62
1
 10
933.98
 20
245.59
 30
0.0
 11
935.28
 21
249.38
 31
0.0
  0
CIRCLE
  8
CARROZZERIA
 62
1
 10
838.37
 20
161.04
 30
0.0
 40
35
  0
CIRCLE
  8
CARROZZERIA
 62
1
 10
611.36
 20
238.93
 30
0.0
 40
35
  0
LINE
  8
CARROZZERIA
 62
1
 10
754.8
 20
187.15
 30
0.0
 11
764.42
 21
184.41
 31
0.0
  0
LINE
  8
CARROZZERIA
 62
1
 10
758.24
 20
180.97
 30
0.0
 11
760.98
 21
190.59
 31
0.0
  0
LINE
  8
CARROZZERIA
 62
1
 10
985.58
 20
121.26
 30
0.0
 11
995.19
 21
118.52
 31
0.0
  0
LINE
  8
CARROZZERIA
 62
1
 10
989.01
 20
115.08
 30
0.0
 11
991.76
 21
124.7
 31
0.0
  0
LINE
  8
CARROZZERIA
 62
1
 10
617.58
 20
198.25
 30
0.0
 11
718.83
 21
169.34
 31
0.0
  0
LINE
  8
CARROZZERIA
 62
1
 10
785.56
 20
150.29
 30
0.0
 11
949.61
 21
103.45
 31
0.0
  0
LINE
  8
CARROZZERIA
 62
1
 10
1016.34
 20
84.4
 30
0.0
 11
1098.36
 21
60.98
 31
0.0
  0
LINE
  8
CARROZZERIA
 62
1
 10
617.58
 20
198.25
 30
0.0
 11
624.99
 21
224.22
 31
0.0
  0
LINE
  8
CARROZZERIA
 62
1
 10
624.99
 20
224.22
 30
0.0
 11
641.19
 21
237.27
 31
0.0
  0
LINE
  8
CARROZZERIA
 62
1
 10
641.19
 20
237.27
 30
0.0
 11
659.33
 21
242.49
 31
0.0
  0
LINE
  8
CARROZZERIA
 62
1
 10
659.33
 20
242.49
 30
0.0
 11
697.65
 21
241.95
 31
0.0
  0
LINE
  8
CARROZZERIA
 62
1
 10
697.65
 20
241.95
 30
0.0
 11
747.92
 21
235.91
 31
0.0
  0
LINE
  8
CARROZZERIA
 62
1
 10
747.92
 20
235.91
 30
0.0
 11
777.59
 21
230.56
 31
0.0
  0
LINE
  8
CARROZZERIA
 62
1
 10
777.59
 20
230.56
 30
0.0
 11
821.68
 21
264.77
 31
0.0
  0
LINE
  8
CARROZZERIA
 62
1
 10
821.68
 20
264.77
 30
0.0
 11
943.8
 21
229.91
 31
0.0
  0
LINE
  8
CARROZZERIA
 62
1
 10
943.8
 20
229.91
 30
0.0
 11
980.21
 21
193.51
 31
0.0
  0
LINE
  8
CARROZZERIA
 62
1
 10
980.21
 20
193.51
 30
0.0
 11
1037.35
 21
175.12
 31
0.0
  0
LINE
  8
CARROZZERIA
 62
1
 10
1037.35
 20
175.12
 30
0.0
 11
1079.12
 21
139.27
 31
0.0
  0
LINE
  8
CARROZZERIA
 62
1
 10
1079.12
 20
139.27
 30
0.0
 11
1110.44
 21
103.29
 31
0.0
  0
LINE
  8
CARROZZERIA
 62
1
 10
1110.44
 20
103.29
 30
0.0
 11
1098.36
 21
60.98
 31
0.0
  0
LINE
  8
CARROZZERIA
 62
1
 10
1024.85
 20
178.69
 30
0.0
 11
1037.76
 21
223.88
 31
0.0
  0
LINE
  8
CARROZZERIA
 62
1
 10
1045.05
 20
172.92
 30
0.0
 11
1057.95
 21
218.12
 31
0.0
  0
LINE
  8
CARROZZERIA
 62
1
 10
1015.23
 20
232.39
 30
0.0
 11
1082.54
 21
213.17
 31
0.0
  0
LINE
  8
CARROZZERIA
 62
1
 10
1014.13
 20
228.55
 30
0.0
 11
1081.44
 21
209.33
 31
0.0
  0
LINE
  8
CARROZZERIA
 62
1
 10
1014.13
 20
228.55
 30
0.0
 11
1015.23
 21
232.39
 31
0.0
  0
LINE
  8
CARROZZERIA
 62
1
 10
1081.44
 20
209.33
 30
0.0
 11
1082.54
 21
213.17
 31
0.0
  0
CIRCLE
  8
CARROZZERIA
 62
1
 10
990.39
 20
119.89
 30
0.0
 40
35
  0
CIRCLE
  8
CARROZZERIA
 62
1
 10
759.61
 20
185.78
 30
0.0
 40
35
  0
LINE
  8
CARROZZERIA
 62
1
 10
902.99
 20
142.29
 30
0.0
 11
912.74
 21
140.05
 31
0.0
  0
LINE
  8
CARROZZERIA
 62
1
 10
906.74
 20
136.3
 30
0.0
 11
908.99
 21
146.04
 31
0.0
  0
LINE
  8
CARROZZERIA
 62
1
 10
1136.86
 20
88.37
 30
0.0
 11
1146.6
 21
86.12
 31
0.0
  0
LINE
  8
CARROZZERIA
 62
1
 10
1140.6
 20
82.37
 30
0.0
 11
1142.85
 21
92.12
 31
0.0
  0
LINE
  8
CARROZZERIA
 62
1
 10
765.38
 20
146.32
 30
0.0
 11
867.98
 21
122.66
 31
0.0
  0
LINE
  8
CARROZZERIA
 62
1
 10
935.61
 20
107.06
 30
0.0
 11
1101.85
 21
68.73
 31
0.0
  0
LINE
  8
CARROZZERIA
 62
1
 10
1169.47
 20
53.14
 30
0.0
 11
1252.59
 21
33.97
 31
0.0
  0
LINE
  8
CARROZZERIA
 62
1
 10
765.38
 20
146.32
 30
0.0
 11
771.44
 21
172.63
 31
0.0
  0
LINE
  8
CARROZZERIA
 62
1
 10
771.44
 20
172.63
 30
0.0
 11
786.96
 21
186.5
 31
0.0
  0
LINE
  8
CARROZZERIA
 62
1
 10
786.96
 20
186.5
 30
0.0
 11
804.79
 21
192.65
 31
0.0
  0
LINE
  8
CARROZZERIA
 62
1
 10
804.79
 20
192.65
 30
0.0
 11
843.1
 21
194.08
 31
0.0
  0
LINE
  8
CARROZZERIA
 62
1
 10
843.1
 20
194.08
 30
0.0
 11
893.61
 21
190.64
 31
0.0
  0
LINE
  8
CARROZZERIA
 62
1
 10
893.61
 20
190.64
 30
0.0
 11
923.52
 21
186.82
 31
0.0
  0
LINE
  8
CARROZZERIA
 62
1
 10
923.52
 20
186.82
 30
0.0
 11
965.79
 21
223.25
 31
0.0
  0
LINE
  8
CARROZZERIA
 62
1
 10
965.79
 20
223.25
 30
0.0
 11
1089.54
 21
194.72
 31
0.0
  0
LINE
  8
CARROZZERIA
 62
1
 10
1089.54
 20
194.72
 30
0.0
 11
1127.77
 21
160.25
 31
0.0
  0
LINE
  8
CARROZZERIA
 62
1
 10
1127.77
 20
160.25
 30
0.0
 11
1185.79
 21
144.82
 31
0.0
  0
LINE
  8
CARROZZERIA
 62
1
 10
1185.79
 20
144.82
 30
0.0
 11
1229.34
 21
111.17
 31
0.0
  0
LINE
  8
CARROZZERIA
 62
1
 10
1229.34
 20
111.17
 30
0.0
 11
1262.48
 21
76.85
 31
0.0
  0
LINE
  8
CARROZZERIA
 62
1
 10
1262.48
 20
76.85
 30
0.0
 11
1252.59
 21
33.97
 31
0.0
  0
LINE
  8
CARROZZERIA
 62
1
 10
1173.12
 20
147.74
 30
0.0
 11
1183.68
 21
193.53
 31
0.0
  0
LINE
  8
CARROZZERIA
 62
1
 10
1193.59
 20
143.02
 30
0.0
 11
1204.15
 21
188.82
 31
0.0
  0
LINE
  8
CARROZZERIA
 62
1
 10
1160.75
 20
200.88
 30
0.0
 11
1228.96
 21
185.15
 31
0.0
  0
LINE
  8
CARROZZERIA
 62
1
 10
1159.85
 20
196.98
 30
0.0
 11
1228.06
 21
181.25
 31
0.0
  0
LINE
  8
CARROZZERIA
 62
1
 10
1159.85
 20
196.98
 30
0.0
 11
1160.75
 21
200.88
 31
0.0
  0
LINE
  8
CARROZZERIA
 62
1
 10
1228.06
 20
181.25
 30
0.0
 11
1228.96
 21
185.15
 31
0.0
  0
CIRCLE
  8
CARROZZERIA
 62
1
 10
1141.73
 20
87.24
 30
0.0
 40
35
  0
CIRCLE
  8
CARROZZERIA
 62
1
 10
907.86
 20
141.17
 30
0.0
 40
35
  0
LINE
  8
CARROZZERIA
 62
1
 10
1051.2
 20
105.58
 30
0.0
 11
1061.05
 21
103.83
 31
0.0
  0
LINE
  8
CARROZZERIA
 62
1
 10
1055.25
 20
99.78
 30
0.0
 11
1057
 21
109.63
 31
0.0
  0
LINE
  8
CARROZZERIA
 62
1
 10
1287.5
 20
63.59
 30
0.0
 11
1297.34
 21
61.84
 31
0.0
  0
LINE
  8
CARROZZERIA
 62
1
 10
1291.55
 20
57.8
 30
0.0
 11
1293.3
 21
67.64
 31
0.0
  0
LINE
  8
CARROZZERIA
 62
1
 10
913.56
 20
102.62
 30
0.0
 11
1017.23
 21
84.19
 31
0.0
  0
LINE
  8
CARROZZERIA
 62
1
 10
1085.56
 20
72.05
 30
0.0
 11
1253.53
 21
42.21
 31
0.0
  0
LINE
  8
CARROZZERIA
 62
1
 10
1321.86
 20
30.06
 30
0.0
 11
1405.85
 21
15.14
 31
0.0
  0
LINE
  8
CARROZZERIA
 62
1
 10
913.56
 20
102.62
 30
0.0
 11
918.28
 21
129.2
 31
0.0
  0
LINE
  8
CARROZZERIA
 62
1
 10
918.28
 20
129.2
 30
0.0
 11
933.07
 21
143.84
 31
0.0
  0
LINE
  8
CARROZZERIA
 62
1
 10
933.07
 20
143.84
 30
0.0
 11
950.57
 21
150.89
 31
0.0
  0
LINE
  8
CARROZZERIA
 62
1
 10
950.57
 20
150.89
 30
0.0
 11
988.75
 21
154.26
 31
0.0
  0
LINE
  8
CARROZZERIA
 62
1
 10
988.75
 20
154.26
 30
0.0
 11
1039.38
 21
153.39
 31
0.0
  0
LINE
  8
CARROZZERIA
 62
1
 10
1039.38
 20
153.39
 30
0.0
 11
1069.44
 21
151.09
 31
0.0
  0
LINE
  8
CARROZZERIA
 62
1
 10
1069.44
 20
151.09
 30
0.0
 11
1109.81
 21
189.62
 31
0.0
  0
LINE
  8
CARROZZERIA
 62
1
 10
1109.81
 20
189.62
 30
0.0
 11
1234.85
 21
167.41
 31
0.0
  0
LINE
  8
CARROZZERIA
 62
1
 10
1234.85
 20
167.41
 30
0.0
 11
1274.78
 21
134.92
 31
0.0
  0
LINE
  8
CARROZZERIA
 62
1
 10
1274.78
 20
134.92
 30
0.0
 11
1333.51
 21
122.45
 31
0.0
  0
LINE
  8
CARROZZERIA
 62
1
 10
1333.51
 20
122.45
 30
0.0
 11
1378.71
 21
91.06
 31
0.0
  0
LINE
  8
CARROZZERIA
 62
1
 10
1378.71
 20
91.06
 30
0.0
 11
1413.55
 21
58.46
 31
0.0
  0
LINE
  8
CARROZZERIA
 62
1
 10
1413.55
 20
58.46
 30
0.0
 11
1405.85
 21
15.14
 31
0.0
  0
LINE
  8
CARROZZERIA
 62
1
 10
1320.71
 20
124.73
 30
0.0
 11
1328.93
 21
171
 31
0.0
  0
LINE
  8
CARROZZERIA
 62
1
 10
1341.38
 20
121.05
 30
0.0
 11
1349.61
 21
167.33
 31
0.0
  0
LINE
  8
CARROZZERIA
 62
1
 10
1305.65
 20
177.17
 30
0.0
 11
1374.57
 21
164.92
 31
0.0
  0
LINE
  8
CARROZZERIA
 62
1
 10
1304.95
 20
173.23
 30
0.0
 11
1373.87
 21
160.99
 31
0.0
  0
LINE
  8
CARROZZERIA
 62
1
 10
1304.95
 20
173.23
 30
0.0
 11
1305.65
 21
177.17
 31
0.0
  0
LINE
  8
CARROZZERIA
 62
1
 10
1373.87
 20
160.99
 30
0.0
 11
1374.57
 21
164.92
 31
0.0
  0
CIRCLE
  8
CARROZZERIA
 62
1
 10
1292.42
 20
62.72
 30
0.0
 40
35
  0
CIRCLE
  8
CARROZZERIA
 62
1
 10
1056.12
 20
104.71
 30
0.0
 40
35
  0
LINE
  8
CARROZZERIA
 62
1
 10
1199.43
 20
76.72
 30
0.0
 11
1209.35
 21
75.47
 31
0.0
  0
LINE
  8
CARROZZERIA
 62
1
 10
1203.76
 20
71.13
 30
0.0
 11
1205.01
 21
81.05
 31
0.0
  0
LINE
  8
CARROZZERIA
 62
1
 10
1437.53
 20
46.64
 30
0.0
 11
1447.45
 21
45.39
 31
0.0
  0
LINE
  8
CARROZZERIA
 62
1
 10
1441.87
 20
41.06
 30
0.0
 11
1443.12
 21
50.98
 31
0.0
  0
LINE
  8
CARROZZERIA
 62
1
 10
1062.11
 20
66.85
 30
0.0
 11
1166.58
 21
53.65
 31
0.0
  0
LINE
  8
CARROZZERIA
 62
1
 10
1235.43
 20
44.96
 30
0.0
 11
1404.68
 21
23.58
 31
0.0
  0
LINE
  8
CARROZZERIA
 62
1
 10
1473.54
 20
14.88
 30
0.0
 11
1558.16
 21
4.19
 31
0.0
  0
LINE
  8
CARROZZERIA
 62
1
 10
1062.11
 20
66.85
 30
0.0
 11
1065.49
 21
93.64
 31
0.0
  0
LINE
  8
CARROZZERIA
 62
1
 10
1065.49
 20
93.64
 30
0.0
 11
1079.53
 21
109
 31
0.0
  0
LINE
  8
CARROZZERIA
 62
1
 10
1079.53
 20
109
 30
0.0
 11
1096.65
 21
116.91
 31
0.0
  0
LINE
  8
CARROZZERIA
 62
1
 10
1096.65
 20
116.91
 30
0.0
 11
1134.61
 21
122.2
 31
0.0
  0
LINE
  8
CARROZZERIA
 62
1
 10
1134.61
 20
122.2
 30
0.0
 11
1185.22
 21
123.87
 31
0.0
  0
LINE
  8
CARROZZERIA
 62
1
 10
1185.22
 20
123.87
 30
0.0
 11
1215.36
 21
123.09
 31
0.0
  0
LINE
  8
CARROZZERIA
 62
1
 10
1215.36
 20
123.09
 30
0.0
 11
1253.74
 21
163.6
 31
0.0
  0
LINE
  8
CARROZZERIA
 62
1
 10
1253.74
 20
163.6
 30
0.0
 11
1379.74
 21
147.68
 31
0.0
  0
LINE
  8
CARROZZERIA
 62
1
 10
1379.74
 20
147.68
 30
0.0
 11
1421.25
 21
117.24
 31
0.0
  0
LINE
  8
CARROZZERIA
 62
1
 10
1421.25
 20
117.24
 30
0.0
 11
1480.53
 21
107.74
 31
0.0
  0
LINE
  8
CARROZZERIA
 62
1
 10
1480.53
 20
107.74
 30
0.0
 11
1527.25
 21
78.65
 31
0.0
  0
LINE
  8
CARROZZERIA
 62
1
 10
1527.25
 20
78.65
 30
0.0
 11
1563.68
 21
47.85
 31
0.0
  0
LINE
  8
CARROZZERIA
 62
1
 10
1563.68
 20
47.85
 30
0.0
 11
1558.16
 21
4.19
 31
0.0
  0
LINE
  8
CARROZZERIA
 62
1
 10
1467.63
 20
109.37
 30
0.0
 11
1473.52
 21
156
 31
0.0
  0
LINE
  8
CARROZZERIA
 62
1
 10
1488.47
 20
106.74
 30
0.0
 11
1494.35
 21
153.36
 31
0.0
  0
LINE
  8
CARROZZERIA
 62
1
 10
1449.96
 20
160.99
 30
0.0
 11
1519.41
 21
152.22
 31
0.0
  0
LINE
  8
CARROZZERIA
 62
1
 10
1449.46
 20
157.02
 30
0.0
 11
1518.91
 21
148.25
 31
0.0
  0
LINE
  8
CARROZZERIA
 62
1
 10
1449.46
 20
157.02
 30
0.0
 11
1449.96
 21
160.99
 31
0.0
  0
LINE
  8
CARROZZERIA
 62
1
 10
1518.91
 20
148.25
 30
0.0
 11
1519.41
 21
152.22
 31
0.0
  0
CIRCLE
  8
CARROZZERIA
 62
1
 10
1442.49
 20
46.02
 30
0.0
 40
35
  0
CIRCLE
  8
CARROZZERIA
 62
1
 10
1204.39
 20
76.09
 30
0.0
 40
35
  0
LINE
  8
CARROZZERIA
 62
1
 10
1347.67
 20
55.48
 30
0.0
 11
1357.64
 21
54.72
 31
0.0
  0
LINE
  8
CARROZZERIA
 62
1
 10
1352.27
 20
50.11
 30
0.0
 11
1353.03
 21
60.08
 31
0.0
  0
LINE
  8
CARROZZERIA
 62
1
 10
1586.98
 20
37.29
 30
0.0
 11
1596.95
 21
36.53
 31
0.0
  0
LINE
  8
CARROZZERIA
 62
1
 10
1591.58
 20
31.93
 30
0.0
 11
1592.34
 21
41.9
 31
0.0
  0
LINE
  8
CARROZZERIA
 62
1
 10
1211.01
 20
38.78
 30
0.0
 11
1316.01
 21
30.81
 31
0.0
  0
LINE
  8
CARROZZERIA
 62
1
 10
1385.21
 20
25.55
 30
0.0
 11
1555.32
 21
12.62
 31
0.0
  0
LINE
  8
CARROZZERIA
 62
1
 10
1624.52
 20
7.36
 30
0.0
 11
1709.57
 21
0.9
 31
0.0
  0
LINE
  8
CARROZZERIA
 62
1
 10
1211.01
 20
38.78
 30
0.0
 11
1213.05
 21
65.71
 31
0.0
  0
LINE
  8
CARROZZERIA
 62
1
 10
1213.05
 20
65.71
 30
0.0
 11
1226.31
 21
81.75
 31
0.0
  0
LINE
  8
CARROZZERIA
 62
1
 10
1226.31
 20
81.75
 30
0.0
 11
1243.02
 21
90.51
 31
0.0
  0
LINE
  8
CARROZZERIA
 62
1
 10
1243.02
 20
90.51
 30
0.0
 11
1280.67
 21
97.68
 31
0.0
  0
LINE
  8
CARROZZERIA
 62
1
 10
1280.67
 20
97.68
 30
0.0
 11
1331.13
 21
101.86
 31
0.0
  0
LINE
  8
CARROZZERIA
 62
1
 10
1331.13
 20
101.86
 30
0.0
 11
1361.27
 21
102.58
 31
0.0
  0
LINE
  8
CARROZZERIA
 62
1
 10
1361.27
 20
102.58
 30
0.0
 11
1397.59
 21
144.95
 31
0.0
  0
LINE
  8
CARROZZERIA
 62
1
 10
1397.59
 20
144.95
 30
0.0
 11
1524.22
 21
135.33
 31
0.0
  0
LINE
  8
CARROZZERIA
 62
1
 10
1524.22
 20
135.33
 30
0.0
 11
1567.2
 21
106.99
 31
0.0
  0
LINE
  8
CARROZZERIA
 62
1
 10
1567.2
 20
106.99
 30
0.0
 11
1626.88
 21
100.45
 31
0.0
  0
LINE
  8
CARROZZERIA
 62
1
 10
1626.88
 20
100.45
 30
0.0
 11
1674.99
 21
73.73
 31
0.0
  0
LINE
  8
CARROZZERIA
 62
1
 10
1674.99
 20
73.73
 30
0.0
 11
1712.91
 21
44.77
 31
0.0
  0
LINE
  8
CARROZZERIA
 62
1
 10
1712.91
 20
44.77
 30
0.0
 11
1709.57
 21
0.9
 31
0.0
  0
LINE
  8
CARROZZERIA
 62
1
 10
1613.91
 20
101.44
 30
0.0
 11
1617.48
 21
148.3
 31
0.0
  0
LINE
  8
CARROZZERIA
 62
1
 10
1634.85
 20
99.84
 30
0.0
 11
1638.41
 21
146.71
 31
0.0
  0
LINE
  8
CARROZZERIA
 62
1
 10
1593.7
 20
152.11
 30
0.0
 11
1663.49
 21
146.81
 31
0.0
  0
LINE
  8
CARROZZERIA
 62
1
 10
1593.39
 20
148.12
 30
0.0
 11
1663.19
 21
142.82
 31
0.0
  0
LINE
  8
CARROZZERIA
 62
1
 10
1593.39
 20
148.12
 30
0.0
 11
1593.7
 21
152.11
 31
0.0
  0
LINE
  8
CARROZZERIA
 62
1
 10
1663.19
 20
142.82
 30
0.0
 11
1663.49
 21
146.81
 31
0.0
  0
CIRCLE
  8
CARROZZERIA
 62
1
 10
1591.96
 20
36.91
 30
0.0
 40
35
  0
CIRCLE
  8
CARROZZERIA
 62
1
 10
1352.65
 20
55.1
 30
0.0
 40
35
  0
LINE
  8
CARROZZERIA
 62
1
 10
1495.96
 20
41.7
 30
0.0
 11
1505.96
 21
41.43
 31
0.0
  0
LINE
  8
CARROZZERIA
 62
1
 10
1500.82
 20
36.57
 30
0.0
 11
1501.1
 21
46.57
 31
0.0
  0
LINE
  8
CARROZZERIA
 62
1
 10
1735.87
 20
35.12
 30
0.0
 11
1745.87
 21
34.85
 31
0.0
  0
LINE
  8
CARROZZERIA
 62
1
 10
1740.73
 20
29.99
 30
0.0
 11
1741.01
 21
39.98
 31
0.0
  0
LINE
  8
CARROZZERIA
 62
1
 10
1360.27
 20
18.42
 30
0.0
 11
1465.53
 21
15.53
 31
0.0
  0
LINE
  8
CARROZZERIA
 62
1
 10
1534.91
 20
13.63
 30
0.0
 11
1705.44
 21
8.95
 31
0.0
  0
LINE
  8
CARROZZERIA
 62
1
 10
1774.82
 20
7.05
 30
0.0
 11
1860.08
 21
4.71
 31
0.0
  0
LINE
  8
CARROZZERIA
 62
1
 10
1360.27
 20
18.42
 30
0.0
 11
1361.01
 21
45.41
 31
0.0
  0
LINE
  8
CARROZZERIA
 62
1
 10
1361.01
 20
45.41
 30
0.0
 11
1373.47
 21
62.07
 31
0.0
  0
LINE
  8
CARROZZERIA
 62
1
 10
1373.47
 20
62.07
 30
0.0
 11
1389.74
 21
71.63
 31
0.0
  0
LINE
  8
CARROZZERIA
 62
1
 10
1389.74
 20
71.63
 30
0.0
 11
1427
 21
80.61
 31
0.0
  0
LINE
  8
CARROZZERIA
 62
1
 10
1427
 20
80.61
 30
0.0
 11
1477.2
 21
87.24
 31
0.0
  0
LINE
  8
CARROZZERIA
 62
1
 10
1477.2
 20
87.24
 30
0.0
 11
1507.27
 21
89.41
 31
0.0
  0
LINE
  8
CARROZZERIA
 62
1
 10
1507.27
 20
89.41
 30
0.0
 11
1541.5
 21
133.49
 31
0.0
  0
LINE
  8
CARROZZERIA
 62
1
 10
1541.5
 20
133.49
 30
0.0
 11
1668.45
 21
130.01
 31
0.0
  0
LINE
  8
CARROZZERIA
 62
1
 10
1668.45
 20
130.01
 30
0.0
 11
1712.75
 21
103.78
 31
0.0
  0
LINE
  8
CARROZZERIA
 62
1
 10
1712.75
 20
103.78
 30
0.0
 11
1772.67
 21
100.14
 31
0.0
  0
LINE
  8
CARROZZERIA
 62
1
 10
1772.67
 20
100.14
 30
0.0
 11
1822.02
 21
75.78
 31
0.0
  0
LINE
  8
CARROZZERIA
 62
1
 10
1822.02
 20
75.78
 30
0.0
 11
1861.29
 21
48.69
 31
0.0
  0
LINE
  8
CARROZZERIA
 62
1
 10
1861.29
 20
48.69
 30
0.0
 11
1860.08
 21
4.71
 31
0.0
  0
LINE
  8
CARROZZERIA
 62
1
 10
1759.67
 20
100.5
 30
0.0
 11
1760.96
 21
147.48
 31
0.0
  0
LINE
  8
CARROZZERIA
 62
1
 10
1780.66
 20
99.92
 30
0.0
 11
1781.95
 21
146.9
 31
0.0
  0
LINE
  8
CARROZZERIA
 62
1
 10
1737.03
 20
150.14
 30
0.0
 11
1807
 21
148.22
 31
0.0
  0
LINE
  8
CARROZZERIA
 62
1
 10
1736.92
 20
146.14
 30
0.0
 11
1806.89
 21
144.22
 31
0.0
  0
LINE
  8
CARROZZERIA
 62
1
 10
1736.92
 20
146.14
 30
0.0
 11
1737.03
 21
150.14
 31
0.0
  0
LINE
  8
CARROZZERIA
 62
1
 10
1806.89
 20
144.22
 30
0.0
 11
1807
 21
148.22
 31
0.0
  0
CIRCLE
  8
CARROZZERIA
 62
1
 10
1740.87
 20
34.99
 30
0.0
 40
35
  0
CIRCLE
  8
CARROZZERIA
 62
1
 10
1500.96
 20
41.57
 30
0.0
 40
35
  0
LINE
  8
CARROZZERIA
 62
90
 10
1645.06
 20
35.42
 30
0.0
 11
1655.06
 21
35.4
 31
0.0
  0
LINE
  8
CARROZZERIA
 62
90
 10
1650.05
 20
30.41
 30
0.0
 11
1650.07
 21
40.41
 31
0.0
  0
LINE
  8
CARROZZERIA
 62
90
 10
1885.06
 20
35.01
 30
0.0
 11
1895.06
 21
34.99
 31
0.0
  0
LINE
  8
CARROZZERIA
 62
90
 10
1890.05
 20
30
 30
0.0
 11
1890.07
 21
40
 31
0.0
  0
LINE
  8
CARROZZERIA
 62
90
 10
1510.01
 20
8.65
 30
0.0
 11
1615.31
 21
8.47
 31
0.0
  0
LINE
  8
CARROZZERIA
 62
90
 10
1684.71
 20
8.35
 30
0.0
 11
1855.31
 21
8.06
 31
0.0
  0
LINE
  8
CARROZZERIA
 62
90
 10
1924.71
 20
7.94
 30
0.0
 11
2010.01
 21
7.79
 31
0.0
  0
LINE
  8
CARROZZERIA
 62
90
 10
1510.01
 20
8.65
 30
0.0
 11
1510.06
 21
35.65
 31
0.0
  0
LINE
  8
CARROZZERIA
 62
90
 10
1510.06
 20
35.65
 30
0.0
 11
1522.09
 21
52.63
 31
0.0
  0
LINE
  8
CARROZZERIA
 62
90
 10
1522.09
 20
52.63
 30
0.0
 11
1538.11
 21
62.6
 31
0.0
  0
LINE
  8
CARROZZERIA
 62
90
 10
1538.11
 20
62.6
 30
0.0
 11
1575.12
 21
72.54
 31
0.0
  0
LINE
  8
CARROZZERIA
 62
90
 10
1575.12
 20
72.54
 30
0.0
 11
1625.14
 21
80.45
 31
0.0
  0
LINE
  8
CARROZZERIA
 62
90
 10
1625.14
 20
80.45
 30
0.0
 11
1655.14
 21
83.4
 31
0.0
  0
LINE
  8
CARROZZERIA
 62
90
 10
1655.14
 20
83.4
 30
0.0
 11
1688.22
 21
128.35
 31
0.0
  0
LINE
  8
CARROZZERIA
 62
90
 10
1688.22
 20
128.35
 30
0.0
 11
1815.22
 21
128.13
 31
0.0
  0
LINE
  8
CARROZZERIA
 62
90
 10
1815.22
 20
128.13
 30
0.0
 11
1860.18
 21
103.05
 31
0.0
  0
LINE
  8
CARROZZERIA
 62
90
 10
1860.18
 20
103.05
 30
0.0
 11
1920.17
 21
100.95
 31
0.0
  0
LINE
  8
CARROZZERIA
 62
90
 10
1920.17
 20
100.95
 30
0.0
 11
1970.13
 21
77.86
 31
0.0
  0
LINE
  8
CARROZZERIA
 62
90
 10
1970.13
 20
77.86
 30
0.0
 11
2010.09
 21
51.79
 31
0.0
  0
LINE
  8
CARROZZERIA
 62
90
 10
2010.09
 20
51.79
 30
0.0
 11
2010.01
 21
7.79
 31
0.0
  0
LINE
  8
CARROZZERIA
 62
90
 10
1907.17
 20
100.97
 30
0.0
 11
1907.25
 21
147.97
 31
0.0
  0
LINE
  8
CARROZZERIA
 62
90
 10
1928.17
 20
100.93
 30
0.0
 11
1928.25
 21
147.93
 31
0.0
  0
LINE
  8
CARROZZERIA
 62
90
 10
1883.26
 20
150.01
 30
0.0
 11
1953.26
 21
149.89
 31
0.0
  0
LINE
  8
CARROZZERIA
 62
90
 10
1883.25
 20
146.01
 30
0.0
 11
1953.25
 21
145.89
 31
0.0
  0
LINE
  8
CARROZZERIA
 62
90
 10
1883.25
 20
146.01
 30
0.0
 11
1883.26
 21
150.01
 31
0.0
  0
LINE
  8
CARROZZERIA
 62
90
 10
1953.25
 20
145.89
 30
0.0
 11
1953.26
 21
149.89
 31
0.0
  0
CIRCLE
  8
CARROZZERIA
 62
90
 10
1890.06
 20
35
 30
0.0
 40
35
  0
CIRCLE
  8
CARROZZERIA
 62
90
 10
1650.06
 20
35.41
 30
0.0
 40
35
  0
LINE
  8
CARROZZERIA
 62
90
 10
1795
 20
35
 30
0.0
 11
1805
 21
35
 31
0.0
  0
LINE
  8
CARROZZERIA
 62
90
 10
1800
 20
30
 30
0.0
 11
1800
 21
40
 31
0.0
  0
LINE
  8
CARROZZERIA
 62
90
 10
2035
 20
35
 30
0.0
 11
2045
 21
35
 31
0.0
  0
LINE
  8
CARROZZERIA
 62
90
 10
2040
 20
30
 30
0.0
 11
2040
 21
40
 31
0.0
  0
LINE
  8
CARROZZERIA
 62
90
 10
1660
 20
8
 30
0.0
 11
1765.3
 21
8
 31
0.0
  0
LINE
  8
CARROZZERIA
 62
90
 10
1834.7
 20
8
 30
0.0
 11
2005.3
 21
8
 31
0.0
  0
LINE
  8
CARROZZERIA
 62
90
 10
2074.7
 20
8
 30
0.0
 11
2160
 21
8
 31
0.0
  0
LINE
  8
CARROZZERIA
 62
90
 10
1660
 20
8
 30
0.0
 11
1660
 21
35
 31
0.0
  0
LINE
  8
CARROZZERIA
 62
90
 10
1660
 20
35
 30
0.0
 11
1672
 21
52
 31
0.0
  0
LINE
  8
CARROZZERIA
 62
90
 10
1672
 20
52
 30
0.0
 11
1688
 21
62
 31
0.0
  0
LINE
  8
CARROZZERIA
 62
90
 10
1688
 20
62
 30
0.0
 11
1725
 21
72
 31
0.0
  0
LINE
  8
CARROZZERIA
 62
90
 10
1725
 20
72
 30
0.0
 11
1775
 21
80
 31
0.0
  0
LINE
  8
CARROZZERIA
 62
90
 10
1775
 20
80
 30
0.0
 11
1805
 21
83
 31
0.0
  0
LINE
  8
CARROZZERIA
 62
90
 10
1805
 20
83
 30
0.0
 11
1838
 21
128
 31
0.0
  0
LINE
  8
CARROZZERIA
 62
90
 10
1838
 20
128
 30
0.0
 11
1965
 21
128
 31
0.0
  0
LINE
  8
CARROZZERIA
 62
90
 10
1965
 20
128
 30
0.0
 11
2010
 21
103
 31
0.0
  0
LINE
  8
CARROZZERIA
 62
90
 10
2010
 20
103
 30
0.0
 11
2070
 21
101
 31
0.0
  0
LINE
  8
CARROZZERIA
 62
90
 10
2070
 20
101
 30
0.0
 11
2120
 21
78
 31
0.0
  0
LINE
  8
CARROZZERIA
 62
90
 10
2120
 20
78
 30
0.0
 11
2160
 21
52
 31
0.0
  0
LINE
  8
CARROZZERIA
 62
90
 10
2160
 20
52
 30
0.0
 11
2160
 21
8
 31
0.0
  0
LINE
  8
CARROZZERIA
 62
90
 10
2057
 20
101
 30
0.0
 11
2057
 21
148
 31
0.0
  0
LINE
  8
CARROZZERIA
 62
90
 10
2078
 20
101
 30
0.0
 11
2078
 21
148
 31
0.0
  0
LINE
  8
CARROZZERIA
 62
90
 10
2033
 20
150
 30
0.0
 11
2103
 21
150
 31
0.0
  0
LINE
  8
CARROZZERIA
 62
90
 10
2033
 20
146
 30
0.0
 11
2103
 21
146
 31
0.0
  0
LINE
  8
CARROZZERIA
 62
90
 10
2033
 20
146
 30
0.0
 11
2033
 21
150
 31
0.0
  0
LINE
  8
CARROZZERIA
 62
90
 10
2103
 20
146
 30
0.0
 11
2103
 21
150
 31
0.0
  0
CIRCLE
  8
CARROZZERIA
 62
90
 10
2040
 20
35
 30
0.0
 40
35
  0
CIRCLE
  8
CARROZZERIA
 62
90
 10
1800
 20
35
 30
0.0
 40
35
  0
CIRCLE
  8
CRITICO
 62
1
 10
413.78
 20
284.42
 30
0.0
 40
11
  0
LINE
  8
CRITICO
 62
1
 10
413.78
 20
284.42
 30
0.0
 11
413.78
 21
285.26
 31
0.0
  0
LINE
  8
CRITICO
 62
1
 10
413.78
 20
284.42
 30
0.0
 11
263.78
 21
229.42
 31
0.0
  0
TEXT
  8
CRITICO
 62
1
 10
-56.22
 20
221.42
 30
0.0
 40
9
  1
paraurti ANT (muso, sbalzo 140): -0.84 cm -> COLLISIONE
  0
CIRCLE
  8
TESTO
 62
30
 10
1699.51
 20
0.88
 30
0.0
 40
9
  0
TEXT
  8
TESTO
 62
30
 10
1711.51
 20
18.88
 30
0.0
 40
8
  1
coda (120) al SAG: +0.88
  0
TEXT
  8
TESTO
 62
1
 10
-560
 20
472
 30
0.0
 40
16
  1
h = 8 cm
  0
TEXT
  8
TESTO
 62
1
 10
-300
 20
474
 30
0.0
 40
11
  1
muso(140) -0.84  |  coda(120)@SAG +0.88  |  ventre +0.39  [cm]  ->  COLLISIONE
  0
TEXT
  8
TESTO
 62
7
 10
-300
 20
454
 30
0.0
 40
9
  1
sagome ogni 150 cm (+ posa critica): 4 verdi (sicuro), 3 arancio (a rischio), 8 rosse (collisione)
  0
LINE
  8
REF
 62
8
 10
-560
 20
442
 30
0.0
 11
2360
 21
442
 31
0.0
  0
LINE
  8
RAMPA
 10
-560
 20
-520
 30
0.0
 11
0
 21
-520
 31
0.0
  0
ARC
  8
RAMPA
 10
0
 20
-1470
 30
0.0
 40
950
 50
65
 51
90
  0
LINE
  8
RAMPA
 10
401.49
 20
-609.01
 30
0.0
 11
414.24
 21
-614.95
 31
0.0
  0
ARC
  8
RAMPA
 10
1700
 20
2142.37
 30
0.0
 40
3042.37
 50
245
 51
270
  0
LINE
  8
RAMPA
 10
1700
 20
-900
 30
0.0
 11
2360
 21
-900
 31
0.0
  0
TEXT
  8
TESTO
 10
-545
 20
-508
 30
0.0
 40
11
  1
STRADA
  0
TEXT
  8
TESTO
 10
2175
 20
-886
 30
0.0
 40
11
  1
GARAGE
  0
LINE
  8
CARROZZERIA
 62
90
 10
-154.36
 20
-483.92
 30
0.0
 11
-144.36
 21
-484.09
 31
0.0
  0
LINE
  8
CARROZZERIA
 62
90
 10
-149.45
 20
-489
 30
0.0
 11
-149.27
 21
-479.01
 31
0.0
  0
LINE
  8
CARROZZERIA
 62
90
 10
85.6
 20
-488.19
 30
0.0
 11
95.6
 21
-488.36
 31
0.0
  0
LINE
  8
CARROZZERIA
 62
90
 10
90.51
 20
-493.27
 30
0.0
 11
90.69
 21
-483.28
 31
0.0
  0
LINE
  8
CARROZZERIA
 62
90
 10
-289.82
 20
-508.51
 30
0.0
 11
-184.53
 21
-510.38
 31
0.0
  0
LINE
  8
CARROZZERIA
 62
90
 10
-115.15
 20
-511.62
 30
0.0
 11
55.43
 21
-514.65
 31
0.0
  0
LINE
  8
CARROZZERIA
 62
90
 10
124.82
 20
-515.89
 30
0.0
 11
210.1
 21
-517.41
 31
0.0
  0
LINE
  8
CARROZZERIA
 62
90
 10
-289.82
 20
-508.51
 30
0.0
 11
-289.34
 21
-481.52
 31
0.0
  0
LINE
  8
CARROZZERIA
 62
90
 10
-289.34
 20
-481.52
 30
0.0
 11
-277.04
 21
-464.73
 31
0.0
  0
LINE
  8
CARROZZERIA
 62
90
 10
-277.04
 20
-464.73
 30
0.0
 11
-260.86
 21
-455.02
 31
0.0
  0
LINE
  8
CARROZZERIA
 62
90
 10
-260.86
 20
-455.02
 30
0.0
 11
-223.69
 21
-445.68
 31
0.0
  0
LINE
  8
CARROZZERIA
 62
90
 10
-223.69
 20
-445.68
 30
0.0
 11
-173.56
 21
-438.57
 31
0.0
  0
LINE
  8
CARROZZERIA
 62
90
 10
-173.56
 20
-438.57
 30
0.0
 11
-143.51
 21
-436.1
 31
0.0
  0
LINE
  8
CARROZZERIA
 62
90
 10
-143.51
 20
-436.1
 30
0.0
 11
-109.71
 21
-391.7
 31
0.0
  0
LINE
  8
CARROZZERIA
 62
90
 10
-109.71
 20
-391.7
 30
0.0
 11
17.27
 21
-393.96
 31
0.0
  0
LINE
  8
CARROZZERIA
 62
90
 10
17.27
 20
-393.96
 30
0.0
 11
61.82
 21
-419.75
 31
0.0
  0
LINE
  8
CARROZZERIA
 62
90
 10
61.82
 20
-419.75
 30
0.0
 11
121.77
 21
-422.82
 31
0.0
  0
LINE
  8
CARROZZERIA
 62
90
 10
121.77
 20
-422.82
 30
0.0
 11
171.35
 21
-446.7
 31
0.0
  0
LINE
  8
CARROZZERIA
 62
90
 10
171.35
 20
-446.7
 30
0.0
 11
210.89
 21
-473.41
 31
0.0
  0
LINE
  8
CARROZZERIA
 62
90
 10
210.89
 20
-473.41
 30
0.0
 11
210.1
 21
-517.41
 31
0.0
  0
LINE
  8
CARROZZERIA
 62
90
 10
108.77
 20
-422.59
 30
0.0
 11
109.61
 21
-375.6
 31
0.0
  0
LINE
  8
CARROZZERIA
 62
90
 10
129.77
 20
-422.96
 30
0.0
 11
130.61
 21
-375.97
 31
0.0
  0
LINE
  8
CARROZZERIA
 62
90
 10
85.65
 20
-373.17
 30
0.0
 11
155.64
 21
-374.41
 31
0.0
  0
LINE
  8
CARROZZERIA
 62
90
 10
85.58
 20
-377.17
 30
0.0
 11
155.57
 21
-378.41
 31
0.0
  0
LINE
  8
CARROZZERIA
 62
90
 10
85.58
 20
-377.17
 30
0.0
 11
85.65
 21
-373.17
 31
0.0
  0
LINE
  8
CARROZZERIA
 62
90
 10
155.57
 20
-378.41
 30
0.0
 11
155.64
 21
-374.41
 31
0.0
  0
CIRCLE
  8
CARROZZERIA
 62
90
 10
90.58
 20
-489.27
 30
0.0
 40
35
  0
CIRCLE
  8
CARROZZERIA
 62
90
 10
-149.38
 20
-485.01
 30
0.0
 40
35
  0
LINE
  8
CARROZZERIA
 62
90
 10
-0.41
 20
-483.66
 30
0.0
 11
9.51
 21
-484.92
 31
0.0
  0
LINE
  8
CARROZZERIA
 62
90
 10
3.92
 20
-489.25
 30
0.0
 11
5.18
 21
-479.33
 31
0.0
  0
LINE
  8
CARROZZERIA
 62
90
 10
237.67
 20
-513.97
 30
0.0
 11
247.58
 21
-515.24
 31
0.0
  0
LINE
  8
CARROZZERIA
 62
90
 10
241.99
 20
-519.56
 30
0.0
 11
243.26
 21
-509.64
 31
0.0
  0
LINE
  8
CARROZZERIA
 62
90
 10
-137.74
 20
-493.39
 30
0.0
 11
-33.29
 21
-506.69
 31
0.0
  0
LINE
  8
CARROZZERIA
 62
90
 10
35.56
 20
-515.46
 30
0.0
 11
204.79
 21
-537
 31
0.0
  0
LINE
  8
CARROZZERIA
 62
90
 10
273.64
 20
-545.77
 30
0.0
 11
358.25
 21
-556.55
 31
0.0
  0
LINE
  8
CARROZZERIA
 62
90
 10
-137.74
 20
-493.39
 30
0.0
 11
-134.33
 21
-466.6
 31
0.0
  0
LINE
  8
CARROZZERIA
 62
90
 10
-134.33
 20
-466.6
 30
0.0
 11
-120.28
 21
-451.26
 31
0.0
  0
LINE
  8
CARROZZERIA
 62
90
 10
-120.28
 20
-451.26
 30
0.0
 11
-103.14
 21
-443.36
 31
0.0
  0
LINE
  8
CARROZZERIA
 62
90
 10
-103.14
 20
-443.36
 30
0.0
 11
-65.18
 21
-438.11
 31
0.0
  0
LINE
  8
CARROZZERIA
 62
90
 10
-65.18
 20
-438.11
 30
0.0
 11
-14.57
 21
-436.49
 31
0.0
  0
LINE
  8
CARROZZERIA
 62
90
 10
-14.57
 20
-436.49
 30
0.0
 11
15.57
 21
-437.3
 31
0.0
  0
LINE
  8
CARROZZERIA
 62
90
 10
15.57
 20
-437.3
 30
0.0
 11
53.99
 21
-396.83
 31
0.0
  0
LINE
  8
CARROZZERIA
 62
90
 10
53.99
 20
-396.83
 30
0.0
 11
179.97
 21
-412.88
 31
0.0
  0
LINE
  8
CARROZZERIA
 62
90
 10
179.97
 20
-412.88
 30
0.0
 11
221.45
 21
-443.36
 31
0.0
  0
LINE
  8
CARROZZERIA
 62
90
 10
221.45
 20
-443.36
 30
0.0
 11
280.72
 21
-452.92
 31
0.0
  0
LINE
  8
CARROZZERIA
 62
90
 10
280.72
 20
-452.92
 30
0.0
 11
327.42
 21
-482.05
 31
0.0
  0
LINE
  8
CARROZZERIA
 62
90
 10
327.42
 20
-482.05
 30
0.0
 11
363.81
 21
-512.9
 31
0.0
  0
LINE
  8
CARROZZERIA
 62
90
 10
363.81
 20
-512.9
 30
0.0
 11
358.25
 21
-556.55
 31
0.0
  0
LINE
  8
CARROZZERIA
 62
90
 10
267.83
 20
-451.28
 30
0.0
 11
273.76
 21
-404.66
 31
0.0
  0
LINE
  8
CARROZZERIA
 62
90
 10
288.66
 20
-453.93
 30
0.0
 11
294.59
 21
-407.31
 31
0.0
  0
LINE
  8
CARROZZERIA
 62
90
 10
250.21
 20
-399.64
 30
0.0
 11
319.65
 21
-408.48
 31
0.0
  0
LINE
  8
CARROZZERIA
 62
90
 10
249.7
 20
-403.61
 30
0.0
 11
319.14
 21
-412.45
 31
0.0
  0
LINE
  8
CARROZZERIA
 62
90
 10
249.7
 20
-403.61
 30
0.0
 11
250.21
 21
-399.64
 31
0.0
  0
LINE
  8
CARROZZERIA
 62
90
 10
319.14
 20
-412.45
 30
0.0
 11
319.65
 21
-408.48
 31
0.0
  0
CIRCLE
  8
CARROZZERIA
 62
90
 10
242.5
 20
-515.6
 30
0.0
 40
35
  0
CIRCLE
  8
CARROZZERIA
 62
90
 10
4.42
 20
-485.28
 30
0.0
 40
35
  0
LINE
  8
CARROZZERIA
 62
90
 10
155.33
 20
-495.96
 30
0.0
 11
164.93
 21
-498.78
 31
0.0
  0
LINE
  8
CARROZZERIA
 62
90
 10
158.72
 20
-502.17
 30
0.0
 11
161.54
 21
-492.57
 31
0.0
  0
LINE
  8
CARROZZERIA
 62
90
 10
385.64
 20
-563.49
 30
0.0
 11
395.23
 21
-566.3
 31
0.0
  0
LINE
  8
CARROZZERIA
 62
90
 10
389.03
 20
-569.7
 30
0.0
 11
391.84
 21
-560.1
 31
0.0
  0
LINE
  8
CARROZZERIA
 62
90
 10
18.19
 20
-483.89
 30
0.0
 11
119.23
 21
-513.52
 31
0.0
  0
LINE
  8
CARROZZERIA
 62
90
 10
185.83
 20
-533.04
 30
0.0
 11
349.54
 21
-581.04
 31
0.0
  0
LINE
  8
CARROZZERIA
 62
90
 10
416.13
 20
-600.57
 30
0.0
 11
497.99
 21
-624.57
 31
0.0
  0
LINE
  8
CARROZZERIA
 62
90
 10
18.19
 20
-483.89
 30
0.0
 11
25.78
 21
-457.98
 31
0.0
  0
LINE
  8
CARROZZERIA
 62
90
 10
25.78
 20
-457.98
 30
0.0
 11
42.08
 21
-445.04
 31
0.0
  0
LINE
  8
CARROZZERIA
 62
90
 10
42.08
 20
-445.04
 30
0.0
 11
60.25
 21
-439.95
 31
0.0
  0
LINE
  8
CARROZZERIA
 62
90
 10
60.25
 20
-439.95
 30
0.0
 11
98.57
 21
-440.76
 31
0.0
  0
LINE
  8
CARROZZERIA
 62
90
 10
98.57
 20
-440.76
 30
0.0
 11
148.8
 21
-447.16
 31
0.0
  0
LINE
  8
CARROZZERIA
 62
90
 10
148.8
 20
-447.16
 30
0.0
 11
178.43
 21
-452.72
 31
0.0
  0
LINE
  8
CARROZZERIA
 62
90
 10
178.43
 20
-452.72
 30
0.0
 11
222.76
 21
-418.82
 31
0.0
  0
LINE
  8
CARROZZERIA
 62
90
 10
222.76
 20
-418.82
 30
0.0
 11
344.63
 21
-454.55
 31
0.0
  0
LINE
  8
CARROZZERIA
 62
90
 10
344.63
 20
-454.55
 30
0.0
 11
380.78
 21
-491.2
 31
0.0
  0
LINE
  8
CARROZZERIA
 62
90
 10
380.78
 20
-491.2
 30
0.0
 11
437.79
 21
-510.01
 31
0.0
  0
LINE
  8
CARROZZERIA
 62
90
 10
437.79
 20
-510.01
 30
0.0
 11
479.3
 21
-546.14
 31
0.0
  0
LINE
  8
CARROZZERIA
 62
90
 10
479.3
 20
-546.14
 30
0.0
 11
510.37
 21
-582.35
 31
0.0
  0
LINE
  8
CARROZZERIA
 62
90
 10
510.37
 20
-582.35
 30
0.0
 11
497.99
 21
-624.57
 31
0.0
  0
LINE
  8
CARROZZERIA
 62
90
 10
425.32
 20
-506.35
 30
0.0
 11
438.54
 21
-461.25
 31
0.0
  0
LINE
  8
CARROZZERIA
 62
90
 10
445.47
 20
-512.26
 30
0.0
 11
458.69
 21
-467.15
 31
0.0
  0
LINE
  8
CARROZZERIA
 62
90
 10
416.07
 20
-452.57
 30
0.0
 11
483.24
 21
-472.27
 31
0.0
  0
LINE
  8
CARROZZERIA
 62
90
 10
414.95
 20
-456.41
 30
0.0
 11
482.12
 21
-476.11
 31
0.0
  0
LINE
  8
CARROZZERIA
 62
90
 10
414.95
 20
-456.41
 30
0.0
 11
416.07
 21
-452.57
 31
0.0
  0
LINE
  8
CARROZZERIA
 62
90
 10
482.12
 20
-476.11
 30
0.0
 11
483.24
 21
-472.27
 31
0.0
  0
CIRCLE
  8
CARROZZERIA
 62
90
 10
390.15
 20
-565.86
 30
0.0
 40
35
  0
CIRCLE
  8
CARROZZERIA
 62
90
 10
159.85
 20
-498.33
 30
0.0
 40
35
  0
LINE
  8
CARROZZERIA
 62
90
 10
309.44
 20
-533.51
 30
0.0
 11
318.65
 21
-537.42
 31
0.0
  0
LINE
  8
CARROZZERIA
 62
90
 10
312.1
 20
-540.07
 30
0.0
 11
316
 21
-530.86
 31
0.0
  0
LINE
  8
CARROZZERIA
 62
90
 10
530.42
 20
-627.16
 30
0.0
 11
539.63
 21
-631.06
 31
0.0
  0
LINE
  8
CARROZZERIA
 62
90
 10
533.07
 20
-633.71
 30
0.0
 11
536.97
 21
-624.5
 31
0.0
  0
LINE
  8
CARROZZERIA
 62
90
 10
174.61
 20
-505.7
 30
0.0
 11
271.56
 21
-546.79
 31
0.0
  0
LINE
  8
CARROZZERIA
 62
90
 10
335.46
 20
-573.86
 30
0.0
 11
492.54
 21
-640.43
 31
0.0
  0
LINE
  8
CARROZZERIA
 62
90
 10
556.44
 20
-667.51
 30
0.0
 11
634.98
 21
-700.79
 31
0.0
  0
LINE
  8
CARROZZERIA
 62
90
 10
174.61
 20
-505.7
 30
0.0
 11
185.14
 21
-480.84
 31
0.0
  0
LINE
  8
CARROZZERIA
 62
90
 10
185.14
 20
-480.84
 30
0.0
 11
202.82
 21
-469.87
 31
0.0
  0
LINE
  8
CARROZZERIA
 62
90
 10
202.82
 20
-469.87
 30
0.0
 11
221.46
 21
-466.91
 31
0.0
  0
LINE
  8
CARROZZERIA
 62
90
 10
221.46
 20
-466.91
 30
0.0
 11
259.43
 21
-472.13
 31
0.0
  0
LINE
  8
CARROZZERIA
 62
90
 10
259.43
 20
-472.13
 30
0.0
 11
308.59
 21
-484.28
 31
0.0
  0
LINE
  8
CARROZZERIA
 62
90
 10
308.59
 20
-484.28
 30
0.0
 11
337.38
 21
-493.22
 31
0.0
  0
LINE
  8
CARROZZERIA
 62
90
 10
337.38
 20
-493.22
 30
0.0
 11
385.32
 21
-464.66
 31
0.0
  0
LINE
  8
CARROZZERIA
 62
90
 10
385.32
 20
-464.66
 30
0.0
 11
502.25
 21
-514.22
 31
0.0
  0
LINE
  8
CARROZZERIA
 62
90
 10
502.25
 20
-514.22
 30
0.0
 11
533.93
 21
-554.79
 31
0.0
  0
LINE
  8
CARROZZERIA
 62
90
 10
533.93
 20
-554.79
 30
0.0
 11
588.4
 21
-580.04
 31
0.0
  0
LINE
  8
CARROZZERIA
 62
90
 10
588.4
 20
-580.04
 30
0.0
 11
625.46
 21
-620.73
 31
0.0
  0
LINE
  8
CARROZZERIA
 62
90
 10
625.46
 20
-620.73
 30
0.0
 11
652.15
 21
-660.28
 31
0.0
  0
LINE
  8
CARROZZERIA
 62
90
 10
652.15
 20
-660.28
 30
0.0
 11
634.98
 21
-700.79
 31
0.0
  0
LINE
  8
CARROZZERIA
 62
90
 10
576.43
 20
-574.97
 30
0.0
 11
594.77
 21
-531.7
 31
0.0
  0
LINE
  8
CARROZZERIA
 62
90
 10
595.76
 20
-583.17
 30
0.0
 11
614.1
 21
-539.89
 31
0.0
  0
LINE
  8
CARROZZERIA
 62
90
 10
573.45
 20
-520.49
 30
0.0
 11
637.9
 21
-547.8
 31
0.0
  0
LINE
  8
CARROZZERIA
 62
90
 10
571.89
 20
-524.18
 30
0.0
 11
636.34
 21
-551.49
 31
0.0
  0
LINE
  8
CARROZZERIA
 62
90
 10
571.89
 20
-524.18
 30
0.0
 11
573.45
 21
-520.49
 31
0.0
  0
LINE
  8
CARROZZERIA
 62
90
 10
636.34
 20
-551.49
 30
0.0
 11
637.9
 21
-547.8
 31
0.0
  0
CIRCLE
  8
CARROZZERIA
 62
90
 10
534.63
 20
-630.03
 30
0.0
 40
35
  0
CIRCLE
  8
CARROZZERIA
 62
90
 10
313.66
 20
-536.39
 30
0.0
 40
35
  0
LINE
  8
CARROZZERIA
 62
90
 10
458.85
 20
-596.1
 30
0.0
 11
468.12
 21
-599.84
 31
0.0
  0
LINE
  8
CARROZZERIA
 62
90
 10
461.61
 20
-602.61
 30
0.0
 11
465.36
 21
-593.33
 31
0.0
  0
LINE
  8
CARROZZERIA
 62
90
 10
681.38
 20
-686
 30
0.0
 11
690.65
 21
-689.74
 31
0.0
  0
LINE
  8
CARROZZERIA
 62
90
 10
684.14
 20
-692.51
 30
0.0
 11
687.88
 21
-683.23
 31
0.0
  0
LINE
  8
CARROZZERIA
 62
90
 10
323.56
 20
-570.56
 30
0.0
 11
421.2
 21
-610.01
 31
0.0
  0
LINE
  8
CARROZZERIA
 62
90
 10
485.54
 20
-636
 30
0.0
 11
643.72
 21
-699.91
 31
0.0
  0
LINE
  8
CARROZZERIA
 62
90
 10
708.07
 20
-725.9
 30
0.0
 11
787.16
 21
-757.85
 31
0.0
  0
LINE
  8
CARROZZERIA
 62
90
 10
323.56
 20
-570.56
 30
0.0
 11
333.68
 21
-545.53
 31
0.0
  0
LINE
  8
CARROZZERIA
 62
90
 10
333.68
 20
-545.53
 30
0.0
 11
351.17
 21
-534.26
 31
0.0
  0
LINE
  8
CARROZZERIA
 62
90
 10
351.17
 20
-534.26
 30
0.0
 11
369.75
 21
-530.98
 31
0.0
  0
LINE
  8
CARROZZERIA
 62
90
 10
369.75
 20
-530.98
 30
0.0
 11
407.81
 21
-535.57
 31
0.0
  0
LINE
  8
CARROZZERIA
 62
90
 10
407.81
 20
-535.57
 30
0.0
 11
457.16
 21
-546.88
 31
0.0
  0
LINE
  8
CARROZZERIA
 62
90
 10
457.16
 20
-546.88
 30
0.0
 11
486.1
 21
-555.34
 31
0.0
  0
LINE
  8
CARROZZERIA
 62
90
 10
486.1
 20
-555.34
 30
0.0
 11
533.55
 21
-525.98
 31
0.0
  0
LINE
  8
CARROZZERIA
 62
90
 10
533.55
 20
-525.98
 30
0.0
 11
651.31
 21
-573.55
 31
0.0
  0
LINE
  8
CARROZZERIA
 62
90
 10
651.31
 20
-573.55
 30
0.0
 11
683.67
 21
-613.58
 31
0.0
  0
LINE
  8
CARROZZERIA
 62
90
 10
683.67
 20
-613.58
 30
0.0
 11
738.55
 21
-637.91
 31
0.0
  0
LINE
  8
CARROZZERIA
 62
90
 10
738.55
 20
-637.91
 30
0.0
 11
776.29
 21
-677.97
 31
0.0
  0
LINE
  8
CARROZZERIA
 62
90
 10
776.29
 20
-677.97
 30
0.0
 11
803.64
 21
-717.06
 31
0.0
  0
LINE
  8
CARROZZERIA
 62
90
 10
803.64
 20
-717.06
 30
0.0
 11
787.16
 21
-757.85
 31
0.0
  0
LINE
  8
CARROZZERIA
 62
90
 10
726.5
 20
-633.04
 30
0.0
 11
744.1
 21
-589.47
 31
0.0
  0
LINE
  8
CARROZZERIA
 62
90
 10
745.97
 20
-640.91
 30
0.0
 11
763.57
 21
-597.33
 31
0.0
  0
LINE
  8
CARROZZERIA
 62
90
 10
722.6
 20
-578.62
 30
0.0
 11
787.5
 21
-604.84
 31
0.0
  0
LINE
  8
CARROZZERIA
 62
90
 10
721.1
 20
-582.33
 30
0.0
 11
786
 21
-608.55
 31
0.0
  0
LINE
  8
CARROZZERIA
 62
90
 10
721.1
 20
-582.33
 30
0.0
 11
722.6
 21
-578.62
 31
0.0
  0
LINE
  8
CARROZZERIA
 62
90
 10
786
 20
-608.55
 30
0.0
 11
787.5
 21
-604.84
 31
0.0
  0
CIRCLE
  8
CARROZZERIA
 62
90
 10
685.64
 20
-688.8
 30
0.0
 40
35
  0
CIRCLE
  8
CARROZZERIA
 62
90
 10
463.11
 20
-598.9
 30
0.0
 40
35
  0
LINE
  8
CARROZZERIA
 62
30
 10
606.95
 20
-658.51
 30
0.0
 11
616.41
 21
-661.75
 31
0.0
  0
LINE
  8
CARROZZERIA
 62
30
 10
610.06
 20
-664.86
 30
0.0
 11
613.3
 21
-655.4
 31
0.0
  0
LINE
  8
CARROZZERIA
 62
30
 10
833.96
 20
-736.39
 30
0.0
 11
843.42
 21
-739.63
 31
0.0
  0
LINE
  8
CARROZZERIA
 62
30
 10
837.07
 20
-742.74
 30
0.0
 11
840.32
 21
-733.28
 31
0.0
  0
LINE
  8
CARROZZERIA
 62
30
 10
470.5
 20
-640.24
 30
0.0
 11
570.1
 21
-674.41
 31
0.0
  0
LINE
  8
CARROZZERIA
 62
30
 10
635.74
 20
-696.93
 30
0.0
 11
797.11
 21
-752.29
 31
0.0
  0
LINE
  8
CARROZZERIA
 62
30
 10
862.75
 20
-774.81
 30
0.0
 11
943.44
 21
-802.49
 31
0.0
  0
LINE
  8
CARROZZERIA
 62
30
 10
470.5
 20
-640.24
 30
0.0
 11
479.26
 21
-614.7
 31
0.0
  0
LINE
  8
CARROZZERIA
 62
30
 10
479.26
 20
-614.7
 30
0.0
 11
496.13
 21
-602.51
 31
0.0
  0
LINE
  8
CARROZZERIA
 62
30
 10
496.13
 20
-602.51
 30
0.0
 11
514.5
 21
-598.24
 31
0.0
  0
LINE
  8
CARROZZERIA
 62
30
 10
514.5
 20
-598.24
 30
0.0
 11
552.75
 21
-600.79
 31
0.0
  0
LINE
  8
CARROZZERIA
 62
30
 10
552.75
 20
-600.79
 30
0.0
 11
602.64
 21
-609.45
 31
0.0
  0
LINE
  8
CARROZZERIA
 62
30
 10
602.64
 20
-609.45
 30
0.0
 11
631.99
 21
-616.35
 31
0.0
  0
LINE
  8
CARROZZERIA
 62
30
 10
631.99
 20
-616.35
 30
0.0
 11
677.8
 21
-584.49
 31
0.0
  0
LINE
  8
CARROZZERIA
 62
30
 10
677.8
 20
-584.49
 30
0.0
 11
797.93
 21
-625.7
 31
0.0
  0
LINE
  8
CARROZZERIA
 62
30
 10
797.93
 20
-625.7
 30
0.0
 11
832.38
 21
-663.95
 31
0.0
  0
LINE
  8
CARROZZERIA
 62
30
 10
832.38
 20
-663.95
 30
0.0
 11
888.49
 21
-685.32
 31
0.0
  0
LINE
  8
CARROZZERIA
 62
30
 10
888.49
 20
-685.32
 30
0.0
 11
928.32
 21
-723.3
 31
0.0
  0
LINE
  8
CARROZZERIA
 62
30
 10
928.32
 20
-723.3
 30
0.0
 11
957.72
 21
-760.87
 31
0.0
  0
LINE
  8
CARROZZERIA
 62
30
 10
957.72
 20
-760.87
 30
0.0
 11
943.44
 21
-802.49
 31
0.0
  0
LINE
  8
CARROZZERIA
 62
30
 10
876.19
 20
-681.1
 30
0.0
 11
891.44
 21
-636.64
 31
0.0
  0
LINE
  8
CARROZZERIA
 62
30
 10
896.06
 20
-687.91
 30
0.0
 11
911.31
 21
-643.46
 31
0.0
  0
LINE
  8
CARROZZERIA
 62
30
 10
869.39
 20
-626.96
 30
0.0
 11
935.6
 21
-649.68
 31
0.0
  0
LINE
  8
CARROZZERIA
 62
30
 10
868.09
 20
-630.74
 30
0.0
 11
934.31
 21
-653.46
 31
0.0
  0
LINE
  8
CARROZZERIA
 62
30
 10
868.09
 20
-630.74
 30
0.0
 11
869.39
 21
-626.96
 31
0.0
  0
LINE
  8
CARROZZERIA
 62
30
 10
934.31
 20
-653.46
 30
0.0
 11
935.6
 21
-649.68
 31
0.0
  0
CIRCLE
  8
CARROZZERIA
 62
30
 10
838.37
 20
-738.96
 30
0.0
 40
35
  0
CIRCLE
  8
CARROZZERIA
 62
30
 10
611.36
 20
-661.07
 30
0.0
 40
35
  0
LINE
  8
CARROZZERIA
 62
30
 10
755.08
 20
-711.89
 30
0.0
 11
764.69
 21
-714.63
 31
0.0
  0
LINE
  8
CARROZZERIA
 62
30
 10
758.51
 20
-718.07
 30
0.0
 11
761.26
 21
-708.45
 31
0.0
  0
LINE
  8
CARROZZERIA
 62
30
 10
985.85
 20
-777.78
 30
0.0
 11
995.47
 21
-780.52
 31
0.0
  0
LINE
  8
CARROZZERIA
 62
30
 10
989.29
 20
-783.96
 30
0.0
 11
992.03
 21
-774.34
 31
0.0
  0
LINE
  8
CARROZZERIA
 62
30
 10
617.85
 20
-700.78
 30
0.0
 11
719.1
 21
-729.69
 31
0.0
  0
LINE
  8
CARROZZERIA
 62
30
 10
785.84
 20
-748.75
 30
0.0
 11
949.88
 21
-795.58
 31
0.0
  0
LINE
  8
CARROZZERIA
 62
30
 10
1016.62
 20
-814.64
 30
0.0
 11
1098.64
 21
-838.06
 31
0.0
  0
LINE
  8
CARROZZERIA
 62
30
 10
617.85
 20
-700.78
 30
0.0
 11
625.26
 21
-674.82
 31
0.0
  0
LINE
  8
CARROZZERIA
 62
30
 10
625.26
 20
-674.82
 30
0.0
 11
641.47
 21
-661.77
 31
0.0
  0
LINE
  8
CARROZZERIA
 62
30
 10
641.47
 20
-661.77
 30
0.0
 11
659.6
 21
-656.55
 31
0.0
  0
LINE
  8
CARROZZERIA
 62
30
 10
659.6
 20
-656.55
 30
0.0
 11
697.92
 21
-657.09
 31
0.0
  0
LINE
  8
CARROZZERIA
 62
30
 10
697.92
 20
-657.09
 30
0.0
 11
748.2
 21
-663.12
 31
0.0
  0
LINE
  8
CARROZZERIA
 62
30
 10
748.2
 20
-663.12
 30
0.0
 11
777.87
 21
-668.48
 31
0.0
  0
LINE
  8
CARROZZERIA
 62
30
 10
777.87
 20
-668.48
 30
0.0
 11
821.96
 21
-634.26
 31
0.0
  0
LINE
  8
CARROZZERIA
 62
30
 10
821.96
 20
-634.26
 30
0.0
 11
944.08
 21
-669.13
 31
0.0
  0
LINE
  8
CARROZZERIA
 62
30
 10
944.08
 20
-669.13
 30
0.0
 11
980.48
 21
-705.53
 31
0.0
  0
LINE
  8
CARROZZERIA
 62
30
 10
980.48
 20
-705.53
 30
0.0
 11
1037.63
 21
-723.92
 31
0.0
  0
LINE
  8
CARROZZERIA
 62
30
 10
1037.63
 20
-723.92
 30
0.0
 11
1079.39
 21
-759.76
 31
0.0
  0
LINE
  8
CARROZZERIA
 62
30
 10
1079.39
 20
-759.76
 30
0.0
 11
1110.72
 21
-795.75
 31
0.0
  0
LINE
  8
CARROZZERIA
 62
30
 10
1110.72
 20
-795.75
 30
0.0
 11
1098.64
 21
-838.06
 31
0.0
  0
LINE
  8
CARROZZERIA
 62
30
 10
1025.13
 20
-720.35
 30
0.0
 11
1038.03
 21
-675.16
 31
0.0
  0
LINE
  8
CARROZZERIA
 62
30
 10
1045.32
 20
-726.12
 30
0.0
 11
1058.22
 21
-680.92
 31
0.0
  0
LINE
  8
CARROZZERIA
 62
30
 10
1015.5
 20
-666.65
 30
0.0
 11
1082.81
 21
-685.86
 31
0.0
  0
LINE
  8
CARROZZERIA
 62
30
 10
1014.4
 20
-670.49
 30
0.0
 11
1081.71
 21
-689.71
 31
0.0
  0
LINE
  8
CARROZZERIA
 62
30
 10
1014.4
 20
-670.49
 30
0.0
 11
1015.5
 21
-666.65
 31
0.0
  0
LINE
  8
CARROZZERIA
 62
30
 10
1081.71
 20
-689.71
 30
0.0
 11
1082.81
 21
-685.86
 31
0.0
  0
CIRCLE
  8
CARROZZERIA
 62
30
 10
990.39
 20
-780.11
 30
0.0
 40
35
  0
CIRCLE
  8
CARROZZERIA
 62
30
 10
759.61
 20
-714.22
 30
0.0
 40
35
  0
LINE
  8
CARROZZERIA
 62
30
 10
903.22
 20
-756.73
 30
0.0
 11
912.96
 21
-758.98
 31
0.0
  0
LINE
  8
CARROZZERIA
 62
30
 10
906.97
 20
-762.73
 30
0.0
 11
909.21
 21
-752.98
 31
0.0
  0
LINE
  8
CARROZZERIA
 62
30
 10
1137.08
 20
-810.66
 30
0.0
 11
1146.82
 21
-812.91
 31
0.0
  0
LINE
  8
CARROZZERIA
 62
30
 10
1140.83
 20
-816.65
 30
0.0
 11
1143.08
 21
-806.91
 31
0.0
  0
LINE
  8
CARROZZERIA
 62
30
 10
765.6
 20
-752.71
 30
0.0
 11
868.21
 21
-776.37
 31
0.0
  0
LINE
  8
CARROZZERIA
 62
30
 10
935.83
 20
-791.96
 30
0.0
 11
1102.07
 21
-830.29
 31
0.0
  0
LINE
  8
CARROZZERIA
 62
30
 10
1169.7
 20
-845.89
 30
0.0
 11
1252.82
 21
-865.05
 31
0.0
  0
LINE
  8
CARROZZERIA
 62
30
 10
765.6
 20
-752.71
 30
0.0
 11
771.67
 21
-726.4
 31
0.0
  0
LINE
  8
CARROZZERIA
 62
30
 10
771.67
 20
-726.4
 30
0.0
 11
787.18
 21
-712.53
 31
0.0
  0
LINE
  8
CARROZZERIA
 62
30
 10
787.18
 20
-712.53
 30
0.0
 11
805.02
 21
-706.38
 31
0.0
  0
LINE
  8
CARROZZERIA
 62
30
 10
805.02
 20
-706.38
 30
0.0
 11
843.32
 21
-704.95
 31
0.0
  0
LINE
  8
CARROZZERIA
 62
30
 10
843.32
 20
-704.95
 30
0.0
 11
893.84
 21
-708.39
 31
0.0
  0
LINE
  8
CARROZZERIA
 62
30
 10
893.84
 20
-708.39
 30
0.0
 11
923.75
 21
-712.21
 31
0.0
  0
LINE
  8
CARROZZERIA
 62
30
 10
923.75
 20
-712.21
 30
0.0
 11
966.01
 21
-675.77
 31
0.0
  0
LINE
  8
CARROZZERIA
 62
30
 10
966.01
 20
-675.77
 30
0.0
 11
1089.77
 21
-704.31
 31
0.0
  0
LINE
  8
CARROZZERIA
 62
30
 10
1089.77
 20
-704.31
 30
0.0
 11
1128
 21
-738.78
 31
0.0
  0
LINE
  8
CARROZZERIA
 62
30
 10
1128
 20
-738.78
 30
0.0
 11
1186.01
 21
-754.21
 31
0.0
  0
LINE
  8
CARROZZERIA
 62
30
 10
1186.01
 20
-754.21
 30
0.0
 11
1229.57
 21
-787.86
 31
0.0
  0
LINE
  8
CARROZZERIA
 62
30
 10
1229.57
 20
-787.86
 30
0.0
 11
1262.7
 21
-822.18
 31
0.0
  0
LINE
  8
CARROZZERIA
 62
30
 10
1262.7
 20
-822.18
 30
0.0
 11
1252.82
 21
-865.05
 31
0.0
  0
LINE
  8
CARROZZERIA
 62
30
 10
1173.35
 20
-751.29
 30
0.0
 11
1183.91
 21
-705.49
 31
0.0
  0
LINE
  8
CARROZZERIA
 62
30
 10
1193.81
 20
-756.01
 30
0.0
 11
1204.37
 21
-710.21
 31
0.0
  0
LINE
  8
CARROZZERIA
 62
30
 10
1160.97
 20
-698.15
 30
0.0
 11
1229.18
 21
-713.88
 31
0.0
  0
LINE
  8
CARROZZERIA
 62
30
 10
1160.07
 20
-702.05
 30
0.0
 11
1228.28
 21
-717.78
 31
0.0
  0
LINE
  8
CARROZZERIA
 62
30
 10
1160.07
 20
-702.05
 30
0.0
 11
1160.97
 21
-698.15
 31
0.0
  0
LINE
  8
CARROZZERIA
 62
30
 10
1228.28
 20
-717.78
 30
0.0
 11
1229.18
 21
-713.88
 31
0.0
  0
CIRCLE
  8
CARROZZERIA
 62
30
 10
1141.73
 20
-812.76
 30
0.0
 40
35
  0
CIRCLE
  8
CARROZZERIA
 62
30
 10
907.86
 20
-758.83
 30
0.0
 40
35
  0
LINE
  8
CARROZZERIA
 62
30
 10
1051.38
 20
-793.43
 30
0.0
 11
1061.22
 21
-795.18
 31
0.0
  0
LINE
  8
CARROZZERIA
 62
30
 10
1055.42
 20
-799.23
 30
0.0
 11
1057.17
 21
-789.39
 31
0.0
  0
LINE
  8
CARROZZERIA
 62
30
 10
1287.67
 20
-835.42
 30
0.0
 11
1297.52
 21
-837.17
 31
0.0
  0
LINE
  8
CARROZZERIA
 62
30
 10
1291.72
 20
-841.22
 30
0.0
 11
1293.47
 21
-831.37
 31
0.0
  0
LINE
  8
CARROZZERIA
 62
30
 10
913.73
 20
-796.4
 30
0.0
 11
1017.41
 21
-814.82
 31
0.0
  0
LINE
  8
CARROZZERIA
 62
30
 10
1085.74
 20
-826.96
 30
0.0
 11
1253.71
 21
-856.81
 31
0.0
  0
LINE
  8
CARROZZERIA
 62
30
 10
1322.04
 20
-868.95
 30
0.0
 11
1406.02
 21
-883.87
 31
0.0
  0
LINE
  8
CARROZZERIA
 62
30
 10
913.73
 20
-796.4
 30
0.0
 11
918.46
 21
-769.82
 31
0.0
  0
LINE
  8
CARROZZERIA
 62
30
 10
918.46
 20
-769.82
 30
0.0
 11
933.25
 21
-755.18
 31
0.0
  0
LINE
  8
CARROZZERIA
 62
30
 10
933.25
 20
-755.18
 30
0.0
 11
950.75
 21
-748.13
 31
0.0
  0
LINE
  8
CARROZZERIA
 62
30
 10
950.75
 20
-748.13
 30
0.0
 11
988.93
 21
-744.76
 31
0.0
  0
LINE
  8
CARROZZERIA
 62
30
 10
988.93
 20
-744.76
 30
0.0
 11
1039.56
 21
-745.63
 31
0.0
  0
LINE
  8
CARROZZERIA
 62
30
 10
1039.56
 20
-745.63
 30
0.0
 11
1069.62
 21
-747.92
 31
0.0
  0
LINE
  8
CARROZZERIA
 62
30
 10
1069.62
 20
-747.92
 30
0.0
 11
1109.98
 21
-709.39
 31
0.0
  0
LINE
  8
CARROZZERIA
 62
30
 10
1109.98
 20
-709.39
 30
0.0
 11
1235.02
 21
-731.61
 31
0.0
  0
LINE
  8
CARROZZERIA
 62
30
 10
1235.02
 20
-731.61
 30
0.0
 11
1274.96
 21
-764.1
 31
0.0
  0
LINE
  8
CARROZZERIA
 62
30
 10
1274.96
 20
-764.1
 30
0.0
 11
1333.68
 21
-776.56
 31
0.0
  0
LINE
  8
CARROZZERIA
 62
30
 10
1333.68
 20
-776.56
 30
0.0
 11
1378.89
 21
-807.96
 31
0.0
  0
LINE
  8
CARROZZERIA
 62
30
 10
1378.89
 20
-807.96
 30
0.0
 11
1413.72
 21
-840.55
 31
0.0
  0
LINE
  8
CARROZZERIA
 62
30
 10
1413.72
 20
-840.55
 30
0.0
 11
1406.02
 21
-883.87
 31
0.0
  0
LINE
  8
CARROZZERIA
 62
30
 10
1320.88
 20
-774.29
 30
0.0
 11
1329.1
 21
-728.01
 31
0.0
  0
LINE
  8
CARROZZERIA
 62
30
 10
1341.56
 20
-777.96
 30
0.0
 11
1349.78
 21
-731.69
 31
0.0
  0
LINE
  8
CARROZZERIA
 62
30
 10
1305.82
 20
-721.85
 30
0.0
 11
1374.74
 21
-734.09
 31
0.0
  0
LINE
  8
CARROZZERIA
 62
30
 10
1305.12
 20
-725.78
 30
0.0
 11
1374.04
 21
-738.03
 31
0.0
  0
LINE
  8
CARROZZERIA
 62
30
 10
1305.12
 20
-725.78
 30
0.0
 11
1305.82
 21
-721.85
 31
0.0
  0
LINE
  8
CARROZZERIA
 62
30
 10
1374.04
 20
-738.03
 30
0.0
 11
1374.74
 21
-734.09
 31
0.0
  0
CIRCLE
  8
CARROZZERIA
 62
30
 10
1292.42
 20
-837.28
 30
0.0
 40
35
  0
CIRCLE
  8
CARROZZERIA
 62
30
 10
1056.12
 20
-795.29
 30
0.0
 40
35
  0
LINE
  8
CARROZZERIA
 62
30
 10
1199.55
 20
-822.29
 30
0.0
 11
1209.47
 21
-823.54
 31
0.0
  0
LINE
  8
CARROZZERIA
 62
30
 10
1203.88
 20
-827.88
 30
0.0
 11
1205.14
 21
-817.96
 31
0.0
  0
LINE
  8
CARROZZERIA
 62
30
 10
1437.66
 20
-852.36
 30
0.0
 11
1447.58
 21
-853.62
 31
0.0
  0
LINE
  8
CARROZZERIA
 62
30
 10
1441.99
 20
-857.95
 30
0.0
 11
1443.25
 21
-848.03
 31
0.0
  0
LINE
  8
CARROZZERIA
 62
30
 10
1062.23
 20
-832.16
 30
0.0
 11
1166.7
 21
-845.36
 31
0.0
  0
LINE
  8
CARROZZERIA
 62
30
 10
1235.55
 20
-854.05
 30
0.0
 11
1404.81
 21
-875.43
 31
0.0
  0
LINE
  8
CARROZZERIA
 62
30
 10
1473.66
 20
-884.13
 30
0.0
 11
1558.29
 21
-894.82
 31
0.0
  0
LINE
  8
CARROZZERIA
 62
30
 10
1062.23
 20
-832.16
 30
0.0
 11
1065.61
 21
-805.37
 31
0.0
  0
LINE
  8
CARROZZERIA
 62
30
 10
1065.61
 20
-805.37
 30
0.0
 11
1079.65
 21
-790.01
 31
0.0
  0
LINE
  8
CARROZZERIA
 62
30
 10
1079.65
 20
-790.01
 30
0.0
 11
1096.78
 21
-782.09
 31
0.0
  0
LINE
  8
CARROZZERIA
 62
30
 10
1096.78
 20
-782.09
 30
0.0
 11
1134.74
 21
-776.81
 31
0.0
  0
LINE
  8
CARROZZERIA
 62
30
 10
1134.74
 20
-776.81
 30
0.0
 11
1185.35
 21
-775.14
 31
0.0
  0
LINE
  8
CARROZZERIA
 62
30
 10
1185.35
 20
-775.14
 30
0.0
 11
1215.49
 21
-775.92
 31
0.0
  0
LINE
  8
CARROZZERIA
 62
30
 10
1215.49
 20
-775.92
 30
0.0
 11
1253.87
 21
-735.41
 31
0.0
  0
LINE
  8
CARROZZERIA
 62
30
 10
1253.87
 20
-735.41
 30
0.0
 11
1379.86
 21
-751.33
 31
0.0
  0
LINE
  8
CARROZZERIA
 62
30
 10
1379.86
 20
-751.33
 30
0.0
 11
1421.38
 21
-781.77
 31
0.0
  0
LINE
  8
CARROZZERIA
 62
30
 10
1421.38
 20
-781.77
 30
0.0
 11
1480.65
 21
-791.27
 31
0.0
  0
LINE
  8
CARROZZERIA
 62
30
 10
1480.65
 20
-791.27
 30
0.0
 11
1527.38
 21
-820.35
 31
0.0
  0
LINE
  8
CARROZZERIA
 62
30
 10
1527.38
 20
-820.35
 30
0.0
 11
1563.8
 21
-851.16
 31
0.0
  0
LINE
  8
CARROZZERIA
 62
30
 10
1563.8
 20
-851.16
 30
0.0
 11
1558.29
 21
-894.82
 31
0.0
  0
LINE
  8
CARROZZERIA
 62
30
 10
1467.76
 20
-789.64
 30
0.0
 11
1473.65
 21
-743.01
 31
0.0
  0
LINE
  8
CARROZZERIA
 62
30
 10
1488.59
 20
-792.27
 30
0.0
 11
1494.48
 21
-745.64
 31
0.0
  0
LINE
  8
CARROZZERIA
 62
30
 10
1450.09
 20
-738.02
 30
0.0
 11
1519.53
 21
-746.79
 31
0.0
  0
LINE
  8
CARROZZERIA
 62
30
 10
1449.58
 20
-741.99
 30
0.0
 11
1519.03
 21
-750.76
 31
0.0
  0
LINE
  8
CARROZZERIA
 62
30
 10
1449.58
 20
-741.99
 30
0.0
 11
1450.09
 21
-738.02
 31
0.0
  0
LINE
  8
CARROZZERIA
 62
30
 10
1519.03
 20
-750.76
 30
0.0
 11
1519.53
 21
-746.79
 31
0.0
  0
CIRCLE
  8
CARROZZERIA
 62
30
 10
1442.49
 20
-853.98
 30
0.0
 40
35
  0
CIRCLE
  8
CARROZZERIA
 62
30
 10
1204.39
 20
-823.91
 30
0.0
 40
35
  0
LINE
  8
CARROZZERIA
 62
30
 10
1347.74
 20
-843.53
 30
0.0
 11
1357.71
 21
-844.28
 31
0.0
  0
LINE
  8
CARROZZERIA
 62
30
 10
1352.35
 20
-848.89
 30
0.0
 11
1353.11
 21
-838.92
 31
0.0
  0
LINE
  8
CARROZZERIA
 62
30
 10
1587.05
 20
-861.71
 30
0.0
 11
1597.02
 21
-862.47
 31
0.0
  0
LINE
  8
CARROZZERIA
 62
30
 10
1591.66
 20
-867.07
 30
0.0
 11
1592.42
 21
-857.1
 31
0.0
  0
LINE
  8
CARROZZERIA
 62
30
 10
1211.08
 20
-860.22
 30
0.0
 11
1316.08
 21
-868.2
 31
0.0
  0
LINE
  8
CARROZZERIA
 62
30
 10
1385.28
 20
-873.46
 30
0.0
 11
1555.39
 21
-886.38
 31
0.0
  0
LINE
  8
CARROZZERIA
 62
30
 10
1624.59
 20
-891.64
 30
0.0
 11
1709.65
 21
-898.1
 31
0.0
  0
LINE
  8
CARROZZERIA
 62
30
 10
1211.08
 20
-860.22
 30
0.0
 11
1213.13
 21
-833.3
 31
0.0
  0
LINE
  8
CARROZZERIA
 62
30
 10
1213.13
 20
-833.3
 30
0.0
 11
1226.38
 21
-817.25
 31
0.0
  0
LINE
  8
CARROZZERIA
 62
30
 10
1226.38
 20
-817.25
 30
0.0
 11
1243.1
 21
-808.5
 31
0.0
  0
LINE
  8
CARROZZERIA
 62
30
 10
1243.1
 20
-808.5
 30
0.0
 11
1280.75
 21
-801.33
 31
0.0
  0
LINE
  8
CARROZZERIA
 62
30
 10
1280.75
 20
-801.33
 30
0.0
 11
1331.21
 21
-797.14
 31
0.0
  0
LINE
  8
CARROZZERIA
 62
30
 10
1331.21
 20
-797.14
 30
0.0
 11
1361.35
 21
-796.42
 31
0.0
  0
LINE
  8
CARROZZERIA
 62
30
 10
1361.35
 20
-796.42
 30
0.0
 11
1397.67
 21
-754.05
 31
0.0
  0
LINE
  8
CARROZZERIA
 62
30
 10
1397.67
 20
-754.05
 30
0.0
 11
1524.3
 21
-763.67
 31
0.0
  0
LINE
  8
CARROZZERIA
 62
30
 10
1524.3
 20
-763.67
 30
0.0
 11
1567.28
 21
-792.01
 31
0.0
  0
LINE
  8
CARROZZERIA
 62
30
 10
1567.28
 20
-792.01
 30
0.0
 11
1626.95
 21
-798.55
 31
0.0
  0
LINE
  8
CARROZZERIA
 62
30
 10
1626.95
 20
-798.55
 30
0.0
 11
1675.07
 21
-825.27
 31
0.0
  0
LINE
  8
CARROZZERIA
 62
30
 10
1675.07
 20
-825.27
 30
0.0
 11
1712.98
 21
-854.23
 31
0.0
  0
LINE
  8
CARROZZERIA
 62
30
 10
1712.98
 20
-854.23
 30
0.0
 11
1709.65
 21
-898.1
 31
0.0
  0
LINE
  8
CARROZZERIA
 62
30
 10
1613.99
 20
-797.57
 30
0.0
 11
1617.55
 21
-750.7
 31
0.0
  0
LINE
  8
CARROZZERIA
 62
30
 10
1634.93
 20
-799.16
 30
0.0
 11
1638.49
 21
-752.29
 31
0.0
  0
LINE
  8
CARROZZERIA
 62
30
 10
1593.77
 20
-746.89
 30
0.0
 11
1663.57
 21
-752.19
 31
0.0
  0
LINE
  8
CARROZZERIA
 62
30
 10
1593.47
 20
-750.88
 30
0.0
 11
1663.27
 21
-756.18
 31
0.0
  0
LINE
  8
CARROZZERIA
 62
30
 10
1593.47
 20
-750.88
 30
0.0
 11
1593.77
 21
-746.89
 31
0.0
  0
LINE
  8
CARROZZERIA
 62
30
 10
1663.27
 20
-756.18
 30
0.0
 11
1663.57
 21
-752.19
 31
0.0
  0
CIRCLE
  8
CARROZZERIA
 62
30
 10
1591.96
 20
-863.09
 30
0.0
 40
35
  0
CIRCLE
  8
CARROZZERIA
 62
30
 10
1352.65
 20
-844.9
 30
0.0
 40
35
  0
LINE
  8
CARROZZERIA
 62
30
 10
1456.43
 20
-854.35
 30
0.0
 11
1466.42
 21
-854.74
 31
0.0
  0
LINE
  8
CARROZZERIA
 62
30
 10
1461.22
 20
-859.54
 30
0.0
 11
1461.62
 21
-849.55
 31
0.0
  0
LINE
  8
CARROZZERIA
 62
30
 10
1696.24
 20
-863.83
 30
0.0
 11
1706.23
 21
-864.23
 31
0.0
  0
LINE
  8
CARROZZERIA
 62
30
 10
1701.04
 20
-869.02
 30
0.0
 11
1701.43
 21
-859.03
 31
0.0
  0
LINE
  8
CARROZZERIA
 62
30
 10
1320.46
 20
-876
 30
0.0
 11
1425.68
 21
-880.16
 31
0.0
  0
LINE
  8
CARROZZERIA
 62
30
 10
1495.03
 20
-882.9
 30
0.0
 11
1665.5
 21
-889.64
 31
0.0
  0
LINE
  8
CARROZZERIA
 62
30
 10
1734.84
 20
-892.38
 30
0.0
 11
1820.07
 21
-895.75
 31
0.0
  0
LINE
  8
CARROZZERIA
 62
30
 10
1320.46
 20
-876
 30
0.0
 11
1321.53
 21
-849.02
 31
0.0
  0
LINE
  8
CARROZZERIA
 62
30
 10
1321.53
 20
-849.02
 30
0.0
 11
1334.19
 21
-832.5
 31
0.0
  0
LINE
  8
CARROZZERIA
 62
30
 10
1334.19
 20
-832.5
 30
0.0
 11
1350.58
 21
-823.14
 31
0.0
  0
LINE
  8
CARROZZERIA
 62
30
 10
1350.58
 20
-823.14
 30
0.0
 11
1387.94
 21
-814.61
 31
0.0
  0
LINE
  8
CARROZZERIA
 62
30
 10
1387.94
 20
-814.61
 30
0.0
 11
1438.22
 21
-808.59
 31
0.0
  0
LINE
  8
CARROZZERIA
 62
30
 10
1438.22
 20
-808.59
 30
0.0
 11
1468.31
 21
-806.78
 31
0.0
  0
LINE
  8
CARROZZERIA
 62
30
 10
1468.31
 20
-806.78
 30
0.0
 11
1503.07
 21
-763.12
 31
0.0
  0
LINE
  8
CARROZZERIA
 62
30
 10
1503.07
 20
-763.12
 30
0.0
 11
1629.97
 21
-768.14
 31
0.0
  0
LINE
  8
CARROZZERIA
 62
30
 10
1629.97
 20
-768.14
 30
0.0
 11
1673.94
 21
-794.9
 31
0.0
  0
LINE
  8
CARROZZERIA
 62
30
 10
1673.94
 20
-794.9
 30
0.0
 11
1733.82
 21
-799.26
 31
0.0
  0
LINE
  8
CARROZZERIA
 62
30
 10
1733.82
 20
-799.26
 30
0.0
 11
1782.87
 21
-824.22
 31
0.0
  0
LINE
  8
CARROZZERIA
 62
30
 10
1782.87
 20
-824.22
 30
0.0
 11
1821.81
 21
-851.78
 31
0.0
  0
LINE
  8
CARROZZERIA
 62
30
 10
1821.81
 20
-851.78
 30
0.0
 11
1820.07
 21
-895.75
 31
0.0
  0
LINE
  8
CARROZZERIA
 62
30
 10
1720.83
 20
-798.75
 30
0.0
 11
1722.69
 21
-751.79
 31
0.0
  0
LINE
  8
CARROZZERIA
 62
30
 10
1741.81
 20
-799.58
 30
0.0
 11
1743.67
 21
-752.62
 31
0.0
  0
LINE
  8
CARROZZERIA
 62
30
 10
1698.78
 20
-748.84
 30
0.0
 11
1768.73
 21
-751.61
 31
0.0
  0
LINE
  8
CARROZZERIA
 62
30
 10
1698.63
 20
-752.84
 30
0.0
 11
1768.57
 21
-755.6
 31
0.0
  0
LINE
  8
CARROZZERIA
 62
30
 10
1698.63
 20
-752.84
 30
0.0
 11
1698.78
 21
-748.84
 31
0.0
  0
LINE
  8
CARROZZERIA
 62
30
 10
1768.57
 20
-755.6
 30
0.0
 11
1768.73
 21
-751.61
 31
0.0
  0
CIRCLE
  8
CARROZZERIA
 62
30
 10
1701.2
 20
-865.03
 30
0.0
 40
35
  0
CIRCLE
  8
CARROZZERIA
 62
30
 10
1461.38
 20
-855.55
 30
0.0
 40
35
  0
LINE
  8
CARROZZERIA
 62
30
 10
1495.99
 20
-857.3
 30
0.0
 11
1505.99
 21
-857.57
 31
0.0
  0
LINE
  8
CARROZZERIA
 62
30
 10
1500.85
 20
-862.43
 30
0.0
 11
1501.12
 21
-852.43
 31
0.0
  0
LINE
  8
CARROZZERIA
 62
30
 10
1735.9
 20
-863.88
 30
0.0
 11
1745.9
 21
-864.15
 31
0.0
  0
LINE
  8
CARROZZERIA
 62
30
 10
1740.76
 20
-869.01
 30
0.0
 11
1741.03
 21
-859.02
 31
0.0
  0
LINE
  8
CARROZZERIA
 62
30
 10
1360.3
 20
-880.58
 30
0.0
 11
1465.56
 21
-883.47
 31
0.0
  0
LINE
  8
CARROZZERIA
 62
30
 10
1534.93
 20
-885.37
 30
0.0
 11
1705.47
 21
-890.05
 31
0.0
  0
LINE
  8
CARROZZERIA
 62
30
 10
1774.84
 20
-891.95
 30
0.0
 11
1860.11
 21
-894.29
 31
0.0
  0
LINE
  8
CARROZZERIA
 62
30
 10
1360.3
 20
-880.58
 30
0.0
 11
1361.04
 21
-853.59
 31
0.0
  0
LINE
  8
CARROZZERIA
 62
30
 10
1361.04
 20
-853.59
 30
0.0
 11
1373.5
 21
-836.93
 31
0.0
  0
LINE
  8
CARROZZERIA
 62
30
 10
1373.5
 20
-836.93
 30
0.0
 11
1389.77
 21
-827.37
 31
0.0
  0
LINE
  8
CARROZZERIA
 62
30
 10
1389.77
 20
-827.37
 30
0.0
 11
1427.03
 21
-818.39
 31
0.0
  0
LINE
  8
CARROZZERIA
 62
30
 10
1427.03
 20
-818.39
 30
0.0
 11
1477.23
 21
-811.76
 31
0.0
  0
LINE
  8
CARROZZERIA
 62
30
 10
1477.23
 20
-811.76
 30
0.0
 11
1507.3
 21
-809.59
 31
0.0
  0
LINE
  8
CARROZZERIA
 62
30
 10
1507.3
 20
-809.59
 30
0.0
 11
1541.52
 21
-765.51
 31
0.0
  0
LINE
  8
CARROZZERIA
 62
30
 10
1541.52
 20
-765.51
 30
0.0
 11
1668.48
 21
-768.99
 31
0.0
  0
LINE
  8
CARROZZERIA
 62
30
 10
1668.48
 20
-768.99
 30
0.0
 11
1712.77
 21
-795.22
 31
0.0
  0
LINE
  8
CARROZZERIA
 62
30
 10
1712.77
 20
-795.22
 30
0.0
 11
1772.7
 21
-798.86
 31
0.0
  0
LINE
  8
CARROZZERIA
 62
30
 10
1772.7
 20
-798.86
 30
0.0
 11
1822.05
 21
-823.22
 31
0.0
  0
LINE
  8
CARROZZERIA
 62
30
 10
1822.05
 20
-823.22
 30
0.0
 11
1861.32
 21
-850.31
 31
0.0
  0
LINE
  8
CARROZZERIA
 62
30
 10
1861.32
 20
-850.31
 30
0.0
 11
1860.11
 21
-894.29
 31
0.0
  0
LINE
  8
CARROZZERIA
 62
30
 10
1759.7
 20
-798.5
 30
0.0
 11
1760.99
 21
-751.52
 31
0.0
  0
LINE
  8
CARROZZERIA
 62
30
 10
1780.69
 20
-799.08
 30
0.0
 11
1781.98
 21
-752.1
 31
0.0
  0
LINE
  8
CARROZZERIA
 62
30
 10
1737.05
 20
-748.86
 30
0.0
 11
1807.03
 21
-750.78
 31
0.0
  0
LINE
  8
CARROZZERIA
 62
30
 10
1736.94
 20
-752.86
 30
0.0
 11
1806.92
 21
-754.78
 31
0.0
  0
LINE
  8
CARROZZERIA
 62
30
 10
1736.94
 20
-752.86
 30
0.0
 11
1737.05
 21
-748.86
 31
0.0
  0
LINE
  8
CARROZZERIA
 62
30
 10
1806.92
 20
-754.78
 30
0.0
 11
1807.03
 21
-750.78
 31
0.0
  0
CIRCLE
  8
CARROZZERIA
 62
30
 10
1740.87
 20
-865.01
 30
0.0
 40
35
  0
CIRCLE
  8
CARROZZERIA
 62
30
 10
1500.96
 20
-858.43
 30
0.0
 40
35
  0
LINE
  8
CARROZZERIA
 62
90
 10
1645.06
 20
-863.58
 30
0.0
 11
1655.06
 21
-863.6
 31
0.0
  0
LINE
  8
CARROZZERIA
 62
90
 10
1650.05
 20
-868.59
 30
0.0
 11
1650.07
 21
-858.59
 31
0.0
  0
LINE
  8
CARROZZERIA
 62
90
 10
1885.06
 20
-863.99
 30
0.0
 11
1895.06
 21
-864.01
 31
0.0
  0
LINE
  8
CARROZZERIA
 62
90
 10
1890.05
 20
-869
 30
0.0
 11
1890.07
 21
-859
 31
0.0
  0
LINE
  8
CARROZZERIA
 62
90
 10
1510.02
 20
-890.35
 30
0.0
 11
1615.32
 21
-890.53
 31
0.0
  0
LINE
  8
CARROZZERIA
 62
90
 10
1684.72
 20
-890.65
 30
0.0
 11
1855.32
 21
-890.94
 31
0.0
  0
LINE
  8
CARROZZERIA
 62
90
 10
1924.72
 20
-891.06
 30
0.0
 11
2010.01
 21
-891.21
 31
0.0
  0
LINE
  8
CARROZZERIA
 62
90
 10
1510.02
 20
-890.35
 30
0.0
 11
1510.06
 21
-863.35
 31
0.0
  0
LINE
  8
CARROZZERIA
 62
90
 10
1510.06
 20
-863.35
 30
0.0
 11
1522.09
 21
-846.37
 31
0.0
  0
LINE
  8
CARROZZERIA
 62
90
 10
1522.09
 20
-846.37
 30
0.0
 11
1538.11
 21
-836.4
 31
0.0
  0
LINE
  8
CARROZZERIA
 62
90
 10
1538.11
 20
-836.4
 30
0.0
 11
1575.13
 21
-826.46
 31
0.0
  0
LINE
  8
CARROZZERIA
 62
90
 10
1575.13
 20
-826.46
 30
0.0
 11
1625.14
 21
-818.55
 31
0.0
  0
LINE
  8
CARROZZERIA
 62
90
 10
1625.14
 20
-818.55
 30
0.0
 11
1655.14
 21
-815.6
 31
0.0
  0
LINE
  8
CARROZZERIA
 62
90
 10
1655.14
 20
-815.6
 30
0.0
 11
1688.22
 21
-770.65
 31
0.0
  0
LINE
  8
CARROZZERIA
 62
90
 10
1688.22
 20
-770.65
 30
0.0
 11
1815.22
 21
-770.87
 31
0.0
  0
LINE
  8
CARROZZERIA
 62
90
 10
1815.22
 20
-770.87
 30
0.0
 11
1860.18
 21
-795.95
 31
0.0
  0
LINE
  8
CARROZZERIA
 62
90
 10
1860.18
 20
-795.95
 30
0.0
 11
1920.17
 21
-798.05
 31
0.0
  0
LINE
  8
CARROZZERIA
 62
90
 10
1920.17
 20
-798.05
 30
0.0
 11
1970.13
 21
-821.14
 31
0.0
  0
LINE
  8
CARROZZERIA
 62
90
 10
1970.13
 20
-821.14
 30
0.0
 11
2010.09
 21
-847.21
 31
0.0
  0
LINE
  8
CARROZZERIA
 62
90
 10
2010.09
 20
-847.21
 30
0.0
 11
2010.01
 21
-891.21
 31
0.0
  0
LINE
  8
CARROZZERIA
 62
90
 10
1907.17
 20
-798.03
 30
0.0
 11
1907.25
 21
-751.03
 31
0.0
  0
LINE
  8
CARROZZERIA
 62
90
 10
1928.17
 20
-798.07
 30
0.0
 11
1928.25
 21
-751.07
 31
0.0
  0
LINE
  8
CARROZZERIA
 62
90
 10
1883.26
 20
-748.99
 30
0.0
 11
1953.26
 21
-749.11
 31
0.0
  0
LINE
  8
CARROZZERIA
 62
90
 10
1883.25
 20
-752.99
 30
0.0
 11
1953.25
 21
-753.11
 31
0.0
  0
LINE
  8
CARROZZERIA
 62
90
 10
1883.25
 20
-752.99
 30
0.0
 11
1883.26
 21
-748.99
 31
0.0
  0
LINE
  8
CARROZZERIA
 62
90
 10
1953.25
 20
-753.11
 30
0.0
 11
1953.26
 21
-749.11
 31
0.0
  0
CIRCLE
  8
CARROZZERIA
 62
90
 10
1890.06
 20
-865
 30
0.0
 40
35
  0
CIRCLE
  8
CARROZZERIA
 62
90
 10
1650.06
 20
-864.59
 30
0.0
 40
35
  0
LINE
  8
CARROZZERIA
 62
90
 10
1795
 20
-864
 30
0.0
 11
1805
 21
-864
 31
0.0
  0
LINE
  8
CARROZZERIA
 62
90
 10
1800
 20
-869
 30
0.0
 11
1800
 21
-859
 31
0.0
  0
LINE
  8
CARROZZERIA
 62
90
 10
2035
 20
-864
 30
0.0
 11
2045
 21
-864
 31
0.0
  0
LINE
  8
CARROZZERIA
 62
90
 10
2040
 20
-869
 30
0.0
 11
2040
 21
-859
 31
0.0
  0
LINE
  8
CARROZZERIA
 62
90
 10
1660
 20
-891
 30
0.0
 11
1765.3
 21
-891
 31
0.0
  0
LINE
  8
CARROZZERIA
 62
90
 10
1834.7
 20
-891
 30
0.0
 11
2005.3
 21
-891
 31
0.0
  0
LINE
  8
CARROZZERIA
 62
90
 10
2074.7
 20
-891
 30
0.0
 11
2160
 21
-891
 31
0.0
  0
LINE
  8
CARROZZERIA
 62
90
 10
1660
 20
-891
 30
0.0
 11
1660
 21
-864
 31
0.0
  0
LINE
  8
CARROZZERIA
 62
90
 10
1660
 20
-864
 30
0.0
 11
1672
 21
-847
 31
0.0
  0
LINE
  8
CARROZZERIA
 62
90
 10
1672
 20
-847
 30
0.0
 11
1688
 21
-837
 31
0.0
  0
LINE
  8
CARROZZERIA
 62
90
 10
1688
 20
-837
 30
0.0
 11
1725
 21
-827
 31
0.0
  0
LINE
  8
CARROZZERIA
 62
90
 10
1725
 20
-827
 30
0.0
 11
1775
 21
-819
 31
0.0
  0
LINE
  8
CARROZZERIA
 62
90
 10
1775
 20
-819
 30
0.0
 11
1805
 21
-816
 31
0.0
  0
LINE
  8
CARROZZERIA
 62
90
 10
1805
 20
-816
 30
0.0
 11
1838
 21
-771
 31
0.0
  0
LINE
  8
CARROZZERIA
 62
90
 10
1838
 20
-771
 30
0.0
 11
1965
 21
-771
 31
0.0
  0
LINE
  8
CARROZZERIA
 62
90
 10
1965
 20
-771
 30
0.0
 11
2010
 21
-796
 31
0.0
  0
LINE
  8
CARROZZERIA
 62
90
 10
2010
 20
-796
 30
0.0
 11
2070
 21
-798
 31
0.0
  0
LINE
  8
CARROZZERIA
 62
90
 10
2070
 20
-798
 30
0.0
 11
2120
 21
-821
 31
0.0
  0
LINE
  8
CARROZZERIA
 62
90
 10
2120
 20
-821
 30
0.0
 11
2160
 21
-847
 31
0.0
  0
LINE
  8
CARROZZERIA
 62
90
 10
2160
 20
-847
 30
0.0
 11
2160
 21
-891
 31
0.0
  0
LINE
  8
CARROZZERIA
 62
90
 10
2057
 20
-798
 30
0.0
 11
2057
 21
-751
 31
0.0
  0
LINE
  8
CARROZZERIA
 62
90
 10
2078
 20
-798
 30
0.0
 11
2078
 21
-751
 31
0.0
  0
LINE
  8
CARROZZERIA
 62
90
 10
2033
 20
-749
 30
0.0
 11
2103
 21
-749
 31
0.0
  0
LINE
  8
CARROZZERIA
 62
90
 10
2033
 20
-753
 30
0.0
 11
2103
 21
-753
 31
0.0
  0
LINE
  8
CARROZZERIA
 62
90
 10
2033
 20
-753
 30
0.0
 11
2033
 21
-749
 31
0.0
  0
LINE
  8
CARROZZERIA
 62
90
 10
2103
 20
-753
 30
0.0
 11
2103
 21
-749
 31
0.0
  0
CIRCLE
  8
CARROZZERIA
 62
90
 10
2040
 20
-865
 30
0.0
 40
35
  0
CIRCLE
  8
CARROZZERIA
 62
90
 10
1800
 20
-865
 30
0.0
 40
35
  0
CIRCLE
  8
TESTO
 62
30
 10
1320.46
 20
-876
 30
0.0
 40
11
  0
LINE
  8
CRITICO
 62
30
 10
1320.46
 20
-876
 30
0.0
 11
1320.46
 21
-876.23
 31
0.0
  0
LINE
  8
CRITICO
 62
30
 10
1320.46
 20
-876
 30
0.0
 11
1170.46
 21
-931
 31
0.0
  0
TEXT
  8
CRITICO
 62
30
 10
850.46
 20
-939
 30
0.0
 40
9
  1
paraurti ANT (muso, sbalzo 140): +0.24 cm -> a rischio
  0
CIRCLE
  8
TESTO
 62
90
 10
1699.58
 20
-898.12
 30
0.0
 40
9
  0
TEXT
  8
TESTO
 62
90
 10
1711.58
 20
-880.12
 30
0.0
 40
8
  1
coda (120) al SAG: +1.88
  0
TEXT
  8
TESTO
 62
30
 10
-560
 20
-428
 30
0.0
 40
16
  1
h = 9 cm
  0
TEXT
  8
TESTO
 62
30
 10
-300
 20
-426
 30
0.0
 40
11
  1
muso(140) +0.24  |  coda(120)@SAG +1.88  |  ventre +1.40  [cm]  ->  A RISCHIO
  0
TEXT
  8
TESTO
 62
7
 10
-300
 20
-446
 30
0.0
 40
9
  1
sagome ogni 150 cm (+ posa critica): 7 verdi (sicuro), 8 arancio (a rischio), 0 rosse (collisione)
  0
LINE
  8
REF
 62
8
 10
-560
 20
-458
 30
0.0
 11
2360
 21
-458
 31
0.0
  0
LINE
  8
RAMPA
 10
-560
 20
-1420
 30
0.0
 11
0
 21
-1420
 31
0.0
  0
ARC
  8
RAMPA
 10
0
 20
-2370
 30
0.0
 40
950
 50
65
 51
90
  0
LINE
  8
RAMPA
 10
401.49
 20
-1509.01
 30
0.0
 11
414.24
 21
-1514.95
 31
0.0
  0
ARC
  8
RAMPA
 10
1700
 20
1242.37
 30
0.0
 40
3042.37
 50
245
 51
270
  0
LINE
  8
RAMPA
 10
1700
 20
-1800
 30
0.0
 11
2360
 21
-1800
 31
0.0
  0
TEXT
  8
TESTO
 10
-545
 20
-1408
 30
0.0
 40
11
  1
STRADA
  0
TEXT
  8
TESTO
 10
2175
 20
-1786
 30
0.0
 40
11
  1
GARAGE
  0
LINE
  8
CARROZZERIA
 62
90
 10
-154.34
 20
-1382.92
 30
0.0
 11
-144.34
 21
-1383.09
 31
0.0
  0
LINE
  8
CARROZZERIA
 62
90
 10
-149.43
 20
-1388.01
 30
0.0
 11
-149.25
 21
-1378.01
 31
0.0
  0
LINE
  8
CARROZZERIA
 62
90
 10
85.62
 20
-1387.19
 30
0.0
 11
95.62
 21
-1387.36
 31
0.0
  0
LINE
  8
CARROZZERIA
 62
90
 10
90.53
 20
-1392.27
 30
0.0
 11
90.71
 21
-1382.28
 31
0.0
  0
LINE
  8
CARROZZERIA
 62
90
 10
-289.8
 20
-1407.51
 30
0.0
 11
-184.52
 21
-1409.38
 31
0.0
  0
LINE
  8
CARROZZERIA
 62
90
 10
-115.13
 20
-1410.62
 30
0.0
 11
55.45
 21
-1413.65
 31
0.0
  0
LINE
  8
CARROZZERIA
 62
90
 10
124.83
 20
-1414.89
 30
0.0
 11
210.12
 21
-1416.41
 31
0.0
  0
LINE
  8
CARROZZERIA
 62
90
 10
-289.8
 20
-1407.51
 30
0.0
 11
-289.32
 21
-1380.52
 31
0.0
  0
LINE
  8
CARROZZERIA
 62
90
 10
-289.32
 20
-1380.52
 30
0.0
 11
-277.02
 21
-1363.73
 31
0.0
  0
LINE
  8
CARROZZERIA
 62
90
 10
-277.02
 20
-1363.73
 30
0.0
 11
-260.84
 21
-1354.02
 31
0.0
  0
LINE
  8
CARROZZERIA
 62
90
 10
-260.84
 20
-1354.02
 30
0.0
 11
-223.67
 21
-1344.68
 31
0.0
  0
LINE
  8
CARROZZERIA
 62
90
 10
-223.67
 20
-1344.68
 30
0.0
 11
-173.54
 21
-1337.57
 31
0.0
  0
LINE
  8
CARROZZERIA
 62
90
 10
-173.54
 20
-1337.57
 30
0.0
 11
-143.49
 21
-1335.1
 31
0.0
  0
LINE
  8
CARROZZERIA
 62
90
 10
-143.49
 20
-1335.1
 30
0.0
 11
-109.69
 21
-1290.7
 31
0.0
  0
LINE
  8
CARROZZERIA
 62
90
 10
-109.69
 20
-1290.7
 30
0.0
 11
17.29
 21
-1292.96
 31
0.0
  0
LINE
  8
CARROZZERIA
 62
90
 10
17.29
 20
-1292.96
 30
0.0
 11
61.83
 21
-1318.75
 31
0.0
  0
LINE
  8
CARROZZERIA
 62
90
 10
61.83
 20
-1318.75
 30
0.0
 11
121.79
 21
-1321.82
 31
0.0
  0
LINE
  8
CARROZZERIA
 62
90
 10
121.79
 20
-1321.82
 30
0.0
 11
171.37
 21
-1345.7
 31
0.0
  0
LINE
  8
CARROZZERIA
 62
90
 10
171.37
 20
-1345.7
 30
0.0
 11
210.9
 21
-1372.41
 31
0.0
  0
LINE
  8
CARROZZERIA
 62
90
 10
210.9
 20
-1372.41
 30
0.0
 11
210.12
 21
-1416.41
 31
0.0
  0
LINE
  8
CARROZZERIA
 62
90
 10
108.79
 20
-1321.59
 30
0.0
 11
109.63
 21
-1274.6
 31
0.0
  0
LINE
  8
CARROZZERIA
 62
90
 10
129.79
 20
-1321.96
 30
0.0
 11
130.62
 21
-1274.97
 31
0.0
  0
LINE
  8
CARROZZERIA
 62
90
 10
85.67
 20
-1272.17
 30
0.0
 11
155.66
 21
-1273.41
 31
0.0
  0
LINE
  8
CARROZZERIA
 62
90
 10
85.6
 20
-1276.17
 30
0.0
 11
155.58
 21
-1277.41
 31
0.0
  0
LINE
  8
CARROZZERIA
 62
90
 10
85.6
 20
-1276.17
 30
0.0
 11
85.67
 21
-1272.17
 31
0.0
  0
LINE
  8
CARROZZERIA
 62
90
 10
155.58
 20
-1277.41
 30
0.0
 11
155.66
 21
-1273.41
 31
0.0
  0
CIRCLE
  8
CARROZZERIA
 62
90
 10
90.58
 20
-1389.27
 30
0.0
 40
35
  0
CIRCLE
  8
CARROZZERIA
 62
90
 10
-149.38
 20
-1385.01
 30
0.0
 40
35
  0
LINE
  8
CARROZZERIA
 62
90
 10
-0.29
 20
-1382.66
 30
0.0
 11
9.63
 21
-1383.93
 31
0.0
  0
LINE
  8
CARROZZERIA
 62
90
 10
4.04
 20
-1388.26
 30
0.0
 11
5.31
 21
-1378.34
 31
0.0
  0
LINE
  8
CARROZZERIA
 62
90
 10
237.79
 20
-1412.98
 30
0.0
 11
247.71
 21
-1414.24
 31
0.0
  0
LINE
  8
CARROZZERIA
 62
90
 10
242.12
 20
-1418.57
 30
0.0
 11
243.38
 21
-1408.65
 31
0.0
  0
LINE
  8
CARROZZERIA
 62
90
 10
-137.62
 20
-1392.4
 30
0.0
 11
-33.16
 21
-1405.7
 31
0.0
  0
LINE
  8
CARROZZERIA
 62
90
 10
35.69
 20
-1414.46
 30
0.0
 11
204.92
 21
-1436.01
 31
0.0
  0
LINE
  8
CARROZZERIA
 62
90
 10
273.76
 20
-1444.78
 30
0.0
 11
358.38
 21
-1455.55
 31
0.0
  0
LINE
  8
CARROZZERIA
 62
90
 10
-137.62
 20
-1392.4
 30
0.0
 11
-134.2
 21
-1365.61
 31
0.0
  0
LINE
  8
CARROZZERIA
 62
90
 10
-134.2
 20
-1365.61
 30
0.0
 11
-120.15
 21
-1350.26
 31
0.0
  0
LINE
  8
CARROZZERIA
 62
90
 10
-120.15
 20
-1350.26
 30
0.0
 11
-103.02
 21
-1342.37
 31
0.0
  0
LINE
  8
CARROZZERIA
 62
90
 10
-103.02
 20
-1342.37
 30
0.0
 11
-65.05
 21
-1337.12
 31
0.0
  0
LINE
  8
CARROZZERIA
 62
90
 10
-65.05
 20
-1337.12
 30
0.0
 11
-14.44
 21
-1335.5
 31
0.0
  0
LINE
  8
CARROZZERIA
 62
90
 10
-14.44
 20
-1335.5
 30
0.0
 11
15.7
 21
-1336.31
 31
0.0
  0
LINE
  8
CARROZZERIA
 62
90
 10
15.7
 20
-1336.31
 30
0.0
 11
54.12
 21
-1295.84
 31
0.0
  0
LINE
  8
CARROZZERIA
 62
90
 10
54.12
 20
-1295.84
 30
0.0
 11
180.1
 21
-1311.88
 31
0.0
  0
LINE
  8
CARROZZERIA
 62
90
 10
180.1
 20
-1311.88
 30
0.0
 11
221.58
 21
-1342.37
 31
0.0
  0
LINE
  8
CARROZZERIA
 62
90
 10
221.58
 20
-1342.37
 30
0.0
 11
280.85
 21
-1351.93
 31
0.0
  0
LINE
  8
CARROZZERIA
 62
90
 10
280.85
 20
-1351.93
 30
0.0
 11
327.54
 21
-1381.06
 31
0.0
  0
LINE
  8
CARROZZERIA
 62
90
 10
327.54
 20
-1381.06
 30
0.0
 11
363.94
 21
-1411.91
 31
0.0
  0
LINE
  8
CARROZZERIA
 62
90
 10
363.94
 20
-1411.91
 30
0.0
 11
358.38
 21
-1455.55
 31
0.0
  0
LINE
  8
CARROZZERIA
 62
90
 10
267.95
 20
-1350.29
 30
0.0
 11
273.89
 21
-1303.66
 31
0.0
  0
LINE
  8
CARROZZERIA
 62
90
 10
288.78
 20
-1352.94
 30
0.0
 11
294.72
 21
-1306.32
 31
0.0
  0
LINE
  8
CARROZZERIA
 62
90
 10
250.33
 20
-1298.65
 30
0.0
 11
319.77
 21
-1307.49
 31
0.0
  0
LINE
  8
CARROZZERIA
 62
90
 10
249.83
 20
-1302.62
 30
0.0
 11
319.27
 21
-1311.46
 31
0.0
  0
LINE
  8
CARROZZERIA
 62
90
 10
249.83
 20
-1302.62
 30
0.0
 11
250.33
 21
-1298.65
 31
0.0
  0
LINE
  8
CARROZZERIA
 62
90
 10
319.27
 20
-1311.46
 30
0.0
 11
319.77
 21
-1307.49
 31
0.0
  0
CIRCLE
  8
CARROZZERIA
 62
90
 10
242.5
 20
-1415.6
 30
0.0
 40
35
  0
CIRCLE
  8
CARROZZERIA
 62
90
 10
4.42
 20
-1385.28
 30
0.0
 40
35
  0
LINE
  8
CARROZZERIA
 62
90
 10
155.61
 20
-1395
 30
0.0
 11
165.21
 21
-1397.82
 31
0.0
  0
LINE
  8
CARROZZERIA
 62
90
 10
159
 20
-1401.21
 30
0.0
 11
161.82
 21
-1391.61
 31
0.0
  0
LINE
  8
CARROZZERIA
 62
90
 10
385.92
 20
-1462.53
 30
0.0
 11
395.51
 21
-1465.35
 31
0.0
  0
LINE
  8
CARROZZERIA
 62
90
 10
389.31
 20
-1468.74
 30
0.0
 11
392.12
 21
-1459.14
 31
0.0
  0
LINE
  8
CARROZZERIA
 62
90
 10
18.47
 20
-1382.93
 30
0.0
 11
119.52
 21
-1412.56
 31
0.0
  0
LINE
  8
CARROZZERIA
 62
90
 10
186.11
 20
-1432.08
 30
0.0
 11
349.82
 21
-1480.08
 31
0.0
  0
LINE
  8
CARROZZERIA
 62
90
 10
416.42
 20
-1499.61
 30
0.0
 11
498.27
 21
-1523.61
 31
0.0
  0
LINE
  8
CARROZZERIA
 62
90
 10
18.47
 20
-1382.93
 30
0.0
 11
26.07
 21
-1357.02
 31
0.0
  0
LINE
  8
CARROZZERIA
 62
90
 10
26.07
 20
-1357.02
 30
0.0
 11
42.36
 21
-1344.08
 31
0.0
  0
LINE
  8
CARROZZERIA
 62
90
 10
42.36
 20
-1344.08
 30
0.0
 11
60.53
 21
-1338.99
 31
0.0
  0
LINE
  8
CARROZZERIA
 62
90
 10
60.53
 20
-1338.99
 30
0.0
 11
98.85
 21
-1339.8
 31
0.0
  0
LINE
  8
CARROZZERIA
 62
90
 10
98.85
 20
-1339.8
 30
0.0
 11
149.08
 21
-1346.2
 31
0.0
  0
LINE
  8
CARROZZERIA
 62
90
 10
149.08
 20
-1346.2
 30
0.0
 11
178.71
 21
-1351.76
 31
0.0
  0
LINE
  8
CARROZZERIA
 62
90
 10
178.71
 20
-1351.76
 30
0.0
 11
223.04
 21
-1317.86
 31
0.0
  0
LINE
  8
CARROZZERIA
 62
90
 10
223.04
 20
-1317.86
 30
0.0
 11
344.91
 21
-1353.59
 31
0.0
  0
LINE
  8
CARROZZERIA
 62
90
 10
344.91
 20
-1353.59
 30
0.0
 11
381.06
 21
-1390.24
 31
0.0
  0
LINE
  8
CARROZZERIA
 62
90
 10
381.06
 20
-1390.24
 30
0.0
 11
438.07
 21
-1409.05
 31
0.0
  0
LINE
  8
CARROZZERIA
 62
90
 10
438.07
 20
-1409.05
 30
0.0
 11
479.58
 21
-1445.18
 31
0.0
  0
LINE
  8
CARROZZERIA
 62
90
 10
479.58
 20
-1445.18
 30
0.0
 11
510.65
 21
-1481.39
 31
0.0
  0
LINE
  8
CARROZZERIA
 62
90
 10
510.65
 20
-1481.39
 30
0.0
 11
498.27
 21
-1523.61
 31
0.0
  0
LINE
  8
CARROZZERIA
 62
90
 10
425.6
 20
-1405.39
 30
0.0
 11
438.82
 21
-1360.29
 31
0.0
  0
LINE
  8
CARROZZERIA
 62
90
 10
445.75
 20
-1411.3
 30
0.0
 11
458.97
 21
-1366.2
 31
0.0
  0
LINE
  8
CARROZZERIA
 62
90
 10
416.35
 20
-1351.61
 30
0.0
 11
483.53
 21
-1371.31
 31
0.0
  0
LINE
  8
CARROZZERIA
 62
90
 10
415.23
 20
-1355.45
 30
0.0
 11
482.4
 21
-1375.15
 31
0.0
  0
LINE
  8
CARROZZERIA
 62
90
 10
415.23
 20
-1355.45
 30
0.0
 11
416.35
 21
-1351.61
 31
0.0
  0
LINE
  8
CARROZZERIA
 62
90
 10
482.4
 20
-1375.15
 30
0.0
 11
483.53
 21
-1371.31
 31
0.0
  0
CIRCLE
  8
CARROZZERIA
 62
90
 10
390.15
 20
-1465.86
 30
0.0
 40
35
  0
CIRCLE
  8
CARROZZERIA
 62
90
 10
159.85
 20
-1398.33
 30
0.0
 40
35
  0
LINE
  8
CARROZZERIA
 62
90
 10
309.83
 20
-1432.59
 30
0.0
 11
319.04
 21
-1436.5
 31
0.0
  0
LINE
  8
CARROZZERIA
 62
90
 10
312.49
 20
-1439.15
 30
0.0
 11
316.39
 21
-1429.94
 31
0.0
  0
LINE
  8
CARROZZERIA
 62
90
 10
530.81
 20
-1526.24
 30
0.0
 11
540.02
 21
-1530.14
 31
0.0
  0
LINE
  8
CARROZZERIA
 62
90
 10
533.46
 20
-1532.79
 30
0.0
 11
537.36
 21
-1523.58
 31
0.0
  0
LINE
  8
CARROZZERIA
 62
90
 10
175
 20
-1404.78
 30
0.0
 11
271.95
 21
-1445.87
 31
0.0
  0
LINE
  8
CARROZZERIA
 62
90
 10
335.85
 20
-1472.94
 30
0.0
 11
492.93
 21
-1539.51
 31
0.0
  0
LINE
  8
CARROZZERIA
 62
90
 10
556.83
 20
-1566.59
 30
0.0
 11
635.37
 21
-1599.87
 31
0.0
  0
LINE
  8
CARROZZERIA
 62
90
 10
175
 20
-1404.78
 30
0.0
 11
185.53
 21
-1379.92
 31
0.0
  0
LINE
  8
CARROZZERIA
 62
90
 10
185.53
 20
-1379.92
 30
0.0
 11
203.22
 21
-1368.95
 31
0.0
  0
LINE
  8
CARROZZERIA
 62
90
 10
203.22
 20
-1368.95
 30
0.0
 11
221.85
 21
-1365.98
 31
0.0
  0
LINE
  8
CARROZZERIA
 62
90
 10
221.85
 20
-1365.98
 30
0.0
 11
259.82
 21
-1371.21
 31
0.0
  0
LINE
  8
CARROZZERIA
 62
90
 10
259.82
 20
-1371.21
 30
0.0
 11
308.98
 21
-1383.36
 31
0.0
  0
LINE
  8
CARROZZERIA
 62
90
 10
308.98
 20
-1383.36
 30
0.0
 11
337.77
 21
-1392.3
 31
0.0
  0
LINE
  8
CARROZZERIA
 62
90
 10
337.77
 20
-1392.3
 30
0.0
 11
385.71
 21
-1363.74
 31
0.0
  0
LINE
  8
CARROZZERIA
 62
90
 10
385.71
 20
-1363.74
 30
0.0
 11
502.65
 21
-1413.3
 31
0.0
  0
LINE
  8
CARROZZERIA
 62
90
 10
502.65
 20
-1413.3
 30
0.0
 11
534.32
 21
-1453.87
 31
0.0
  0
LINE
  8
CARROZZERIA
 62
90
 10
534.32
 20
-1453.87
 30
0.0
 11
588.79
 21
-1479.12
 31
0.0
  0
LINE
  8
CARROZZERIA
 62
90
 10
588.79
 20
-1479.12
 30
0.0
 11
625.85
 21
-1519.81
 31
0.0
  0
LINE
  8
CARROZZERIA
 62
90
 10
625.85
 20
-1519.81
 30
0.0
 11
652.54
 21
-1559.36
 31
0.0
  0
LINE
  8
CARROZZERIA
 62
90
 10
652.54
 20
-1559.36
 30
0.0
 11
635.37
 21
-1599.87
 31
0.0
  0
LINE
  8
CARROZZERIA
 62
90
 10
576.82
 20
-1474.05
 30
0.0
 11
595.16
 21
-1430.78
 31
0.0
  0
LINE
  8
CARROZZERIA
 62
90
 10
596.15
 20
-1482.25
 30
0.0
 11
614.49
 21
-1438.97
 31
0.0
  0
LINE
  8
CARROZZERIA
 62
90
 10
573.84
 20
-1419.57
 30
0.0
 11
638.29
 21
-1446.88
 31
0.0
  0
LINE
  8
CARROZZERIA
 62
90
 10
572.28
 20
-1423.25
 30
0.0
 11
636.73
 21
-1450.57
 31
0.0
  0
LINE
  8
CARROZZERIA
 62
90
 10
572.28
 20
-1423.25
 30
0.0
 11
573.84
 21
-1419.57
 31
0.0
  0
LINE
  8
CARROZZERIA
 62
90
 10
636.73
 20
-1450.57
 30
0.0
 11
638.29
 21
-1446.88
 31
0.0
  0
CIRCLE
  8
CARROZZERIA
 62
90
 10
534.63
 20
-1530.03
 30
0.0
 40
35
  0
CIRCLE
  8
CARROZZERIA
 62
90
 10
313.66
 20
-1436.39
 30
0.0
 40
35
  0
LINE
  8
CARROZZERIA
 62
90
 10
459.22
 20
-1495.17
 30
0.0
 11
468.5
 21
-1498.92
 31
0.0
  0
LINE
  8
CARROZZERIA
 62
90
 10
461.99
 20
-1501.68
 30
0.0
 11
465.73
 21
-1492.41
 31
0.0
  0
LINE
  8
CARROZZERIA
 62
90
 10
681.75
 20
-1585.07
 30
0.0
 11
691.02
 21
-1588.82
 31
0.0
  0
LINE
  8
CARROZZERIA
 62
90
 10
684.51
 20
-1591.58
 30
0.0
 11
688.26
 21
-1582.31
 31
0.0
  0
LINE
  8
CARROZZERIA
 62
90
 10
323.94
 20
-1469.64
 30
0.0
 11
421.57
 21
-1509.08
 31
0.0
  0
LINE
  8
CARROZZERIA
 62
90
 10
485.92
 20
-1535.07
 30
0.0
 11
644.1
 21
-1598.98
 31
0.0
  0
LINE
  8
CARROZZERIA
 62
90
 10
708.45
 20
-1624.98
 30
0.0
 11
787.54
 21
-1656.93
 31
0.0
  0
LINE
  8
CARROZZERIA
 62
90
 10
323.94
 20
-1469.64
 30
0.0
 11
334.05
 21
-1444.6
 31
0.0
  0
LINE
  8
CARROZZERIA
 62
90
 10
334.05
 20
-1444.6
 30
0.0
 11
351.55
 21
-1433.33
 31
0.0
  0
LINE
  8
CARROZZERIA
 62
90
 10
351.55
 20
-1433.33
 30
0.0
 11
370.13
 21
-1430.06
 31
0.0
  0
LINE
  8
CARROZZERIA
 62
90
 10
370.13
 20
-1430.06
 30
0.0
 11
408.18
 21
-1434.64
 31
0.0
  0
LINE
  8
CARROZZERIA
 62
90
 10
408.18
 20
-1434.64
 30
0.0
 11
457.54
 21
-1445.95
 31
0.0
  0
LINE
  8
CARROZZERIA
 62
90
 10
457.54
 20
-1445.95
 30
0.0
 11
486.48
 21
-1454.41
 31
0.0
  0
LINE
  8
CARROZZERIA
 62
90
 10
486.48
 20
-1454.41
 30
0.0
 11
533.93
 21
-1425.05
 31
0.0
  0
LINE
  8
CARROZZERIA
 62
90
 10
533.93
 20
-1425.05
 30
0.0
 11
651.68
 21
-1472.62
 31
0.0
  0
LINE
  8
CARROZZERIA
 62
90
 10
651.68
 20
-1472.62
 30
0.0
 11
684.04
 21
-1512.66
 31
0.0
  0
LINE
  8
CARROZZERIA
 62
90
 10
684.04
 20
-1512.66
 30
0.0
 11
738.92
 21
-1536.99
 31
0.0
  0
LINE
  8
CARROZZERIA
 62
90
 10
738.92
 20
-1536.99
 30
0.0
 11
776.67
 21
-1577.04
 31
0.0
  0
LINE
  8
CARROZZERIA
 62
90
 10
776.67
 20
-1577.04
 30
0.0
 11
804.02
 21
-1616.13
 31
0.0
  0
LINE
  8
CARROZZERIA
 62
90
 10
804.02
 20
-1616.13
 30
0.0
 11
787.54
 21
-1656.93
 31
0.0
  0
LINE
  8
CARROZZERIA
 62
90
 10
726.87
 20
-1532.12
 30
0.0
 11
744.48
 21
-1488.54
 31
0.0
  0
LINE
  8
CARROZZERIA
 62
90
 10
746.34
 20
-1539.98
 30
0.0
 11
763.95
 21
-1496.4
 31
0.0
  0
LINE
  8
CARROZZERIA
 62
90
 10
722.97
 20
-1477.69
 30
0.0
 11
787.88
 21
-1503.91
 31
0.0
  0
LINE
  8
CARROZZERIA
 62
90
 10
721.47
 20
-1481.4
 30
0.0
 11
786.38
 21
-1507.62
 31
0.0
  0
LINE
  8
CARROZZERIA
 62
90
 10
721.47
 20
-1481.4
 30
0.0
 11
722.97
 21
-1477.69
 31
0.0
  0
LINE
  8
CARROZZERIA
 62
90
 10
786.38
 20
-1507.62
 30
0.0
 11
787.88
 21
-1503.91
 31
0.0
  0
CIRCLE
  8
CARROZZERIA
 62
90
 10
685.64
 20
-1588.8
 30
0.0
 40
35
  0
CIRCLE
  8
CARROZZERIA
 62
90
 10
463.11
 20
-1498.9
 30
0.0
 40
35
  0
LINE
  8
CARROZZERIA
 62
90
 10
607.28
 20
-1557.56
 30
0.0
 11
616.74
 21
-1560.8
 31
0.0
  0
LINE
  8
CARROZZERIA
 62
90
 10
610.38
 20
-1563.91
 30
0.0
 11
613.63
 21
-1554.45
 31
0.0
  0
LINE
  8
CARROZZERIA
 62
90
 10
834.29
 20
-1635.44
 30
0.0
 11
843.75
 21
-1638.69
 31
0.0
  0
LINE
  8
CARROZZERIA
 62
90
 10
837.4
 20
-1641.79
 30
0.0
 11
840.64
 21
-1632.33
 31
0.0
  0
LINE
  8
CARROZZERIA
 62
90
 10
470.82
 20
-1539.29
 30
0.0
 11
570.42
 21
-1573.46
 31
0.0
  0
LINE
  8
CARROZZERIA
 62
90
 10
636.07
 20
-1595.98
 30
0.0
 11
797.44
 21
-1651.34
 31
0.0
  0
LINE
  8
CARROZZERIA
 62
90
 10
863.08
 20
-1673.86
 30
0.0
 11
943.76
 21
-1701.54
 31
0.0
  0
LINE
  8
CARROZZERIA
 62
90
 10
470.82
 20
-1539.29
 30
0.0
 11
479.58
 21
-1513.75
 31
0.0
  0
LINE
  8
CARROZZERIA
 62
90
 10
479.58
 20
-1513.75
 30
0.0
 11
496.45
 21
-1501.57
 31
0.0
  0
LINE
  8
CARROZZERIA
 62
90
 10
496.45
 20
-1501.57
 30
0.0
 11
514.83
 21
-1497.3
 31
0.0
  0
LINE
  8
CARROZZERIA
 62
90
 10
514.83
 20
-1497.3
 30
0.0
 11
553.07
 21
-1499.85
 31
0.0
  0
LINE
  8
CARROZZERIA
 62
90
 10
553.07
 20
-1499.85
 30
0.0
 11
602.96
 21
-1508.5
 31
0.0
  0
LINE
  8
CARROZZERIA
 62
90
 10
602.96
 20
-1508.5
 30
0.0
 11
632.31
 21
-1515.4
 31
0.0
  0
LINE
  8
CARROZZERIA
 62
90
 10
632.31
 20
-1515.4
 30
0.0
 11
678.13
 21
-1483.55
 31
0.0
  0
LINE
  8
CARROZZERIA
 62
90
 10
678.13
 20
-1483.55
 30
0.0
 11
798.26
 21
-1524.76
 31
0.0
  0
LINE
  8
CARROZZERIA
 62
90
 10
798.26
 20
-1524.76
 30
0.0
 11
832.71
 21
-1563.01
 31
0.0
  0
LINE
  8
CARROZZERIA
 62
90
 10
832.71
 20
-1563.01
 30
0.0
 11
888.81
 21
-1584.37
 31
0.0
  0
LINE
  8
CARROZZERIA
 62
90
 10
888.81
 20
-1584.37
 30
0.0
 11
928.64
 21
-1622.35
 31
0.0
  0
LINE
  8
CARROZZERIA
 62
90
 10
928.64
 20
-1622.35
 30
0.0
 11
958.04
 21
-1659.92
 31
0.0
  0
LINE
  8
CARROZZERIA
 62
90
 10
958.04
 20
-1659.92
 30
0.0
 11
943.76
 21
-1701.54
 31
0.0
  0
LINE
  8
CARROZZERIA
 62
90
 10
876.52
 20
-1580.15
 30
0.0
 11
891.77
 21
-1535.69
 31
0.0
  0
LINE
  8
CARROZZERIA
 62
90
 10
896.38
 20
-1586.97
 30
0.0
 11
911.63
 21
-1542.51
 31
0.0
  0
LINE
  8
CARROZZERIA
 62
90
 10
869.72
 20
-1526.02
 30
0.0
 11
935.93
 21
-1548.73
 31
0.0
  0
LINE
  8
CARROZZERIA
 62
90
 10
868.42
 20
-1529.8
 30
0.0
 11
934.63
 21
-1552.51
 31
0.0
  0
LINE
  8
CARROZZERIA
 62
90
 10
868.42
 20
-1529.8
 30
0.0
 11
869.72
 21
-1526.02
 31
0.0
  0
LINE
  8
CARROZZERIA
 62
90
 10
934.63
 20
-1552.51
 30
0.0
 11
935.93
 21
-1548.73
 31
0.0
  0
CIRCLE
  8
CARROZZERIA
 62
90
 10
838.37
 20
-1638.96
 30
0.0
 40
35
  0
CIRCLE
  8
CARROZZERIA
 62
90
 10
611.36
 20
-1561.07
 30
0.0
 40
35
  0
LINE
  8
CARROZZERIA
 62
90
 10
755.35
 20
-1610.92
 30
0.0
 11
764.97
 21
-1613.67
 31
0.0
  0
LINE
  8
CARROZZERIA
 62
90
 10
758.79
 20
-1617.1
 30
0.0
 11
761.53
 21
-1607.49
 31
0.0
  0
LINE
  8
CARROZZERIA
 62
90
 10
986.13
 20
-1676.81
 30
0.0
 11
995.74
 21
-1679.56
 31
0.0
  0
LINE
  8
CARROZZERIA
 62
90
 10
989.56
 20
-1682.99
 30
0.0
 11
992.31
 21
-1673.38
 31
0.0
  0
LINE
  8
CARROZZERIA
 62
90
 10
618.12
 20
-1599.82
 30
0.0
 11
719.38
 21
-1628.73
 31
0.0
  0
LINE
  8
CARROZZERIA
 62
90
 10
786.11
 20
-1647.79
 30
0.0
 11
950.16
 21
-1694.62
 31
0.0
  0
LINE
  8
CARROZZERIA
 62
90
 10
1016.89
 20
-1713.68
 30
0.0
 11
1098.91
 21
-1737.09
 31
0.0
  0
LINE
  8
CARROZZERIA
 62
90
 10
618.12
 20
-1599.82
 30
0.0
 11
625.54
 21
-1573.86
 31
0.0
  0
LINE
  8
CARROZZERIA
 62
90
 10
625.54
 20
-1573.86
 30
0.0
 11
641.74
 21
-1560.81
 31
0.0
  0
LINE
  8
CARROZZERIA
 62
90
 10
641.74
 20
-1560.81
 30
0.0
 11
659.87
 21
-1555.59
 31
0.0
  0
LINE
  8
CARROZZERIA
 62
90
 10
659.87
 20
-1555.59
 30
0.0
 11
698.2
 21
-1556.13
 31
0.0
  0
LINE
  8
CARROZZERIA
 62
90
 10
698.2
 20
-1556.13
 30
0.0
 11
748.47
 21
-1562.16
 31
0.0
  0
LINE
  8
CARROZZERIA
 62
90
 10
748.47
 20
-1562.16
 30
0.0
 11
778.14
 21
-1567.51
 31
0.0
  0
LINE
  8
CARROZZERIA
 62
90
 10
778.14
 20
-1567.51
 30
0.0
 11
822.23
 21
-1533.3
 31
0.0
  0
LINE
  8
CARROZZERIA
 62
90
 10
822.23
 20
-1533.3
 30
0.0
 11
944.35
 21
-1568.17
 31
0.0
  0
LINE
  8
CARROZZERIA
 62
90
 10
944.35
 20
-1568.17
 30
0.0
 11
980.76
 21
-1604.56
 31
0.0
  0
LINE
  8
CARROZZERIA
 62
90
 10
980.76
 20
-1604.56
 30
0.0
 11
1037.9
 21
-1622.96
 31
0.0
  0
LINE
  8
CARROZZERIA
 62
90
 10
1037.9
 20
-1622.96
 30
0.0
 11
1079.67
 21
-1658.8
 31
0.0
  0
LINE
  8
CARROZZERIA
 62
90
 10
1079.67
 20
-1658.8
 30
0.0
 11
1110.99
 21
-1694.79
 31
0.0
  0
LINE
  8
CARROZZERIA
 62
90
 10
1110.99
 20
-1694.79
 30
0.0
 11
1098.91
 21
-1737.09
 31
0.0
  0
LINE
  8
CARROZZERIA
 62
90
 10
1025.4
 20
-1619.39
 30
0.0
 11
1038.31
 21
-1574.2
 31
0.0
  0
LINE
  8
CARROZZERIA
 62
90
 10
1045.6
 20
-1625.16
 30
0.0
 11
1058.5
 21
-1579.96
 31
0.0
  0
LINE
  8
CARROZZERIA
 62
90
 10
1015.78
 20
-1565.68
 30
0.0
 11
1083.09
 21
-1584.9
 31
0.0
  0
LINE
  8
CARROZZERIA
 62
90
 10
1014.68
 20
-1569.53
 30
0.0
 11
1081.99
 21
-1588.75
 31
0.0
  0
LINE
  8
CARROZZERIA
 62
90
 10
1014.68
 20
-1569.53
 30
0.0
 11
1015.78
 21
-1565.68
 31
0.0
  0
LINE
  8
CARROZZERIA
 62
90
 10
1081.99
 20
-1588.75
 30
0.0
 11
1083.09
 21
-1584.9
 31
0.0
  0
CIRCLE
  8
CARROZZERIA
 62
90
 10
990.39
 20
-1680.11
 30
0.0
 40
35
  0
CIRCLE
  8
CARROZZERIA
 62
90
 10
759.61
 20
-1614.22
 30
0.0
 40
35
  0
LINE
  8
CARROZZERIA
 62
90
 10
903.44
 20
-1655.76
 30
0.0
 11
913.19
 21
-1658
 31
0.0
  0
LINE
  8
CARROZZERIA
 62
90
 10
907.19
 20
-1661.75
 30
0.0
 11
909.44
 21
-1652.01
 31
0.0
  0
LINE
  8
CARROZZERIA
 62
90
 10
1137.3
 20
-1709.68
 30
0.0
 11
1147.05
 21
-1711.93
 31
0.0
  0
LINE
  8
CARROZZERIA
 62
90
 10
1141.05
 20
-1715.68
 30
0.0
 11
1143.3
 21
-1705.94
 31
0.0
  0
LINE
  8
CARROZZERIA
 62
90
 10
765.83
 20
-1651.73
 30
0.0
 11
868.43
 21
-1675.39
 31
0.0
  0
LINE
  8
CARROZZERIA
 62
90
 10
936.06
 20
-1690.99
 30
0.0
 11
1102.3
 21
-1729.32
 31
0.0
  0
LINE
  8
CARROZZERIA
 62
90
 10
1169.92
 20
-1744.91
 30
0.0
 11
1253.04
 21
-1764.08
 31
0.0
  0
LINE
  8
CARROZZERIA
 62
90
 10
765.83
 20
-1651.73
 30
0.0
 11
771.89
 21
-1625.42
 31
0.0
  0
LINE
  8
CARROZZERIA
 62
90
 10
771.89
 20
-1625.42
 30
0.0
 11
787.41
 21
-1611.56
 31
0.0
  0
LINE
  8
CARROZZERIA
 62
90
 10
787.41
 20
-1611.56
 30
0.0
 11
805.24
 21
-1605.41
 31
0.0
  0
LINE
  8
CARROZZERIA
 62
90
 10
805.24
 20
-1605.41
 30
0.0
 11
843.55
 21
-1603.98
 31
0.0
  0
LINE
  8
CARROZZERIA
 62
90
 10
843.55
 20
-1603.98
 30
0.0
 11
894.06
 21
-1607.41
 31
0.0
  0
LINE
  8
CARROZZERIA
 62
90
 10
894.06
 20
-1607.41
 30
0.0
 11
923.97
 21
-1611.23
 31
0.0
  0
LINE
  8
CARROZZERIA
 62
90
 10
923.97
 20
-1611.23
 30
0.0
 11
966.24
 21
-1574.8
 31
0.0
  0
LINE
  8
CARROZZERIA
 62
90
 10
966.24
 20
-1574.8
 30
0.0
 11
1089.99
 21
-1603.33
 31
0.0
  0
LINE
  8
CARROZZERIA
 62
90
 10
1089.99
 20
-1603.33
 30
0.0
 11
1128.22
 21
-1637.81
 31
0.0
  0
LINE
  8
CARROZZERIA
 62
90
 10
1128.22
 20
-1637.81
 30
0.0
 11
1186.24
 21
-1653.24
 31
0.0
  0
LINE
  8
CARROZZERIA
 62
90
 10
1186.24
 20
-1653.24
 30
0.0
 11
1229.79
 21
-1686.88
 31
0.0
  0
LINE
  8
CARROZZERIA
 62
90
 10
1229.79
 20
-1686.88
 30
0.0
 11
1262.93
 21
-1721.21
 31
0.0
  0
LINE
  8
CARROZZERIA
 62
90
 10
1262.93
 20
-1721.21
 30
0.0
 11
1253.04
 21
-1764.08
 31
0.0
  0
LINE
  8
CARROZZERIA
 62
90
 10
1173.57
 20
-1650.31
 30
0.0
 11
1184.13
 21
-1604.52
 31
0.0
  0
LINE
  8
CARROZZERIA
 62
90
 10
1194.03
 20
-1655.03
 30
0.0
 11
1204.6
 21
-1609.24
 31
0.0
  0
LINE
  8
CARROZZERIA
 62
90
 10
1161.2
 20
-1597.18
 30
0.0
 11
1229.41
 21
-1612.9
 31
0.0
  0
LINE
  8
CARROZZERIA
 62
90
 10
1160.3
 20
-1601.07
 30
0.0
 11
1228.51
 21
-1616.8
 31
0.0
  0
LINE
  8
CARROZZERIA
 62
90
 10
1160.3
 20
-1601.07
 30
0.0
 11
1161.2
 21
-1597.18
 31
0.0
  0
LINE
  8
CARROZZERIA
 62
90
 10
1228.51
 20
-1616.8
 30
0.0
 11
1229.41
 21
-1612.9
 31
0.0
  0
CIRCLE
  8
CARROZZERIA
 62
90
 10
1141.73
 20
-1712.76
 30
0.0
 40
35
  0
CIRCLE
  8
CARROZZERIA
 62
90
 10
907.86
 20
-1658.83
 30
0.0
 40
35
  0
LINE
  8
CARROZZERIA
 62
90
 10
1051.55
 20
-1692.45
 30
0.0
 11
1061.4
 21
-1694.2
 31
0.0
  0
LINE
  8
CARROZZERIA
 62
90
 10
1055.6
 20
-1698.25
 30
0.0
 11
1057.35
 21
-1688.4
 31
0.0
  0
LINE
  8
CARROZZERIA
 62
90
 10
1287.85
 20
-1734.44
 30
0.0
 11
1297.69
 21
-1736.19
 31
0.0
  0
LINE
  8
CARROZZERIA
 62
90
 10
1291.9
 20
-1740.23
 30
0.0
 11
1293.65
 21
-1730.39
 31
0.0
  0
LINE
  8
CARROZZERIA
 62
90
 10
913.91
 20
-1695.41
 30
0.0
 11
1017.58
 21
-1713.84
 31
0.0
  0
LINE
  8
CARROZZERIA
 62
90
 10
1085.91
 20
-1725.98
 30
0.0
 11
1253.88
 21
-1755.82
 31
0.0
  0
LINE
  8
CARROZZERIA
 62
90
 10
1322.21
 20
-1767.97
 30
0.0
 11
1406.2
 21
-1782.89
 31
0.0
  0
LINE
  8
CARROZZERIA
 62
90
 10
913.91
 20
-1695.41
 30
0.0
 11
918.63
 21
-1668.83
 31
0.0
  0
LINE
  8
CARROZZERIA
 62
90
 10
918.63
 20
-1668.83
 30
0.0
 11
933.42
 21
-1654.19
 31
0.0
  0
LINE
  8
CARROZZERIA
 62
90
 10
933.42
 20
-1654.19
 30
0.0
 11
950.92
 21
-1647.15
 31
0.0
  0
LINE
  8
CARROZZERIA
 62
90
 10
950.92
 20
-1647.15
 30
0.0
 11
989.1
 21
-1643.77
 31
0.0
  0
LINE
  8
CARROZZERIA
 62
90
 10
989.1
 20
-1643.77
 30
0.0
 11
1039.73
 21
-1644.64
 31
0.0
  0
LINE
  8
CARROZZERIA
 62
90
 10
1039.73
 20
-1644.64
 30
0.0
 11
1069.79
 21
-1646.94
 31
0.0
  0
LINE
  8
CARROZZERIA
 62
90
 10
1069.79
 20
-1646.94
 30
0.0
 11
1110.16
 21
-1608.41
 31
0.0
  0
LINE
  8
CARROZZERIA
 62
90
 10
1110.16
 20
-1608.41
 30
0.0
 11
1235.2
 21
-1630.62
 31
0.0
  0
LINE
  8
CARROZZERIA
 62
90
 10
1235.2
 20
-1630.62
 30
0.0
 11
1275.13
 21
-1663.11
 31
0.0
  0
LINE
  8
CARROZZERIA
 62
90
 10
1275.13
 20
-1663.11
 30
0.0
 11
1333.86
 21
-1675.58
 31
0.0
  0
LINE
  8
CARROZZERIA
 62
90
 10
1333.86
 20
-1675.58
 30
0.0
 11
1379.06
 21
-1706.97
 31
0.0
  0
LINE
  8
CARROZZERIA
 62
90
 10
1379.06
 20
-1706.97
 30
0.0
 11
1413.9
 21
-1739.57
 31
0.0
  0
LINE
  8
CARROZZERIA
 62
90
 10
1413.9
 20
-1739.57
 30
0.0
 11
1406.2
 21
-1782.89
 31
0.0
  0
LINE
  8
CARROZZERIA
 62
90
 10
1321.06
 20
-1673.3
 30
0.0
 11
1329.28
 21
-1627.03
 31
0.0
  0
LINE
  8
CARROZZERIA
 62
90
 10
1341.73
 20
-1676.98
 30
0.0
 11
1349.96
 21
-1630.7
 31
0.0
  0
LINE
  8
CARROZZERIA
 62
90
 10
1306
 20
-1620.86
 30
0.0
 11
1374.92
 21
-1633.11
 31
0.0
  0
LINE
  8
CARROZZERIA
 62
90
 10
1305.3
 20
-1624.8
 30
0.0
 11
1374.22
 21
-1637.05
 31
0.0
  0
LINE
  8
CARROZZERIA
 62
90
 10
1305.3
 20
-1624.8
 30
0.0
 11
1306
 21
-1620.86
 31
0.0
  0
LINE
  8
CARROZZERIA
 62
90
 10
1374.22
 20
-1637.05
 30
0.0
 11
1374.92
 21
-1633.11
 31
0.0
  0
CIRCLE
  8
CARROZZERIA
 62
90
 10
1292.42
 20
-1737.28
 30
0.0
 40
35
  0
CIRCLE
  8
CARROZZERIA
 62
90
 10
1056.12
 20
-1695.29
 30
0.0
 40
35
  0
LINE
  8
CARROZZERIA
 62
90
 10
1199.68
 20
-1721.3
 30
0.0
 11
1209.6
 21
-1722.55
 31
0.0
  0
LINE
  8
CARROZZERIA
 62
90
 10
1204.01
 20
-1726.88
 30
0.0
 11
1205.26
 21
-1716.96
 31
0.0
  0
LINE
  8
CARROZZERIA
 62
90
 10
1437.78
 20
-1751.37
 30
0.0
 11
1447.71
 21
-1752.63
 31
0.0
  0
LINE
  8
CARROZZERIA
 62
90
 10
1442.12
 20
-1756.96
 30
0.0
 11
1443.37
 21
-1747.04
 31
0.0
  0
LINE
  8
CARROZZERIA
 62
90
 10
1062.36
 20
-1731.17
 30
0.0
 11
1166.83
 21
-1744.36
 31
0.0
  0
LINE
  8
CARROZZERIA
 62
90
 10
1235.68
 20
-1753.06
 30
0.0
 11
1404.93
 21
-1774.44
 31
0.0
  0
LINE
  8
CARROZZERIA
 62
90
 10
1473.79
 20
-1783.13
 30
0.0
 11
1558.42
 21
-1793.82
 31
0.0
  0
LINE
  8
CARROZZERIA
 62
90
 10
1062.36
 20
-1731.17
 30
0.0
 11
1065.74
 21
-1704.38
 31
0.0
  0
LINE
  8
CARROZZERIA
 62
90
 10
1065.74
 20
-1704.38
 30
0.0
 11
1079.78
 21
-1689.02
 31
0.0
  0
LINE
  8
CARROZZERIA
 62
90
 10
1079.78
 20
-1689.02
 30
0.0
 11
1096.9
 21
-1681.1
 31
0.0
  0
LINE
  8
CARROZZERIA
 62
90
 10
1096.9
 20
-1681.1
 30
0.0
 11
1134.86
 21
-1675.82
 31
0.0
  0
LINE
  8
CARROZZERIA
 62
90
 10
1134.86
 20
-1675.82
 30
0.0
 11
1185.47
 21
-1674.15
 31
0.0
  0
LINE
  8
CARROZZERIA
 62
90
 10
1185.47
 20
-1674.15
 30
0.0
 11
1215.61
 21
-1674.93
 31
0.0
  0
LINE
  8
CARROZZERIA
 62
90
 10
1215.61
 20
-1674.93
 30
0.0
 11
1253.99
 21
-1634.42
 31
0.0
  0
LINE
  8
CARROZZERIA
 62
90
 10
1253.99
 20
-1634.42
 30
0.0
 11
1379.99
 21
-1650.33
 31
0.0
  0
LINE
  8
CARROZZERIA
 62
90
 10
1379.99
 20
-1650.33
 30
0.0
 11
1421.5
 21
-1680.78
 31
0.0
  0
LINE
  8
CARROZZERIA
 62
90
 10
1421.5
 20
-1680.78
 30
0.0
 11
1480.78
 21
-1690.28
 31
0.0
  0
LINE
  8
CARROZZERIA
 62
90
 10
1480.78
 20
-1690.28
 30
0.0
 11
1527.5
 21
-1719.36
 31
0.0
  0
LINE
  8
CARROZZERIA
 62
90
 10
1527.5
 20
-1719.36
 30
0.0
 11
1563.93
 21
-1750.17
 31
0.0
  0
LINE
  8
CARROZZERIA
 62
90
 10
1563.93
 20
-1750.17
 30
0.0
 11
1558.42
 21
-1793.82
 31
0.0
  0
LINE
  8
CARROZZERIA
 62
90
 10
1467.88
 20
-1688.65
 30
0.0
 11
1473.77
 21
-1642.02
 31
0.0
  0
LINE
  8
CARROZZERIA
 62
90
 10
1488.72
 20
-1691.28
 30
0.0
 11
1494.61
 21
-1644.65
 31
0.0
  0
LINE
  8
CARROZZERIA
 62
90
 10
1450.21
 20
-1637.03
 30
0.0
 11
1519.66
 21
-1645.8
 31
0.0
  0
LINE
  8
CARROZZERIA
 62
90
 10
1449.71
 20
-1641
 30
0.0
 11
1519.16
 21
-1649.77
 31
0.0
  0
LINE
  8
CARROZZERIA
 62
90
 10
1449.71
 20
-1641
 30
0.0
 11
1450.21
 21
-1637.03
 31
0.0
  0
LINE
  8
CARROZZERIA
 62
90
 10
1519.16
 20
-1649.77
 30
0.0
 11
1519.66
 21
-1645.8
 31
0.0
  0
CIRCLE
  8
CARROZZERIA
 62
90
 10
1442.49
 20
-1753.98
 30
0.0
 40
35
  0
CIRCLE
  8
CARROZZERIA
 62
90
 10
1204.39
 20
-1723.91
 30
0.0
 40
35
  0
LINE
  8
CARROZZERIA
 62
90
 10
1347.82
 20
-1742.53
 30
0.0
 11
1357.79
 21
-1743.29
 31
0.0
  0
LINE
  8
CARROZZERIA
 62
90
 10
1352.42
 20
-1747.89
 30
0.0
 11
1353.18
 21
-1737.92
 31
0.0
  0
LINE
  8
CARROZZERIA
 62
90
 10
1587.13
 20
-1760.71
 30
0.0
 11
1597.1
 21
-1761.47
 31
0.0
  0
LINE
  8
CARROZZERIA
 62
90
 10
1591.73
 20
-1766.08
 30
0.0
 11
1592.49
 21
-1756.11
 31
0.0
  0
LINE
  8
CARROZZERIA
 62
90
 10
1211.16
 20
-1759.22
 30
0.0
 11
1316.16
 21
-1767.2
 31
0.0
  0
LINE
  8
CARROZZERIA
 62
90
 10
1385.36
 20
-1772.46
 30
0.0
 11
1555.47
 21
-1785.39
 31
0.0
  0
LINE
  8
CARROZZERIA
 62
90
 10
1624.67
 20
-1790.64
 30
0.0
 11
1709.72
 21
-1797.11
 31
0.0
  0
LINE
  8
CARROZZERIA
 62
90
 10
1211.16
 20
-1759.22
 30
0.0
 11
1213.21
 21
-1732.3
 31
0.0
  0
LINE
  8
CARROZZERIA
 62
90
 10
1213.21
 20
-1732.3
 30
0.0
 11
1226.46
 21
-1716.26
 31
0.0
  0
LINE
  8
CARROZZERIA
 62
90
 10
1226.46
 20
-1716.26
 30
0.0
 11
1243.17
 21
-1707.5
 31
0.0
  0
LINE
  8
CARROZZERIA
 62
90
 10
1243.17
 20
-1707.5
 30
0.0
 11
1280.82
 21
-1700.33
 31
0.0
  0
LINE
  8
CARROZZERIA
 62
90
 10
1280.82
 20
-1700.33
 30
0.0
 11
1331.29
 21
-1696.14
 31
0.0
  0
LINE
  8
CARROZZERIA
 62
90
 10
1331.29
 20
-1696.14
 30
0.0
 11
1361.43
 21
-1695.42
 31
0.0
  0
LINE
  8
CARROZZERIA
 62
90
 10
1361.43
 20
-1695.42
 30
0.0
 11
1397.74
 21
-1653.05
 31
0.0
  0
LINE
  8
CARROZZERIA
 62
90
 10
1397.74
 20
-1653.05
 30
0.0
 11
1524.38
 21
-1662.68
 31
0.0
  0
LINE
  8
CARROZZERIA
 62
90
 10
1524.38
 20
-1662.68
 30
0.0
 11
1567.35
 21
-1691.01
 31
0.0
  0
LINE
  8
CARROZZERIA
 62
90
 10
1567.35
 20
-1691.01
 30
0.0
 11
1627.03
 21
-1697.55
 31
0.0
  0
LINE
  8
CARROZZERIA
 62
90
 10
1627.03
 20
-1697.55
 30
0.0
 11
1675.14
 21
-1724.28
 31
0.0
  0
LINE
  8
CARROZZERIA
 62
90
 10
1675.14
 20
-1724.28
 30
0.0
 11
1713.06
 21
-1753.23
 31
0.0
  0
LINE
  8
CARROZZERIA
 62
90
 10
1713.06
 20
-1753.23
 30
0.0
 11
1709.72
 21
-1797.11
 31
0.0
  0
LINE
  8
CARROZZERIA
 62
90
 10
1614.07
 20
-1696.57
 30
0.0
 11
1617.63
 21
-1649.71
 31
0.0
  0
LINE
  8
CARROZZERIA
 62
90
 10
1635.01
 20
-1698.16
 30
0.0
 11
1638.57
 21
-1651.3
 31
0.0
  0
LINE
  8
CARROZZERIA
 62
90
 10
1593.85
 20
-1645.89
 30
0.0
 11
1663.65
 21
-1651.2
 31
0.0
  0
LINE
  8
CARROZZERIA
 62
90
 10
1593.54
 20
-1649.88
 30
0.0
 11
1663.34
 21
-1655.18
 31
0.0
  0
LINE
  8
CARROZZERIA
 62
90
 10
1593.54
 20
-1649.88
 30
0.0
 11
1593.85
 21
-1645.89
 31
0.0
  0
LINE
  8
CARROZZERIA
 62
90
 10
1663.34
 20
-1655.18
 30
0.0
 11
1663.65
 21
-1651.2
 31
0.0
  0
CIRCLE
  8
CARROZZERIA
 62
90
 10
1591.96
 20
-1763.09
 30
0.0
 40
35
  0
CIRCLE
  8
CARROZZERIA
 62
90
 10
1352.65
 20
-1744.9
 30
0.0
 40
35
  0
LINE
  8
CARROZZERIA
 62
90
 10
1456.96
 20
-1753.39
 30
0.0
 11
1466.95
 21
-1753.78
 31
0.0
  0
LINE
  8
CARROZZERIA
 62
90
 10
1461.76
 20
-1758.58
 30
0.0
 11
1462.15
 21
-1748.59
 31
0.0
  0
LINE
  8
CARROZZERIA
 62
90
 10
1696.77
 20
-1762.83
 30
0.0
 11
1706.77
 21
-1763.23
 31
0.0
  0
LINE
  8
CARROZZERIA
 62
90
 10
1701.57
 20
-1768.02
 30
0.0
 11
1701.97
 21
-1758.03
 31
0.0
  0
LINE
  8
CARROZZERIA
 62
90
 10
1321
 20
-1775.06
 30
0.0
 11
1426.22
 21
-1779.2
 31
0.0
  0
LINE
  8
CARROZZERIA
 62
90
 10
1495.57
 20
-1781.93
 30
0.0
 11
1666.03
 21
-1788.64
 31
0.0
  0
LINE
  8
CARROZZERIA
 62
90
 10
1735.38
 20
-1791.37
 30
0.0
 11
1820.61
 21
-1794.73
 31
0.0
  0
LINE
  8
CARROZZERIA
 62
90
 10
1321
 20
-1775.06
 30
0.0
 11
1322.06
 21
-1748.08
 31
0.0
  0
LINE
  8
CARROZZERIA
 62
90
 10
1322.06
 20
-1748.08
 30
0.0
 11
1334.72
 21
-1731.56
 31
0.0
  0
LINE
  8
CARROZZERIA
 62
90
 10
1334.72
 20
-1731.56
 30
0.0
 11
1351.1
 21
-1722.2
 31
0.0
  0
LINE
  8
CARROZZERIA
 62
90
 10
1351.1
 20
-1722.2
 30
0.0
 11
1388.47
 21
-1713.67
 31
0.0
  0
LINE
  8
CARROZZERIA
 62
90
 10
1388.47
 20
-1713.67
 30
0.0
 11
1438.75
 21
-1707.64
 31
0.0
  0
LINE
  8
CARROZZERIA
 62
90
 10
1438.75
 20
-1707.64
 30
0.0
 11
1468.84
 21
-1705.82
 31
0.0
  0
LINE
  8
CARROZZERIA
 62
90
 10
1468.84
 20
-1705.82
 30
0.0
 11
1503.58
 21
-1662.15
 31
0.0
  0
LINE
  8
CARROZZERIA
 62
90
 10
1503.58
 20
-1662.15
 30
0.0
 11
1630.49
 21
-1667.15
 31
0.0
  0
LINE
  8
CARROZZERIA
 62
90
 10
1630.49
 20
-1667.15
 30
0.0
 11
1674.47
 21
-1693.9
 31
0.0
  0
LINE
  8
CARROZZERIA
 62
90
 10
1674.47
 20
-1693.9
 30
0.0
 11
1734.34
 21
-1698.26
 31
0.0
  0
LINE
  8
CARROZZERIA
 62
90
 10
1734.34
 20
-1698.26
 30
0.0
 11
1783.4
 21
-1723.21
 31
0.0
  0
LINE
  8
CARROZZERIA
 62
90
 10
1783.4
 20
-1723.21
 30
0.0
 11
1822.35
 21
-1750.76
 31
0.0
  0
LINE
  8
CARROZZERIA
 62
90
 10
1822.35
 20
-1750.76
 30
0.0
 11
1820.61
 21
-1794.73
 31
0.0
  0
LINE
  8
CARROZZERIA
 62
90
 10
1721.35
 20
-1697.75
 30
0.0
 11
1723.2
 21
-1650.78
 31
0.0
  0
LINE
  8
CARROZZERIA
 62
90
 10
1742.34
 20
-1698.57
 30
0.0
 11
1744.19
 21
-1651.61
 31
0.0
  0
LINE
  8
CARROZZERIA
 62
90
 10
1699.3
 20
-1647.84
 30
0.0
 11
1769.25
 21
-1650.6
 31
0.0
  0
LINE
  8
CARROZZERIA
 62
90
 10
1699.14
 20
-1651.84
 30
0.0
 11
1769.09
 21
-1654.59
 31
0.0
  0
LINE
  8
CARROZZERIA
 62
90
 10
1699.14
 20
-1651.84
 30
0.0
 11
1699.3
 21
-1647.84
 31
0.0
  0
LINE
  8
CARROZZERIA
 62
90
 10
1769.09
 20
-1654.59
 30
0.0
 11
1769.25
 21
-1650.6
 31
0.0
  0
CIRCLE
  8
CARROZZERIA
 62
90
 10
1701.69
 20
-1765.03
 30
0.0
 40
35
  0
CIRCLE
  8
CARROZZERIA
 62
90
 10
1461.88
 20
-1755.59
 30
0.0
 40
35
  0
LINE
  8
CARROZZERIA
 62
90
 10
1496.02
 20
-1756.3
 30
0.0
 11
1506.01
 21
-1756.57
 31
0.0
  0
LINE
  8
CARROZZERIA
 62
90
 10
1500.88
 20
-1761.43
 30
0.0
 11
1501.15
 21
-1751.43
 31
0.0
  0
LINE
  8
CARROZZERIA
 62
90
 10
1735.93
 20
-1762.88
 30
0.0
 11
1745.92
 21
-1763.15
 31
0.0
  0
LINE
  8
CARROZZERIA
 62
90
 10
1740.79
 20
-1768.01
 30
0.0
 11
1741.06
 21
-1758.02
 31
0.0
  0
LINE
  8
CARROZZERIA
 62
90
 10
1360.33
 20
-1779.58
 30
0.0
 11
1465.59
 21
-1782.47
 31
0.0
  0
LINE
  8
CARROZZERIA
 62
90
 10
1534.96
 20
-1784.37
 30
0.0
 11
1705.5
 21
-1789.05
 31
0.0
  0
LINE
  8
CARROZZERIA
 62
90
 10
1774.87
 20
-1790.96
 30
0.0
 11
1860.14
 21
-1793.29
 31
0.0
  0
LINE
  8
CARROZZERIA
 62
90
 10
1360.33
 20
-1779.58
 30
0.0
 11
1361.07
 21
-1752.59
 31
0.0
  0
LINE
  8
CARROZZERIA
 62
90
 10
1361.07
 20
-1752.59
 30
0.0
 11
1373.53
 21
-1735.93
 31
0.0
  0
LINE
  8
CARROZZERIA
 62
90
 10
1373.53
 20
-1735.93
 30
0.0
 11
1389.8
 21
-1726.37
 31
0.0
  0
LINE
  8
CARROZZERIA
 62
90
 10
1389.8
 20
-1726.37
 30
0.0
 11
1427.06
 21
-1717.39
 31
0.0
  0
LINE
  8
CARROZZERIA
 62
90
 10
1427.06
 20
-1717.39
 30
0.0
 11
1477.26
 21
-1710.76
 31
0.0
  0
LINE
  8
CARROZZERIA
 62
90
 10
1477.26
 20
-1710.76
 30
0.0
 11
1507.33
 21
-1708.59
 31
0.0
  0
LINE
  8
CARROZZERIA
 62
90
 10
1507.33
 20
-1708.59
 30
0.0
 11
1541.55
 21
-1664.51
 31
0.0
  0
LINE
  8
CARROZZERIA
 62
90
 10
1541.55
 20
-1664.51
 30
0.0
 11
1668.5
 21
-1667.99
 31
0.0
  0
LINE
  8
CARROZZERIA
 62
90
 10
1668.5
 20
-1667.99
 30
0.0
 11
1712.8
 21
-1694.22
 31
0.0
  0
LINE
  8
CARROZZERIA
 62
90
 10
1712.8
 20
-1694.22
 30
0.0
 11
1772.72
 21
-1697.86
 31
0.0
  0
LINE
  8
CARROZZERIA
 62
90
 10
1772.72
 20
-1697.86
 30
0.0
 11
1822.07
 21
-1722.22
 31
0.0
  0
LINE
  8
CARROZZERIA
 62
90
 10
1822.07
 20
-1722.22
 30
0.0
 11
1861.35
 21
-1749.31
 31
0.0
  0
LINE
  8
CARROZZERIA
 62
90
 10
1861.35
 20
-1749.31
 30
0.0
 11
1860.14
 21
-1793.29
 31
0.0
  0
LINE
  8
CARROZZERIA
 62
90
 10
1759.73
 20
-1697.5
 30
0.0
 11
1761.02
 21
-1650.52
 31
0.0
  0
LINE
  8
CARROZZERIA
 62
90
 10
1780.72
 20
-1698.08
 30
0.0
 11
1782.01
 21
-1651.1
 31
0.0
  0
LINE
  8
CARROZZERIA
 62
90
 10
1737.08
 20
-1647.87
 30
0.0
 11
1807.05
 21
-1649.78
 31
0.0
  0
LINE
  8
CARROZZERIA
 62
90
 10
1736.97
 20
-1651.86
 30
0.0
 11
1806.94
 21
-1653.78
 31
0.0
  0
LINE
  8
CARROZZERIA
 62
90
 10
1736.97
 20
-1651.86
 30
0.0
 11
1737.08
 21
-1647.87
 31
0.0
  0
LINE
  8
CARROZZERIA
 62
90
 10
1806.94
 20
-1653.78
 30
0.0
 11
1807.05
 21
-1649.78
 31
0.0
  0
CIRCLE
  8
CARROZZERIA
 62
90
 10
1740.87
 20
-1765.01
 30
0.0
 40
35
  0
CIRCLE
  8
CARROZZERIA
 62
90
 10
1500.96
 20
-1758.43
 30
0.0
 40
35
  0
LINE
  8
CARROZZERIA
 62
90
 10
1645.06
 20
-1762.58
 30
0.0
 11
1655.06
 21
-1762.6
 31
0.0
  0
LINE
  8
CARROZZERIA
 62
90
 10
1650.05
 20
-1767.59
 30
0.0
 11
1650.07
 21
-1757.59
 31
0.0
  0
LINE
  8
CARROZZERIA
 62
90
 10
1885.06
 20
-1762.99
 30
0.0
 11
1895.06
 21
-1763.01
 31
0.0
  0
LINE
  8
CARROZZERIA
 62
90
 10
1890.05
 20
-1768
 30
0.0
 11
1890.07
 21
-1758
 31
0.0
  0
LINE
  8
CARROZZERIA
 62
90
 10
1510.02
 20
-1789.35
 30
0.0
 11
1615.32
 21
-1789.53
 31
0.0
  0
LINE
  8
CARROZZERIA
 62
90
 10
1684.72
 20
-1789.65
 30
0.0
 11
1855.32
 21
-1789.94
 31
0.0
  0
LINE
  8
CARROZZERIA
 62
90
 10
1924.72
 20
-1790.06
 30
0.0
 11
2010.02
 21
-1790.21
 31
0.0
  0
LINE
  8
CARROZZERIA
 62
90
 10
1510.02
 20
-1789.35
 30
0.0
 11
1510.06
 21
-1762.35
 31
0.0
  0
LINE
  8
CARROZZERIA
 62
90
 10
1510.06
 20
-1762.35
 30
0.0
 11
1522.09
 21
-1745.37
 31
0.0
  0
LINE
  8
CARROZZERIA
 62
90
 10
1522.09
 20
-1745.37
 30
0.0
 11
1538.11
 21
-1735.4
 31
0.0
  0
LINE
  8
CARROZZERIA
 62
90
 10
1538.11
 20
-1735.4
 30
0.0
 11
1575.13
 21
-1725.46
 31
0.0
  0
LINE
  8
CARROZZERIA
 62
90
 10
1575.13
 20
-1725.46
 30
0.0
 11
1625.14
 21
-1717.55
 31
0.0
  0
LINE
  8
CARROZZERIA
 62
90
 10
1625.14
 20
-1717.55
 30
0.0
 11
1655.15
 21
-1714.6
 31
0.0
  0
LINE
  8
CARROZZERIA
 62
90
 10
1655.15
 20
-1714.6
 30
0.0
 11
1688.22
 21
-1669.65
 31
0.0
  0
LINE
  8
CARROZZERIA
 62
90
 10
1688.22
 20
-1669.65
 30
0.0
 11
1815.22
 21
-1669.87
 31
0.0
  0
LINE
  8
CARROZZERIA
 62
90
 10
1815.22
 20
-1669.87
 30
0.0
 11
1860.18
 21
-1694.95
 31
0.0
  0
LINE
  8
CARROZZERIA
 62
90
 10
1860.18
 20
-1694.95
 30
0.0
 11
1920.18
 21
-1697.05
 31
0.0
  0
LINE
  8
CARROZZERIA
 62
90
 10
1920.18
 20
-1697.05
 30
0.0
 11
1970.14
 21
-1720.14
 31
0.0
  0
LINE
  8
CARROZZERIA
 62
90
 10
1970.14
 20
-1720.14
 30
0.0
 11
2010.09
 21
-1746.21
 31
0.0
  0
LINE
  8
CARROZZERIA
 62
90
 10
2010.09
 20
-1746.21
 30
0.0
 11
2010.02
 21
-1790.21
 31
0.0
  0
LINE
  8
CARROZZERIA
 62
90
 10
1907.18
 20
-1697.03
 30
0.0
 11
1907.26
 21
-1650.03
 31
0.0
  0
LINE
  8
CARROZZERIA
 62
90
 10
1928.18
 20
-1697.07
 30
0.0
 11
1928.26
 21
-1650.07
 31
0.0
  0
LINE
  8
CARROZZERIA
 62
90
 10
1883.26
 20
-1647.99
 30
0.0
 11
1953.26
 21
-1648.11
 31
0.0
  0
LINE
  8
CARROZZERIA
 62
90
 10
1883.25
 20
-1651.99
 30
0.0
 11
1953.25
 21
-1652.11
 31
0.0
  0
LINE
  8
CARROZZERIA
 62
90
 10
1883.25
 20
-1651.99
 30
0.0
 11
1883.26
 21
-1647.99
 31
0.0
  0
LINE
  8
CARROZZERIA
 62
90
 10
1953.25
 20
-1652.11
 30
0.0
 11
1953.26
 21
-1648.11
 31
0.0
  0
CIRCLE
  8
CARROZZERIA
 62
90
 10
1890.06
 20
-1765
 30
0.0
 40
35
  0
CIRCLE
  8
CARROZZERIA
 62
90
 10
1650.06
 20
-1764.59
 30
0.0
 40
35
  0
LINE
  8
CARROZZERIA
 62
90
 10
1795
 20
-1763
 30
0.0
 11
1805
 21
-1763
 31
0.0
  0
LINE
  8
CARROZZERIA
 62
90
 10
1800
 20
-1768
 30
0.0
 11
1800
 21
-1758
 31
0.0
  0
LINE
  8
CARROZZERIA
 62
90
 10
2035
 20
-1763
 30
0.0
 11
2045
 21
-1763
 31
0.0
  0
LINE
  8
CARROZZERIA
 62
90
 10
2040
 20
-1768
 30
0.0
 11
2040
 21
-1758
 31
0.0
  0
LINE
  8
CARROZZERIA
 62
90
 10
1660
 20
-1790
 30
0.0
 11
1765.3
 21
-1790
 31
0.0
  0
LINE
  8
CARROZZERIA
 62
90
 10
1834.7
 20
-1790
 30
0.0
 11
2005.3
 21
-1790
 31
0.0
  0
LINE
  8
CARROZZERIA
 62
90
 10
2074.7
 20
-1790
 30
0.0
 11
2160
 21
-1790
 31
0.0
  0
LINE
  8
CARROZZERIA
 62
90
 10
1660
 20
-1790
 30
0.0
 11
1660
 21
-1763
 31
0.0
  0
LINE
  8
CARROZZERIA
 62
90
 10
1660
 20
-1763
 30
0.0
 11
1672
 21
-1746
 31
0.0
  0
LINE
  8
CARROZZERIA
 62
90
 10
1672
 20
-1746
 30
0.0
 11
1688
 21
-1736
 31
0.0
  0
LINE
  8
CARROZZERIA
 62
90
 10
1688
 20
-1736
 30
0.0
 11
1725
 21
-1726
 31
0.0
  0
LINE
  8
CARROZZERIA
 62
90
 10
1725
 20
-1726
 30
0.0
 11
1775
 21
-1718
 31
0.0
  0
LINE
  8
CARROZZERIA
 62
90
 10
1775
 20
-1718
 30
0.0
 11
1805
 21
-1715
 31
0.0
  0
LINE
  8
CARROZZERIA
 62
90
 10
1805
 20
-1715
 30
0.0
 11
1838
 21
-1670
 31
0.0
  0
LINE
  8
CARROZZERIA
 62
90
 10
1838
 20
-1670
 30
0.0
 11
1965
 21
-1670
 31
0.0
  0
LINE
  8
CARROZZERIA
 62
90
 10
1965
 20
-1670
 30
0.0
 11
2010
 21
-1695
 31
0.0
  0
LINE
  8
CARROZZERIA
 62
90
 10
2010
 20
-1695
 30
0.0
 11
2070
 21
-1697
 31
0.0
  0
LINE
  8
CARROZZERIA
 62
90
 10
2070
 20
-1697
 30
0.0
 11
2120
 21
-1720
 31
0.0
  0
LINE
  8
CARROZZERIA
 62
90
 10
2120
 20
-1720
 30
0.0
 11
2160
 21
-1746
 31
0.0
  0
LINE
  8
CARROZZERIA
 62
90
 10
2160
 20
-1746
 30
0.0
 11
2160
 21
-1790
 31
0.0
  0
LINE
  8
CARROZZERIA
 62
90
 10
2057
 20
-1697
 30
0.0
 11
2057
 21
-1650
 31
0.0
  0
LINE
  8
CARROZZERIA
 62
90
 10
2078
 20
-1697
 30
0.0
 11
2078
 21
-1650
 31
0.0
  0
LINE
  8
CARROZZERIA
 62
90
 10
2033
 20
-1648
 30
0.0
 11
2103
 21
-1648
 31
0.0
  0
LINE
  8
CARROZZERIA
 62
90
 10
2033
 20
-1652
 30
0.0
 11
2103
 21
-1652
 31
0.0
  0
LINE
  8
CARROZZERIA
 62
90
 10
2033
 20
-1652
 30
0.0
 11
2033
 21
-1648
 31
0.0
  0
LINE
  8
CARROZZERIA
 62
90
 10
2103
 20
-1652
 30
0.0
 11
2103
 21
-1648
 31
0.0
  0
CIRCLE
  8
CARROZZERIA
 62
90
 10
2040
 20
-1765
 30
0.0
 40
35
  0
CIRCLE
  8
CARROZZERIA
 62
90
 10
1800
 20
-1765
 30
0.0
 40
35
  0
CIRCLE
  8
TESTO
 62
90
 10
1321
 20
-1775.06
 30
0.0
 40
11
  0
LINE
  8
CRITICO
 62
90
 10
1321
 20
-1775.06
 30
0.0
 11
1321
 21
-1776.3
 31
0.0
  0
LINE
  8
CRITICO
 62
90
 10
1321
 20
-1775.06
 30
0.0
 11
1171
 21
-1830.06
 31
0.0
  0
TEXT
  8
CRITICO
 62
90
 10
851
 20
-1838.06
 30
0.0
 40
9
  1
paraurti ANT (muso, sbalzo 140): +1.24 cm -> sicuro
  0
CIRCLE
  8
TESTO
 62
90
 10
1699.66
 20
-1797.12
 30
0.0
 40
9
  0
TEXT
  8
TESTO
 62
90
 10
1711.66
 20
-1779.12
 30
0.0
 40
8
  1
coda (120) al SAG: +2.88
  0
TEXT
  8
TESTO
 62
90
 10
-560
 20
-1328
 30
0.0
 40
16
  1
h = 10 cm
  0
TEXT
  8
TESTO
 62
90
 10
-300
 20
-1326
 30
0.0
 40
11
  1
muso(140) +1.24  |  coda(120)@SAG +2.88  |  ventre +2.41  [cm]  ->  SICURO
  0
TEXT
  8
TESTO
 62
7
 10
-300
 20
-1346
 30
0.0
 40
9
  1
sagome ogni 150 cm (+ posa critica): 15 verdi (sicuro), 0 arancio (a rischio), 0 rosse (collisione)
  0
LINE
  8
REF
 62
8
 10
-560
 20
-1358
 30
0.0
 11
2360
 21
-1358
 31
0.0
  0
TEXT
  8
TESTO
 10
-560
 20
-1950
 30
0.0
 40
9
  1
NB1: girare la vettura NON aiuta. Il vincolo GOVERNANTE resta lo SBALZO LUNGO (muso, 140 cm): in uscita girata tocca a -0.84 cm (h=8), ~uguale all'ingresso (-0.80). Coda (120) e ventre meno critici.
  0
TEXT
  8
TESTO
 10
-560
 20
-1968
 30
0.0
 40
9
  1
NB2: a h=8 NON si passa in nessun orientamento. Vale sul profilo ESTREMO (47%), non sulla rampa adottata R=1500 (in uscita lo sbalzo posteriore compenetra il SAG di ~6.4 cm).
  0
ENDSEC
  0
EOF
