  0
SECTION
  2
HEADER
  9
$ACADVER
  1
AC1009
  9
$EXTMIN
 10
-600.0
 20
-200.0
 30
0.0
  9
$EXTMAX
 10
2400.0
 20
600.0
 30
0.0
  9
$LIMMIN
 10
-600.0
 20
-200.0
  9
$LIMMAX
 10
2400.0
 20
600.0
  9
$LTSCALE
 40
10.0
  9
$INSUNITS
 70
5
  0
ENDSEC
  0
SECTION
  2
TABLES
  0
TABLE
  2
LTYPE
 70
2
  0
LTYPE
  2
CONTINUOUS
 70
64
  3
Solid line
 72
65
 73
0
 40
0.0
  0
LTYPE
  2
DASHED
 70
64
  3
_ _ _ _ _
 72
65
 73
2
 40
20.0
 49
12.0
 49
-8.0
  0
ENDTAB
  0
TABLE
  2
LAYER
 70
7
  0
LAYER
  2
0
 70
64
 62
7
  6
CONTINUOUS
  0
LAYER
  2
RAMPA
 70
64
 62
3
  6
CONTINUOUS
  0
LAYER
  2
CARROZZERIA
 70
64
 62
2
  6
CONTINUOUS
  0
LAYER
  2
RUOTE
 70
64
 62
4
  6
CONTINUOUS
  0
LAYER
  2
CRITICO
 70
64
 62
1
  6
CONTINUOUS
  0
LAYER
  2
QUOTE
 70
64
 62
5
  6
CONTINUOUS
  0
LAYER
  2
TESTO
 70
64
 62
7
  6
CONTINUOUS
  0
LAYER
  2
REF
 70
64
 62
8
  6
DASHED
  0
ENDTAB
  0
TABLE
  2
STYLE
 70
1
  0
STYLE
  2
STANDARD
 70
0
 40
0.0
 41
1.0
 50
0.0
 71
0
 42
2.5
  3
txt
  4

  0
ENDTAB
  0
ENDSEC
  0
SECTION
  2
ENTITIES
  0
TEXT
  8
TESTO
 10
-650
 20
500
 30
0.0
 40
18
  1
RAMPA GARAGE - PROFILO COSTRUTTIVO - PICCHETTAZIONE QUOTE OGNI 50 cm
  0
TEXT
  8
TESTO
 10
-650
 20
476
 30
0.0
 40
9
  1
Stesso profilo dell'animazione (OTTIMIZZATO: CREST R=950 + SAG R=3042, tratto retto 13 cm, picco 47%). Senza vettura.
  0
TEXT
  8
TESTO
 10
-650
 20
460
 30
0.0
 40
9
  1
Altezze come LINEE DI QUOTA verticali (freccette agli estremi: apice su quota 0 e sul profilo) riferite al PIANO GARAGE (0) fino alla STRADA (380). Progressive orizzontali 0 (strada) -> 1700 (garage).
  0
LINE
  8
REF
 62
8
 10
-650
 20
448
 30
0.0
 11
2200
 21
448
 31
0.0
  0
LINE
  8
RAMPA
 10
-450
 20
380
 30
0.0
 11
0
 21
380
 31
0.0
  0
TEXT
  8
TESTO
 10
-430
 20
390
 30
0.0
 40
11
  1
STRADA  (q. 380)
  0
LINE
  8
RAMPA
 10
1700
 20
0
 30
0.0
 11
2150
 21
0
 31
0.0
  0
TEXT
  8
TESTO
 10
1880
 20
12
 30
0.0
 40
11
  1
GARAGE  (q. 0)
  0
ARC
  8
RAMPA
 10
0
 20
-570
 30
0.0
 40
950
 50
65
 51
90
  0
LINE
  8
RAMPA
 10
401.49
 20
290.99
 30
0.0
 11
414.24
 21
285.05
 31
0.0
  0
ARC
  8
RAMPA
 10
1700
 20
3042.37
 30
0.0
 40
3042.37
 50
245
 51
270
  0
CIRCLE
  8
CRITICO
 62
1
 10
0
 20
380
 30
0.0
 40
4
  0
TEXT
  8
CRITICO
 62
1
 10
14
 20
382
 30
0.0
 40
9
  1
quota MAX 380 cm (innesto strada)
  0
CIRCLE
  8
CRITICO
 62
1
 10
1700
 20
0
 30
0.0
 40
4
  0
TEXT
  8
CRITICO
 62
1
 10
1230
 20
-14
 30
0.0
 40
9
  1
quota MIN 0 cm (fondo garage)
  0
LINE
  8
REF
 62
8
 10
-100
 20
0
 30
0.0
 11
1800
 21
0
 31
0.0
  0
LINE
  8
QUOTE
 62
5
 10
0
 20
-55
 30
0.0
 11
1700
 21
-55
 31
0.0
  0
TEXT
  8
TESTO
 62
5
 10
-300
 20
-88
 30
0.0
 40
9
  1
PROGR. (cm):
  0
LINE
  8
QUOTE
 62
5
 10
0
 20
0
 30
0.0
 11
0
 21
380
 31
0.0
  0
LINE
  8
QUOTE
 62
5
 10
0
 20
0
 30
0.0
 11
-3.36
 21
8
 31
0.0
  0
LINE
  8
QUOTE
 62
5
 10
0
 20
0
 30
0.0
 11
3.36
 21
8
 31
0.0
  0
LINE
  8
QUOTE
 62
5
 10
0
 20
380
 30
0.0
 11
-3.36
 21
372
 31
0.0
  0
LINE
  8
QUOTE
 62
5
 10
0
 20
380
 30
0.0
 11
3.36
 21
372
 31
0.0
  0
TEXT
  8
QUOTE
 62
5
 10
5
 20
178
 30
0.0
 40
8
 50
90
  1
380.0
  0
LINE
  8
QUOTE
 62
5
 10
0
 20
-55
 30
0.0
 11
0
 21
-60
 31
0.0
  0
TEXT
  8
TESTO
 62
7
 10
3
 20
-90
 30
0.0
 40
8
 50
90
  1
0
  0
LINE
  8
QUOTE
 62
5
 10
50
 20
0
 30
0.0
 11
50
 21
378.68
 31
0.0
  0
LINE
  8
QUOTE
 62
5
 10
50
 20
0
 30
0.0
 11
46.64
 21
8
 31
0.0
  0
LINE
  8
QUOTE
 62
5
 10
50
 20
0
 30
0.0
 11
53.36
 21
8
 31
0.0
  0
LINE
  8
QUOTE
 62
5
 10
50
 20
378.68
 30
0.0
 11
46.64
 21
370.68
 31
0.0
  0
LINE
  8
QUOTE
 62
5
 10
50
 20
378.68
 30
0.0
 11
53.36
 21
370.68
 31
0.0
  0
TEXT
  8
QUOTE
 62
5
 10
55
 20
177.34
 30
0.0
 40
8
 50
90
  1
378.7
  0
LINE
  8
QUOTE
 62
5
 10
50
 20
-55
 30
0.0
 11
50
 21
-60
 31
0.0
  0
TEXT
  8
TESTO
 62
7
 10
53
 20
-90
 30
0.0
 40
8
 50
90
  1
50
  0
LINE
  8
QUOTE
 62
5
 10
100
 20
0
 30
0.0
 11
100
 21
374.72
 31
0.0
  0
LINE
  8
QUOTE
 62
5
 10
100
 20
0
 30
0.0
 11
96.64
 21
8
 31
0.0
  0
LINE
  8
QUOTE
 62
5
 10
100
 20
0
 30
0.0
 11
103.36
 21
8
 31
0.0
  0
LINE
  8
QUOTE
 62
5
 10
100
 20
374.72
 30
0.0
 11
96.64
 21
366.72
 31
0.0
  0
LINE
  8
QUOTE
 62
5
 10
100
 20
374.72
 30
0.0
 11
103.36
 21
366.72
 31
0.0
  0
TEXT
  8
QUOTE
 62
5
 10
105
 20
175.36
 30
0.0
 40
8
 50
90
  1
374.7
  0
LINE
  8
QUOTE
 62
5
 10
100
 20
-55
 30
0.0
 11
100
 21
-60
 31
0.0
  0
TEXT
  8
TESTO
 62
7
 10
103
 20
-90
 30
0.0
 40
8
 50
90
  1
100
  0
LINE
  8
QUOTE
 62
5
 10
150
 20
0
 30
0.0
 11
150
 21
368.08
 31
0.0
  0
LINE
  8
QUOTE
 62
5
 10
150
 20
0
 30
0.0
 11
146.64
 21
8
 31
0.0
  0
LINE
  8
QUOTE
 62
5
 10
150
 20
0
 30
0.0
 11
153.36
 21
8
 31
0.0
  0
LINE
  8
QUOTE
 62
5
 10
150
 20
368.08
 30
0.0
 11
146.64
 21
360.08
 31
0.0
  0
LINE
  8
QUOTE
 62
5
 10
150
 20
368.08
 30
0.0
 11
153.36
 21
360.08
 31
0.0
  0
TEXT
  8
QUOTE
 62
5
 10
155
 20
172.04
 30
0.0
 40
8
 50
90
  1
368.1
  0
LINE
  8
QUOTE
 62
5
 10
150
 20
-55
 30
0.0
 11
150
 21
-60
 31
0.0
  0
TEXT
  8
TESTO
 62
7
 10
153
 20
-90
 30
0.0
 40
8
 50
90
  1
150
  0
LINE
  8
QUOTE
 62
5
 10
200
 20
0
 30
0.0
 11
200
 21
358.71
 31
0.0
  0
LINE
  8
QUOTE
 62
5
 10
200
 20
0
 30
0.0
 11
196.64
 21
8
 31
0.0
  0
LINE
  8
QUOTE
 62
5
 10
200
 20
0
 30
0.0
 11
203.36
 21
8
 31
0.0
  0
LINE
  8
QUOTE
 62
5
 10
200
 20
358.71
 30
0.0
 11
196.64
 21
350.71
 31
0.0
  0
LINE
  8
QUOTE
 62
5
 10
200
 20
358.71
 30
0.0
 11
203.36
 21
350.71
 31
0.0
  0
TEXT
  8
QUOTE
 62
5
 10
205
 20
167.35
 30
0.0
 40
8
 50
90
  1
358.7
  0
LINE
  8
QUOTE
 62
5
 10
200
 20
-55
 30
0.0
 11
200
 21
-60
 31
0.0
  0
TEXT
  8
TESTO
 62
7
 10
203
 20
-90
 30
0.0
 40
8
 50
90
  1
200
  0
LINE
  8
QUOTE
 62
5
 10
250
 20
0
 30
0.0
 11
250
 21
346.52
 31
0.0
  0
LINE
  8
QUOTE
 62
5
 10
250
 20
0
 30
0.0
 11
246.64
 21
8
 31
0.0
  0
LINE
  8
QUOTE
 62
5
 10
250
 20
0
 30
0.0
 11
253.36
 21
8
 31
0.0
  0
LINE
  8
QUOTE
 62
5
 10
250
 20
346.52
 30
0.0
 11
246.64
 21
338.52
 31
0.0
  0
LINE
  8
QUOTE
 62
5
 10
250
 20
346.52
 30
0.0
 11
253.36
 21
338.52
 31
0.0
  0
TEXT
  8
QUOTE
 62
5
 10
255
 20
161.26
 30
0.0
 40
8
 50
90
  1
346.5
  0
LINE
  8
QUOTE
 62
5
 10
250
 20
-55
 30
0.0
 11
250
 21
-60
 31
0.0
  0
TEXT
  8
TESTO
 62
7
 10
253
 20
-90
 30
0.0
 40
8
 50
90
  1
250
  0
LINE
  8
QUOTE
 62
5
 10
300
 20
0
 30
0.0
 11
300
 21
331.39
 31
0.0
  0
LINE
  8
QUOTE
 62
5
 10
300
 20
0
 30
0.0
 11
296.64
 21
8
 31
0.0
  0
LINE
  8
QUOTE
 62
5
 10
300
 20
0
 30
0.0
 11
303.36
 21
8
 31
0.0
  0
LINE
  8
QUOTE
 62
5
 10
300
 20
331.39
 30
0.0
 11
296.64
 21
323.39
 31
0.0
  0
LINE
  8
QUOTE
 62
5
 10
300
 20
331.39
 30
0.0
 11
303.36
 21
323.39
 31
0.0
  0
TEXT
  8
QUOTE
 62
5
 10
305
 20
153.69
 30
0.0
 40
8
 50
90
  1
331.4
  0
LINE
  8
QUOTE
 62
5
 10
300
 20
-55
 30
0.0
 11
300
 21
-60
 31
0.0
  0
TEXT
  8
TESTO
 62
7
 10
303
 20
-90
 30
0.0
 40
8
 50
90
  1
300
  0
LINE
  8
QUOTE
 62
5
 10
350
 20
0
 30
0.0
 11
350
 21
313.18
 31
0.0
  0
LINE
  8
QUOTE
 62
5
 10
350
 20
0
 30
0.0
 11
346.64
 21
8
 31
0.0
  0
LINE
  8
QUOTE
 62
5
 10
350
 20
0
 30
0.0
 11
353.36
 21
8
 31
0.0
  0
LINE
  8
QUOTE
 62
5
 10
350
 20
313.18
 30
0.0
 11
346.64
 21
305.18
 31
0.0
  0
LINE
  8
QUOTE
 62
5
 10
350
 20
313.18
 30
0.0
 11
353.36
 21
305.18
 31
0.0
  0
TEXT
  8
QUOTE
 62
5
 10
355
 20
144.59
 30
0.0
 40
8
 50
90
  1
313.2
  0
LINE
  8
QUOTE
 62
5
 10
350
 20
-55
 30
0.0
 11
350
 21
-60
 31
0.0
  0
TEXT
  8
TESTO
 62
7
 10
353
 20
-90
 30
0.0
 40
8
 50
90
  1
350
  0
LINE
  8
QUOTE
 62
5
 10
400
 20
0
 30
0.0
 11
400
 21
291.68
 31
0.0
  0
LINE
  8
QUOTE
 62
5
 10
400
 20
0
 30
0.0
 11
396.64
 21
8
 31
0.0
  0
LINE
  8
QUOTE
 62
5
 10
400
 20
0
 30
0.0
 11
403.36
 21
8
 31
0.0
  0
LINE
  8
QUOTE
 62
5
 10
400
 20
291.68
 30
0.0
 11
396.64
 21
283.68
 31
0.0
  0
LINE
  8
QUOTE
 62
5
 10
400
 20
291.68
 30
0.0
 11
403.36
 21
283.68
 31
0.0
  0
TEXT
  8
QUOTE
 62
5
 10
405
 20
133.84
 30
0.0
 40
8
 50
90
  1
291.7
  0
LINE
  8
QUOTE
 62
5
 10
400
 20
-55
 30
0.0
 11
400
 21
-60
 31
0.0
  0
TEXT
  8
TESTO
 62
7
 10
403
 20
-90
 30
0.0
 40
8
 50
90
  1
400
  0
LINE
  8
QUOTE
 62
5
 10
450
 20
0
 30
0.0
 11
450
 21
268.65
 31
0.0
  0
LINE
  8
QUOTE
 62
5
 10
450
 20
0
 30
0.0
 11
446.64
 21
8
 31
0.0
  0
LINE
  8
QUOTE
 62
5
 10
450
 20
0
 30
0.0
 11
453.36
 21
8
 31
0.0
  0
LINE
  8
QUOTE
 62
5
 10
450
 20
268.65
 30
0.0
 11
446.64
 21
260.65
 31
0.0
  0
LINE
  8
QUOTE
 62
5
 10
450
 20
268.65
 30
0.0
 11
453.36
 21
260.65
 31
0.0
  0
TEXT
  8
QUOTE
 62
5
 10
455
 20
122.33
 30
0.0
 40
8
 50
90
  1
268.7
  0
LINE
  8
QUOTE
 62
5
 10
450
 20
-55
 30
0.0
 11
450
 21
-60
 31
0.0
  0
TEXT
  8
TESTO
 62
7
 10
453
 20
-90
 30
0.0
 40
8
 50
90
  1
450
  0
LINE
  8
QUOTE
 62
5
 10
500
 20
0
 30
0.0
 11
500
 21
246.66
 31
0.0
  0
LINE
  8
QUOTE
 62
5
 10
500
 20
0
 30
0.0
 11
496.64
 21
8
 31
0.0
  0
LINE
  8
QUOTE
 62
5
 10
500
 20
0
 30
0.0
 11
503.36
 21
8
 31
0.0
  0
LINE
  8
QUOTE
 62
5
 10
500
 20
246.66
 30
0.0
 11
496.64
 21
238.66
 31
0.0
  0
LINE
  8
QUOTE
 62
5
 10
500
 20
246.66
 30
0.0
 11
503.36
 21
238.66
 31
0.0
  0
TEXT
  8
QUOTE
 62
5
 10
505
 20
111.33
 30
0.0
 40
8
 50
90
  1
246.7
  0
LINE
  8
QUOTE
 62
5
 10
500
 20
-55
 30
0.0
 11
500
 21
-60
 31
0.0
  0
TEXT
  8
TESTO
 62
7
 10
503
 20
-90
 30
0.0
 40
8
 50
90
  1
500
  0
LINE
  8
QUOTE
 62
5
 10
550
 20
0
 30
0.0
 11
550
 21
225.72
 31
0.0
  0
LINE
  8
QUOTE
 62
5
 10
550
 20
0
 30
0.0
 11
546.64
 21
8
 31
0.0
  0
LINE
  8
QUOTE
 62
5
 10
550
 20
0
 30
0.0
 11
553.36
 21
8
 31
0.0
  0
LINE
  8
QUOTE
 62
5
 10
550
 20
225.72
 30
0.0
 11
546.64
 21
217.72
 31
0.0
  0
LINE
  8
QUOTE
 62
5
 10
550
 20
225.72
 30
0.0
 11
553.36
 21
217.72
 31
0.0
  0
TEXT
  8
QUOTE
 62
5
 10
555
 20
100.86
 30
0.0
 40
8
 50
90
  1
225.7
  0
LINE
  8
QUOTE
 62
5
 10
550
 20
-55
 30
0.0
 11
550
 21
-60
 31
0.0
  0
TEXT
  8
TESTO
 62
7
 10
553
 20
-90
 30
0.0
 40
8
 50
90
  1
550
  0
LINE
  8
QUOTE
 62
5
 10
600
 20
0
 30
0.0
 11
600
 21
205.82
 31
0.0
  0
LINE
  8
QUOTE
 62
5
 10
600
 20
0
 30
0.0
 11
596.64
 21
8
 31
0.0
  0
LINE
  8
QUOTE
 62
5
 10
600
 20
0
 30
0.0
 11
603.36
 21
8
 31
0.0
  0
LINE
  8
QUOTE
 62
5
 10
600
 20
205.82
 30
0.0
 11
596.64
 21
197.82
 31
0.0
  0
LINE
  8
QUOTE
 62
5
 10
600
 20
205.82
 30
0.0
 11
603.36
 21
197.82
 31
0.0
  0
TEXT
  8
QUOTE
 62
5
 10
605
 20
90.91
 30
0.0
 40
8
 50
90
  1
205.8
  0
LINE
  8
QUOTE
 62
5
 10
600
 20
-55
 30
0.0
 11
600
 21
-60
 31
0.0
  0
TEXT
  8
TESTO
 62
7
 10
603
 20
-90
 30
0.0
 40
8
 50
90
  1
600
  0
LINE
  8
QUOTE
 62
5
 10
650
 20
0
 30
0.0
 11
650
 21
186.93
 31
0.0
  0
LINE
  8
QUOTE
 62
5
 10
650
 20
0
 30
0.0
 11
646.64
 21
8
 31
0.0
  0
LINE
  8
QUOTE
 62
5
 10
650
 20
0
 30
0.0
 11
653.36
 21
8
 31
0.0
  0
LINE
  8
QUOTE
 62
5
 10
650
 20
186.93
 30
0.0
 11
646.64
 21
178.93
 31
0.0
  0
LINE
  8
QUOTE
 62
5
 10
650
 20
186.93
 30
0.0
 11
653.36
 21
178.93
 31
0.0
  0
TEXT
  8
QUOTE
 62
5
 10
655
 20
81.47
 30
0.0
 40
8
 50
90
  1
186.9
  0
LINE
  8
QUOTE
 62
5
 10
650
 20
-55
 30
0.0
 11
650
 21
-60
 31
0.0
  0
TEXT
  8
TESTO
 62
7
 10
653
 20
-90
 30
0.0
 40
8
 50
90
  1
650
  0
LINE
  8
QUOTE
 62
5
 10
700
 20
0
 30
0.0
 11
700
 21
169.04
 31
0.0
  0
LINE
  8
QUOTE
 62
5
 10
700
 20
0
 30
0.0
 11
696.64
 21
8
 31
0.0
  0
LINE
  8
QUOTE
 62
5
 10
700
 20
0
 30
0.0
 11
703.36
 21
8
 31
0.0
  0
LINE
  8
QUOTE
 62
5
 10
700
 20
169.04
 30
0.0
 11
696.64
 21
161.04
 31
0.0
  0
LINE
  8
QUOTE
 62
5
 10
700
 20
169.04
 30
0.0
 11
703.36
 21
161.04
 31
0.0
  0
TEXT
  8
QUOTE
 62
5
 10
705
 20
72.52
 30
0.0
 40
8
 50
90
  1
169.0
  0
LINE
  8
QUOTE
 62
5
 10
700
 20
-55
 30
0.0
 11
700
 21
-60
 31
0.0
  0
TEXT
  8
TESTO
 62
7
 10
703
 20
-90
 30
0.0
 40
8
 50
90
  1
700
  0
LINE
  8
QUOTE
 62
5
 10
750
 20
0
 30
0.0
 11
750
 21
152.13
 31
0.0
  0
LINE
  8
QUOTE
 62
5
 10
750
 20
0
 30
0.0
 11
746.64
 21
8
 31
0.0
  0
LINE
  8
QUOTE
 62
5
 10
750
 20
0
 30
0.0
 11
753.36
 21
8
 31
0.0
  0
LINE
  8
QUOTE
 62
5
 10
750
 20
152.13
 30
0.0
 11
746.64
 21
144.13
 31
0.0
  0
LINE
  8
QUOTE
 62
5
 10
750
 20
152.13
 30
0.0
 11
753.36
 21
144.13
 31
0.0
  0
TEXT
  8
QUOTE
 62
5
 10
755
 20
64.06
 30
0.0
 40
8
 50
90
  1
152.1
  0
LINE
  8
QUOTE
 62
5
 10
750
 20
-55
 30
0.0
 11
750
 21
-60
 31
0.0
  0
TEXT
  8
TESTO
 62
7
 10
753
 20
-90
 30
0.0
 40
8
 50
90
  1
750
  0
LINE
  8
QUOTE
 62
5
 10
800
 20
0
 30
0.0
 11
800
 21
136.17
 31
0.0
  0
LINE
  8
QUOTE
 62
5
 10
800
 20
0
 30
0.0
 11
796.64
 21
8
 31
0.0
  0
LINE
  8
QUOTE
 62
5
 10
800
 20
0
 30
0.0
 11
803.36
 21
8
 31
0.0
  0
LINE
  8
QUOTE
 62
5
 10
800
 20
136.17
 30
0.0
 11
796.64
 21
128.17
 31
0.0
  0
LINE
  8
QUOTE
 62
5
 10
800
 20
136.17
 30
0.0
 11
803.36
 21
128.17
 31
0.0
  0
TEXT
  8
QUOTE
 62
5
 10
805
 20
56.08
 30
0.0
 40
8
 50
90
  1
136.2
  0
LINE
  8
QUOTE
 62
5
 10
800
 20
-55
 30
0.0
 11
800
 21
-60
 31
0.0
  0
TEXT
  8
TESTO
 62
7
 10
803
 20
-90
 30
0.0
 40
8
 50
90
  1
800
  0
LINE
  8
QUOTE
 62
5
 10
850
 20
0
 30
0.0
 11
850
 21
121.15
 31
0.0
  0
LINE
  8
QUOTE
 62
5
 10
850
 20
0
 30
0.0
 11
846.64
 21
8
 31
0.0
  0
LINE
  8
QUOTE
 62
5
 10
850
 20
0
 30
0.0
 11
853.36
 21
8
 31
0.0
  0
LINE
  8
QUOTE
 62
5
 10
850
 20
121.15
 30
0.0
 11
846.64
 21
113.15
 31
0.0
  0
LINE
  8
QUOTE
 62
5
 10
850
 20
121.15
 30
0.0
 11
853.36
 21
113.15
 31
0.0
  0
TEXT
  8
QUOTE
 62
5
 10
855
 20
48.58
 30
0.0
 40
8
 50
90
  1
121.2
  0
LINE
  8
QUOTE
 62
5
 10
850
 20
-55
 30
0.0
 11
850
 21
-60
 31
0.0
  0
TEXT
  8
TESTO
 62
7
 10
853
 20
-90
 30
0.0
 40
8
 50
90
  1
850
  0
LINE
  8
QUOTE
 62
5
 10
900
 20
0
 30
0.0
 11
900
 21
107.06
 31
0.0
  0
LINE
  8
QUOTE
 62
5
 10
900
 20
0
 30
0.0
 11
896.64
 21
8
 31
0.0
  0
LINE
  8
QUOTE
 62
5
 10
900
 20
0
 30
0.0
 11
903.36
 21
8
 31
0.0
  0
LINE
  8
QUOTE
 62
5
 10
900
 20
107.06
 30
0.0
 11
896.64
 21
99.06
 31
0.0
  0
LINE
  8
QUOTE
 62
5
 10
900
 20
107.06
 30
0.0
 11
903.36
 21
99.06
 31
0.0
  0
TEXT
  8
QUOTE
 62
5
 10
905
 20
41.53
 30
0.0
 40
8
 50
90
  1
107.1
  0
LINE
  8
QUOTE
 62
5
 10
900
 20
-55
 30
0.0
 11
900
 21
-60
 31
0.0
  0
TEXT
  8
TESTO
 62
7
 10
903
 20
-90
 30
0.0
 40
8
 50
90
  1
900
  0
LINE
  8
QUOTE
 62
5
 10
950
 20
0
 30
0.0
 11
950
 21
93.89
 31
0.0
  0
LINE
  8
QUOTE
 62
5
 10
950
 20
0
 30
0.0
 11
946.64
 21
8
 31
0.0
  0
LINE
  8
QUOTE
 62
5
 10
950
 20
0
 30
0.0
 11
953.36
 21
8
 31
0.0
  0
LINE
  8
QUOTE
 62
5
 10
950
 20
93.89
 30
0.0
 11
946.64
 21
85.89
 31
0.0
  0
LINE
  8
QUOTE
 62
5
 10
950
 20
93.89
 30
0.0
 11
953.36
 21
85.89
 31
0.0
  0
TEXT
  8
QUOTE
 62
5
 10
955
 20
34.95
 30
0.0
 40
8
 50
90
  1
93.9
  0
LINE
  8
QUOTE
 62
5
 10
950
 20
-55
 30
0.0
 11
950
 21
-60
 31
0.0
  0
TEXT
  8
TESTO
 62
7
 10
953
 20
-90
 30
0.0
 40
8
 50
90
  1
950
  0
LINE
  8
QUOTE
 62
5
 10
1000
 20
0
 30
0.0
 11
1000
 21
81.62
 31
0.0
  0
LINE
  8
QUOTE
 62
5
 10
1000
 20
0
 30
0.0
 11
996.64
 21
8
 31
0.0
  0
LINE
  8
QUOTE
 62
5
 10
1000
 20
0
 30
0.0
 11
1003.36
 21
8
 31
0.0
  0
LINE
  8
QUOTE
 62
5
 10
1000
 20
81.62
 30
0.0
 11
996.64
 21
73.62
 31
0.0
  0
LINE
  8
QUOTE
 62
5
 10
1000
 20
81.62
 30
0.0
 11
1003.36
 21
73.62
 31
0.0
  0
TEXT
  8
QUOTE
 62
5
 10
1005
 20
28.81
 30
0.0
 40
8
 50
90
  1
81.6
  0
LINE
  8
QUOTE
 62
5
 10
1000
 20
-55
 30
0.0
 11
1000
 21
-60
 31
0.0
  0
TEXT
  8
TESTO
 62
7
 10
1003
 20
-90
 30
0.0
 40
8
 50
90
  1
1000
  0
LINE
  8
QUOTE
 62
5
 10
1050
 20
0
 30
0.0
 11
1050
 21
70.25
 31
0.0
  0
LINE
  8
QUOTE
 62
5
 10
1050
 20
0
 30
0.0
 11
1046.64
 21
8
 31
0.0
  0
LINE
  8
QUOTE
 62
5
 10
1050
 20
0
 30
0.0
 11
1053.36
 21
8
 31
0.0
  0
LINE
  8
QUOTE
 62
5
 10
1050
 20
70.25
 30
0.0
 11
1046.64
 21
62.25
 31
0.0
  0
LINE
  8
QUOTE
 62
5
 10
1050
 20
70.25
 30
0.0
 11
1053.36
 21
62.25
 31
0.0
  0
TEXT
  8
QUOTE
 62
5
 10
1055
 20
23.12
 30
0.0
 40
8
 50
90
  1
70.2
  0
LINE
  8
QUOTE
 62
5
 10
1050
 20
-55
 30
0.0
 11
1050
 21
-60
 31
0.0
  0
TEXT
  8
TESTO
 62
7
 10
1053
 20
-90
 30
0.0
 40
8
 50
90
  1
1050
  0
LINE
  8
QUOTE
 62
5
 10
1100
 20
0
 30
0.0
 11
1100
 21
59.75
 31
0.0
  0
LINE
  8
QUOTE
 62
5
 10
1100
 20
0
 30
0.0
 11
1096.64
 21
8
 31
0.0
  0
LINE
  8
QUOTE
 62
5
 10
1100
 20
0
 30
0.0
 11
1103.36
 21
8
 31
0.0
  0
LINE
  8
QUOTE
 62
5
 10
1100
 20
59.75
 30
0.0
 11
1096.64
 21
51.75
 31
0.0
  0
LINE
  8
QUOTE
 62
5
 10
1100
 20
59.75
 30
0.0
 11
1103.36
 21
51.75
 31
0.0
  0
TEXT
  8
QUOTE
 62
5
 10
1105
 20
17.88
 30
0.0
 40
8
 50
90
  1
59.8
  0
LINE
  8
QUOTE
 62
5
 10
1100
 20
-55
 30
0.0
 11
1100
 21
-60
 31
0.0
  0
TEXT
  8
TESTO
 62
7
 10
1103
 20
-90
 30
0.0
 40
8
 50
90
  1
1100
  0
LINE
  8
QUOTE
 62
5
 10
1150
 20
0
 30
0.0
 11
1150
 21
50.13
 31
0.0
  0
LINE
  8
QUOTE
 62
5
 10
1150
 20
0
 30
0.0
 11
1146.64
 21
8
 31
0.0
  0
LINE
  8
QUOTE
 62
5
 10
1150
 20
0
 30
0.0
 11
1153.36
 21
8
 31
0.0
  0
LINE
  8
QUOTE
 62
5
 10
1150
 20
50.13
 30
0.0
 11
1146.64
 21
42.13
 31
0.0
  0
LINE
  8
QUOTE
 62
5
 10
1150
 20
50.13
 30
0.0
 11
1153.36
 21
42.13
 31
0.0
  0
TEXT
  8
QUOTE
 62
5
 10
1155
 20
13.06
 30
0.0
 40
8
 50
90
  1
50.1
  0
LINE
  8
QUOTE
 62
5
 10
1150
 20
-55
 30
0.0
 11
1150
 21
-60
 31
0.0
  0
TEXT
  8
TESTO
 62
7
 10
1153
 20
-90
 30
0.0
 40
8
 50
90
  1
1150
  0
LINE
  8
QUOTE
 62
5
 10
1200
 20
0
 30
0.0
 11
1200
 21
41.37
 31
0.0
  0
LINE
  8
QUOTE
 62
5
 10
1200
 20
0
 30
0.0
 11
1196.64
 21
8
 31
0.0
  0
LINE
  8
QUOTE
 62
5
 10
1200
 20
0
 30
0.0
 11
1203.36
 21
8
 31
0.0
  0
LINE
  8
QUOTE
 62
5
 10
1200
 20
41.37
 30
0.0
 11
1196.64
 21
33.37
 31
0.0
  0
LINE
  8
QUOTE
 62
5
 10
1200
 20
41.37
 30
0.0
 11
1203.36
 21
33.37
 31
0.0
  0
TEXT
  8
QUOTE
 62
5
 10
1205
 20
8.68
 30
0.0
 40
8
 50
90
  1
41.4
  0
LINE
  8
QUOTE
 62
5
 10
1200
 20
-55
 30
0.0
 11
1200
 21
-60
 31
0.0
  0
TEXT
  8
TESTO
 62
7
 10
1203
 20
-90
 30
0.0
 40
8
 50
90
  1
1200
  0
LINE
  8
QUOTE
 62
5
 10
1250
 20
0
 30
0.0
 11
1250
 21
33.46
 31
0.0
  0
LINE
  8
QUOTE
 62
5
 10
1250
 20
0
 30
0.0
 11
1246.64
 21
8
 31
0.0
  0
LINE
  8
QUOTE
 62
5
 10
1250
 20
0
 30
0.0
 11
1253.36
 21
8
 31
0.0
  0
LINE
  8
QUOTE
 62
5
 10
1250
 20
33.46
 30
0.0
 11
1246.64
 21
25.46
 31
0.0
  0
LINE
  8
QUOTE
 62
5
 10
1250
 20
33.46
 30
0.0
 11
1253.36
 21
25.46
 31
0.0
  0
TEXT
  8
QUOTE
 62
5
 10
1255
 20
4.73
 30
0.0
 40
8
 50
90
  1
33.5
  0
LINE
  8
QUOTE
 62
5
 10
1250
 20
-55
 30
0.0
 11
1250
 21
-60
 31
0.0
  0
TEXT
  8
TESTO
 62
7
 10
1253
 20
-90
 30
0.0
 40
8
 50
90
  1
1250
  0
LINE
  8
QUOTE
 62
5
 10
1300
 20
0
 30
0.0
 11
1300
 21
26.41
 31
0.0
  0
LINE
  8
QUOTE
 62
5
 10
1300
 20
0
 30
0.0
 11
1296.64
 21
8
 31
0.0
  0
LINE
  8
QUOTE
 62
5
 10
1300
 20
0
 30
0.0
 11
1303.36
 21
8
 31
0.0
  0
LINE
  8
QUOTE
 62
5
 10
1300
 20
26.41
 30
0.0
 11
1296.64
 21
18.41
 31
0.0
  0
LINE
  8
QUOTE
 62
5
 10
1300
 20
26.41
 30
0.0
 11
1303.36
 21
18.41
 31
0.0
  0
TEXT
  8
QUOTE
 62
5
 10
1305
 20
2
 30
0.0
 40
8
 50
90
  1
26.4
  0
LINE
  8
QUOTE
 62
5
 10
1300
 20
-55
 30
0.0
 11
1300
 21
-60
 31
0.0
  0
TEXT
  8
TESTO
 62
7
 10
1303
 20
-90
 30
0.0
 40
8
 50
90
  1
1300
  0
LINE
  8
QUOTE
 62
5
 10
1350
 20
0
 30
0.0
 11
1350
 21
20.2
 31
0.0
  0
LINE
  8
QUOTE
 62
5
 10
1350
 20
0
 30
0.0
 11
1347.29
 21
6.46
 31
0.0
  0
LINE
  8
QUOTE
 62
5
 10
1350
 20
0
 30
0.0
 11
1352.71
 21
6.46
 31
0.0
  0
LINE
  8
QUOTE
 62
5
 10
1350
 20
20.2
 30
0.0
 11
1347.29
 21
13.74
 31
0.0
  0
LINE
  8
QUOTE
 62
5
 10
1350
 20
20.2
 30
0.0
 11
1352.71
 21
13.74
 31
0.0
  0
TEXT
  8
QUOTE
 62
5
 10
1355
 20
2
 30
0.0
 40
8
 50
90
  1
20.2
  0
LINE
  8
QUOTE
 62
5
 10
1350
 20
-55
 30
0.0
 11
1350
 21
-60
 31
0.0
  0
TEXT
  8
TESTO
 62
7
 10
1353
 20
-90
 30
0.0
 40
8
 50
90
  1
1350
  0
LINE
  8
QUOTE
 62
5
 10
1400
 20
0
 30
0.0
 11
1400
 21
14.83
 31
0.0
  0
LINE
  8
QUOTE
 62
5
 10
1400
 20
0
 30
0.0
 11
1398.01
 21
4.74
 31
0.0
  0
LINE
  8
QUOTE
 62
5
 10
1400
 20
0
 30
0.0
 11
1401.99
 21
4.74
 31
0.0
  0
LINE
  8
QUOTE
 62
5
 10
1400
 20
14.83
 30
0.0
 11
1398.01
 21
10.08
 31
0.0
  0
LINE
  8
QUOTE
 62
5
 10
1400
 20
14.83
 30
0.0
 11
1401.99
 21
10.08
 31
0.0
  0
TEXT
  8
QUOTE
 62
5
 10
1405
 20
2
 30
0.0
 40
8
 50
90
  1
14.8
  0
LINE
  8
QUOTE
 62
5
 10
1400
 20
-55
 30
0.0
 11
1400
 21
-60
 31
0.0
  0
TEXT
  8
TESTO
 62
7
 10
1403
 20
-90
 30
0.0
 40
8
 50
90
  1
1400
  0
LINE
  8
QUOTE
 62
5
 10
1450
 20
0
 30
0.0
 11
1450
 21
10.29
 31
0.0
  0
LINE
  8
QUOTE
 62
5
 10
1450
 20
0
 30
0.0
 11
1448.62
 21
3.29
 31
0.0
  0
LINE
  8
QUOTE
 62
5
 10
1450
 20
0
 30
0.0
 11
1451.38
 21
3.29
 31
0.0
  0
LINE
  8
QUOTE
 62
5
 10
1450
 20
10.29
 30
0.0
 11
1448.62
 21
7
 31
0.0
  0
LINE
  8
QUOTE
 62
5
 10
1450
 20
10.29
 30
0.0
 11
1451.38
 21
7
 31
0.0
  0
TEXT
  8
QUOTE
 62
5
 10
1455
 20
2
 30
0.0
 40
8
 50
90
  1
10.3
  0
LINE
  8
QUOTE
 62
5
 10
1450
 20
-55
 30
0.0
 11
1450
 21
-60
 31
0.0
  0
TEXT
  8
TESTO
 62
7
 10
1453
 20
-90
 30
0.0
 40
8
 50
90
  1
1450
  0
LINE
  8
QUOTE
 62
5
 10
1500
 20
0
 30
0.0
 11
1500
 21
6.58
 31
0.0
  0
LINE
  8
QUOTE
 62
5
 10
1500
 20
0
 30
0.0
 11
1499.12
 21
2.11
 31
0.0
  0
LINE
  8
QUOTE
 62
5
 10
1500
 20
0
 30
0.0
 11
1500.88
 21
2.11
 31
0.0
  0
LINE
  8
QUOTE
 62
5
 10
1500
 20
6.58
 30
0.0
 11
1499.12
 21
4.48
 31
0.0
  0
LINE
  8
QUOTE
 62
5
 10
1500
 20
6.58
 30
0.0
 11
1500.88
 21
4.48
 31
0.0
  0
TEXT
  8
QUOTE
 62
5
 10
1505
 20
2
 30
0.0
 40
8
 50
90
  1
6.6
  0
LINE
  8
QUOTE
 62
5
 10
1500
 20
-55
 30
0.0
 11
1500
 21
-60
 31
0.0
  0
TEXT
  8
TESTO
 62
7
 10
1503
 20
-90
 30
0.0
 40
8
 50
90
  1
1500
  0
LINE
  8
QUOTE
 62
5
 10
1550
 20
0
 30
0.0
 11
1550
 21
3.7
 31
0.0
  0
LINE
  8
QUOTE
 62
5
 10
1550
 20
0
 30
0.0
 11
1549.5
 21
1.18
 31
0.0
  0
LINE
  8
QUOTE
 62
5
 10
1550
 20
0
 30
0.0
 11
1550.5
 21
1.18
 31
0.0
  0
LINE
  8
QUOTE
 62
5
 10
1550
 20
3.7
 30
0.0
 11
1549.5
 21
2.52
 31
0.0
  0
LINE
  8
QUOTE
 62
5
 10
1550
 20
3.7
 30
0.0
 11
1550.5
 21
2.52
 31
0.0
  0
TEXT
  8
QUOTE
 62
5
 10
1555
 20
2
 30
0.0
 40
8
 50
90
  1
3.7
  0
LINE
  8
QUOTE
 62
5
 10
1550
 20
-55
 30
0.0
 11
1550
 21
-60
 31
0.0
  0
TEXT
  8
TESTO
 62
7
 10
1553
 20
-90
 30
0.0
 40
8
 50
90
  1
1550
  0
LINE
  8
QUOTE
 62
5
 10
1600
 20
0
 30
0.0
 11
1600
 21
1.64
 31
0.0
  0
LINE
  8
QUOTE
 62
5
 10
1600
 20
0
 30
0.0
 11
1599.58
 21
1
 31
0.0
  0
LINE
  8
QUOTE
 62
5
 10
1600
 20
0
 30
0.0
 11
1600.42
 21
1
 31
0.0
  0
LINE
  8
QUOTE
 62
5
 10
1600
 20
1.64
 30
0.0
 11
1599.58
 21
0.64
 31
0.0
  0
LINE
  8
QUOTE
 62
5
 10
1600
 20
1.64
 30
0.0
 11
1600.42
 21
0.64
 31
0.0
  0
TEXT
  8
QUOTE
 62
5
 10
1605
 20
2
 30
0.0
 40
8
 50
90
  1
1.6
  0
LINE
  8
QUOTE
 62
5
 10
1600
 20
-55
 30
0.0
 11
1600
 21
-60
 31
0.0
  0
TEXT
  8
TESTO
 62
7
 10
1603
 20
-90
 30
0.0
 40
8
 50
90
  1
1600
  0
LINE
  8
QUOTE
 62
5
 10
1650
 20
0
 30
0.0
 11
1650
 21
0.41
 31
0.0
  0
LINE
  8
QUOTE
 62
5
 10
1650
 20
0
 30
0.0
 11
1649.58
 21
1
 31
0.0
  0
LINE
  8
QUOTE
 62
5
 10
1650
 20
0
 30
0.0
 11
1650.42
 21
1
 31
0.0
  0
LINE
  8
QUOTE
 62
5
 10
1650
 20
0.41
 30
0.0
 11
1649.58
 21
-0.59
 31
0.0
  0
LINE
  8
QUOTE
 62
5
 10
1650
 20
0.41
 30
0.0
 11
1650.42
 21
-0.59
 31
0.0
  0
TEXT
  8
QUOTE
 62
5
 10
1655
 20
2
 30
0.0
 40
8
 50
90
  1
0.4
  0
LINE
  8
QUOTE
 62
5
 10
1650
 20
-55
 30
0.0
 11
1650
 21
-60
 31
0.0
  0
TEXT
  8
TESTO
 62
7
 10
1653
 20
-90
 30
0.0
 40
8
 50
90
  1
1650
  0
TEXT
  8
QUOTE
 62
5
 10
1705
 20
2
 30
0.0
 40
8
 50
90
  1
0.0
  0
LINE
  8
QUOTE
 62
5
 10
1700
 20
-55
 30
0.0
 11
1700
 21
-60
 31
0.0
  0
TEXT
  8
TESTO
 62
7
 10
1703
 20
-90
 30
0.0
 40
8
 50
90
  1
1700
  0
LINE
  8
QUOTE
 62
5
 10
-430
 20
0
 30
0.0
 11
-430
 21
380
 31
0.0
  0
LINE
  8
QUOTE
 62
5
 10
-436
 20
-6
 30
0.0
 11
-424
 21
6
 31
0.0
  0
LINE
  8
QUOTE
 62
5
 10
-436
 20
374
 30
0.0
 11
-424
 21
386
 31
0.0
  0
TEXT
  8
QUOTE
 62
5
 10
-470
 20
170
 30
0.0
 40
9
 50
90
  1
H = 380
  0
LINE
  8
REF
 62
8
 10
-430
 20
380
 30
0.0
 11
0
 21
380
 31
0.0
  0
LINE
  8
QUOTE
 62
5
 10
0
 20
410
 30
0.0
 11
1700
 21
410
 31
0.0
  0
LINE
  8
QUOTE
 62
5
 10
-6
 20
404
 30
0.0
 11
6
 21
416
 31
0.0
  0
LINE
  8
QUOTE
 62
5
 10
1694
 20
404
 30
0.0
 11
1706
 21
416
 31
0.0
  0
TEXT
  8
QUOTE
 62
5
 10
806
 20
416
 30
0.0
 40
9
  1
L = 1700 cm
  0
LINE
  8
REF
 62
8
 10
0
 20
380
 30
0.0
 11
0
 21
410
 31
0.0
  0
LINE
  8
REF
 62
8
 10
1700
 20
0
 30
0.0
 11
1700
 21
410
 31
0.0
  0
TEXT
  8
TESTO
 62
7
 10
-650
 20
-140
 30
0.0
 40
9
  1
NB: progressive e quote su proiezione ORIZZONTALE; i raccordi sono archi di cerchio. Disegno preliminare, da verificare in sito.
  0
ENDSEC
  0
EOF
