  0
SECTION
  2
HEADER
  9
$ACADVER
  1
AC1009
  9
$EXTMIN
 10
-600.0
 20
-1980.0
 30
0.0
  9
$EXTMAX
 10
2400.0
 20
780.0
 30
0.0
  9
$LIMMIN
 10
-600.0
 20
-200.0
  9
$LIMMAX
 10
2400.0
 20
600.0
  9
$LTSCALE
 40
10.0
  9
$INSUNITS
 70
5
  0
ENDSEC
  0
SECTION
  2
TABLES
  0
TABLE
  2
LTYPE
 70
2
  0
LTYPE
  2
CONTINUOUS
 70
64
  3
Solid line
 72
65
 73
0
 40
0.0
  0
LTYPE
  2
DASHED
 70
64
  3
_ _ _ _ _
 72
65
 73
2
 40
20.0
 49
12.0
 49
-8.0
  0
ENDTAB
  0
TABLE
  2
LAYER
 70
7
  0
LAYER
  2
0
 70
64
 62
7
  6
CONTINUOUS
  0
LAYER
  2
RAMPA
 70
64
 62
3
  6
CONTINUOUS
  0
LAYER
  2
CARROZZERIA
 70
64
 62
2
  6
CONTINUOUS
  0
LAYER
  2
RUOTE
 70
64
 62
4
  6
CONTINUOUS
  0
LAYER
  2
CRITICO
 70
64
 62
1
  6
CONTINUOUS
  0
LAYER
  2
QUOTE
 70
64
 62
5
  6
CONTINUOUS
  0
LAYER
  2
TESTO
 70
64
 62
7
  6
CONTINUOUS
  0
LAYER
  2
REF
 70
64
 62
8
  6
DASHED
  0
ENDTAB
  0
TABLE
  2
STYLE
 70
1
  0
STYLE
  2
STANDARD
 70
0
 40
0.0
 41
1.0
 50
0.0
 71
0
 42
2.5
  3
txt
  4

  0
ENDTAB
  0
ENDSEC
  0
SECTION
  2
ENTITIES
  0
TEXT
  8
TESTO
 10
-560
 20
740
 30
0.0
 40
18
  1
PROFILO OTTIMIZZATO ESTREMO - SWEEP CONTINUO E CONFRONTO LUCE (h = 8 / 9 / 10 cm)
  0
TEXT
  8
TESTO
 10
-560
 20
712
 30
0.0
 40
9
  1
Profilo che MASSIMIZZA la clearance a H=380, L=1700 fissi: CREST R=950, retto 13 cm, SAG R=3042, pendenza di picco 47% (theta=25 deg). Vettura: corpo rigido su 2 ruote, muso verso il garage.
  0
TEXT
  8
TESTO
 10
-560
 20
695
 30
0.0
 40
9
  1
Sagoma disegnata ogni 150 cm lungo tutto il percorso (piu' la posa critica); colore = stato PEGGIORE tra paraurti anteriore, posteriore e ventre in quella posa.
  0
TEXT
  8
TESTO
 10
-560
 20
672
 30
0.0
 40
10
  1
LEGENDA:
  0
LINE
  8
REF
 62
90
 10
-430
 20
675
 30
0.0
 11
-360
 21
675
 31
0.0
  0
TEXT
  8
TESTO
 62
90
 10
-350
 20
679
 30
0.0
 40
9
  1
VERDE  = sicuro (clearance >= 1.0 cm)
  0
LINE
  8
REF
 62
30
 10
-430
 20
657
 30
0.0
 11
-360
 21
657
 31
0.0
  0
TEXT
  8
TESTO
 62
30
 10
-350
 20
661
 30
0.0
 40
9
  1
ARANCIO = a rischio (0 .. 1.0 cm)
  0
LINE
  8
REF
 62
1
 10
-430
 20
639
 30
0.0
 11
-360
 21
639
 31
0.0
  0
TEXT
  8
TESTO
 62
1
 10
-350
 20
643
 30
0.0
 40
9
  1
ROSSO  = collisione (clearance < 0)
  0
LINE
  8
RAMPA
 10
-560
 20
380
 30
0.0
 11
0
 21
380
 31
0.0
  0
ARC
  8
RAMPA
 10
0
 20
-570
 30
0.0
 40
950
 50
65
 51
90
  0
LINE
  8
RAMPA
 10
401.49
 20
290.99
 30
0.0
 11
414.24
 21
285.05
 31
0.0
  0
ARC
  8
RAMPA
 10
1700
 20
3042.37
 30
0.0
 40
3042.37
 50
245
 51
270
  0
LINE
  8
RAMPA
 10
1700
 20
0
 30
0.0
 11
2360
 21
0
 31
0.0
  0
TEXT
  8
TESTO
 10
-545
 20
392
 30
0.0
 40
11
  1
STRADA
  0
TEXT
  8
TESTO
 10
2175
 20
14
 30
0.0
 40
11
  1
GARAGE
  0
LINE
  8
CARROZZERIA
 62
90
 10
95.58
 20
410.64
 30
0.0
 11
85.59
 21
410.81
 31
0.0
  0
LINE
  8
CARROZZERIA
 62
90
 10
90.5
 20
405.73
 30
0.0
 11
90.67
 21
415.72
 31
0.0
  0
LINE
  8
CARROZZERIA
 62
90
 10
-144.38
 20
414.91
 30
0.0
 11
-154.38
 21
415.08
 31
0.0
  0
LINE
  8
CARROZZERIA
 62
90
 10
-149.47
 20
410
 30
0.0
 11
-149.29
 21
419.99
 31
0.0
  0
LINE
  8
CARROZZERIA
 62
90
 10
230.08
 20
381.24
 30
0.0
 11
124.8
 21
383.11
 31
0.0
  0
LINE
  8
CARROZZERIA
 62
90
 10
55.41
 20
384.35
 30
0.0
 11
-115.16
 21
387.38
 31
0.0
  0
LINE
  8
CARROZZERIA
 62
90
 10
-184.55
 20
388.62
 30
0.0
 11
-269.84
 21
390.13
 31
0.0
  0
LINE
  8
CARROZZERIA
 62
90
 10
230.08
 20
381.24
 30
0.0
 11
230.56
 21
408.23
 31
0.0
  0
LINE
  8
CARROZZERIA
 62
90
 10
230.56
 20
408.23
 30
0.0
 11
218.87
 21
425.45
 31
0.0
  0
LINE
  8
CARROZZERIA
 62
90
 10
218.87
 20
425.45
 30
0.0
 11
203.05
 21
435.73
 31
0.0
  0
LINE
  8
CARROZZERIA
 62
90
 10
203.05
 20
435.73
 30
0.0
 11
166.23
 21
446.39
 31
0.0
  0
LINE
  8
CARROZZERIA
 62
90
 10
166.23
 20
446.39
 30
0.0
 11
116.38
 21
455.27
 31
0.0
  0
LINE
  8
CARROZZERIA
 62
90
 10
116.38
 20
455.27
 30
0.0
 11
86.44
 21
458.81
 31
0.0
  0
LINE
  8
CARROZZERIA
 62
90
 10
86.44
 20
458.81
 30
0.0
 11
54.24
 21
504.39
 31
0.0
  0
LINE
  8
CARROZZERIA
 62
90
 10
54.24
 20
504.39
 30
0.0
 11
-72.73
 21
506.65
 31
0.0
  0
LINE
  8
CARROZZERIA
 62
90
 10
-72.73
 20
506.65
 30
0.0
 11
-118.17
 21
482.45
 31
0.0
  0
LINE
  8
CARROZZERIA
 62
90
 10
-118.17
 20
482.45
 30
0.0
 11
-178.2
 21
481.52
 31
0.0
  0
LINE
  8
CARROZZERIA
 62
90
 10
-178.2
 20
481.52
 30
0.0
 11
-228.6
 21
459.41
 31
0.0
  0
LINE
  8
CARROZZERIA
 62
90
 10
-228.6
 20
459.41
 30
0.0
 11
-269.06
 21
434.13
 31
0.0
  0
LINE
  8
CARROZZERIA
 62
90
 10
-269.06
 20
434.13
 30
0.0
 11
-269.84
 21
390.13
 31
0.0
  0
LINE
  8
CARROZZERIA
 62
90
 10
-165.2
 20
481.29
 30
0.0
 11
-164.36
 21
528.28
 31
0.0
  0
LINE
  8
CARROZZERIA
 62
90
 10
-186.2
 20
481.66
 30
0.0
 11
-185.36
 21
528.65
 31
0.0
  0
LINE
  8
CARROZZERIA
 62
90
 10
-140.33
 20
529.85
 30
0.0
 11
-210.32
 21
531.1
 31
0.0
  0
LINE
  8
CARROZZERIA
 62
90
 10
-140.4
 20
525.85
 30
0.0
 11
-210.39
 21
527.1
 31
0.0
  0
LINE
  8
CARROZZERIA
 62
90
 10
-140.4
 20
525.85
 30
0.0
 11
-140.33
 21
529.85
 31
0.0
  0
LINE
  8
CARROZZERIA
 62
90
 10
-210.39
 20
527.1
 30
0.0
 11
-210.32
 21
531.1
 31
0.0
  0
CIRCLE
  8
CARROZZERIA
 62
90
 10
90.58
 20
410.73
 30
0.0
 40
35
  0
CIRCLE
  8
CARROZZERIA
 62
90
 10
-149.38
 20
414.99
 30
0.0
 40
35
  0
LINE
  8
CARROZZERIA
 62
30
 10
247.46
 20
383.77
 30
0.0
 11
237.54
 21
385.04
 31
0.0
  0
LINE
  8
CARROZZERIA
 62
30
 10
241.87
 20
379.44
 30
0.0
 11
243.13
 21
389.36
 31
0.0
  0
LINE
  8
CARROZZERIA
 62
30
 10
9.38
 20
414.09
 30
0.0
 11
-0.54
 21
415.35
 31
0.0
  0
LINE
  8
CARROZZERIA
 62
30
 10
3.79
 20
409.76
 30
0.0
 11
5.05
 21
419.68
 31
0.0
  0
LINE
  8
CARROZZERIA
 62
30
 10
377.97
 20
339.94
 30
0.0
 11
273.51
 21
353.24
 31
0.0
  0
LINE
  8
CARROZZERIA
 62
30
 10
204.67
 20
362
 30
0.0
 11
35.43
 21
383.55
 31
0.0
  0
LINE
  8
CARROZZERIA
 62
30
 10
-33.41
 20
392.32
 30
0.0
 11
-118.03
 21
403.09
 31
0.0
  0
LINE
  8
CARROZZERIA
 62
30
 10
377.97
 20
339.94
 30
0.0
 11
381.38
 21
366.72
 31
0.0
  0
LINE
  8
CARROZZERIA
 62
30
 10
381.38
 20
366.72
 30
0.0
 11
371.62
 21
385.1
 31
0.0
  0
LINE
  8
CARROZZERIA
 62
30
 10
371.62
 20
385.1
 30
0.0
 11
357.01
 21
397.04
 31
0.0
  0
LINE
  8
CARROZZERIA
 62
30
 10
357.01
 20
397.04
 30
0.0
 11
321.57
 21
411.63
 31
0.0
  0
LINE
  8
CARROZZERIA
 62
30
 10
321.57
 20
411.63
 30
0.0
 11
272.98
 21
425.89
 31
0.0
  0
LINE
  8
CARROZZERIA
 62
30
 10
272.98
 20
425.89
 30
0.0
 11
243.6
 21
432.65
 31
0.0
  0
LINE
  8
CARROZZERIA
 62
30
 10
243.6
 20
432.65
 30
0.0
 11
216.55
 21
481.46
 31
0.0
  0
LINE
  8
CARROZZERIA
 62
30
 10
216.55
 20
481.46
 30
0.0
 11
90.57
 21
497.5
 31
0.0
  0
LINE
  8
CARROZZERIA
 62
30
 10
90.57
 20
497.5
 30
0.0
 11
42.77
 21
478.39
 31
0.0
  0
LINE
  8
CARROZZERIA
 62
30
 10
42.77
 20
478.39
 30
0.0
 11
-17
 21
483.98
 31
0.0
  0
LINE
  8
CARROZZERIA
 62
30
 10
-17
 20
483.98
 30
0.0
 11
-69.51
 21
467.48
 31
0.0
  0
LINE
  8
CARROZZERIA
 62
30
 10
-69.51
 20
467.48
 30
0.0
 11
-112.47
 21
446.74
 31
0.0
  0
LINE
  8
CARROZZERIA
 62
30
 10
-112.47
 20
446.74
 30
0.0
 11
-118.03
 21
403.09
 31
0.0
  0
LINE
  8
CARROZZERIA
 62
30
 10
-4.11
 20
482.34
 30
0.0
 11
1.83
 21
528.96
 31
0.0
  0
LINE
  8
CARROZZERIA
 62
30
 10
-24.94
 20
484.99
 30
0.0
 11
-19
 21
531.61
 31
0.0
  0
LINE
  8
CARROZZERIA
 62
30
 10
25.89
 20
527.91
 30
0.0
 11
-43.55
 21
536.76
 31
0.0
  0
LINE
  8
CARROZZERIA
 62
30
 10
25.39
 20
523.95
 30
0.0
 11
-44.05
 21
532.79
 31
0.0
  0
LINE
  8
CARROZZERIA
 62
30
 10
25.39
 20
523.95
 30
0.0
 11
25.89
 21
527.91
 31
0.0
  0
LINE
  8
CARROZZERIA
 62
30
 10
-44.05
 20
532.79
 30
0.0
 11
-43.55
 21
536.76
 31
0.0
  0
CIRCLE
  8
CARROZZERIA
 62
30
 10
242.5
 20
384.4
 30
0.0
 40
35
  0
CIRCLE
  8
CARROZZERIA
 62
30
 10
4.42
 20
414.72
 30
0.0
 40
35
  0
LINE
  8
CARROZZERIA
 62
30
 10
394.95
 20
332.74
 30
0.0
 11
385.35
 21
335.55
 31
0.0
  0
LINE
  8
CARROZZERIA
 62
30
 10
388.75
 20
329.34
 30
0.0
 11
391.56
 21
338.94
 31
0.0
  0
LINE
  8
CARROZZERIA
 62
30
 10
164.65
 20
400.26
 30
0.0
 11
155.05
 21
403.08
 31
0.0
  0
LINE
  8
CARROZZERIA
 62
30
 10
158.44
 20
396.87
 30
0.0
 11
161.25
 21
406.47
 31
0.0
  0
LINE
  8
CARROZZERIA
 62
30
 10
516.9
 20
268.84
 30
0.0
 11
415.85
 21
298.47
 31
0.0
  0
LINE
  8
CARROZZERIA
 62
30
 10
349.26
 20
318
 30
0.0
 11
185.55
 21
366
 31
0.0
  0
LINE
  8
CARROZZERIA
 62
30
 10
118.95
 20
385.52
 30
0.0
 11
37.1
 21
409.52
 31
0.0
  0
LINE
  8
CARROZZERIA
 62
30
 10
516.9
 20
268.84
 30
0.0
 11
524.5
 21
294.75
 31
0.0
  0
LINE
  8
CARROZZERIA
 62
30
 10
524.5
 20
294.75
 30
0.0
 11
517.76
 21
314.44
 31
0.0
  0
LINE
  8
CARROZZERIA
 62
30
 10
517.76
 20
314.44
 30
0.0
 11
505.22
 21
328.54
 31
0.0
  0
LINE
  8
CARROZZERIA
 62
30
 10
505.22
 20
328.54
 30
0.0
 11
472.53
 21
348.55
 31
0.0
  0
LINE
  8
CARROZZERIA
 62
30
 10
472.53
 20
348.55
 30
0.0
 11
426.8
 21
370.29
 31
0.0
  0
LINE
  8
CARROZZERIA
 62
30
 10
426.8
 20
370.29
 30
0.0
 11
398.86
 21
381.61
 31
0.0
  0
LINE
  8
CARROZZERIA
 62
30
 10
398.86
 20
381.61
 30
0.0
 11
379.85
 21
434.08
 31
0.0
  0
LINE
  8
CARROZZERIA
 62
30
 10
379.85
 20
434.08
 30
0.0
 11
257.98
 21
469.81
 31
0.0
  0
LINE
  8
CARROZZERIA
 62
30
 10
257.98
 20
469.81
 30
0.0
 11
207.77
 21
458.48
 31
0.0
  0
LINE
  8
CARROZZERIA
 62
30
 10
207.77
 20
458.48
 30
0.0
 11
149.63
 21
473.44
 31
0.0
  0
LINE
  8
CARROZZERIA
 62
30
 10
149.63
 20
473.44
 30
0.0
 11
95.18
 21
465.44
 31
0.0
  0
LINE
  8
CARROZZERIA
 62
30
 10
95.18
 20
465.44
 30
0.0
 11
49.48
 21
451.75
 31
0.0
  0
LINE
  8
CARROZZERIA
 62
30
 10
49.48
 20
451.75
 30
0.0
 11
37.1
 21
409.52
 31
0.0
  0
LINE
  8
CARROZZERIA
 62
30
 10
162.1
 20
469.79
 30
0.0
 11
175.33
 21
514.89
 31
0.0
  0
LINE
  8
CARROZZERIA
 62
30
 10
141.95
 20
475.69
 30
0.0
 11
155.18
 21
520.8
 31
0.0
  0
LINE
  8
CARROZZERIA
 62
30
 10
198.92
 20
510.05
 30
0.0
 11
131.75
 21
529.75
 31
0.0
  0
LINE
  8
CARROZZERIA
 62
30
 10
197.8
 20
506.22
 30
0.0
 11
130.62
 21
525.91
 31
0.0
  0
LINE
  8
CARROZZERIA
 62
30
 10
197.8
 20
506.22
 30
0.0
 11
198.92
 21
510.05
 31
0.0
  0
LINE
  8
CARROZZERIA
 62
30
 10
130.62
 20
525.91
 30
0.0
 11
131.75
 21
529.75
 31
0.0
  0
CIRCLE
  8
CARROZZERIA
 62
30
 10
390.15
 20
334.14
 30
0.0
 40
35
  0
CIRCLE
  8
CARROZZERIA
 62
30
 10
159.85
 20
401.67
 30
0.0
 40
35
  0
LINE
  8
CARROZZERIA
 62
90
 10
539.24
 20
268.02
 30
0.0
 11
530.03
 21
271.92
 31
0.0
  0
LINE
  8
CARROZZERIA
 62
90
 10
532.68
 20
265.37
 30
0.0
 11
536.58
 21
274.57
 31
0.0
  0
LINE
  8
CARROZZERIA
 62
90
 10
318.26
 20
361.66
 30
0.0
 11
309.05
 21
365.56
 31
0.0
  0
LINE
  8
CARROZZERIA
 62
90
 10
311.71
 20
359.01
 30
0.0
 11
315.61
 21
368.22
 31
0.0
  0
LINE
  8
CARROZZERIA
 62
90
 10
653
 20
190.49
 30
0.0
 11
556.05
 21
231.57
 31
0.0
  0
LINE
  8
CARROZZERIA
 62
90
 10
492.15
 20
258.65
 30
0.0
 11
335.07
 21
325.21
 31
0.0
  0
LINE
  8
CARROZZERIA
 62
90
 10
271.17
 20
352.29
 30
0.0
 11
192.63
 21
385.58
 31
0.0
  0
LINE
  8
CARROZZERIA
 62
90
 10
653
 20
190.49
 30
0.0
 11
663.54
 21
215.35
 31
0.0
  0
LINE
  8
CARROZZERIA
 62
90
 10
663.54
 20
215.35
 30
0.0
 11
659.12
 21
235.68
 31
0.0
  0
LINE
  8
CARROZZERIA
 62
90
 10
659.12
 20
235.68
 30
0.0
 11
648.29
 21
251.13
 31
0.0
  0
LINE
  8
CARROZZERIA
 62
90
 10
648.29
 20
251.13
 30
0.0
 11
618.13
 21
274.77
 31
0.0
  0
LINE
  8
CARROZZERIA
 62
90
 10
618.13
 20
274.77
 30
0.0
 11
575.21
 21
301.65
 31
0.0
  0
LINE
  8
CARROZZERIA
 62
90
 10
575.21
 20
301.65
 30
0.0
 11
548.76
 21
316.12
 31
0.0
  0
LINE
  8
CARROZZERIA
 62
90
 10
548.76
 20
316.12
 30
0.0
 11
535.93
 21
370.43
 31
0.0
  0
LINE
  8
CARROZZERIA
 62
90
 10
535.93
 20
370.43
 30
0.0
 11
419
 21
419.98
 31
0.0
  0
LINE
  8
CARROZZERIA
 62
90
 10
419
 20
419.98
 30
0.0
 11
367.81
 21
414.52
 31
0.0
  0
LINE
  8
CARROZZERIA
 62
90
 10
367.81
 20
414.52
 30
0.0
 11
311.79
 21
436.09
 31
0.0
  0
LINE
  8
CARROZZERIA
 62
90
 10
311.79
 20
436.09
 30
0.0
 11
256.77
 21
434.42
 31
0.0
  0
LINE
  8
CARROZZERIA
 62
90
 10
256.77
 20
434.42
 30
0.0
 11
209.8
 21
426.09
 31
0.0
  0
LINE
  8
CARROZZERIA
 62
90
 10
209.8
 20
426.09
 30
0.0
 11
192.63
 21
385.58
 31
0.0
  0
LINE
  8
CARROZZERIA
 62
90
 10
323.76
 20
431.02
 30
0.0
 11
342.09
 21
474.29
 31
0.0
  0
LINE
  8
CARROZZERIA
 62
90
 10
304.42
 20
439.21
 30
0.0
 11
322.76
 21
482.48
 31
0.0
  0
LINE
  8
CARROZZERIA
 62
90
 10
364.97
 20
466.77
 30
0.0
 11
300.52
 21
494.08
 31
0.0
  0
LINE
  8
CARROZZERIA
 62
90
 10
363.41
 20
463.08
 30
0.0
 11
298.96
 21
490.4
 31
0.0
  0
LINE
  8
CARROZZERIA
 62
90
 10
363.41
 20
463.08
 30
0.0
 11
364.97
 21
466.77
 31
0.0
  0
LINE
  8
CARROZZERIA
 62
90
 10
298.96
 20
490.4
 30
0.0
 11
300.52
 21
494.08
 31
0.0
  0
CIRCLE
  8
CARROZZERIA
 62
90
 10
534.63
 20
269.97
 30
0.0
 40
35
  0
CIRCLE
  8
CARROZZERIA
 62
90
 10
313.66
 20
363.61
 30
0.0
 40
35
  0
LINE
  8
CARROZZERIA
 62
1
 10
653.48
 20
222.71
 30
0.0
 11
644.26
 21
226.58
 31
0.0
  0
LINE
  8
CARROZZERIA
 62
1
 10
646.94
 20
220.04
 30
0.0
 11
650.8
 21
229.26
 31
0.0
  0
LINE
  8
CARROZZERIA
 62
1
 10
432.14
 20
315.5
 30
0.0
 11
422.92
 21
319.37
 31
0.0
  0
LINE
  8
CARROZZERIA
 62
1
 10
425.6
 20
312.82
 30
0.0
 11
429.46
 21
322.05
 31
0.0
  0
LINE
  8
CARROZZERIA
 62
1
 10
767.54
 20
145.62
 30
0.0
 11
670.43
 21
186.33
 31
0.0
  0
LINE
  8
CARROZZERIA
 62
1
 10
606.43
 20
213.16
 30
0.0
 11
449.09
 21
279.12
 31
0.0
  0
LINE
  8
CARROZZERIA
 62
1
 10
385.09
 20
305.95
 30
0.0
 11
306.42
 21
338.93
 31
0.0
  0
LINE
  8
CARROZZERIA
 62
1
 10
767.54
 20
145.62
 30
0.0
 11
777.98
 21
170.52
 31
0.0
  0
LINE
  8
CARROZZERIA
 62
1
 10
777.98
 20
170.52
 30
0.0
 11
773.49
 21
190.84
 31
0.0
  0
LINE
  8
CARROZZERIA
 62
1
 10
773.49
 20
190.84
 30
0.0
 11
762.6
 21
206.25
 31
0.0
  0
LINE
  8
CARROZZERIA
 62
1
 10
762.6
 20
206.25
 30
0.0
 11
732.34
 21
229.77
 31
0.0
  0
LINE
  8
CARROZZERIA
 62
1
 10
732.34
 20
229.77
 30
0.0
 11
689.32
 21
256.48
 31
0.0
  0
LINE
  8
CARROZZERIA
 62
1
 10
689.32
 20
256.48
 30
0.0
 11
662.82
 21
270.85
 31
0.0
  0
LINE
  8
CARROZZERIA
 62
1
 10
662.82
 20
270.85
 30
0.0
 11
649.78
 21
325.11
 31
0.0
  0
LINE
  8
CARROZZERIA
 62
1
 10
649.78
 20
325.11
 30
0.0
 11
532.66
 21
374.21
 31
0.0
  0
LINE
  8
CARROZZERIA
 62
1
 10
532.66
 20
374.21
 30
0.0
 11
481.49
 21
368.55
 31
0.0
  0
LINE
  8
CARROZZERIA
 62
1
 10
481.49
 20
368.55
 30
0.0
 11
425.38
 21
389.9
 31
0.0
  0
LINE
  8
CARROZZERIA
 62
1
 10
425.38
 20
389.9
 30
0.0
 11
370.38
 21
388.02
 31
0.0
  0
LINE
  8
CARROZZERIA
 62
1
 10
370.38
 20
388.02
 30
0.0
 11
323.44
 21
379.51
 31
0.0
  0
LINE
  8
CARROZZERIA
 62
1
 10
323.44
 20
379.51
 30
0.0
 11
306.42
 21
338.93
 31
0.0
  0
LINE
  8
CARROZZERIA
 62
1
 10
437.37
 20
384.88
 30
0.0
 11
455.54
 21
428.22
 31
0.0
  0
LINE
  8
CARROZZERIA
 62
1
 10
418
 20
393
 30
0.0
 11
436.17
 21
436.34
 31
0.0
  0
LINE
  8
CARROZZERIA
 62
1
 10
478.45
 20
420.79
 30
0.0
 11
413.89
 21
447.85
 31
0.0
  0
LINE
  8
CARROZZERIA
 62
1
 10
476.9
 20
417.1
 30
0.0
 11
412.35
 21
444.16
 31
0.0
  0
LINE
  8
CARROZZERIA
 62
1
 10
476.9
 20
417.1
 30
0.0
 11
478.45
 21
420.79
 31
0.0
  0
LINE
  8
CARROZZERIA
 62
1
 10
412.35
 20
444.16
 30
0.0
 11
413.89
 21
447.85
 31
0.0
  0
CIRCLE
  8
CARROZZERIA
 62
1
 10
648.87
 20
224.65
 30
0.0
 40
35
  0
CIRCLE
  8
CARROZZERIA
 62
1
 10
427.53
 20
317.44
 30
0.0
 40
35
  0
LINE
  8
CARROZZERIA
 62
1
 10
690.27
 20
209.33
 30
0.0
 11
681
 21
213.08
 31
0.0
  0
LINE
  8
CARROZZERIA
 62
1
 10
683.76
 20
206.57
 30
0.0
 11
687.51
 21
215.84
 31
0.0
  0
LINE
  8
CARROZZERIA
 62
1
 10
467.75
 20
299.23
 30
0.0
 11
458.47
 21
302.98
 31
0.0
  0
LINE
  8
CARROZZERIA
 62
1
 10
461.24
 20
296.47
 30
0.0
 11
464.98
 21
305.74
 31
0.0
  0
LINE
  8
CARROZZERIA
 62
1
 10
805.33
 20
133.73
 30
0.0
 11
707.7
 21
173.17
 31
0.0
  0
LINE
  8
CARROZZERIA
 62
1
 10
643.35
 20
199.17
 30
0.0
 11
485.17
 21
263.07
 31
0.0
  0
LINE
  8
CARROZZERIA
 62
1
 10
420.82
 20
289.07
 30
0.0
 11
341.73
 21
321.02
 31
0.0
  0
LINE
  8
CARROZZERIA
 62
1
 10
805.33
 20
133.73
 30
0.0
 11
815.44
 21
158.76
 31
0.0
  0
LINE
  8
CARROZZERIA
 62
1
 10
815.44
 20
158.76
 30
0.0
 11
810.69
 21
179.02
 31
0.0
  0
LINE
  8
CARROZZERIA
 62
1
 10
810.69
 20
179.02
 30
0.0
 11
799.6
 21
194.28
 31
0.0
  0
LINE
  8
CARROZZERIA
 62
1
 10
799.6
 20
194.28
 30
0.0
 11
769.04
 21
217.42
 31
0.0
  0
LINE
  8
CARROZZERIA
 62
1
 10
769.04
 20
217.42
 30
0.0
 11
725.67
 21
243.56
 31
0.0
  0
LINE
  8
CARROZZERIA
 62
1
 10
725.67
 20
243.56
 30
0.0
 11
698.98
 21
257.58
 31
0.0
  0
LINE
  8
CARROZZERIA
 62
1
 10
698.98
 20
257.58
 30
0.0
 11
685.24
 21
311.67
 31
0.0
  0
LINE
  8
CARROZZERIA
 62
1
 10
685.24
 20
311.67
 30
0.0
 11
567.49
 21
359.24
 31
0.0
  0
LINE
  8
CARROZZERIA
 62
1
 10
567.49
 20
359.24
 30
0.0
 11
516.4
 21
352.91
 31
0.0
  0
LINE
  8
CARROZZERIA
 62
1
 10
516.4
 20
352.91
 30
0.0
 11
460.02
 21
373.54
 31
0.0
  0
LINE
  8
CARROZZERIA
 62
1
 10
460.02
 20
373.54
 30
0.0
 11
405.04
 21
370.94
 31
0.0
  0
LINE
  8
CARROZZERIA
 62
1
 10
405.04
 20
370.94
 30
0.0
 11
358.22
 21
361.82
 31
0.0
  0
LINE
  8
CARROZZERIA
 62
1
 10
358.22
 20
361.82
 30
0.0
 11
341.73
 21
321.02
 31
0.0
  0
LINE
  8
CARROZZERIA
 62
1
 10
472.07
 20
368.67
 30
0.0
 11
489.68
 21
412.24
 31
0.0
  0
LINE
  8
CARROZZERIA
 62
1
 10
452.6
 20
376.53
 30
0.0
 11
470.21
 21
420.11
 31
0.0
  0
LINE
  8
CARROZZERIA
 62
1
 10
512.68
 20
405.11
 30
0.0
 11
447.77
 21
431.33
 31
0.0
  0
LINE
  8
CARROZZERIA
 62
1
 10
511.18
 20
401.4
 30
0.0
 11
446.28
 21
427.62
 31
0.0
  0
LINE
  8
CARROZZERIA
 62
1
 10
511.18
 20
401.4
 30
0.0
 11
512.68
 21
405.11
 31
0.0
  0
LINE
  8
CARROZZERIA
 62
1
 10
446.28
 20
427.62
 30
0.0
 11
447.77
 21
431.33
 31
0.0
  0
CIRCLE
  8
CARROZZERIA
 62
1
 10
685.64
 20
211.2
 30
0.0
 40
35
  0
CIRCLE
  8
CARROZZERIA
 62
1
 10
463.11
 20
301.1
 30
0.0
 40
35
  0
LINE
  8
CARROZZERIA
 62
1
 10
843.1
 20
159.42
 30
0.0
 11
833.64
 21
162.67
 31
0.0
  0
LINE
  8
CARROZZERIA
 62
1
 10
836.75
 20
156.32
 30
0.0
 11
839.99
 21
165.77
 31
0.0
  0
LINE
  8
CARROZZERIA
 62
1
 10
616.09
 20
237.3
 30
0.0
 11
606.63
 21
240.55
 31
0.0
  0
LINE
  8
CARROZZERIA
 62
1
 10
609.74
 20
234.2
 30
0.0
 11
612.98
 21
243.66
 31
0.0
  0
LINE
  8
CARROZZERIA
 62
1
 10
962.03
 20
90.08
 30
0.0
 11
862.43
 21
124.25
 31
0.0
  0
LINE
  8
CARROZZERIA
 62
1
 10
796.79
 20
146.77
 30
0.0
 11
635.42
 21
202.13
 31
0.0
  0
LINE
  8
CARROZZERIA
 62
1
 10
569.77
 20
224.65
 30
0.0
 11
489.09
 21
252.33
 31
0.0
  0
LINE
  8
CARROZZERIA
 62
1
 10
962.03
 20
90.08
 30
0.0
 11
970.79
 21
115.61
 31
0.0
  0
LINE
  8
CARROZZERIA
 62
1
 10
970.79
 20
115.61
 30
0.0
 11
964.96
 21
135.59
 31
0.0
  0
LINE
  8
CARROZZERIA
 62
1
 10
964.96
 20
135.59
 30
0.0
 11
953.07
 21
150.24
 31
0.0
  0
LINE
  8
CARROZZERIA
 62
1
 10
953.07
 20
150.24
 30
0.0
 11
921.32
 21
171.7
 31
0.0
  0
LINE
  8
CARROZZERIA
 62
1
 10
921.32
 20
171.7
 30
0.0
 11
876.62
 21
195.5
 31
0.0
  0
LINE
  8
CARROZZERIA
 62
1
 10
876.62
 20
195.5
 30
0.0
 11
849.22
 21
208.07
 31
0.0
  0
LINE
  8
CARROZZERIA
 62
1
 10
849.22
 20
208.07
 30
0.0
 11
832.61
 21
261.34
 31
0.0
  0
LINE
  8
CARROZZERIA
 62
1
 10
832.61
 20
261.34
 30
0.0
 11
712.48
 21
302.56
 31
0.0
  0
LINE
  8
CARROZZERIA
 62
1
 10
712.48
 20
302.56
 30
0.0
 11
661.8
 21
293.51
 31
0.0
  0
LINE
  8
CARROZZERIA
 62
1
 10
661.8
 20
293.51
 30
0.0
 11
604.4
 21
311.09
 31
0.0
  0
LINE
  8
CARROZZERIA
 62
1
 10
604.4
 20
311.09
 30
0.0
 11
549.64
 21
305.56
 31
0.0
  0
LINE
  8
CARROZZERIA
 62
1
 10
549.64
 20
305.56
 30
0.0
 11
503.37
 21
293.95
 31
0.0
  0
LINE
  8
CARROZZERIA
 62
1
 10
503.37
 20
293.95
 30
0.0
 11
489.09
 21
252.33
 31
0.0
  0
LINE
  8
CARROZZERIA
 62
1
 10
616.69
 20
306.87
 30
0.0
 11
631.95
 21
351.33
 31
0.0
  0
LINE
  8
CARROZZERIA
 62
1
 10
596.83
 20
313.69
 30
0.0
 11
612.08
 21
358.14
 31
0.0
  0
LINE
  8
CARROZZERIA
 62
1
 10
655.3
 20
345.43
 30
0.0
 11
589.08
 21
368.15
 31
0.0
  0
LINE
  8
CARROZZERIA
 62
1
 10
654
 20
341.65
 30
0.0
 11
587.79
 21
364.36
 31
0.0
  0
LINE
  8
CARROZZERIA
 62
1
 10
654
 20
341.65
 30
0.0
 11
655.3
 21
345.43
 31
0.0
  0
LINE
  8
CARROZZERIA
 62
1
 10
587.79
 20
364.36
 30
0.0
 11
589.08
 21
368.15
 31
0.0
  0
CIRCLE
  8
CARROZZERIA
 62
1
 10
838.37
 20
161.04
 30
0.0
 40
35
  0
CIRCLE
  8
CARROZZERIA
 62
1
 10
611.36
 20
238.93
 30
0.0
 40
35
  0
LINE
  8
CARROZZERIA
 62
1
 10
995.19
 20
118.52
 30
0.0
 11
985.58
 21
121.26
 31
0.0
  0
LINE
  8
CARROZZERIA
 62
1
 10
989.01
 20
115.08
 30
0.0
 11
991.76
 21
124.7
 31
0.0
  0
LINE
  8
CARROZZERIA
 62
1
 10
764.42
 20
184.41
 30
0.0
 11
754.8
 21
187.15
 31
0.0
  0
LINE
  8
CARROZZERIA
 62
1
 10
758.24
 20
180.97
 30
0.0
 11
760.98
 21
190.59
 31
0.0
  0
LINE
  8
CARROZZERIA
 62
1
 10
1117.59
 20
55.49
 30
0.0
 11
1016.34
 21
84.4
 31
0.0
  0
LINE
  8
CARROZZERIA
 62
1
 10
949.61
 20
103.45
 30
0.0
 11
785.56
 21
150.29
 31
0.0
  0
LINE
  8
CARROZZERIA
 62
1
 10
718.83
 20
169.34
 30
0.0
 11
636.81
 21
192.76
 31
0.0
  0
LINE
  8
CARROZZERIA
 62
1
 10
1117.59
 20
55.49
 30
0.0
 11
1125.01
 21
81.45
 31
0.0
  0
LINE
  8
CARROZZERIA
 62
1
 10
1125.01
 20
81.45
 30
0.0
 11
1118.14
 21
101.1
 31
0.0
  0
LINE
  8
CARROZZERIA
 62
1
 10
1118.14
 20
101.1
 30
0.0
 11
1105.5
 21
115.1
 31
0.0
  0
LINE
  8
CARROZZERIA
 62
1
 10
1105.5
 20
115.1
 30
0.0
 11
1072.66
 21
134.88
 31
0.0
  0
LINE
  8
CARROZZERIA
 62
1
 10
1072.66
 20
134.88
 30
0.0
 11
1026.78
 21
156.3
 31
0.0
  0
LINE
  8
CARROZZERIA
 62
1
 10
1026.78
 20
156.3
 30
0.0
 11
998.76
 21
167.42
 31
0.0
  0
LINE
  8
CARROZZERIA
 62
1
 10
998.76
 20
167.42
 30
0.0
 11
979.38
 21
219.75
 31
0.0
  0
LINE
  8
CARROZZERIA
 62
1
 10
979.38
 20
219.75
 30
0.0
 11
857.26
 21
254.62
 31
0.0
  0
LINE
  8
CARROZZERIA
 62
1
 10
857.26
 20
254.62
 30
0.0
 11
807.13
 21
242.93
 31
0.0
  0
LINE
  8
CARROZZERIA
 62
1
 10
807.13
 20
242.93
 30
0.0
 11
748.88
 21
257.48
 31
0.0
  0
LINE
  8
CARROZZERIA
 62
1
 10
748.88
 20
257.48
 30
0.0
 11
694.49
 21
249.09
 31
0.0
  0
LINE
  8
CARROZZERIA
 62
1
 10
694.49
 20
249.09
 30
0.0
 11
648.89
 21
235.07
 31
0.0
  0
LINE
  8
CARROZZERIA
 62
1
 10
648.89
 20
235.07
 30
0.0
 11
636.81
 21
192.76
 31
0.0
  0
LINE
  8
CARROZZERIA
 62
1
 10
761.38
 20
253.91
 30
0.0
 11
774.29
 21
299.11
 31
0.0
  0
LINE
  8
CARROZZERIA
 62
1
 10
741.19
 20
259.68
 30
0.0
 11
754.09
 21
304.87
 31
0.0
  0
LINE
  8
CARROZZERIA
 62
1
 10
797.91
 20
294.44
 30
0.0
 11
730.6
 21
313.66
 31
0.0
  0
LINE
  8
CARROZZERIA
 62
1
 10
796.81
 20
290.59
 30
0.0
 11
729.5
 21
309.81
 31
0.0
  0
LINE
  8
CARROZZERIA
 62
1
 10
796.81
 20
290.59
 30
0.0
 11
797.91
 21
294.44
 31
0.0
  0
LINE
  8
CARROZZERIA
 62
1
 10
729.5
 20
309.81
 30
0.0
 11
730.6
 21
313.66
 31
0.0
  0
CIRCLE
  8
CARROZZERIA
 62
1
 10
990.39
 20
119.89
 30
0.0
 40
35
  0
CIRCLE
  8
CARROZZERIA
 62
1
 10
759.61
 20
185.78
 30
0.0
 40
35
  0
LINE
  8
CARROZZERIA
 62
1
 10
1146.6
 20
86.12
 30
0.0
 11
1136.86
 21
88.37
 31
0.0
  0
LINE
  8
CARROZZERIA
 62
1
 10
1140.6
 20
82.37
 30
0.0
 11
1142.85
 21
92.12
 31
0.0
  0
LINE
  8
CARROZZERIA
 62
1
 10
912.74
 20
140.05
 30
0.0
 11
902.99
 21
142.29
 31
0.0
  0
LINE
  8
CARROZZERIA
 62
1
 10
906.74
 20
136.3
 30
0.0
 11
908.99
 21
146.04
 31
0.0
  0
LINE
  8
CARROZZERIA
 62
1
 10
1272.08
 20
29.48
 30
0.0
 11
1169.47
 21
53.14
 31
0.0
  0
LINE
  8
CARROZZERIA
 62
1
 10
1101.85
 20
68.73
 30
0.0
 11
935.61
 21
107.06
 31
0.0
  0
LINE
  8
CARROZZERIA
 62
1
 10
867.98
 20
122.66
 30
0.0
 11
784.87
 21
141.82
 31
0.0
  0
LINE
  8
CARROZZERIA
 62
1
 10
1272.08
 20
29.48
 30
0.0
 11
1278.15
 21
55.79
 31
0.0
  0
LINE
  8
CARROZZERIA
 62
1
 10
1278.15
 20
55.79
 30
0.0
 11
1270.27
 21
75.05
 31
0.0
  0
LINE
  8
CARROZZERIA
 62
1
 10
1270.27
 20
75.05
 30
0.0
 11
1256.93
 21
88.39
 31
0.0
  0
LINE
  8
CARROZZERIA
 62
1
 10
1256.93
 20
88.39
 30
0.0
 11
1223.12
 21
106.45
 31
0.0
  0
LINE
  8
CARROZZERIA
 62
1
 10
1223.12
 20
106.45
 30
0.0
 11
1176.2
 21
125.48
 31
0.0
  0
LINE
  8
CARROZZERIA
 62
1
 10
1176.2
 20
125.48
 30
0.0
 11
1147.64
 21
135.14
 31
0.0
  0
LINE
  8
CARROZZERIA
 62
1
 10
1147.64
 20
135.14
 30
0.0
 11
1125.6
 21
186.4
 31
0.0
  0
LINE
  8
CARROZZERIA
 62
1
 10
1125.6
 20
186.4
 30
0.0
 11
1001.84
 21
214.94
 31
0.0
  0
LINE
  8
CARROZZERIA
 62
1
 10
1001.84
 20
214.94
 30
0.0
 11
952.38
 21
200.69
 31
0.0
  0
LINE
  8
CARROZZERIA
 62
1
 10
952.38
 20
200.69
 30
0.0
 11
893.46
 21
212.22
 31
0.0
  0
LINE
  8
CARROZZERIA
 62
1
 10
893.46
 20
212.22
 30
0.0
 11
839.57
 21
201.05
 31
0.0
  0
LINE
  8
CARROZZERIA
 62
1
 10
839.57
 20
201.05
 30
0.0
 11
794.75
 21
184.7
 31
0.0
  0
LINE
  8
CARROZZERIA
 62
1
 10
794.75
 20
184.7
 30
0.0
 11
784.87
 21
141.82
 31
0.0
  0
LINE
  8
CARROZZERIA
 62
1
 10
906.13
 20
209.3
 30
0.0
 11
916.69
 21
255.1
 31
0.0
  0
LINE
  8
CARROZZERIA
 62
1
 10
885.67
 20
214.02
 30
0.0
 11
896.23
 21
259.82
 31
0.0
  0
LINE
  8
CARROZZERIA
 62
1
 10
940.53
 20
251.66
 30
0.0
 11
872.31
 21
267.39
 31
0.0
  0
LINE
  8
CARROZZERIA
 62
1
 10
939.63
 20
247.76
 30
0.0
 11
871.42
 21
263.49
 31
0.0
  0
LINE
  8
CARROZZERIA
 62
1
 10
939.63
 20
247.76
 30
0.0
 11
940.53
 21
251.66
 31
0.0
  0
LINE
  8
CARROZZERIA
 62
1
 10
871.42
 20
263.49
 30
0.0
 11
872.31
 21
267.39
 31
0.0
  0
CIRCLE
  8
CARROZZERIA
 62
1
 10
1141.73
 20
87.24
 30
0.0
 40
35
  0
CIRCLE
  8
CARROZZERIA
 62
1
 10
907.86
 20
141.17
 30
0.0
 40
35
  0
LINE
  8
CARROZZERIA
 62
1
 10
1297.34
 20
61.84
 30
0.0
 11
1287.5
 21
63.59
 31
0.0
  0
LINE
  8
CARROZZERIA
 62
1
 10
1291.55
 20
57.8
 30
0.0
 11
1293.3
 21
67.64
 31
0.0
  0
LINE
  8
CARROZZERIA
 62
1
 10
1061.05
 20
103.83
 30
0.0
 11
1051.2
 21
105.58
 31
0.0
  0
LINE
  8
CARROZZERIA
 62
1
 10
1055.25
 20
99.78
 30
0.0
 11
1057
 21
109.63
 31
0.0
  0
LINE
  8
CARROZZERIA
 62
1
 10
1425.54
 20
11.64
 30
0.0
 11
1321.86
 21
30.06
 31
0.0
  0
LINE
  8
CARROZZERIA
 62
1
 10
1253.53
 20
42.21
 30
0.0
 11
1085.56
 21
72.05
 31
0.0
  0
LINE
  8
CARROZZERIA
 62
1
 10
1017.23
 20
84.19
 30
0.0
 11
933.25
 21
99.12
 31
0.0
  0
LINE
  8
CARROZZERIA
 62
1
 10
1425.54
 20
11.64
 30
0.0
 11
1430.26
 21
38.23
 31
0.0
  0
LINE
  8
CARROZZERIA
 62
1
 10
1430.26
 20
38.23
 30
0.0
 11
1421.42
 21
57.06
 31
0.0
  0
LINE
  8
CARROZZERIA
 62
1
 10
1421.42
 20
57.06
 30
0.0
 11
1407.42
 21
69.71
 31
0.0
  0
LINE
  8
CARROZZERIA
 62
1
 10
1407.42
 20
69.71
 30
0.0
 11
1372.74
 21
86.03
 31
0.0
  0
LINE
  8
CARROZZERIA
 62
1
 10
1372.74
 20
86.03
 30
0.0
 11
1324.91
 21
102.65
 31
0.0
  0
LINE
  8
CARROZZERIA
 62
1
 10
1324.91
 20
102.65
 30
0.0
 11
1295.9
 21
110.85
 31
0.0
  0
LINE
  8
CARROZZERIA
 62
1
 10
1295.9
 20
110.85
 30
0.0
 11
1271.28
 21
160.93
 31
0.0
  0
LINE
  8
CARROZZERIA
 62
1
 10
1271.28
 20
160.93
 30
0.0
 11
1146.24
 21
183.15
 31
0.0
  0
LINE
  8
CARROZZERIA
 62
1
 10
1146.24
 20
183.15
 30
0.0
 11
1097.56
 21
166.41
 31
0.0
  0
LINE
  8
CARROZZERIA
 62
1
 10
1097.56
 20
166.41
 30
0.0
 11
1038.13
 21
174.94
 31
0.0
  0
LINE
  8
CARROZZERIA
 62
1
 10
1038.13
 20
174.94
 30
0.0
 11
984.88
 21
161.04
 31
0.0
  0
LINE
  8
CARROZZERIA
 62
1
 10
984.88
 20
161.04
 30
0.0
 11
940.95
 21
142.44
 31
0.0
  0
LINE
  8
CARROZZERIA
 62
1
 10
940.95
 20
142.44
 30
0.0
 11
933.25
 21
99.12
 31
0.0
  0
LINE
  8
CARROZZERIA
 62
1
 10
1050.93
 20
172.66
 30
0.0
 11
1059.15
 21
218.94
 31
0.0
  0
LINE
  8
CARROZZERIA
 62
1
 10
1030.26
 20
176.34
 30
0.0
 11
1038.48
 21
222.61
 31
0.0
  0
LINE
  8
CARROZZERIA
 62
1
 10
1083.13
 20
216.71
 30
0.0
 11
1014.21
 21
228.96
 31
0.0
  0
LINE
  8
CARROZZERIA
 62
1
 10
1082.43
 20
212.77
 30
0.0
 11
1013.51
 21
225.02
 31
0.0
  0
LINE
  8
CARROZZERIA
 62
1
 10
1082.43
 20
212.77
 30
0.0
 11
1083.13
 21
216.71
 31
0.0
  0
LINE
  8
CARROZZERIA
 62
1
 10
1013.51
 20
225.02
 30
0.0
 11
1014.21
 21
228.96
 31
0.0
  0
CIRCLE
  8
CARROZZERIA
 62
1
 10
1292.42
 20
62.72
 30
0.0
 40
35
  0
CIRCLE
  8
CARROZZERIA
 62
1
 10
1056.12
 20
104.71
 30
0.0
 40
35
  0
LINE
  8
CARROZZERIA
 62
1
 10
1447.45
 20
45.39
 30
0.0
 11
1437.53
 21
46.64
 31
0.0
  0
LINE
  8
CARROZZERIA
 62
1
 10
1441.87
 20
41.06
 30
0.0
 11
1443.12
 21
50.98
 31
0.0
  0
LINE
  8
CARROZZERIA
 62
1
 10
1209.35
 20
75.47
 30
0.0
 11
1199.43
 21
76.72
 31
0.0
  0
LINE
  8
CARROZZERIA
 62
1
 10
1203.76
 20
71.13
 30
0.0
 11
1205.01
 21
81.05
 31
0.0
  0
LINE
  8
CARROZZERIA
 62
1
 10
1578.01
 20
1.69
 30
0.0
 11
1473.54
 21
14.88
 31
0.0
  0
LINE
  8
CARROZZERIA
 62
1
 10
1404.68
 20
23.58
 30
0.0
 11
1235.43
 21
44.96
 31
0.0
  0
LINE
  8
CARROZZERIA
 62
1
 10
1166.58
 20
53.65
 30
0.0
 11
1081.95
 21
64.34
 31
0.0
  0
LINE
  8
CARROZZERIA
 62
1
 10
1578.01
 20
1.69
 30
0.0
 11
1581.39
 21
28.47
 31
0.0
  0
LINE
  8
CARROZZERIA
 62
1
 10
1581.39
 20
28.47
 30
0.0
 11
1571.62
 21
46.84
 31
0.0
  0
LINE
  8
CARROZZERIA
 62
1
 10
1571.62
 20
46.84
 30
0.0
 11
1556.99
 21
58.77
 31
0.0
  0
LINE
  8
CARROZZERIA
 62
1
 10
1556.99
 20
58.77
 30
0.0
 11
1521.54
 21
73.33
 31
0.0
  0
LINE
  8
CARROZZERIA
 62
1
 10
1521.54
 20
73.33
 30
0.0
 11
1472.94
 21
87.53
 31
0.0
  0
LINE
  8
CARROZZERIA
 62
1
 10
1472.94
 20
87.53
 30
0.0
 11
1443.55
 21
94.27
 31
0.0
  0
LINE
  8
CARROZZERIA
 62
1
 10
1443.55
 20
94.27
 30
0.0
 11
1416.45
 21
143.05
 31
0.0
  0
LINE
  8
CARROZZERIA
 62
1
 10
1416.45
 20
143.05
 30
0.0
 11
1290.45
 21
158.96
 31
0.0
  0
LINE
  8
CARROZZERIA
 62
1
 10
1290.45
 20
158.96
 30
0.0
 11
1242.67
 21
139.8
 31
0.0
  0
LINE
  8
CARROZZERIA
 62
1
 10
1242.67
 20
139.8
 30
0.0
 11
1182.89
 21
145.33
 31
0.0
  0
LINE
  8
CARROZZERIA
 62
1
 10
1182.89
 20
145.33
 30
0.0
 11
1130.4
 21
128.78
 31
0.0
  0
LINE
  8
CARROZZERIA
 62
1
 10
1130.4
 20
128.78
 30
0.0
 11
1087.46
 21
108
 31
0.0
  0
LINE
  8
CARROZZERIA
 62
1
 10
1087.46
 20
108
 30
0.0
 11
1081.95
 21
64.34
 31
0.0
  0
LINE
  8
CARROZZERIA
 62
1
 10
1195.79
 20
143.7
 30
0.0
 11
1201.68
 21
190.33
 31
0.0
  0
LINE
  8
CARROZZERIA
 62
1
 10
1174.96
 20
146.33
 30
0.0
 11
1180.85
 21
192.96
 31
0.0
  0
LINE
  8
CARROZZERIA
 62
1
 10
1225.74
 20
189.31
 30
0.0
 11
1156.29
 21
198.08
 31
0.0
  0
LINE
  8
CARROZZERIA
 62
1
 10
1225.24
 20
185.34
 30
0.0
 11
1155.79
 21
194.11
 31
0.0
  0
LINE
  8
CARROZZERIA
 62
1
 10
1225.24
 20
185.34
 30
0.0
 11
1225.74
 21
189.31
 31
0.0
  0
LINE
  8
CARROZZERIA
 62
1
 10
1155.79
 20
194.11
 30
0.0
 11
1156.29
 21
198.08
 31
0.0
  0
CIRCLE
  8
CARROZZERIA
 62
1
 10
1442.49
 20
46.02
 30
0.0
 40
35
  0
CIRCLE
  8
CARROZZERIA
 62
1
 10
1204.39
 20
76.09
 30
0.0
 40
35
  0
LINE
  8
CARROZZERIA
 62
1
 10
1596.95
 20
36.53
 30
0.0
 11
1586.98
 21
37.29
 31
0.0
  0
LINE
  8
CARROZZERIA
 62
1
 10
1591.58
 20
31.93
 30
0.0
 11
1592.34
 21
41.9
 31
0.0
  0
LINE
  8
CARROZZERIA
 62
1
 10
1357.64
 20
54.72
 30
0.0
 11
1347.67
 21
55.48
 31
0.0
  0
LINE
  8
CARROZZERIA
 62
1
 10
1352.27
 20
50.11
 30
0.0
 11
1353.03
 21
60.08
 31
0.0
  0
LINE
  8
CARROZZERIA
 62
1
 10
1729.51
 20
-0.62
 30
0.0
 11
1624.52
 21
7.36
 31
0.0
  0
LINE
  8
CARROZZERIA
 62
1
 10
1555.32
 20
12.62
 30
0.0
 11
1385.21
 21
25.55
 31
0.0
  0
LINE
  8
CARROZZERIA
 62
1
 10
1316.01
 20
30.81
 30
0.0
 11
1230.95
 21
37.27
 31
0.0
  0
LINE
  8
CARROZZERIA
 62
1
 10
1729.51
 20
-0.62
 30
0.0
 11
1731.56
 21
26.31
 31
0.0
  0
LINE
  8
CARROZZERIA
 62
1
 10
1731.56
 20
26.31
 30
0.0
 11
1720.88
 21
44.17
 31
0.0
  0
LINE
  8
CARROZZERIA
 62
1
 10
1720.88
 20
44.17
 30
0.0
 11
1705.69
 21
55.35
 31
0.0
  0
LINE
  8
CARROZZERIA
 62
1
 10
1705.69
 20
55.35
 30
0.0
 11
1669.55
 21
68.12
 31
0.0
  0
LINE
  8
CARROZZERIA
 62
1
 10
1669.55
 20
68.12
 30
0.0
 11
1620.3
 21
79.89
 31
0.0
  0
LINE
  8
CARROZZERIA
 62
1
 10
1620.3
 20
79.89
 30
0.0
 11
1590.61
 21
85.15
 31
0.0
  0
LINE
  8
CARROZZERIA
 62
1
 10
1590.61
 20
85.15
 30
0.0
 11
1561.12
 21
132.53
 31
0.0
  0
LINE
  8
CARROZZERIA
 62
1
 10
1561.12
 20
132.53
 30
0.0
 11
1434.48
 21
142.15
 31
0.0
  0
LINE
  8
CARROZZERIA
 62
1
 10
1434.48
 20
142.15
 30
0.0
 11
1387.72
 21
120.63
 31
0.0
  0
LINE
  8
CARROZZERIA
 62
1
 10
1387.72
 20
120.63
 30
0.0
 11
1327.74
 21
123.18
 31
0.0
  0
LINE
  8
CARROZZERIA
 62
1
 10
1327.74
 20
123.18
 30
0.0
 11
1276.14
 21
104.04
 31
0.0
  0
LINE
  8
CARROZZERIA
 62
1
 10
1276.14
 20
104.04
 30
0.0
 11
1234.29
 21
81.14
 31
0.0
  0
LINE
  8
CARROZZERIA
 62
1
 10
1234.29
 20
81.14
 30
0.0
 11
1230.95
 21
37.27
 31
0.0
  0
LINE
  8
CARROZZERIA
 62
1
 10
1340.7
 20
122.2
 30
0.0
 11
1344.26
 21
169.06
 31
0.0
  0
LINE
  8
CARROZZERIA
 62
1
 10
1319.76
 20
123.79
 30
0.0
 11
1323.32
 21
170.65
 31
0.0
  0
LINE
  8
CARROZZERIA
 62
1
 10
1368.35
 20
169.24
 30
0.0
 11
1298.55
 21
174.54
 31
0.0
  0
LINE
  8
CARROZZERIA
 62
1
 10
1368.04
 20
165.25
 30
0.0
 11
1298.24
 21
170.55
 31
0.0
  0
LINE
  8
CARROZZERIA
 62
1
 10
1368.04
 20
165.25
 30
0.0
 11
1368.35
 21
169.24
 31
0.0
  0
LINE
  8
CARROZZERIA
 62
1
 10
1298.24
 20
170.55
 30
0.0
 11
1298.55
 21
174.54
 31
0.0
  0
CIRCLE
  8
CARROZZERIA
 62
1
 10
1591.96
 20
36.91
 30
0.0
 40
35
  0
CIRCLE
  8
CARROZZERIA
 62
1
 10
1352.65
 20
55.1
 30
0.0
 40
35
  0
LINE
  8
CARROZZERIA
 62
90
 10
1745.87
 20
34.85
 30
0.0
 11
1735.87
 21
35.12
 31
0.0
  0
LINE
  8
CARROZZERIA
 62
90
 10
1740.73
 20
29.99
 30
0.0
 11
1741.01
 21
39.98
 31
0.0
  0
LINE
  8
CARROZZERIA
 62
90
 10
1505.96
 20
41.43
 30
0.0
 11
1495.96
 21
41.7
 31
0.0
  0
LINE
  8
CARROZZERIA
 62
90
 10
1500.82
 20
36.57
 30
0.0
 11
1501.1
 21
46.57
 31
0.0
  0
LINE
  8
CARROZZERIA
 62
90
 10
1880.08
 20
4.16
 30
0.0
 11
1774.82
 21
7.05
 31
0.0
  0
LINE
  8
CARROZZERIA
 62
90
 10
1705.44
 20
8.95
 30
0.0
 11
1534.91
 21
13.63
 31
0.0
  0
LINE
  8
CARROZZERIA
 62
90
 10
1465.53
 20
15.53
 30
0.0
 11
1380.26
 21
17.87
 31
0.0
  0
LINE
  8
CARROZZERIA
 62
90
 10
1880.08
 20
4.16
 30
0.0
 11
1880.82
 21
31.15
 31
0.0
  0
LINE
  8
CARROZZERIA
 62
90
 10
1880.82
 20
31.15
 30
0.0
 11
1869.29
 21
48.47
 31
0.0
  0
LINE
  8
CARROZZERIA
 62
90
 10
1869.29
 20
48.47
 30
0.0
 11
1853.57
 21
58.91
 31
0.0
  0
LINE
  8
CARROZZERIA
 62
90
 10
1853.57
 20
58.91
 30
0.0
 11
1816.86
 21
69.92
 31
0.0
  0
LINE
  8
CARROZZERIA
 62
90
 10
1816.86
 20
69.92
 30
0.0
 11
1767.09
 21
79.28
 31
0.0
  0
LINE
  8
CARROZZERIA
 62
90
 10
1767.09
 20
79.28
 30
0.0
 11
1737.19
 21
83.11
 31
0.0
  0
LINE
  8
CARROZZERIA
 62
90
 10
1737.19
 20
83.11
 30
0.0
 11
1705.43
 21
128.99
 31
0.0
  0
LINE
  8
CARROZZERIA
 62
90
 10
1705.43
 20
128.99
 30
0.0
 11
1578.48
 21
132.48
 31
0.0
  0
LINE
  8
CARROZZERIA
 62
90
 10
1578.48
 20
132.48
 30
0.0
 11
1532.81
 21
108.72
 31
0.0
  0
LINE
  8
CARROZZERIA
 62
90
 10
1532.81
 20
108.72
 30
0.0
 11
1472.78
 21
108.37
 31
0.0
  0
LINE
  8
CARROZZERIA
 62
90
 10
1472.78
 20
108.37
 30
0.0
 11
1422.17
 21
86.75
 31
0.0
  0
LINE
  8
CARROZZERIA
 62
90
 10
1422.17
 20
86.75
 30
0.0
 11
1381.47
 21
61.85
 31
0.0
  0
LINE
  8
CARROZZERIA
 62
90
 10
1381.47
 20
61.85
 30
0.0
 11
1380.26
 21
17.87
 31
0.0
  0
LINE
  8
CARROZZERIA
 62
90
 10
1485.78
 20
108.01
 30
0.0
 11
1487.06
 21
154.99
 31
0.0
  0
LINE
  8
CARROZZERIA
 62
90
 10
1464.78
 20
108.58
 30
0.0
 11
1466.07
 21
155.57
 31
0.0
  0
LINE
  8
CARROZZERIA
 62
90
 10
1511.11
 20
156.33
 30
0.0
 11
1441.14
 21
158.25
 31
0.0
  0
LINE
  8
CARROZZERIA
 62
90
 10
1511
 20
152.33
 30
0.0
 11
1441.03
 21
154.25
 31
0.0
  0
LINE
  8
CARROZZERIA
 62
90
 10
1511
 20
152.33
 30
0.0
 11
1511.11
 21
156.33
 31
0.0
  0
LINE
  8
CARROZZERIA
 62
90
 10
1441.03
 20
154.25
 30
0.0
 11
1441.14
 21
158.25
 31
0.0
  0
CIRCLE
  8
CARROZZERIA
 62
90
 10
1740.87
 20
34.99
 30
0.0
 40
35
  0
CIRCLE
  8
CARROZZERIA
 62
90
 10
1500.96
 20
41.57
 30
0.0
 40
35
  0
LINE
  8
CARROZZERIA
 62
90
 10
1895.06
 20
34.99
 30
0.0
 11
1885.06
 21
35.01
 31
0.0
  0
LINE
  8
CARROZZERIA
 62
90
 10
1890.05
 20
30
 30
0.0
 11
1890.07
 21
40
 31
0.0
  0
LINE
  8
CARROZZERIA
 62
90
 10
1655.06
 20
35.4
 30
0.0
 11
1645.06
 21
35.42
 31
0.0
  0
LINE
  8
CARROZZERIA
 62
90
 10
1650.05
 20
30.41
 30
0.0
 11
1650.07
 21
40.41
 31
0.0
  0
LINE
  8
CARROZZERIA
 62
90
 10
2030.01
 20
7.76
 30
0.0
 11
1924.71
 21
7.94
 31
0.0
  0
LINE
  8
CARROZZERIA
 62
90
 10
1855.31
 20
8.06
 30
0.0
 11
1684.71
 21
8.35
 31
0.0
  0
LINE
  8
CARROZZERIA
 62
90
 10
1615.31
 20
8.47
 30
0.0
 11
1530.01
 21
8.62
 31
0.0
  0
LINE
  8
CARROZZERIA
 62
90
 10
2030.01
 20
7.76
 30
0.0
 11
2030.06
 21
34.76
 31
0.0
  0
LINE
  8
CARROZZERIA
 62
90
 10
2030.06
 20
34.76
 30
0.0
 11
2018.09
 21
51.78
 31
0.0
  0
LINE
  8
CARROZZERIA
 62
90
 10
2018.09
 20
51.78
 30
0.0
 11
2002.11
 21
61.81
 31
0.0
  0
LINE
  8
CARROZZERIA
 62
90
 10
2002.11
 20
61.81
 30
0.0
 11
1965.12
 21
71.87
 31
0.0
  0
LINE
  8
CARROZZERIA
 62
90
 10
1965.12
 20
71.87
 30
0.0
 11
1915.14
 21
79.96
 31
0.0
  0
LINE
  8
CARROZZERIA
 62
90
 10
1915.14
 20
79.96
 30
0.0
 11
1885.14
 21
83.01
 31
0.0
  0
LINE
  8
CARROZZERIA
 62
90
 10
1885.14
 20
83.01
 30
0.0
 11
1852.22
 21
128.06
 31
0.0
  0
LINE
  8
CARROZZERIA
 62
90
 10
1852.22
 20
128.06
 30
0.0
 11
1725.22
 21
128.28
 31
0.0
  0
LINE
  8
CARROZZERIA
 62
90
 10
1725.22
 20
128.28
 30
0.0
 11
1680.18
 21
103.36
 31
0.0
  0
LINE
  8
CARROZZERIA
 62
90
 10
1680.18
 20
103.36
 30
0.0
 11
1620.17
 21
101.46
 31
0.0
  0
LINE
  8
CARROZZERIA
 62
90
 10
1620.17
 20
101.46
 30
0.0
 11
1570.13
 21
78.55
 31
0.0
  0
LINE
  8
CARROZZERIA
 62
90
 10
1570.13
 20
78.55
 30
0.0
 11
1530.09
 21
52.62
 31
0.0
  0
LINE
  8
CARROZZERIA
 62
90
 10
1530.09
 20
52.62
 30
0.0
 11
1530.01
 21
8.62
 31
0.0
  0
LINE
  8
CARROZZERIA
 62
90
 10
1633.17
 20
101.44
 30
0.0
 11
1633.25
 21
148.44
 31
0.0
  0
LINE
  8
CARROZZERIA
 62
90
 10
1612.17
 20
101.48
 30
0.0
 11
1612.25
 21
148.48
 31
0.0
  0
LINE
  8
CARROZZERIA
 62
90
 10
1657.26
 20
150.4
 30
0.0
 11
1587.26
 21
150.52
 31
0.0
  0
LINE
  8
CARROZZERIA
 62
90
 10
1657.25
 20
146.4
 30
0.0
 11
1587.25
 21
146.52
 31
0.0
  0
LINE
  8
CARROZZERIA
 62
90
 10
1657.25
 20
146.4
 30
0.0
 11
1657.26
 21
150.4
 31
0.0
  0
LINE
  8
CARROZZERIA
 62
90
 10
1587.25
 20
146.52
 30
0.0
 11
1587.26
 21
150.52
 31
0.0
  0
CIRCLE
  8
CARROZZERIA
 62
90
 10
1890.06
 20
35
 30
0.0
 40
35
  0
CIRCLE
  8
CARROZZERIA
 62
90
 10
1650.06
 20
35.41
 30
0.0
 40
35
  0
CIRCLE
  8
CRITICO
 62
1
 10
767.54
 20
145.62
 30
0.0
 40
11
  0
LINE
  8
CRITICO
 62
1
 10
767.54
 20
145.62
 30
0.0
 11
767.54
 21
146.42
 31
0.0
  0
LINE
  8
CRITICO
 62
1
 10
767.54
 20
145.62
 30
0.0
 11
917.54
 21
90.62
 31
0.0
  0
TEXT
  8
CRITICO
 62
1
 10
925.54
 20
82.62
 30
0.0
 40
10
  1
paraurti ANT (muso): -0.80 cm  ->  COLLISIONE
  0
CIRCLE
  8
TESTO
 62
30
 10
1340.41
 20
22.22
 30
0.0
 40
9
  0
TEXT
  8
TESTO
 62
30
 10
1220.41
 20
44.22
 30
0.0
 40
8
  1
POST +0.89
  0
TEXT
  8
TESTO
 62
1
 10
-560
 20
472
 30
0.0
 40
16
  1
h = 8 cm
  0
TEXT
  8
TESTO
 62
1
 10
-300
 20
474
 30
0.0
 40
11
  1
ANT -0.80  |  POST +0.89  |  ventre +0.39  [cm]  ->  COLLISIONE
  0
TEXT
  8
TESTO
 62
7
 10
-300
 20
454
 30
0.0
 40
9
  1
sagome ogni 150 cm (+ posa critica): 4 verdi (sicuro), 2 arancio (a rischio), 8 rosse (collisione)
  0
LINE
  8
REF
 62
8
 10
-560
 20
442
 30
0.0
 11
2360
 21
442
 31
0.0
  0
LINE
  8
RAMPA
 10
-560
 20
-520
 30
0.0
 11
0
 21
-520
 31
0.0
  0
ARC
  8
RAMPA
 10
0
 20
-1470
 30
0.0
 40
950
 50
65
 51
90
  0
LINE
  8
RAMPA
 10
401.49
 20
-609.01
 30
0.0
 11
414.24
 21
-614.95
 31
0.0
  0
ARC
  8
RAMPA
 10
1700
 20
2142.37
 30
0.0
 40
3042.37
 50
245
 51
270
  0
LINE
  8
RAMPA
 10
1700
 20
-900
 30
0.0
 11
2360
 21
-900
 31
0.0
  0
TEXT
  8
TESTO
 10
-545
 20
-508
 30
0.0
 40
11
  1
STRADA
  0
TEXT
  8
TESTO
 10
2175
 20
-886
 30
0.0
 40
11
  1
GARAGE
  0
LINE
  8
CARROZZERIA
 62
90
 10
95.6
 20
-488.36
 30
0.0
 11
85.6
 21
-488.19
 31
0.0
  0
LINE
  8
CARROZZERIA
 62
90
 10
90.51
 20
-493.27
 30
0.0
 11
90.69
 21
-483.28
 31
0.0
  0
LINE
  8
CARROZZERIA
 62
90
 10
-144.36
 20
-484.09
 30
0.0
 11
-154.36
 21
-483.92
 31
0.0
  0
LINE
  8
CARROZZERIA
 62
90
 10
-149.45
 20
-489
 30
0.0
 11
-149.27
 21
-479.01
 31
0.0
  0
LINE
  8
CARROZZERIA
 62
90
 10
230.1
 20
-517.76
 30
0.0
 11
124.82
 21
-515.89
 31
0.0
  0
LINE
  8
CARROZZERIA
 62
90
 10
55.43
 20
-514.65
 30
0.0
 11
-115.15
 21
-511.62
 31
0.0
  0
LINE
  8
CARROZZERIA
 62
90
 10
-184.53
 20
-510.38
 30
0.0
 11
-269.82
 21
-508.87
 31
0.0
  0
LINE
  8
CARROZZERIA
 62
90
 10
230.1
 20
-517.76
 30
0.0
 11
230.58
 21
-490.77
 31
0.0
  0
LINE
  8
CARROZZERIA
 62
90
 10
230.58
 20
-490.77
 30
0.0
 11
218.88
 21
-473.55
 31
0.0
  0
LINE
  8
CARROZZERIA
 62
90
 10
218.88
 20
-473.55
 30
0.0
 11
203.06
 21
-463.27
 31
0.0
  0
LINE
  8
CARROZZERIA
 62
90
 10
203.06
 20
-463.27
 30
0.0
 11
166.25
 21
-452.61
 31
0.0
  0
LINE
  8
CARROZZERIA
 62
90
 10
166.25
 20
-452.61
 30
0.0
 11
116.4
 21
-443.73
 31
0.0
  0
LINE
  8
CARROZZERIA
 62
90
 10
116.4
 20
-443.73
 30
0.0
 11
86.46
 21
-440.19
 31
0.0
  0
LINE
  8
CARROZZERIA
 62
90
 10
86.46
 20
-440.19
 30
0.0
 11
54.26
 21
-394.61
 31
0.0
  0
LINE
  8
CARROZZERIA
 62
90
 10
54.26
 20
-394.61
 30
0.0
 11
-72.72
 21
-392.35
 31
0.0
  0
LINE
  8
CARROZZERIA
 62
90
 10
-72.72
 20
-392.35
 30
0.0
 11
-118.15
 21
-416.55
 31
0.0
  0
LINE
  8
CARROZZERIA
 62
90
 10
-118.15
 20
-416.55
 30
0.0
 11
-178.18
 21
-417.48
 31
0.0
  0
LINE
  8
CARROZZERIA
 62
90
 10
-178.18
 20
-417.48
 30
0.0
 11
-228.58
 21
-439.59
 31
0.0
  0
LINE
  8
CARROZZERIA
 62
90
 10
-228.58
 20
-439.59
 30
0.0
 11
-269.04
 21
-464.87
 31
0.0
  0
LINE
  8
CARROZZERIA
 62
90
 10
-269.04
 20
-464.87
 30
0.0
 11
-269.82
 21
-508.87
 31
0.0
  0
LINE
  8
CARROZZERIA
 62
90
 10
-165.18
 20
-417.71
 30
0.0
 11
-164.35
 21
-370.72
 31
0.0
  0
LINE
  8
CARROZZERIA
 62
90
 10
-186.18
 20
-417.34
 30
0.0
 11
-185.34
 21
-370.35
 31
0.0
  0
LINE
  8
CARROZZERIA
 62
90
 10
-140.32
 20
-369.15
 30
0.0
 11
-210.3
 21
-367.9
 31
0.0
  0
LINE
  8
CARROZZERIA
 62
90
 10
-140.39
 20
-373.15
 30
0.0
 11
-210.38
 21
-371.9
 31
0.0
  0
LINE
  8
CARROZZERIA
 62
90
 10
-140.39
 20
-373.15
 30
0.0
 11
-140.32
 21
-369.15
 31
0.0
  0
LINE
  8
CARROZZERIA
 62
90
 10
-210.38
 20
-371.9
 30
0.0
 11
-210.3
 21
-367.9
 31
0.0
  0
CIRCLE
  8
CARROZZERIA
 62
90
 10
90.58
 20
-489.27
 30
0.0
 40
35
  0
CIRCLE
  8
CARROZZERIA
 62
90
 10
-149.38
 20
-485.01
 30
0.0
 40
35
  0
LINE
  8
CARROZZERIA
 62
90
 10
247.58
 20
-515.24
 30
0.0
 11
237.67
 21
-513.97
 31
0.0
  0
LINE
  8
CARROZZERIA
 62
90
 10
241.99
 20
-519.56
 30
0.0
 11
243.26
 21
-509.64
 31
0.0
  0
LINE
  8
CARROZZERIA
 62
90
 10
9.51
 20
-484.92
 30
0.0
 11
-0.41
 21
-483.66
 31
0.0
  0
LINE
  8
CARROZZERIA
 62
90
 10
3.92
 20
-489.25
 30
0.0
 11
5.18
 21
-479.33
 31
0.0
  0
LINE
  8
CARROZZERIA
 62
90
 10
378.09
 20
-559.07
 30
0.0
 11
273.64
 21
-545.77
 31
0.0
  0
LINE
  8
CARROZZERIA
 62
90
 10
204.79
 20
-537
 30
0.0
 11
35.56
 21
-515.46
 31
0.0
  0
LINE
  8
CARROZZERIA
 62
90
 10
-33.29
 20
-506.69
 30
0.0
 11
-117.9
 21
-495.91
 31
0.0
  0
LINE
  8
CARROZZERIA
 62
90
 10
378.09
 20
-559.07
 30
0.0
 11
381.5
 21
-532.29
 31
0.0
  0
LINE
  8
CARROZZERIA
 62
90
 10
381.5
 20
-532.29
 30
0.0
 11
371.75
 21
-513.91
 31
0.0
  0
LINE
  8
CARROZZERIA
 62
90
 10
371.75
 20
-513.91
 30
0.0
 11
357.14
 21
-501.97
 31
0.0
  0
LINE
  8
CARROZZERIA
 62
90
 10
357.14
 20
-501.97
 30
0.0
 11
321.7
 21
-487.37
 31
0.0
  0
LINE
  8
CARROZZERIA
 62
90
 10
321.7
 20
-487.37
 30
0.0
 11
273.11
 21
-473.12
 31
0.0
  0
LINE
  8
CARROZZERIA
 62
90
 10
273.11
 20
-473.12
 30
0.0
 11
243.73
 21
-466.36
 31
0.0
  0
LINE
  8
CARROZZERIA
 62
90
 10
243.73
 20
-466.36
 30
0.0
 11
216.68
 21
-417.55
 31
0.0
  0
LINE
  8
CARROZZERIA
 62
90
 10
216.68
 20
-417.55
 30
0.0
 11
90.69
 21
-401.51
 31
0.0
  0
LINE
  8
CARROZZERIA
 62
90
 10
90.69
 20
-401.51
 30
0.0
 11
42.9
 21
-420.62
 31
0.0
  0
LINE
  8
CARROZZERIA
 62
90
 10
42.9
 20
-420.62
 30
0.0
 11
-16.88
 21
-415.03
 31
0.0
  0
LINE
  8
CARROZZERIA
 62
90
 10
-16.88
 20
-415.03
 30
0.0
 11
-69.38
 21
-431.53
 31
0.0
  0
LINE
  8
CARROZZERIA
 62
90
 10
-69.38
 20
-431.53
 30
0.0
 11
-112.34
 21
-452.27
 31
0.0
  0
LINE
  8
CARROZZERIA
 62
90
 10
-112.34
 20
-452.27
 30
0.0
 11
-117.9
 21
-495.91
 31
0.0
  0
LINE
  8
CARROZZERIA
 62
90
 10
-3.98
 20
-416.67
 30
0.0
 11
1.96
 21
-370.05
 31
0.0
  0
LINE
  8
CARROZZERIA
 62
90
 10
-24.81
 20
-414.02
 30
0.0
 11
-18.87
 21
-367.39
 31
0.0
  0
LINE
  8
CARROZZERIA
 62
90
 10
26.02
 20
-371.09
 30
0.0
 11
-43.42
 21
-362.25
 31
0.0
  0
LINE
  8
CARROZZERIA
 62
90
 10
25.51
 20
-375.06
 30
0.0
 11
-43.93
 21
-366.22
 31
0.0
  0
LINE
  8
CARROZZERIA
 62
90
 10
25.51
 20
-375.06
 30
0.0
 11
26.02
 21
-371.09
 31
0.0
  0
LINE
  8
CARROZZERIA
 62
90
 10
-43.93
 20
-366.22
 30
0.0
 11
-43.42
 21
-362.25
 31
0.0
  0
CIRCLE
  8
CARROZZERIA
 62
90
 10
242.5
 20
-515.6
 30
0.0
 40
35
  0
CIRCLE
  8
CARROZZERIA
 62
90
 10
4.42
 20
-485.28
 30
0.0
 40
35
  0
LINE
  8
CARROZZERIA
 62
90
 10
395.23
 20
-566.3
 30
0.0
 11
385.64
 21
-563.49
 31
0.0
  0
LINE
  8
CARROZZERIA
 62
90
 10
389.03
 20
-569.7
 30
0.0
 11
391.84
 21
-560.1
 31
0.0
  0
LINE
  8
CARROZZERIA
 62
90
 10
164.93
 20
-498.78
 30
0.0
 11
155.33
 21
-495.96
 31
0.0
  0
LINE
  8
CARROZZERIA
 62
90
 10
158.72
 20
-502.17
 30
0.0
 11
161.54
 21
-492.57
 31
0.0
  0
LINE
  8
CARROZZERIA
 62
90
 10
517.18
 20
-630.2
 30
0.0
 11
416.13
 21
-600.57
 31
0.0
  0
LINE
  8
CARROZZERIA
 62
90
 10
349.54
 20
-581.04
 30
0.0
 11
185.83
 21
-533.04
 31
0.0
  0
LINE
  8
CARROZZERIA
 62
90
 10
119.23
 20
-513.52
 30
0.0
 11
37.38
 21
-489.52
 31
0.0
  0
LINE
  8
CARROZZERIA
 62
90
 10
517.18
 20
-630.2
 30
0.0
 11
524.78
 21
-604.29
 31
0.0
  0
LINE
  8
CARROZZERIA
 62
90
 10
524.78
 20
-604.29
 30
0.0
 11
518.05
 21
-584.6
 31
0.0
  0
LINE
  8
CARROZZERIA
 62
90
 10
518.05
 20
-584.6
 30
0.0
 11
505.51
 21
-570.5
 31
0.0
  0
LINE
  8
CARROZZERIA
 62
90
 10
505.51
 20
-570.5
 30
0.0
 11
472.81
 21
-550.49
 31
0.0
  0
LINE
  8
CARROZZERIA
 62
90
 10
472.81
 20
-550.49
 30
0.0
 11
427.08
 21
-528.75
 31
0.0
  0
LINE
  8
CARROZZERIA
 62
90
 10
427.08
 20
-528.75
 30
0.0
 11
399.14
 21
-517.43
 31
0.0
  0
LINE
  8
CARROZZERIA
 62
90
 10
399.14
 20
-517.43
 30
0.0
 11
380.14
 21
-464.96
 31
0.0
  0
LINE
  8
CARROZZERIA
 62
90
 10
380.14
 20
-464.96
 30
0.0
 11
258.27
 21
-429.23
 31
0.0
  0
LINE
  8
CARROZZERIA
 62
90
 10
258.27
 20
-429.23
 30
0.0
 11
208.05
 21
-440.56
 31
0.0
  0
LINE
  8
CARROZZERIA
 62
90
 10
208.05
 20
-440.56
 30
0.0
 11
149.91
 21
-425.6
 31
0.0
  0
LINE
  8
CARROZZERIA
 62
90
 10
149.91
 20
-425.6
 30
0.0
 11
95.46
 21
-433.6
 31
0.0
  0
LINE
  8
CARROZZERIA
 62
90
 10
95.46
 20
-433.6
 30
0.0
 11
49.76
 21
-447.29
 31
0.0
  0
LINE
  8
CARROZZERIA
 62
90
 10
49.76
 20
-447.29
 30
0.0
 11
37.38
 21
-489.52
 31
0.0
  0
LINE
  8
CARROZZERIA
 62
90
 10
162.39
 20
-429.25
 30
0.0
 11
175.61
 21
-384.15
 31
0.0
  0
LINE
  8
CARROZZERIA
 62
90
 10
142.23
 20
-423.35
 30
0.0
 11
155.46
 21
-378.24
 31
0.0
  0
LINE
  8
CARROZZERIA
 62
90
 10
199.2
 20
-388.99
 30
0.0
 11
132.03
 21
-369.29
 31
0.0
  0
LINE
  8
CARROZZERIA
 62
90
 10
198.08
 20
-392.82
 30
0.0
 11
130.91
 21
-373.13
 31
0.0
  0
LINE
  8
CARROZZERIA
 62
90
 10
198.08
 20
-392.82
 30
0.0
 11
199.2
 21
-388.99
 31
0.0
  0
LINE
  8
CARROZZERIA
 62
90
 10
130.91
 20
-373.13
 30
0.0
 11
132.03
 21
-369.29
 31
0.0
  0
CIRCLE
  8
CARROZZERIA
 62
90
 10
390.15
 20
-565.86
 30
0.0
 40
35
  0
CIRCLE
  8
CARROZZERIA
 62
90
 10
159.85
 20
-498.33
 30
0.0
 40
35
  0
LINE
  8
CARROZZERIA
 62
90
 10
539.63
 20
-631.06
 30
0.0
 11
530.42
 21
-627.16
 31
0.0
  0
LINE
  8
CARROZZERIA
 62
90
 10
533.07
 20
-633.71
 30
0.0
 11
536.97
 21
-624.5
 31
0.0
  0
LINE
  8
CARROZZERIA
 62
90
 10
318.65
 20
-537.42
 30
0.0
 11
309.44
 21
-533.51
 31
0.0
  0
LINE
  8
CARROZZERIA
 62
90
 10
312.1
 20
-540.07
 30
0.0
 11
316
 21
-530.86
 31
0.0
  0
LINE
  8
CARROZZERIA
 62
90
 10
653.39
 20
-708.59
 30
0.0
 11
556.44
 21
-667.51
 31
0.0
  0
LINE
  8
CARROZZERIA
 62
90
 10
492.54
 20
-640.43
 30
0.0
 11
335.46
 21
-573.86
 31
0.0
  0
LINE
  8
CARROZZERIA
 62
90
 10
271.56
 20
-546.79
 30
0.0
 11
193.02
 21
-513.5
 31
0.0
  0
LINE
  8
CARROZZERIA
 62
90
 10
653.39
 20
-708.59
 30
0.0
 11
663.93
 21
-683.73
 31
0.0
  0
LINE
  8
CARROZZERIA
 62
90
 10
663.93
 20
-683.73
 30
0.0
 11
659.51
 21
-663.4
 31
0.0
  0
LINE
  8
CARROZZERIA
 62
90
 10
659.51
 20
-663.4
 30
0.0
 11
648.68
 21
-647.95
 31
0.0
  0
LINE
  8
CARROZZERIA
 62
90
 10
648.68
 20
-647.95
 30
0.0
 11
618.52
 21
-624.3
 31
0.0
  0
LINE
  8
CARROZZERIA
 62
90
 10
618.52
 20
-624.3
 30
0.0
 11
575.6
 21
-597.43
 31
0.0
  0
LINE
  8
CARROZZERIA
 62
90
 10
575.6
 20
-597.43
 30
0.0
 11
549.15
 21
-582.96
 31
0.0
  0
LINE
  8
CARROZZERIA
 62
90
 10
549.15
 20
-582.96
 30
0.0
 11
536.32
 21
-528.65
 31
0.0
  0
LINE
  8
CARROZZERIA
 62
90
 10
536.32
 20
-528.65
 30
0.0
 11
419.39
 21
-479.1
 31
0.0
  0
LINE
  8
CARROZZERIA
 62
90
 10
419.39
 20
-479.1
 30
0.0
 11
368.2
 21
-484.56
 31
0.0
  0
LINE
  8
CARROZZERIA
 62
90
 10
368.2
 20
-484.56
 30
0.0
 11
312.18
 21
-462.99
 31
0.0
  0
LINE
  8
CARROZZERIA
 62
90
 10
312.18
 20
-462.99
 30
0.0
 11
257.16
 21
-464.66
 31
0.0
  0
LINE
  8
CARROZZERIA
 62
90
 10
257.16
 20
-464.66
 30
0.0
 11
210.19
 21
-472.99
 31
0.0
  0
LINE
  8
CARROZZERIA
 62
90
 10
210.19
 20
-472.99
 30
0.0
 11
193.02
 21
-513.5
 31
0.0
  0
LINE
  8
CARROZZERIA
 62
90
 10
324.15
 20
-468.06
 30
0.0
 11
342.48
 21
-424.79
 31
0.0
  0
LINE
  8
CARROZZERIA
 62
90
 10
304.81
 20
-459.87
 30
0.0
 11
323.15
 21
-416.6
 31
0.0
  0
LINE
  8
CARROZZERIA
 62
90
 10
365.36
 20
-432.31
 30
0.0
 11
300.91
 21
-405
 31
0.0
  0
LINE
  8
CARROZZERIA
 62
90
 10
363.8
 20
-435.99
 30
0.0
 11
299.35
 21
-408.68
 31
0.0
  0
LINE
  8
CARROZZERIA
 62
90
 10
363.8
 20
-435.99
 30
0.0
 11
365.36
 21
-432.31
 31
0.0
  0
LINE
  8
CARROZZERIA
 62
90
 10
299.35
 20
-408.68
 30
0.0
 11
300.91
 21
-405
 31
0.0
  0
CIRCLE
  8
CARROZZERIA
 62
90
 10
534.63
 20
-630.03
 30
0.0
 40
35
  0
CIRCLE
  8
CARROZZERIA
 62
90
 10
313.66
 20
-536.39
 30
0.0
 40
35
  0
LINE
  8
CARROZZERIA
 62
30
 10
690.65
 20
-689.74
 30
0.0
 11
681.38
 21
-686
 31
0.0
  0
LINE
  8
CARROZZERIA
 62
30
 10
684.14
 20
-692.51
 30
0.0
 11
687.88
 21
-683.23
 31
0.0
  0
LINE
  8
CARROZZERIA
 62
30
 10
468.12
 20
-599.84
 30
0.0
 11
458.85
 21
-596.1
 31
0.0
  0
LINE
  8
CARROZZERIA
 62
30
 10
461.61
 20
-602.61
 30
0.0
 11
465.36
 21
-593.33
 31
0.0
  0
LINE
  8
CARROZZERIA
 62
30
 10
805.7
 20
-765.35
 30
0.0
 11
708.07
 21
-725.9
 31
0.0
  0
LINE
  8
CARROZZERIA
 62
30
 10
643.72
 20
-699.91
 30
0.0
 11
485.54
 21
-636
 31
0.0
  0
LINE
  8
CARROZZERIA
 62
30
 10
421.2
 20
-610.01
 30
0.0
 11
342.11
 21
-578.05
 31
0.0
  0
LINE
  8
CARROZZERIA
 62
30
 10
805.7
 20
-765.35
 30
0.0
 11
815.82
 21
-740.31
 31
0.0
  0
LINE
  8
CARROZZERIA
 62
30
 10
815.82
 20
-740.31
 30
0.0
 11
811.06
 21
-720.05
 31
0.0
  0
LINE
  8
CARROZZERIA
 62
30
 10
811.06
 20
-720.05
 30
0.0
 11
799.97
 21
-704.79
 31
0.0
  0
LINE
  8
CARROZZERIA
 62
30
 10
799.97
 20
-704.79
 30
0.0
 11
769.41
 21
-681.66
 31
0.0
  0
LINE
  8
CARROZZERIA
 62
30
 10
769.41
 20
-681.66
 30
0.0
 11
726.05
 21
-655.51
 31
0.0
  0
LINE
  8
CARROZZERIA
 62
30
 10
726.05
 20
-655.51
 30
0.0
 11
699.36
 21
-641.49
 31
0.0
  0
LINE
  8
CARROZZERIA
 62
30
 10
699.36
 20
-641.49
 30
0.0
 11
685.61
 21
-587.41
 31
0.0
  0
LINE
  8
CARROZZERIA
 62
30
 10
685.61
 20
-587.41
 30
0.0
 11
567.86
 21
-539.83
 31
0.0
  0
LINE
  8
CARROZZERIA
 62
30
 10
567.86
 20
-539.83
 30
0.0
 11
516.77
 21
-546.16
 31
0.0
  0
LINE
  8
CARROZZERIA
 62
30
 10
516.77
 20
-546.16
 30
0.0
 11
460.39
 21
-525.54
 31
0.0
  0
LINE
  8
CARROZZERIA
 62
30
 10
460.39
 20
-525.54
 30
0.0
 11
405.42
 21
-528.13
 31
0.0
  0
LINE
  8
CARROZZERIA
 62
30
 10
405.42
 20
-528.13
 30
0.0
 11
358.59
 21
-537.26
 31
0.0
  0
LINE
  8
CARROZZERIA
 62
30
 10
358.59
 20
-537.26
 30
0.0
 11
342.11
 21
-578.05
 31
0.0
  0
LINE
  8
CARROZZERIA
 62
30
 10
472.45
 20
-530.41
 30
0.0
 11
490.05
 21
-486.83
 31
0.0
  0
LINE
  8
CARROZZERIA
 62
30
 10
452.97
 20
-522.54
 30
0.0
 11
470.58
 21
-478.96
 31
0.0
  0
LINE
  8
CARROZZERIA
 62
30
 10
513.05
 20
-493.96
 30
0.0
 11
448.15
 21
-467.74
 31
0.0
  0
LINE
  8
CARROZZERIA
 62
30
 10
511.55
 20
-497.67
 30
0.0
 11
446.65
 21
-471.45
 31
0.0
  0
LINE
  8
CARROZZERIA
 62
30
 10
511.55
 20
-497.67
 30
0.0
 11
513.05
 21
-493.96
 31
0.0
  0
LINE
  8
CARROZZERIA
 62
30
 10
446.65
 20
-471.45
 30
0.0
 11
448.15
 21
-467.74
 31
0.0
  0
CIRCLE
  8
CARROZZERIA
 62
30
 10
685.64
 20
-688.8
 30
0.0
 40
35
  0
CIRCLE
  8
CARROZZERIA
 62
30
 10
463.11
 20
-598.9
 30
0.0
 40
35
  0
LINE
  8
CARROZZERIA
 62
30
 10
843.42
 20
-739.63
 30
0.0
 11
833.96
 21
-736.39
 31
0.0
  0
LINE
  8
CARROZZERIA
 62
30
 10
837.07
 20
-742.74
 30
0.0
 11
840.32
 21
-733.28
 31
0.0
  0
LINE
  8
CARROZZERIA
 62
30
 10
616.41
 20
-661.75
 30
0.0
 11
606.95
 21
-658.51
 31
0.0
  0
LINE
  8
CARROZZERIA
 62
30
 10
610.06
 20
-664.86
 30
0.0
 11
613.3
 21
-655.4
 31
0.0
  0
LINE
  8
CARROZZERIA
 62
30
 10
962.36
 20
-808.98
 30
0.0
 11
862.75
 21
-774.81
 31
0.0
  0
LINE
  8
CARROZZERIA
 62
30
 10
797.11
 20
-752.29
 30
0.0
 11
635.74
 21
-696.93
 31
0.0
  0
LINE
  8
CARROZZERIA
 62
30
 10
570.1
 20
-674.41
 30
0.0
 11
489.41
 21
-646.73
 31
0.0
  0
LINE
  8
CARROZZERIA
 62
30
 10
962.36
 20
-808.98
 30
0.0
 11
971.12
 21
-783.44
 31
0.0
  0
LINE
  8
CARROZZERIA
 62
30
 10
971.12
 20
-783.44
 30
0.0
 11
965.28
 21
-763.47
 31
0.0
  0
LINE
  8
CARROZZERIA
 62
30
 10
965.28
 20
-763.47
 30
0.0
 11
953.4
 21
-748.81
 31
0.0
  0
LINE
  8
CARROZZERIA
 62
30
 10
953.4
 20
-748.81
 30
0.0
 11
921.64
 21
-727.35
 31
0.0
  0
LINE
  8
CARROZZERIA
 62
30
 10
921.64
 20
-727.35
 30
0.0
 11
876.94
 21
-703.56
 31
0.0
  0
LINE
  8
CARROZZERIA
 62
30
 10
876.94
 20
-703.56
 30
0.0
 11
849.54
 21
-690.98
 31
0.0
  0
LINE
  8
CARROZZERIA
 62
30
 10
849.54
 20
-690.98
 30
0.0
 11
832.93
 21
-637.71
 31
0.0
  0
LINE
  8
CARROZZERIA
 62
30
 10
832.93
 20
-637.71
 30
0.0
 11
712.8
 21
-596.5
 31
0.0
  0
LINE
  8
CARROZZERIA
 62
30
 10
712.8
 20
-596.5
 30
0.0
 11
662.12
 21
-605.54
 31
0.0
  0
LINE
  8
CARROZZERIA
 62
30
 10
662.12
 20
-605.54
 30
0.0
 11
604.72
 21
-587.96
 31
0.0
  0
LINE
  8
CARROZZERIA
 62
30
 10
604.72
 20
-587.96
 30
0.0
 11
549.97
 21
-593.49
 31
0.0
  0
LINE
  8
CARROZZERIA
 62
30
 10
549.97
 20
-593.49
 30
0.0
 11
503.69
 21
-605.11
 31
0.0
  0
LINE
  8
CARROZZERIA
 62
30
 10
503.69
 20
-605.11
 30
0.0
 11
489.41
 21
-646.73
 31
0.0
  0
LINE
  8
CARROZZERIA
 62
30
 10
617.02
 20
-592.18
 30
0.0
 11
632.27
 21
-547.73
 31
0.0
  0
LINE
  8
CARROZZERIA
 62
30
 10
597.16
 20
-585.37
 30
0.0
 11
612.41
 21
-540.91
 31
0.0
  0
LINE
  8
CARROZZERIA
 62
30
 10
655.62
 20
-553.62
 30
0.0
 11
589.41
 21
-530.91
 31
0.0
  0
LINE
  8
CARROZZERIA
 62
30
 10
654.32
 20
-557.41
 30
0.0
 11
588.11
 21
-534.69
 31
0.0
  0
LINE
  8
CARROZZERIA
 62
30
 10
654.32
 20
-557.41
 30
0.0
 11
655.62
 21
-553.62
 31
0.0
  0
LINE
  8
CARROZZERIA
 62
30
 10
588.11
 20
-534.69
 30
0.0
 11
589.41
 21
-530.91
 31
0.0
  0
CIRCLE
  8
CARROZZERIA
 62
30
 10
838.37
 20
-738.96
 30
0.0
 40
35
  0
CIRCLE
  8
CARROZZERIA
 62
30
 10
611.36
 20
-661.07
 30
0.0
 40
35
  0
LINE
  8
CARROZZERIA
 62
30
 10
995.47
 20
-780.52
 30
0.0
 11
985.85
 21
-777.78
 31
0.0
  0
LINE
  8
CARROZZERIA
 62
30
 10
989.29
 20
-783.96
 30
0.0
 11
992.03
 21
-774.34
 31
0.0
  0
LINE
  8
CARROZZERIA
 62
30
 10
764.69
 20
-714.63
 30
0.0
 11
755.08
 21
-711.89
 31
0.0
  0
LINE
  8
CARROZZERIA
 62
30
 10
758.51
 20
-718.07
 30
0.0
 11
761.26
 21
-708.45
 31
0.0
  0
LINE
  8
CARROZZERIA
 62
30
 10
1117.87
 20
-843.55
 30
0.0
 11
1016.62
 21
-814.64
 31
0.0
  0
LINE
  8
CARROZZERIA
 62
30
 10
949.88
 20
-795.58
 30
0.0
 11
785.84
 21
-748.75
 31
0.0
  0
LINE
  8
CARROZZERIA
 62
30
 10
719.1
 20
-729.69
 30
0.0
 11
637.08
 21
-706.28
 31
0.0
  0
LINE
  8
CARROZZERIA
 62
30
 10
1117.87
 20
-843.55
 30
0.0
 11
1125.28
 21
-817.58
 31
0.0
  0
LINE
  8
CARROZZERIA
 62
30
 10
1125.28
 20
-817.58
 30
0.0
 11
1118.41
 21
-797.94
 31
0.0
  0
LINE
  8
CARROZZERIA
 62
30
 10
1118.41
 20
-797.94
 30
0.0
 11
1105.77
 21
-783.93
 31
0.0
  0
LINE
  8
CARROZZERIA
 62
30
 10
1105.77
 20
-783.93
 30
0.0
 11
1072.94
 21
-764.16
 31
0.0
  0
LINE
  8
CARROZZERIA
 62
30
 10
1072.94
 20
-764.16
 30
0.0
 11
1027.06
 21
-742.74
 31
0.0
  0
LINE
  8
CARROZZERIA
 62
30
 10
1027.06
 20
-742.74
 30
0.0
 11
999.03
 21
-731.62
 31
0.0
  0
LINE
  8
CARROZZERIA
 62
30
 10
999.03
 20
-731.62
 30
0.0
 11
979.65
 21
-679.29
 31
0.0
  0
LINE
  8
CARROZZERIA
 62
30
 10
979.65
 20
-679.29
 30
0.0
 11
857.53
 21
-644.42
 31
0.0
  0
LINE
  8
CARROZZERIA
 62
30
 10
857.53
 20
-644.42
 30
0.0
 11
807.4
 21
-656.11
 31
0.0
  0
LINE
  8
CARROZZERIA
 62
30
 10
807.4
 20
-656.11
 30
0.0
 11
749.16
 21
-641.56
 31
0.0
  0
LINE
  8
CARROZZERIA
 62
30
 10
749.16
 20
-641.56
 30
0.0
 11
694.76
 21
-649.95
 31
0.0
  0
LINE
  8
CARROZZERIA
 62
30
 10
694.76
 20
-649.95
 30
0.0
 11
649.16
 21
-663.97
 31
0.0
  0
LINE
  8
CARROZZERIA
 62
30
 10
649.16
 20
-663.97
 30
0.0
 11
637.08
 21
-706.28
 31
0.0
  0
LINE
  8
CARROZZERIA
 62
30
 10
761.66
 20
-645.13
 30
0.0
 11
774.56
 21
-599.93
 31
0.0
  0
LINE
  8
CARROZZERIA
 62
30
 10
741.46
 20
-639.36
 30
0.0
 11
754.37
 21
-594.17
 31
0.0
  0
LINE
  8
CARROZZERIA
 62
30
 10
798.19
 20
-604.6
 30
0.0
 11
730.88
 21
-585.38
 31
0.0
  0
LINE
  8
CARROZZERIA
 62
30
 10
797.09
 20
-608.45
 30
0.0
 11
729.78
 21
-589.23
 31
0.0
  0
LINE
  8
CARROZZERIA
 62
30
 10
797.09
 20
-608.45
 30
0.0
 11
798.19
 21
-604.6
 31
0.0
  0
LINE
  8
CARROZZERIA
 62
30
 10
729.78
 20
-589.23
 30
0.0
 11
730.88
 21
-585.38
 31
0.0
  0
CIRCLE
  8
CARROZZERIA
 62
30
 10
990.39
 20
-780.11
 30
0.0
 40
35
  0
CIRCLE
  8
CARROZZERIA
 62
30
 10
759.61
 20
-714.22
 30
0.0
 40
35
  0
LINE
  8
CARROZZERIA
 62
30
 10
1146.82
 20
-812.91
 30
0.0
 11
1137.08
 21
-810.66
 31
0.0
  0
LINE
  8
CARROZZERIA
 62
30
 10
1140.83
 20
-816.65
 30
0.0
 11
1143.08
 21
-806.91
 31
0.0
  0
LINE
  8
CARROZZERIA
 62
30
 10
912.96
 20
-758.98
 30
0.0
 11
903.22
 21
-756.73
 31
0.0
  0
LINE
  8
CARROZZERIA
 62
30
 10
906.97
 20
-762.73
 30
0.0
 11
909.21
 21
-752.98
 31
0.0
  0
LINE
  8
CARROZZERIA
 62
30
 10
1272.31
 20
-869.55
 30
0.0
 11
1169.7
 21
-845.89
 31
0.0
  0
LINE
  8
CARROZZERIA
 62
30
 10
1102.07
 20
-830.29
 30
0.0
 11
935.83
 21
-791.96
 31
0.0
  0
LINE
  8
CARROZZERIA
 62
30
 10
868.21
 20
-776.37
 30
0.0
 11
785.09
 21
-757.2
 31
0.0
  0
LINE
  8
CARROZZERIA
 62
30
 10
1272.31
 20
-869.55
 30
0.0
 11
1278.37
 21
-843.24
 31
0.0
  0
LINE
  8
CARROZZERIA
 62
30
 10
1278.37
 20
-843.24
 30
0.0
 11
1270.5
 21
-823.98
 31
0.0
  0
LINE
  8
CARROZZERIA
 62
30
 10
1270.5
 20
-823.98
 30
0.0
 11
1257.15
 21
-810.64
 31
0.0
  0
LINE
  8
CARROZZERIA
 62
30
 10
1257.15
 20
-810.64
 30
0.0
 11
1223.35
 21
-792.58
 31
0.0
  0
LINE
  8
CARROZZERIA
 62
30
 10
1223.35
 20
-792.58
 30
0.0
 11
1176.42
 21
-773.55
 31
0.0
  0
LINE
  8
CARROZZERIA
 62
30
 10
1176.42
 20
-773.55
 30
0.0
 11
1147.87
 21
-763.89
 31
0.0
  0
LINE
  8
CARROZZERIA
 62
30
 10
1147.87
 20
-763.89
 30
0.0
 11
1125.82
 21
-712.62
 31
0.0
  0
LINE
  8
CARROZZERIA
 62
30
 10
1125.82
 20
-712.62
 30
0.0
 11
1002.07
 21
-684.09
 31
0.0
  0
LINE
  8
CARROZZERIA
 62
30
 10
1002.07
 20
-684.09
 30
0.0
 11
952.6
 21
-698.34
 31
0.0
  0
LINE
  8
CARROZZERIA
 62
30
 10
952.6
 20
-698.34
 30
0.0
 11
893.69
 21
-686.8
 31
0.0
  0
LINE
  8
CARROZZERIA
 62
30
 10
893.69
 20
-686.8
 30
0.0
 11
839.8
 21
-697.98
 31
0.0
  0
LINE
  8
CARROZZERIA
 62
30
 10
839.8
 20
-697.98
 30
0.0
 11
794.98
 21
-714.33
 31
0.0
  0
LINE
  8
CARROZZERIA
 62
30
 10
794.98
 20
-714.33
 30
0.0
 11
785.09
 21
-757.2
 31
0.0
  0
LINE
  8
CARROZZERIA
 62
30
 10
906.35
 20
-689.72
 30
0.0
 11
916.91
 21
-643.93
 31
0.0
  0
LINE
  8
CARROZZERIA
 62
30
 10
885.89
 20
-685
 30
0.0
 11
896.45
 21
-639.21
 31
0.0
  0
LINE
  8
CARROZZERIA
 62
30
 10
940.75
 20
-647.37
 30
0.0
 11
872.54
 21
-631.64
 31
0.0
  0
LINE
  8
CARROZZERIA
 62
30
 10
939.85
 20
-651.27
 30
0.0
 11
871.64
 21
-635.54
 31
0.0
  0
LINE
  8
CARROZZERIA
 62
30
 10
939.85
 20
-651.27
 30
0.0
 11
940.75
 21
-647.37
 31
0.0
  0
LINE
  8
CARROZZERIA
 62
30
 10
871.64
 20
-635.54
 30
0.0
 11
872.54
 21
-631.64
 31
0.0
  0
CIRCLE
  8
CARROZZERIA
 62
30
 10
1141.73
 20
-812.76
 30
0.0
 40
35
  0
CIRCLE
  8
CARROZZERIA
 62
30
 10
907.86
 20
-758.83
 30
0.0
 40
35
  0
LINE
  8
CARROZZERIA
 62
30
 10
1297.52
 20
-837.17
 30
0.0
 11
1287.67
 21
-835.42
 31
0.0
  0
LINE
  8
CARROZZERIA
 62
30
 10
1291.72
 20
-841.22
 30
0.0
 11
1293.47
 21
-831.37
 31
0.0
  0
LINE
  8
CARROZZERIA
 62
30
 10
1061.22
 20
-795.18
 30
0.0
 11
1051.38
 21
-793.43
 31
0.0
  0
LINE
  8
CARROZZERIA
 62
30
 10
1055.42
 20
-799.23
 30
0.0
 11
1057.17
 21
-789.39
 31
0.0
  0
LINE
  8
CARROZZERIA
 62
30
 10
1425.71
 20
-887.37
 30
0.0
 11
1322.04
 21
-868.95
 31
0.0
  0
LINE
  8
CARROZZERIA
 62
30
 10
1253.71
 20
-856.81
 30
0.0
 11
1085.74
 21
-826.96
 31
0.0
  0
LINE
  8
CARROZZERIA
 62
30
 10
1017.41
 20
-814.82
 30
0.0
 11
933.43
 21
-799.9
 31
0.0
  0
LINE
  8
CARROZZERIA
 62
30
 10
1425.71
 20
-887.37
 30
0.0
 11
1430.44
 21
-860.79
 31
0.0
  0
LINE
  8
CARROZZERIA
 62
30
 10
1430.44
 20
-860.79
 30
0.0
 11
1421.6
 21
-841.95
 31
0.0
  0
LINE
  8
CARROZZERIA
 62
30
 10
1421.6
 20
-841.95
 30
0.0
 11
1407.59
 21
-829.31
 31
0.0
  0
LINE
  8
CARROZZERIA
 62
30
 10
1407.59
 20
-829.31
 30
0.0
 11
1372.91
 21
-812.99
 31
0.0
  0
LINE
  8
CARROZZERIA
 62
30
 10
1372.91
 20
-812.99
 30
0.0
 11
1325.08
 21
-796.36
 31
0.0
  0
LINE
  8
CARROZZERIA
 62
30
 10
1325.08
 20
-796.36
 30
0.0
 11
1296.07
 21
-788.16
 31
0.0
  0
LINE
  8
CARROZZERIA
 62
30
 10
1296.07
 20
-788.16
 30
0.0
 11
1271.45
 21
-738.08
 31
0.0
  0
LINE
  8
CARROZZERIA
 62
30
 10
1271.45
 20
-738.08
 30
0.0
 11
1146.41
 21
-715.86
 31
0.0
  0
LINE
  8
CARROZZERIA
 62
30
 10
1146.41
 20
-715.86
 30
0.0
 11
1097.73
 21
-732.61
 31
0.0
  0
LINE
  8
CARROZZERIA
 62
30
 10
1097.73
 20
-732.61
 30
0.0
 11
1038.31
 21
-724.08
 31
0.0
  0
LINE
  8
CARROZZERIA
 62
30
 10
1038.31
 20
-724.08
 30
0.0
 11
985.05
 21
-737.98
 31
0.0
  0
LINE
  8
CARROZZERIA
 62
30
 10
985.05
 20
-737.98
 30
0.0
 11
941.12
 21
-756.58
 31
0.0
  0
LINE
  8
CARROZZERIA
 62
30
 10
941.12
 20
-756.58
 30
0.0
 11
933.43
 21
-799.9
 31
0.0
  0
LINE
  8
CARROZZERIA
 62
30
 10
1051.11
 20
-726.35
 30
0.0
 11
1059.33
 21
-680.08
 31
0.0
  0
LINE
  8
CARROZZERIA
 62
30
 10
1030.43
 20
-722.68
 30
0.0
 11
1038.65
 21
-676.4
 31
0.0
  0
LINE
  8
CARROZZERIA
 62
30
 10
1083.31
 20
-682.31
 30
0.0
 11
1014.39
 21
-670.06
 31
0.0
  0
LINE
  8
CARROZZERIA
 62
30
 10
1082.61
 20
-686.24
 30
0.0
 11
1013.69
 21
-674
 31
0.0
  0
LINE
  8
CARROZZERIA
 62
30
 10
1082.61
 20
-686.24
 30
0.0
 11
1083.31
 21
-682.31
 31
0.0
  0
LINE
  8
CARROZZERIA
 62
30
 10
1013.69
 20
-674
 30
0.0
 11
1014.39
 21
-670.06
 31
0.0
  0
CIRCLE
  8
CARROZZERIA
 62
30
 10
1292.42
 20
-837.28
 30
0.0
 40
35
  0
CIRCLE
  8
CARROZZERIA
 62
30
 10
1056.12
 20
-795.29
 30
0.0
 40
35
  0
LINE
  8
CARROZZERIA
 62
30
 10
1447.58
 20
-853.62
 30
0.0
 11
1437.66
 21
-852.36
 31
0.0
  0
LINE
  8
CARROZZERIA
 62
30
 10
1441.99
 20
-857.95
 30
0.0
 11
1443.25
 21
-848.03
 31
0.0
  0
LINE
  8
CARROZZERIA
 62
30
 10
1209.47
 20
-823.54
 30
0.0
 11
1199.55
 21
-822.29
 31
0.0
  0
LINE
  8
CARROZZERIA
 62
30
 10
1203.88
 20
-827.88
 30
0.0
 11
1205.14
 21
-817.96
 31
0.0
  0
LINE
  8
CARROZZERIA
 62
30
 10
1578.13
 20
-897.32
 30
0.0
 11
1473.66
 21
-884.13
 31
0.0
  0
LINE
  8
CARROZZERIA
 62
30
 10
1404.81
 20
-875.43
 30
0.0
 11
1235.55
 21
-854.05
 31
0.0
  0
LINE
  8
CARROZZERIA
 62
30
 10
1166.7
 20
-845.36
 30
0.0
 11
1082.07
 21
-834.67
 31
0.0
  0
LINE
  8
CARROZZERIA
 62
30
 10
1578.13
 20
-897.32
 30
0.0
 11
1581.52
 21
-870.53
 31
0.0
  0
LINE
  8
CARROZZERIA
 62
30
 10
1581.52
 20
-870.53
 30
0.0
 11
1571.74
 21
-852.16
 31
0.0
  0
LINE
  8
CARROZZERIA
 62
30
 10
1571.74
 20
-852.16
 30
0.0
 11
1557.12
 21
-840.24
 31
0.0
  0
LINE
  8
CARROZZERIA
 62
30
 10
1557.12
 20
-840.24
 30
0.0
 11
1521.66
 21
-825.68
 31
0.0
  0
LINE
  8
CARROZZERIA
 62
30
 10
1521.66
 20
-825.68
 30
0.0
 11
1473.06
 21
-811.48
 31
0.0
  0
LINE
  8
CARROZZERIA
 62
30
 10
1473.06
 20
-811.48
 30
0.0
 11
1443.67
 21
-804.74
 31
0.0
  0
LINE
  8
CARROZZERIA
 62
30
 10
1443.67
 20
-804.74
 30
0.0
 11
1416.57
 21
-755.96
 31
0.0
  0
LINE
  8
CARROZZERIA
 62
30
 10
1416.57
 20
-755.96
 30
0.0
 11
1290.57
 21
-740.05
 31
0.0
  0
LINE
  8
CARROZZERIA
 62
30
 10
1290.57
 20
-740.05
 30
0.0
 11
1242.8
 21
-759.21
 31
0.0
  0
LINE
  8
CARROZZERIA
 62
30
 10
1242.8
 20
-759.21
 30
0.0
 11
1183.02
 21
-753.68
 31
0.0
  0
LINE
  8
CARROZZERIA
 62
30
 10
1183.02
 20
-753.68
 30
0.0
 11
1130.53
 21
-770.23
 31
0.0
  0
LINE
  8
CARROZZERIA
 62
30
 10
1130.53
 20
-770.23
 30
0.0
 11
1087.59
 21
-791.01
 31
0.0
  0
LINE
  8
CARROZZERIA
 62
30
 10
1087.59
 20
-791.01
 30
0.0
 11
1082.07
 21
-834.67
 31
0.0
  0
LINE
  8
CARROZZERIA
 62
30
 10
1195.92
 20
-755.31
 30
0.0
 11
1201.81
 21
-708.68
 31
0.0
  0
LINE
  8
CARROZZERIA
 62
30
 10
1175.08
 20
-752.67
 30
0.0
 11
1180.97
 21
-706.05
 31
0.0
  0
LINE
  8
CARROZZERIA
 62
30
 10
1225.87
 20
-709.7
 30
0.0
 11
1156.42
 21
-700.93
 31
0.0
  0
LINE
  8
CARROZZERIA
 62
30
 10
1225.37
 20
-713.67
 30
0.0
 11
1155.92
 21
-704.9
 31
0.0
  0
LINE
  8
CARROZZERIA
 62
30
 10
1225.37
 20
-713.67
 30
0.0
 11
1225.87
 21
-709.7
 31
0.0
  0
LINE
  8
CARROZZERIA
 62
30
 10
1155.92
 20
-704.9
 30
0.0
 11
1156.42
 21
-700.93
 31
0.0
  0
CIRCLE
  8
CARROZZERIA
 62
30
 10
1442.49
 20
-853.98
 30
0.0
 40
35
  0
CIRCLE
  8
CARROZZERIA
 62
30
 10
1204.39
 20
-823.91
 30
0.0
 40
35
  0
LINE
  8
CARROZZERIA
 62
30
 10
1567.18
 20
-861.3
 30
0.0
 11
1557.22
 21
-860.44
 31
0.0
  0
LINE
  8
CARROZZERIA
 62
30
 10
1561.77
 20
-865.85
 30
0.0
 11
1562.63
 21
-855.89
 31
0.0
  0
LINE
  8
CARROZZERIA
 62
30
 10
1328.07
 20
-840.74
 30
0.0
 11
1318.1
 21
-839.88
 31
0.0
  0
LINE
  8
CARROZZERIA
 62
30
 10
1322.66
 20
-845.29
 30
0.0
 11
1323.51
 21
-835.33
 31
0.0
  0
LINE
  8
CARROZZERIA
 62
30
 10
1699.37
 20
-899.76
 30
0.0
 11
1594.46
 21
-890.74
 31
0.0
  0
LINE
  8
CARROZZERIA
 62
30
 10
1525.32
 20
-884.8
 30
0.0
 11
1355.34
 21
-870.18
 31
0.0
  0
LINE
  8
CARROZZERIA
 62
30
 10
1286.2
 20
-864.24
 30
0.0
 11
1201.21
 21
-856.93
 31
0.0
  0
LINE
  8
CARROZZERIA
 62
30
 10
1699.37
 20
-899.76
 30
0.0
 11
1701.69
 21
-872.86
 31
0.0
  0
LINE
  8
CARROZZERIA
 62
30
 10
1701.69
 20
-872.86
 30
0.0
 11
1691.19
 21
-854.9
 31
0.0
  0
LINE
  8
CARROZZERIA
 62
30
 10
1691.19
 20
-854.9
 30
0.0
 11
1676.1
 21
-843.56
 31
0.0
  0
LINE
  8
CARROZZERIA
 62
30
 10
1676.1
 20
-843.56
 30
0.0
 11
1640.1
 21
-830.43
 31
0.0
  0
LINE
  8
CARROZZERIA
 62
30
 10
1640.1
 20
-830.43
 30
0.0
 11
1590.97
 21
-818.18
 31
0.0
  0
LINE
  8
CARROZZERIA
 62
30
 10
1590.97
 20
-818.18
 30
0.0
 11
1561.33
 21
-812.62
 31
0.0
  0
LINE
  8
CARROZZERIA
 62
30
 10
1561.33
 20
-812.62
 30
0.0
 11
1532.31
 21
-764.96
 31
0.0
  0
LINE
  8
CARROZZERIA
 62
30
 10
1532.31
 20
-764.96
 30
0.0
 11
1405.78
 21
-754.07
 31
0.0
  0
LINE
  8
CARROZZERIA
 62
30
 10
1405.78
 20
-754.07
 30
0.0
 11
1358.8
 21
-775.13
 31
0.0
  0
LINE
  8
CARROZZERIA
 62
30
 10
1358.8
 20
-775.13
 30
0.0
 11
1298.85
 21
-771.98
 31
0.0
  0
LINE
  8
CARROZZERIA
 62
30
 10
1298.85
 20
-771.98
 30
0.0
 11
1247.06
 21
-790.61
 31
0.0
  0
LINE
  8
CARROZZERIA
 62
30
 10
1247.06
 20
-790.61
 30
0.0
 11
1204.98
 21
-813.09
 31
0.0
  0
LINE
  8
CARROZZERIA
 62
30
 10
1204.98
 20
-813.09
 30
0.0
 11
1201.21
 21
-856.93
 31
0.0
  0
LINE
  8
CARROZZERIA
 62
30
 10
1311.8
 20
-773.09
 30
0.0
 11
1315.83
 21
-726.27
 31
0.0
  0
LINE
  8
CARROZZERIA
 62
30
 10
1290.88
 20
-771.29
 30
0.0
 11
1294.9
 21
-724.47
 31
0.0
  0
LINE
  8
CARROZZERIA
 62
30
 10
1339.91
 20
-726.33
 30
0.0
 11
1270.17
 21
-720.33
 31
0.0
  0
LINE
  8
CARROZZERIA
 62
30
 10
1339.57
 20
-730.32
 30
0.0
 11
1269.83
 21
-724.32
 31
0.0
  0
LINE
  8
CARROZZERIA
 62
30
 10
1339.57
 20
-730.32
 30
0.0
 11
1339.91
 21
-726.33
 31
0.0
  0
LINE
  8
CARROZZERIA
 62
30
 10
1269.83
 20
-724.32
 30
0.0
 11
1270.17
 21
-720.33
 31
0.0
  0
CIRCLE
  8
CARROZZERIA
 62
30
 10
1562.12
 20
-861.87
 30
0.0
 40
35
  0
CIRCLE
  8
CARROZZERIA
 62
30
 10
1323
 20
-841.3
 30
0.0
 40
35
  0
LINE
  8
CARROZZERIA
 62
30
 10
1597.02
 20
-862.47
 30
0.0
 11
1587.05
 21
-861.71
 31
0.0
  0
LINE
  8
CARROZZERIA
 62
30
 10
1591.66
 20
-867.07
 30
0.0
 11
1592.42
 21
-857.1
 31
0.0
  0
LINE
  8
CARROZZERIA
 62
30
 10
1357.71
 20
-844.28
 30
0.0
 11
1347.74
 21
-843.53
 31
0.0
  0
LINE
  8
CARROZZERIA
 62
30
 10
1352.35
 20
-848.89
 30
0.0
 11
1353.11
 21
-838.92
 31
0.0
  0
LINE
  8
CARROZZERIA
 62
30
 10
1729.59
 20
-899.62
 30
0.0
 11
1624.59
 21
-891.64
 31
0.0
  0
LINE
  8
CARROZZERIA
 62
30
 10
1555.39
 20
-886.38
 30
0.0
 11
1385.28
 21
-873.46
 31
0.0
  0
LINE
  8
CARROZZERIA
 62
30
 10
1316.08
 20
-868.2
 30
0.0
 11
1231.03
 21
-861.73
 31
0.0
  0
LINE
  8
CARROZZERIA
 62
30
 10
1729.59
 20
-899.62
 30
0.0
 11
1731.64
 21
-872.7
 31
0.0
  0
LINE
  8
CARROZZERIA
 62
30
 10
1731.64
 20
-872.7
 30
0.0
 11
1720.96
 21
-854.84
 31
0.0
  0
LINE
  8
CARROZZERIA
 62
30
 10
1720.96
 20
-854.84
 30
0.0
 11
1705.76
 21
-843.65
 31
0.0
  0
LINE
  8
CARROZZERIA
 62
30
 10
1705.76
 20
-843.65
 30
0.0
 11
1669.63
 21
-830.88
 31
0.0
  0
LINE
  8
CARROZZERIA
 62
30
 10
1669.63
 20
-830.88
 30
0.0
 11
1620.38
 21
-819.11
 31
0.0
  0
LINE
  8
CARROZZERIA
 62
30
 10
1620.38
 20
-819.11
 30
0.0
 11
1590.69
 21
-813.85
 31
0.0
  0
LINE
  8
CARROZZERIA
 62
30
 10
1590.69
 20
-813.85
 30
0.0
 11
1561.19
 21
-766.48
 31
0.0
  0
LINE
  8
CARROZZERIA
 62
30
 10
1561.19
 20
-766.48
 30
0.0
 11
1434.56
 21
-756.85
 31
0.0
  0
LINE
  8
CARROZZERIA
 62
30
 10
1434.56
 20
-756.85
 30
0.0
 11
1387.79
 21
-778.37
 31
0.0
  0
LINE
  8
CARROZZERIA
 62
30
 10
1387.79
 20
-778.37
 30
0.0
 11
1327.81
 21
-775.82
 31
0.0
  0
LINE
  8
CARROZZERIA
 62
30
 10
1327.81
 20
-775.82
 30
0.0
 11
1276.22
 21
-794.97
 31
0.0
  0
LINE
  8
CARROZZERIA
 62
30
 10
1276.22
 20
-794.97
 30
0.0
 11
1234.36
 21
-817.86
 31
0.0
  0
LINE
  8
CARROZZERIA
 62
30
 10
1234.36
 20
-817.86
 30
0.0
 11
1231.03
 21
-861.73
 31
0.0
  0
LINE
  8
CARROZZERIA
 62
30
 10
1340.78
 20
-776.81
 30
0.0
 11
1344.34
 21
-729.94
 31
0.0
  0
LINE
  8
CARROZZERIA
 62
30
 10
1319.84
 20
-775.21
 30
0.0
 11
1323.4
 21
-728.35
 31
0.0
  0
LINE
  8
CARROZZERIA
 62
30
 10
1368.42
 20
-729.77
 30
0.0
 11
1298.62
 21
-724.46
 31
0.0
  0
LINE
  8
CARROZZERIA
 62
30
 10
1368.12
 20
-733.75
 30
0.0
 11
1298.32
 21
-728.45
 31
0.0
  0
LINE
  8
CARROZZERIA
 62
30
 10
1368.12
 20
-733.75
 30
0.0
 11
1368.42
 21
-729.77
 31
0.0
  0
LINE
  8
CARROZZERIA
 62
30
 10
1298.32
 20
-728.45
 30
0.0
 11
1298.62
 21
-724.46
 31
0.0
  0
CIRCLE
  8
CARROZZERIA
 62
30
 10
1591.96
 20
-863.09
 30
0.0
 40
35
  0
CIRCLE
  8
CARROZZERIA
 62
30
 10
1352.65
 20
-844.9
 30
0.0
 40
35
  0
LINE
  8
CARROZZERIA
 62
90
 10
1745.9
 20
-864.15
 30
0.0
 11
1735.9
 21
-863.88
 31
0.0
  0
LINE
  8
CARROZZERIA
 62
90
 10
1740.76
 20
-869.01
 30
0.0
 11
1741.03
 21
-859.02
 31
0.0
  0
LINE
  8
CARROZZERIA
 62
90
 10
1505.99
 20
-857.57
 30
0.0
 11
1495.99
 21
-857.3
 31
0.0
  0
LINE
  8
CARROZZERIA
 62
90
 10
1500.85
 20
-862.43
 30
0.0
 11
1501.12
 21
-852.43
 31
0.0
  0
LINE
  8
CARROZZERIA
 62
90
 10
1880.1
 20
-894.84
 30
0.0
 11
1774.84
 21
-891.95
 31
0.0
  0
LINE
  8
CARROZZERIA
 62
90
 10
1705.47
 20
-890.05
 30
0.0
 11
1534.93
 21
-885.37
 31
0.0
  0
LINE
  8
CARROZZERIA
 62
90
 10
1465.56
 20
-883.47
 30
0.0
 11
1380.29
 21
-881.13
 31
0.0
  0
LINE
  8
CARROZZERIA
 62
90
 10
1880.1
 20
-894.84
 30
0.0
 11
1880.84
 21
-867.85
 31
0.0
  0
LINE
  8
CARROZZERIA
 62
90
 10
1880.84
 20
-867.85
 30
0.0
 11
1869.31
 21
-850.53
 31
0.0
  0
LINE
  8
CARROZZERIA
 62
90
 10
1869.31
 20
-850.53
 30
0.0
 11
1853.6
 21
-840.09
 31
0.0
  0
LINE
  8
CARROZZERIA
 62
90
 10
1853.6
 20
-840.09
 30
0.0
 11
1816.88
 21
-829.08
 31
0.0
  0
LINE
  8
CARROZZERIA
 62
90
 10
1816.88
 20
-829.08
 30
0.0
 11
1767.12
 21
-819.72
 31
0.0
  0
LINE
  8
CARROZZERIA
 62
90
 10
1767.12
 20
-819.72
 30
0.0
 11
1737.21
 21
-815.89
 31
0.0
  0
LINE
  8
CARROZZERIA
 62
90
 10
1737.21
 20
-815.89
 30
0.0
 11
1705.46
 21
-770.01
 31
0.0
  0
LINE
  8
CARROZZERIA
 62
90
 10
1705.46
 20
-770.01
 30
0.0
 11
1578.51
 21
-766.52
 31
0.0
  0
LINE
  8
CARROZZERIA
 62
90
 10
1578.51
 20
-766.52
 30
0.0
 11
1532.84
 21
-790.28
 31
0.0
  0
LINE
  8
CARROZZERIA
 62
90
 10
1532.84
 20
-790.28
 30
0.0
 11
1472.81
 21
-790.63
 31
0.0
  0
LINE
  8
CARROZZERIA
 62
90
 10
1472.81
 20
-790.63
 30
0.0
 11
1422.2
 21
-812.26
 31
0.0
  0
LINE
  8
CARROZZERIA
 62
90
 10
1422.2
 20
-812.26
 30
0.0
 11
1381.5
 21
-837.15
 31
0.0
  0
LINE
  8
CARROZZERIA
 62
90
 10
1381.5
 20
-837.15
 30
0.0
 11
1380.29
 21
-881.13
 31
0.0
  0
LINE
  8
CARROZZERIA
 62
90
 10
1485.8
 20
-790.99
 30
0.0
 11
1487.09
 21
-744.01
 31
0.0
  0
LINE
  8
CARROZZERIA
 62
90
 10
1464.81
 20
-790.42
 30
0.0
 11
1466.1
 21
-743.43
 31
0.0
  0
LINE
  8
CARROZZERIA
 62
90
 10
1511.14
 20
-742.67
 30
0.0
 11
1441.16
 21
-740.75
 31
0.0
  0
LINE
  8
CARROZZERIA
 62
90
 10
1511.03
 20
-746.67
 30
0.0
 11
1441.05
 21
-744.75
 31
0.0
  0
LINE
  8
CARROZZERIA
 62
90
 10
1511.03
 20
-746.67
 30
0.0
 11
1511.14
 21
-742.67
 31
0.0
  0
LINE
  8
CARROZZERIA
 62
90
 10
1441.05
 20
-744.75
 30
0.0
 11
1441.16
 21
-740.75
 31
0.0
  0
CIRCLE
  8
CARROZZERIA
 62
90
 10
1740.87
 20
-865.01
 30
0.0
 40
35
  0
CIRCLE
  8
CARROZZERIA
 62
90
 10
1500.96
 20
-858.43
 30
0.0
 40
35
  0
LINE
  8
CARROZZERIA
 62
90
 10
1895.06
 20
-864.01
 30
0.0
 11
1885.06
 21
-863.99
 31
0.0
  0
LINE
  8
CARROZZERIA
 62
90
 10
1890.05
 20
-869
 30
0.0
 11
1890.07
 21
-859
 31
0.0
  0
LINE
  8
CARROZZERIA
 62
90
 10
1655.06
 20
-863.6
 30
0.0
 11
1645.06
 21
-863.58
 31
0.0
  0
LINE
  8
CARROZZERIA
 62
90
 10
1650.05
 20
-868.59
 30
0.0
 11
1650.07
 21
-858.59
 31
0.0
  0
LINE
  8
CARROZZERIA
 62
90
 10
2030.01
 20
-891.24
 30
0.0
 11
1924.72
 21
-891.06
 31
0.0
  0
LINE
  8
CARROZZERIA
 62
90
 10
1855.32
 20
-890.94
 30
0.0
 11
1684.72
 21
-890.65
 31
0.0
  0
LINE
  8
CARROZZERIA
 62
90
 10
1615.32
 20
-890.53
 30
0.0
 11
1530.02
 21
-890.38
 31
0.0
  0
LINE
  8
CARROZZERIA
 62
90
 10
2030.01
 20
-891.24
 30
0.0
 11
2030.06
 21
-864.24
 31
0.0
  0
LINE
  8
CARROZZERIA
 62
90
 10
2030.06
 20
-864.24
 30
0.0
 11
2018.09
 21
-847.22
 31
0.0
  0
LINE
  8
CARROZZERIA
 62
90
 10
2018.09
 20
-847.22
 30
0.0
 11
2002.11
 21
-837.19
 31
0.0
  0
LINE
  8
CARROZZERIA
 62
90
 10
2002.11
 20
-837.19
 30
0.0
 11
1965.12
 21
-827.13
 31
0.0
  0
LINE
  8
CARROZZERIA
 62
90
 10
1965.12
 20
-827.13
 30
0.0
 11
1915.14
 21
-819.04
 31
0.0
  0
LINE
  8
CARROZZERIA
 62
90
 10
1915.14
 20
-819.04
 30
0.0
 11
1885.14
 21
-815.99
 31
0.0
  0
LINE
  8
CARROZZERIA
 62
90
 10
1885.14
 20
-815.99
 30
0.0
 11
1852.22
 21
-770.94
 31
0.0
  0
LINE
  8
CARROZZERIA
 62
90
 10
1852.22
 20
-770.94
 30
0.0
 11
1725.22
 21
-770.72
 31
0.0
  0
LINE
  8
CARROZZERIA
 62
90
 10
1725.22
 20
-770.72
 30
0.0
 11
1680.18
 21
-795.64
 31
0.0
  0
LINE
  8
CARROZZERIA
 62
90
 10
1680.18
 20
-795.64
 30
0.0
 11
1620.17
 21
-797.54
 31
0.0
  0
LINE
  8
CARROZZERIA
 62
90
 10
1620.17
 20
-797.54
 30
0.0
 11
1570.14
 21
-820.45
 31
0.0
  0
LINE
  8
CARROZZERIA
 62
90
 10
1570.14
 20
-820.45
 30
0.0
 11
1530.09
 21
-846.38
 31
0.0
  0
LINE
  8
CARROZZERIA
 62
90
 10
1530.09
 20
-846.38
 30
0.0
 11
1530.02
 21
-890.38
 31
0.0
  0
LINE
  8
CARROZZERIA
 62
90
 10
1633.17
 20
-797.56
 30
0.0
 11
1633.26
 21
-750.56
 31
0.0
  0
LINE
  8
CARROZZERIA
 62
90
 10
1612.17
 20
-797.52
 30
0.0
 11
1612.26
 21
-750.52
 31
0.0
  0
LINE
  8
CARROZZERIA
 62
90
 10
1657.26
 20
-748.6
 30
0.0
 11
1587.26
 21
-748.48
 31
0.0
  0
LINE
  8
CARROZZERIA
 62
90
 10
1657.25
 20
-752.6
 30
0.0
 11
1587.25
 21
-752.48
 31
0.0
  0
LINE
  8
CARROZZERIA
 62
90
 10
1657.25
 20
-752.6
 30
0.0
 11
1657.26
 21
-748.6
 31
0.0
  0
LINE
  8
CARROZZERIA
 62
90
 10
1587.25
 20
-752.48
 30
0.0
 11
1587.26
 21
-748.48
 31
0.0
  0
CIRCLE
  8
CARROZZERIA
 62
90
 10
1890.06
 20
-865
 30
0.0
 40
35
  0
CIRCLE
  8
CARROZZERIA
 62
90
 10
1650.06
 20
-864.59
 30
0.0
 40
35
  0
CIRCLE
  8
TESTO
 62
30
 10
1699.37
 20
-899.76
 30
0.0
 40
11
  0
LINE
  8
CRITICO
 62
30
 10
1699.37
 20
-899.76
 30
0.0
 11
1699.37
 21
-900
 31
0.0
  0
LINE
  8
CRITICO
 62
30
 10
1699.37
 20
-899.76
 30
0.0
 11
1849.37
 21
-954.76
 31
0.0
  0
TEXT
  8
CRITICO
 62
30
 10
1857.37
 20
-962.76
 30
0.0
 40
10
  1
paraurti ANT (muso): +0.24 cm  ->  a rischio
  0
CIRCLE
  8
TESTO
 62
90
 10
1341.44
 20
-876.9
 30
0.0
 40
9
  0
TEXT
  8
TESTO
 62
90
 10
1221.44
 20
-854.9
 30
0.0
 40
8
  1
POST +1.89
  0
TEXT
  8
TESTO
 62
30
 10
-560
 20
-428
 30
0.0
 40
16
  1
h = 9 cm
  0
TEXT
  8
TESTO
 62
30
 10
-300
 20
-426
 30
0.0
 40
11
  1
ANT +0.24  |  POST +1.89  |  ventre +1.40  [cm]  ->  A RISCHIO
  0
TEXT
  8
TESTO
 62
7
 10
-300
 20
-446
 30
0.0
 40
9
  1
sagome ogni 150 cm (+ posa critica): 6 verdi (sicuro), 8 arancio (a rischio), 0 rosse (collisione)
  0
LINE
  8
REF
 62
8
 10
-560
 20
-458
 30
0.0
 11
2360
 21
-458
 31
0.0
  0
LINE
  8
RAMPA
 10
-560
 20
-1420
 30
0.0
 11
0
 21
-1420
 31
0.0
  0
ARC
  8
RAMPA
 10
0
 20
-2370
 30
0.0
 40
950
 50
65
 51
90
  0
LINE
  8
RAMPA
 10
401.49
 20
-1509.01
 30
0.0
 11
414.24
 21
-1514.95
 31
0.0
  0
ARC
  8
RAMPA
 10
1700
 20
1242.37
 30
0.0
 40
3042.37
 50
245
 51
270
  0
LINE
  8
RAMPA
 10
1700
 20
-1800
 30
0.0
 11
2360
 21
-1800
 31
0.0
  0
TEXT
  8
TESTO
 10
-545
 20
-1408
 30
0.0
 40
11
  1
STRADA
  0
TEXT
  8
TESTO
 10
2175
 20
-1786
 30
0.0
 40
11
  1
GARAGE
  0
LINE
  8
CARROZZERIA
 62
90
 10
95.62
 20
-1387.36
 30
0.0
 11
85.62
 21
-1387.19
 31
0.0
  0
LINE
  8
CARROZZERIA
 62
90
 10
90.53
 20
-1392.27
 30
0.0
 11
90.71
 21
-1382.28
 31
0.0
  0
LINE
  8
CARROZZERIA
 62
90
 10
-144.34
 20
-1383.09
 30
0.0
 11
-154.34
 21
-1382.92
 31
0.0
  0
LINE
  8
CARROZZERIA
 62
90
 10
-149.43
 20
-1388.01
 30
0.0
 11
-149.25
 21
-1378.01
 31
0.0
  0
LINE
  8
CARROZZERIA
 62
90
 10
230.12
 20
-1416.76
 30
0.0
 11
124.83
 21
-1414.89
 31
0.0
  0
LINE
  8
CARROZZERIA
 62
90
 10
55.45
 20
-1413.65
 30
0.0
 11
-115.13
 21
-1410.62
 31
0.0
  0
LINE
  8
CARROZZERIA
 62
90
 10
-184.52
 20
-1409.38
 30
0.0
 11
-269.8
 21
-1407.87
 31
0.0
  0
LINE
  8
CARROZZERIA
 62
90
 10
230.12
 20
-1416.76
 30
0.0
 11
230.6
 21
-1389.77
 31
0.0
  0
LINE
  8
CARROZZERIA
 62
90
 10
230.6
 20
-1389.77
 30
0.0
 11
218.9
 21
-1372.55
 31
0.0
  0
LINE
  8
CARROZZERIA
 62
90
 10
218.9
 20
-1372.55
 30
0.0
 11
203.08
 21
-1362.27
 31
0.0
  0
LINE
  8
CARROZZERIA
 62
90
 10
203.08
 20
-1362.27
 30
0.0
 11
166.27
 21
-1351.61
 31
0.0
  0
LINE
  8
CARROZZERIA
 62
90
 10
166.27
 20
-1351.61
 30
0.0
 11
116.42
 21
-1342.73
 31
0.0
  0
LINE
  8
CARROZZERIA
 62
90
 10
116.42
 20
-1342.73
 30
0.0
 11
86.47
 21
-1339.19
 31
0.0
  0
LINE
  8
CARROZZERIA
 62
90
 10
86.47
 20
-1339.19
 30
0.0
 11
54.28
 21
-1293.61
 31
0.0
  0
LINE
  8
CARROZZERIA
 62
90
 10
54.28
 20
-1293.61
 30
0.0
 11
-72.7
 21
-1291.35
 31
0.0
  0
LINE
  8
CARROZZERIA
 62
90
 10
-72.7
 20
-1291.35
 30
0.0
 11
-118.14
 21
-1315.55
 31
0.0
  0
LINE
  8
CARROZZERIA
 62
90
 10
-118.14
 20
-1315.55
 30
0.0
 11
-178.16
 21
-1316.48
 31
0.0
  0
LINE
  8
CARROZZERIA
 62
90
 10
-178.16
 20
-1316.48
 30
0.0
 11
-228.56
 21
-1338.59
 31
0.0
  0
LINE
  8
CARROZZERIA
 62
90
 10
-228.56
 20
-1338.59
 30
0.0
 11
-269.02
 21
-1363.87
 31
0.0
  0
LINE
  8
CARROZZERIA
 62
90
 10
-269.02
 20
-1363.87
 30
0.0
 11
-269.8
 21
-1407.87
 31
0.0
  0
LINE
  8
CARROZZERIA
 62
90
 10
-165.17
 20
-1316.71
 30
0.0
 11
-164.33
 21
-1269.72
 31
0.0
  0
LINE
  8
CARROZZERIA
 62
90
 10
-186.16
 20
-1316.34
 30
0.0
 11
-185.33
 21
-1269.35
 31
0.0
  0
LINE
  8
CARROZZERIA
 62
90
 10
-140.3
 20
-1268.15
 30
0.0
 11
-210.29
 21
-1266.9
 31
0.0
  0
LINE
  8
CARROZZERIA
 62
90
 10
-140.37
 20
-1272.15
 30
0.0
 11
-210.36
 21
-1270.9
 31
0.0
  0
LINE
  8
CARROZZERIA
 62
90
 10
-140.37
 20
-1272.15
 30
0.0
 11
-140.3
 21
-1268.15
 31
0.0
  0
LINE
  8
CARROZZERIA
 62
90
 10
-210.36
 20
-1270.9
 30
0.0
 11
-210.29
 21
-1266.9
 31
0.0
  0
CIRCLE
  8
CARROZZERIA
 62
90
 10
90.58
 20
-1389.27
 30
0.0
 40
35
  0
CIRCLE
  8
CARROZZERIA
 62
90
 10
-149.38
 20
-1385.01
 30
0.0
 40
35
  0
LINE
  8
CARROZZERIA
 62
90
 10
247.71
 20
-1414.24
 30
0.0
 11
237.79
 21
-1412.98
 31
0.0
  0
LINE
  8
CARROZZERIA
 62
90
 10
242.12
 20
-1418.57
 30
0.0
 11
243.38
 21
-1408.65
 31
0.0
  0
LINE
  8
CARROZZERIA
 62
90
 10
9.63
 20
-1383.93
 30
0.0
 11
-0.29
 21
-1382.66
 31
0.0
  0
LINE
  8
CARROZZERIA
 62
90
 10
4.04
 20
-1388.26
 30
0.0
 11
5.31
 21
-1378.34
 31
0.0
  0
LINE
  8
CARROZZERIA
 62
90
 10
378.22
 20
-1458.08
 30
0.0
 11
273.76
 21
-1444.78
 31
0.0
  0
LINE
  8
CARROZZERIA
 62
90
 10
204.92
 20
-1436.01
 30
0.0
 11
35.69
 21
-1414.46
 31
0.0
  0
LINE
  8
CARROZZERIA
 62
90
 10
-33.16
 20
-1405.7
 30
0.0
 11
-117.78
 21
-1394.92
 31
0.0
  0
LINE
  8
CARROZZERIA
 62
90
 10
378.22
 20
-1458.08
 30
0.0
 11
381.63
 21
-1431.3
 31
0.0
  0
LINE
  8
CARROZZERIA
 62
90
 10
381.63
 20
-1431.3
 30
0.0
 11
371.87
 21
-1412.92
 31
0.0
  0
LINE
  8
CARROZZERIA
 62
90
 10
371.87
 20
-1412.92
 30
0.0
 11
357.26
 21
-1400.98
 31
0.0
  0
LINE
  8
CARROZZERIA
 62
90
 10
357.26
 20
-1400.98
 30
0.0
 11
321.82
 21
-1386.38
 31
0.0
  0
LINE
  8
CARROZZERIA
 62
90
 10
321.82
 20
-1386.38
 30
0.0
 11
273.24
 21
-1372.13
 31
0.0
  0
LINE
  8
CARROZZERIA
 62
90
 10
273.24
 20
-1372.13
 30
0.0
 11
243.85
 21
-1365.37
 31
0.0
  0
LINE
  8
CARROZZERIA
 62
90
 10
243.85
 20
-1365.37
 30
0.0
 11
216.8
 21
-1316.56
 31
0.0
  0
LINE
  8
CARROZZERIA
 62
90
 10
216.8
 20
-1316.56
 30
0.0
 11
90.82
 21
-1300.51
 31
0.0
  0
LINE
  8
CARROZZERIA
 62
90
 10
90.82
 20
-1300.51
 30
0.0
 11
43.02
 21
-1319.63
 31
0.0
  0
LINE
  8
CARROZZERIA
 62
90
 10
43.02
 20
-1319.63
 30
0.0
 11
-16.75
 21
-1314.04
 31
0.0
  0
LINE
  8
CARROZZERIA
 62
90
 10
-16.75
 20
-1314.04
 30
0.0
 11
-69.25
 21
-1330.54
 31
0.0
  0
LINE
  8
CARROZZERIA
 62
90
 10
-69.25
 20
-1330.54
 30
0.0
 11
-112.22
 21
-1351.27
 31
0.0
  0
LINE
  8
CARROZZERIA
 62
90
 10
-112.22
 20
-1351.27
 30
0.0
 11
-117.78
 21
-1394.92
 31
0.0
  0
LINE
  8
CARROZZERIA
 62
90
 10
-3.85
 20
-1315.68
 30
0.0
 11
2.08
 21
-1269.05
 31
0.0
  0
LINE
  8
CARROZZERIA
 62
90
 10
-24.69
 20
-1313.03
 30
0.0
 11
-18.75
 21
-1266.4
 31
0.0
  0
LINE
  8
CARROZZERIA
 62
90
 10
26.14
 20
-1270.1
 30
0.0
 11
-43.3
 21
-1261.26
 31
0.0
  0
LINE
  8
CARROZZERIA
 62
90
 10
25.64
 20
-1274.07
 30
0.0
 11
-43.8
 21
-1265.23
 31
0.0
  0
LINE
  8
CARROZZERIA
 62
90
 10
25.64
 20
-1274.07
 30
0.0
 11
26.14
 21
-1270.1
 31
0.0
  0
LINE
  8
CARROZZERIA
 62
90
 10
-43.8
 20
-1265.23
 30
0.0
 11
-43.3
 21
-1261.26
 31
0.0
  0
CIRCLE
  8
CARROZZERIA
 62
90
 10
242.5
 20
-1415.6
 30
0.0
 40
35
  0
CIRCLE
  8
CARROZZERIA
 62
90
 10
4.42
 20
-1385.28
 30
0.0
 40
35
  0
LINE
  8
CARROZZERIA
 62
90
 10
395.51
 20
-1465.35
 30
0.0
 11
385.92
 21
-1462.53
 31
0.0
  0
LINE
  8
CARROZZERIA
 62
90
 10
389.31
 20
-1468.74
 30
0.0
 11
392.12
 21
-1459.14
 31
0.0
  0
LINE
  8
CARROZZERIA
 62
90
 10
165.21
 20
-1397.82
 30
0.0
 11
155.61
 21
-1395
 31
0.0
  0
LINE
  8
CARROZZERIA
 62
90
 10
159
 20
-1401.21
 30
0.0
 11
161.82
 21
-1391.61
 31
0.0
  0
LINE
  8
CARROZZERIA
 62
90
 10
517.46
 20
-1529.24
 30
0.0
 11
416.42
 21
-1499.61
 31
0.0
  0
LINE
  8
CARROZZERIA
 62
90
 10
349.82
 20
-1480.08
 30
0.0
 11
186.11
 21
-1432.08
 31
0.0
  0
LINE
  8
CARROZZERIA
 62
90
 10
119.52
 20
-1412.56
 30
0.0
 11
37.66
 21
-1388.56
 31
0.0
  0
LINE
  8
CARROZZERIA
 62
90
 10
517.46
 20
-1529.24
 30
0.0
 11
525.06
 21
-1503.33
 31
0.0
  0
LINE
  8
CARROZZERIA
 62
90
 10
525.06
 20
-1503.33
 30
0.0
 11
518.33
 21
-1483.64
 31
0.0
  0
LINE
  8
CARROZZERIA
 62
90
 10
518.33
 20
-1483.64
 30
0.0
 11
505.79
 21
-1469.54
 31
0.0
  0
LINE
  8
CARROZZERIA
 62
90
 10
505.79
 20
-1469.54
 30
0.0
 11
473.1
 21
-1449.54
 31
0.0
  0
LINE
  8
CARROZZERIA
 62
90
 10
473.1
 20
-1449.54
 30
0.0
 11
427.37
 21
-1427.79
 31
0.0
  0
LINE
  8
CARROZZERIA
 62
90
 10
427.37
 20
-1427.79
 30
0.0
 11
399.42
 21
-1416.47
 31
0.0
  0
LINE
  8
CARROZZERIA
 62
90
 10
399.42
 20
-1416.47
 30
0.0
 11
380.42
 21
-1364
 31
0.0
  0
LINE
  8
CARROZZERIA
 62
90
 10
380.42
 20
-1364
 30
0.0
 11
258.55
 21
-1328.27
 31
0.0
  0
LINE
  8
CARROZZERIA
 62
90
 10
258.55
 20
-1328.27
 30
0.0
 11
208.33
 21
-1339.6
 31
0.0
  0
LINE
  8
CARROZZERIA
 62
90
 10
208.33
 20
-1339.6
 30
0.0
 11
150.19
 21
-1324.64
 31
0.0
  0
LINE
  8
CARROZZERIA
 62
90
 10
150.19
 20
-1324.64
 30
0.0
 11
95.74
 21
-1332.64
 31
0.0
  0
LINE
  8
CARROZZERIA
 62
90
 10
95.74
 20
-1332.64
 30
0.0
 11
50.04
 21
-1346.33
 31
0.0
  0
LINE
  8
CARROZZERIA
 62
90
 10
50.04
 20
-1346.33
 30
0.0
 11
37.66
 21
-1388.56
 31
0.0
  0
LINE
  8
CARROZZERIA
 62
90
 10
162.67
 20
-1328.29
 30
0.0
 11
175.89
 21
-1283.19
 31
0.0
  0
LINE
  8
CARROZZERIA
 62
90
 10
142.52
 20
-1322.39
 30
0.0
 11
155.74
 21
-1277.28
 31
0.0
  0
LINE
  8
CARROZZERIA
 62
90
 10
199.48
 20
-1288.03
 30
0.0
 11
132.31
 21
-1268.33
 31
0.0
  0
LINE
  8
CARROZZERIA
 62
90
 10
198.36
 20
-1291.87
 30
0.0
 11
131.19
 21
-1272.17
 31
0.0
  0
LINE
  8
CARROZZERIA
 62
90
 10
198.36
 20
-1291.87
 30
0.0
 11
199.48
 21
-1288.03
 31
0.0
  0
LINE
  8
CARROZZERIA
 62
90
 10
131.19
 20
-1272.17
 30
0.0
 11
132.31
 21
-1268.33
 31
0.0
  0
CIRCLE
  8
CARROZZERIA
 62
90
 10
390.15
 20
-1465.86
 30
0.0
 40
35
  0
CIRCLE
  8
CARROZZERIA
 62
90
 10
159.85
 20
-1398.33
 30
0.0
 40
35
  0
LINE
  8
CARROZZERIA
 62
90
 10
540.02
 20
-1530.14
 30
0.0
 11
530.81
 21
-1526.24
 31
0.0
  0
LINE
  8
CARROZZERIA
 62
90
 10
533.46
 20
-1532.79
 30
0.0
 11
537.36
 21
-1523.58
 31
0.0
  0
LINE
  8
CARROZZERIA
 62
90
 10
319.04
 20
-1436.5
 30
0.0
 11
309.83
 21
-1432.59
 31
0.0
  0
LINE
  8
CARROZZERIA
 62
90
 10
312.49
 20
-1439.15
 30
0.0
 11
316.39
 21
-1429.94
 31
0.0
  0
LINE
  8
CARROZZERIA
 62
90
 10
653.78
 20
-1607.67
 30
0.0
 11
556.83
 21
-1566.59
 31
0.0
  0
LINE
  8
CARROZZERIA
 62
90
 10
492.93
 20
-1539.51
 30
0.0
 11
335.85
 21
-1472.94
 31
0.0
  0
LINE
  8
CARROZZERIA
 62
90
 10
271.95
 20
-1445.87
 30
0.0
 11
193.41
 21
-1412.58
 31
0.0
  0
LINE
  8
CARROZZERIA
 62
90
 10
653.78
 20
-1607.67
 30
0.0
 11
664.32
 21
-1582.81
 31
0.0
  0
LINE
  8
CARROZZERIA
 62
90
 10
664.32
 20
-1582.81
 30
0.0
 11
659.9
 21
-1562.48
 31
0.0
  0
LINE
  8
CARROZZERIA
 62
90
 10
659.9
 20
-1562.48
 30
0.0
 11
649.07
 21
-1547.03
 31
0.0
  0
LINE
  8
CARROZZERIA
 62
90
 10
649.07
 20
-1547.03
 30
0.0
 11
618.91
 21
-1523.38
 31
0.0
  0
LINE
  8
CARROZZERIA
 62
90
 10
618.91
 20
-1523.38
 30
0.0
 11
575.99
 21
-1496.51
 31
0.0
  0
LINE
  8
CARROZZERIA
 62
90
 10
575.99
 20
-1496.51
 30
0.0
 11
549.54
 21
-1482.04
 31
0.0
  0
LINE
  8
CARROZZERIA
 62
90
 10
549.54
 20
-1482.04
 30
0.0
 11
536.71
 21
-1427.73
 31
0.0
  0
LINE
  8
CARROZZERIA
 62
90
 10
536.71
 20
-1427.73
 30
0.0
 11
419.78
 21
-1378.18
 31
0.0
  0
LINE
  8
CARROZZERIA
 62
90
 10
419.78
 20
-1378.18
 30
0.0
 11
368.59
 21
-1383.64
 31
0.0
  0
LINE
  8
CARROZZERIA
 62
90
 10
368.59
 20
-1383.64
 30
0.0
 11
312.57
 21
-1362.07
 31
0.0
  0
LINE
  8
CARROZZERIA
 62
90
 10
312.57
 20
-1362.07
 30
0.0
 11
257.56
 21
-1363.74
 31
0.0
  0
LINE
  8
CARROZZERIA
 62
90
 10
257.56
 20
-1363.74
 30
0.0
 11
210.58
 21
-1372.07
 31
0.0
  0
LINE
  8
CARROZZERIA
 62
90
 10
210.58
 20
-1372.07
 30
0.0
 11
193.41
 21
-1412.58
 31
0.0
  0
LINE
  8
CARROZZERIA
 62
90
 10
324.54
 20
-1367.14
 30
0.0
 11
342.87
 21
-1323.87
 31
0.0
  0
LINE
  8
CARROZZERIA
 62
90
 10
305.2
 20
-1358.95
 30
0.0
 11
323.54
 21
-1315.67
 31
0.0
  0
LINE
  8
CARROZZERIA
 62
90
 10
365.75
 20
-1331.39
 30
0.0
 11
301.3
 21
-1304.08
 31
0.0
  0
LINE
  8
CARROZZERIA
 62
90
 10
364.19
 20
-1335.07
 30
0.0
 11
299.74
 21
-1307.76
 31
0.0
  0
LINE
  8
CARROZZERIA
 62
90
 10
364.19
 20
-1335.07
 30
0.0
 11
365.75
 21
-1331.39
 31
0.0
  0
LINE
  8
CARROZZERIA
 62
90
 10
299.74
 20
-1307.76
 30
0.0
 11
301.3
 21
-1304.08
 31
0.0
  0
CIRCLE
  8
CARROZZERIA
 62
90
 10
534.63
 20
-1530.03
 30
0.0
 40
35
  0
CIRCLE
  8
CARROZZERIA
 62
90
 10
313.66
 20
-1436.39
 30
0.0
 40
35
  0
LINE
  8
CARROZZERIA
 62
90
 10
691.02
 20
-1588.82
 30
0.0
 11
681.75
 21
-1585.07
 31
0.0
  0
LINE
  8
CARROZZERIA
 62
90
 10
684.51
 20
-1591.58
 30
0.0
 11
688.26
 21
-1582.31
 31
0.0
  0
LINE
  8
CARROZZERIA
 62
90
 10
468.5
 20
-1498.92
 30
0.0
 11
459.22
 21
-1495.17
 31
0.0
  0
LINE
  8
CARROZZERIA
 62
90
 10
461.99
 20
-1501.68
 30
0.0
 11
465.73
 21
-1492.41
 31
0.0
  0
LINE
  8
CARROZZERIA
 62
90
 10
806.08
 20
-1664.42
 30
0.0
 11
708.45
 21
-1624.98
 31
0.0
  0
LINE
  8
CARROZZERIA
 62
90
 10
644.1
 20
-1598.98
 30
0.0
 11
485.92
 21
-1535.07
 31
0.0
  0
LINE
  8
CARROZZERIA
 62
90
 10
421.57
 20
-1509.08
 30
0.0
 11
342.48
 21
-1477.13
 31
0.0
  0
LINE
  8
CARROZZERIA
 62
90
 10
806.08
 20
-1664.42
 30
0.0
 11
816.19
 21
-1639.38
 31
0.0
  0
LINE
  8
CARROZZERIA
 62
90
 10
816.19
 20
-1639.38
 30
0.0
 11
811.43
 21
-1619.13
 31
0.0
  0
LINE
  8
CARROZZERIA
 62
90
 10
811.43
 20
-1619.13
 30
0.0
 11
800.35
 21
-1603.86
 31
0.0
  0
LINE
  8
CARROZZERIA
 62
90
 10
800.35
 20
-1603.86
 30
0.0
 11
769.79
 21
-1580.73
 31
0.0
  0
LINE
  8
CARROZZERIA
 62
90
 10
769.79
 20
-1580.73
 30
0.0
 11
726.42
 21
-1554.58
 31
0.0
  0
LINE
  8
CARROZZERIA
 62
90
 10
726.42
 20
-1554.58
 30
0.0
 11
699.73
 21
-1540.56
 31
0.0
  0
LINE
  8
CARROZZERIA
 62
90
 10
699.73
 20
-1540.56
 30
0.0
 11
685.99
 21
-1486.48
 31
0.0
  0
LINE
  8
CARROZZERIA
 62
90
 10
685.99
 20
-1486.48
 30
0.0
 11
568.24
 21
-1438.91
 31
0.0
  0
LINE
  8
CARROZZERIA
 62
90
 10
568.24
 20
-1438.91
 30
0.0
 11
517.15
 21
-1445.23
 31
0.0
  0
LINE
  8
CARROZZERIA
 62
90
 10
517.15
 20
-1445.23
 30
0.0
 11
460.77
 21
-1424.61
 31
0.0
  0
LINE
  8
CARROZZERIA
 62
90
 10
460.77
 20
-1424.61
 30
0.0
 11
405.79
 21
-1427.21
 31
0.0
  0
LINE
  8
CARROZZERIA
 62
90
 10
405.79
 20
-1427.21
 30
0.0
 11
358.96
 21
-1436.33
 31
0.0
  0
LINE
  8
CARROZZERIA
 62
90
 10
358.96
 20
-1436.33
 30
0.0
 11
342.48
 21
-1477.13
 31
0.0
  0
LINE
  8
CARROZZERIA
 62
90
 10
472.82
 20
-1429.48
 30
0.0
 11
490.43
 21
-1385.9
 31
0.0
  0
LINE
  8
CARROZZERIA
 62
90
 10
453.35
 20
-1421.61
 30
0.0
 11
470.95
 21
-1378.04
 31
0.0
  0
LINE
  8
CARROZZERIA
 62
90
 10
513.43
 20
-1393.04
 30
0.0
 11
448.52
 21
-1366.82
 31
0.0
  0
LINE
  8
CARROZZERIA
 62
90
 10
511.93
 20
-1396.75
 30
0.0
 11
447.03
 21
-1370.53
 31
0.0
  0
LINE
  8
CARROZZERIA
 62
90
 10
511.93
 20
-1396.75
 30
0.0
 11
513.43
 21
-1393.04
 31
0.0
  0
LINE
  8
CARROZZERIA
 62
90
 10
447.03
 20
-1370.53
 30
0.0
 11
448.52
 21
-1366.82
 31
0.0
  0
CIRCLE
  8
CARROZZERIA
 62
90
 10
685.64
 20
-1588.8
 30
0.0
 40
35
  0
CIRCLE
  8
CARROZZERIA
 62
90
 10
463.11
 20
-1498.9
 30
0.0
 40
35
  0
LINE
  8
CARROZZERIA
 62
90
 10
843.75
 20
-1638.69
 30
0.0
 11
834.29
 21
-1635.44
 31
0.0
  0
LINE
  8
CARROZZERIA
 62
90
 10
837.4
 20
-1641.79
 30
0.0
 11
840.64
 21
-1632.33
 31
0.0
  0
LINE
  8
CARROZZERIA
 62
90
 10
616.74
 20
-1560.8
 30
0.0
 11
607.28
 21
-1557.56
 31
0.0
  0
LINE
  8
CARROZZERIA
 62
90
 10
610.38
 20
-1563.91
 30
0.0
 11
613.63
 21
-1554.45
 31
0.0
  0
LINE
  8
CARROZZERIA
 62
90
 10
962.68
 20
-1708.03
 30
0.0
 11
863.08
 21
-1673.86
 31
0.0
  0
LINE
  8
CARROZZERIA
 62
90
 10
797.44
 20
-1651.34
 30
0.0
 11
636.07
 21
-1595.98
 31
0.0
  0
LINE
  8
CARROZZERIA
 62
90
 10
570.42
 20
-1573.46
 30
0.0
 11
489.74
 21
-1545.78
 31
0.0
  0
LINE
  8
CARROZZERIA
 62
90
 10
962.68
 20
-1708.03
 30
0.0
 11
971.44
 21
-1682.49
 31
0.0
  0
LINE
  8
CARROZZERIA
 62
90
 10
971.44
 20
-1682.49
 30
0.0
 11
965.61
 21
-1662.52
 31
0.0
  0
LINE
  8
CARROZZERIA
 62
90
 10
965.61
 20
-1662.52
 30
0.0
 11
953.72
 21
-1647.87
 31
0.0
  0
LINE
  8
CARROZZERIA
 62
90
 10
953.72
 20
-1647.87
 30
0.0
 11
921.97
 21
-1626.4
 31
0.0
  0
LINE
  8
CARROZZERIA
 62
90
 10
921.97
 20
-1626.4
 30
0.0
 11
877.27
 21
-1602.61
 31
0.0
  0
LINE
  8
CARROZZERIA
 62
90
 10
877.27
 20
-1602.61
 30
0.0
 11
849.87
 21
-1590.04
 31
0.0
  0
LINE
  8
CARROZZERIA
 62
90
 10
849.87
 20
-1590.04
 30
0.0
 11
833.25
 21
-1536.76
 31
0.0
  0
LINE
  8
CARROZZERIA
 62
90
 10
833.25
 20
-1536.76
 30
0.0
 11
713.13
 21
-1495.55
 31
0.0
  0
LINE
  8
CARROZZERIA
 62
90
 10
713.13
 20
-1495.55
 30
0.0
 11
662.45
 21
-1504.6
 31
0.0
  0
LINE
  8
CARROZZERIA
 62
90
 10
662.45
 20
-1504.6
 30
0.0
 11
605.05
 21
-1487.02
 31
0.0
  0
LINE
  8
CARROZZERIA
 62
90
 10
605.05
 20
-1487.02
 30
0.0
 11
550.29
 21
-1492.55
 31
0.0
  0
LINE
  8
CARROZZERIA
 62
90
 10
550.29
 20
-1492.55
 30
0.0
 11
504.02
 21
-1504.16
 31
0.0
  0
LINE
  8
CARROZZERIA
 62
90
 10
504.02
 20
-1504.16
 30
0.0
 11
489.74
 21
-1545.78
 31
0.0
  0
LINE
  8
CARROZZERIA
 62
90
 10
617.34
 20
-1491.24
 30
0.0
 11
632.6
 21
-1446.78
 31
0.0
  0
LINE
  8
CARROZZERIA
 62
90
 10
597.48
 20
-1484.42
 30
0.0
 11
612.73
 21
-1439.97
 31
0.0
  0
LINE
  8
CARROZZERIA
 62
90
 10
655.95
 20
-1452.68
 30
0.0
 11
589.73
 21
-1429.96
 31
0.0
  0
LINE
  8
CARROZZERIA
 62
90
 10
654.65
 20
-1456.46
 30
0.0
 11
588.44
 21
-1433.75
 31
0.0
  0
LINE
  8
CARROZZERIA
 62
90
 10
654.65
 20
-1456.46
 30
0.0
 11
655.95
 21
-1452.68
 31
0.0
  0
LINE
  8
CARROZZERIA
 62
90
 10
588.44
 20
-1433.75
 30
0.0
 11
589.73
 21
-1429.96
 31
0.0
  0
CIRCLE
  8
CARROZZERIA
 62
90
 10
838.37
 20
-1638.96
 30
0.0
 40
35
  0
CIRCLE
  8
CARROZZERIA
 62
90
 10
611.36
 20
-1561.07
 30
0.0
 40
35
  0
LINE
  8
CARROZZERIA
 62
90
 10
995.74
 20
-1679.56
 30
0.0
 11
986.13
 21
-1676.81
 31
0.0
  0
LINE
  8
CARROZZERIA
 62
90
 10
989.56
 20
-1682.99
 30
0.0
 11
992.31
 21
-1673.38
 31
0.0
  0
LINE
  8
CARROZZERIA
 62
90
 10
764.97
 20
-1613.67
 30
0.0
 11
755.35
 21
-1610.92
 31
0.0
  0
LINE
  8
CARROZZERIA
 62
90
 10
758.79
 20
-1617.1
 30
0.0
 11
761.53
 21
-1607.49
 31
0.0
  0
LINE
  8
CARROZZERIA
 62
90
 10
1118.14
 20
-1742.59
 30
0.0
 11
1016.89
 21
-1713.68
 31
0.0
  0
LINE
  8
CARROZZERIA
 62
90
 10
950.16
 20
-1694.62
 30
0.0
 11
786.11
 21
-1647.79
 31
0.0
  0
LINE
  8
CARROZZERIA
 62
90
 10
719.38
 20
-1628.73
 30
0.0
 11
637.36
 21
-1605.31
 31
0.0
  0
LINE
  8
CARROZZERIA
 62
90
 10
1118.14
 20
-1742.59
 30
0.0
 11
1125.56
 21
-1716.62
 31
0.0
  0
LINE
  8
CARROZZERIA
 62
90
 10
1125.56
 20
-1716.62
 30
0.0
 11
1118.68
 21
-1696.98
 31
0.0
  0
LINE
  8
CARROZZERIA
 62
90
 10
1118.68
 20
-1696.98
 30
0.0
 11
1106.05
 21
-1682.97
 31
0.0
  0
LINE
  8
CARROZZERIA
 62
90
 10
1106.05
 20
-1682.97
 30
0.0
 11
1073.21
 21
-1663.2
 31
0.0
  0
LINE
  8
CARROZZERIA
 62
90
 10
1073.21
 20
-1663.2
 30
0.0
 11
1027.33
 21
-1641.78
 31
0.0
  0
LINE
  8
CARROZZERIA
 62
90
 10
1027.33
 20
-1641.78
 30
0.0
 11
999.31
 21
-1630.66
 31
0.0
  0
LINE
  8
CARROZZERIA
 62
90
 10
999.31
 20
-1630.66
 30
0.0
 11
979.93
 21
-1578.33
 31
0.0
  0
LINE
  8
CARROZZERIA
 62
90
 10
979.93
 20
-1578.33
 30
0.0
 11
857.81
 21
-1543.46
 31
0.0
  0
LINE
  8
CARROZZERIA
 62
90
 10
857.81
 20
-1543.46
 30
0.0
 11
807.67
 21
-1555.15
 31
0.0
  0
LINE
  8
CARROZZERIA
 62
90
 10
807.67
 20
-1555.15
 30
0.0
 11
749.43
 21
-1540.6
 31
0.0
  0
LINE
  8
CARROZZERIA
 62
90
 10
749.43
 20
-1540.6
 30
0.0
 11
695.04
 21
-1548.99
 31
0.0
  0
LINE
  8
CARROZZERIA
 62
90
 10
695.04
 20
-1548.99
 30
0.0
 11
649.44
 21
-1563
 31
0.0
  0
LINE
  8
CARROZZERIA
 62
90
 10
649.44
 20
-1563
 30
0.0
 11
637.36
 21
-1605.31
 31
0.0
  0
LINE
  8
CARROZZERIA
 62
90
 10
761.93
 20
-1544.17
 30
0.0
 11
774.83
 21
-1498.97
 31
0.0
  0
LINE
  8
CARROZZERIA
 62
90
 10
741.74
 20
-1538.4
 30
0.0
 11
754.64
 21
-1493.21
 31
0.0
  0
LINE
  8
CARROZZERIA
 62
90
 10
798.46
 20
-1503.64
 30
0.0
 11
731.15
 21
-1484.42
 31
0.0
  0
LINE
  8
CARROZZERIA
 62
90
 10
797.36
 20
-1507.48
 30
0.0
 11
730.05
 21
-1488.27
 31
0.0
  0
LINE
  8
CARROZZERIA
 62
90
 10
797.36
 20
-1507.48
 30
0.0
 11
798.46
 21
-1503.64
 31
0.0
  0
LINE
  8
CARROZZERIA
 62
90
 10
730.05
 20
-1488.27
 30
0.0
 11
731.15
 21
-1484.42
 31
0.0
  0
CIRCLE
  8
CARROZZERIA
 62
90
 10
990.39
 20
-1680.11
 30
0.0
 40
35
  0
CIRCLE
  8
CARROZZERIA
 62
90
 10
759.61
 20
-1614.22
 30
0.0
 40
35
  0
LINE
  8
CARROZZERIA
 62
90
 10
1147.05
 20
-1711.93
 30
0.0
 11
1137.3
 21
-1709.68
 31
0.0
  0
LINE
  8
CARROZZERIA
 62
90
 10
1141.05
 20
-1715.68
 30
0.0
 11
1143.3
 21
-1705.94
 31
0.0
  0
LINE
  8
CARROZZERIA
 62
90
 10
913.19
 20
-1658
 30
0.0
 11
903.44
 21
-1655.76
 31
0.0
  0
LINE
  8
CARROZZERIA
 62
90
 10
907.19
 20
-1661.75
 30
0.0
 11
909.44
 21
-1652.01
 31
0.0
  0
LINE
  8
CARROZZERIA
 62
90
 10
1272.53
 20
-1768.57
 30
0.0
 11
1169.92
 21
-1744.91
 31
0.0
  0
LINE
  8
CARROZZERIA
 62
90
 10
1102.3
 20
-1729.32
 30
0.0
 11
936.06
 21
-1690.99
 31
0.0
  0
LINE
  8
CARROZZERIA
 62
90
 10
868.43
 20
-1675.39
 30
0.0
 11
785.32
 21
-1656.23
 31
0.0
  0
LINE
  8
CARROZZERIA
 62
90
 10
1272.53
 20
-1768.57
 30
0.0
 11
1278.6
 21
-1742.26
 31
0.0
  0
LINE
  8
CARROZZERIA
 62
90
 10
1278.6
 20
-1742.26
 30
0.0
 11
1270.72
 21
-1723
 31
0.0
  0
LINE
  8
CARROZZERIA
 62
90
 10
1270.72
 20
-1723
 30
0.0
 11
1257.38
 21
-1709.66
 31
0.0
  0
LINE
  8
CARROZZERIA
 62
90
 10
1257.38
 20
-1709.66
 30
0.0
 11
1223.57
 21
-1691.61
 31
0.0
  0
LINE
  8
CARROZZERIA
 62
90
 10
1223.57
 20
-1691.61
 30
0.0
 11
1176.65
 21
-1672.58
 31
0.0
  0
LINE
  8
CARROZZERIA
 62
90
 10
1176.65
 20
-1672.58
 30
0.0
 11
1148.09
 21
-1662.91
 31
0.0
  0
LINE
  8
CARROZZERIA
 62
90
 10
1148.09
 20
-1662.91
 30
0.0
 11
1126.04
 21
-1611.65
 31
0.0
  0
LINE
  8
CARROZZERIA
 62
90
 10
1126.04
 20
-1611.65
 30
0.0
 11
1002.29
 21
-1583.11
 31
0.0
  0
LINE
  8
CARROZZERIA
 62
90
 10
1002.29
 20
-1583.11
 30
0.0
 11
952.83
 21
-1597.36
 31
0.0
  0
LINE
  8
CARROZZERIA
 62
90
 10
952.83
 20
-1597.36
 30
0.0
 11
893.91
 21
-1585.83
 31
0.0
  0
LINE
  8
CARROZZERIA
 62
90
 10
893.91
 20
-1585.83
 30
0.0
 11
840.02
 21
-1597.01
 31
0.0
  0
LINE
  8
CARROZZERIA
 62
90
 10
840.02
 20
-1597.01
 30
0.0
 11
795.2
 21
-1613.35
 31
0.0
  0
LINE
  8
CARROZZERIA
 62
90
 10
795.2
 20
-1613.35
 30
0.0
 11
785.32
 21
-1656.23
 31
0.0
  0
LINE
  8
CARROZZERIA
 62
90
 10
906.58
 20
-1588.75
 30
0.0
 11
917.14
 21
-1542.95
 31
0.0
  0
LINE
  8
CARROZZERIA
 62
90
 10
886.12
 20
-1584.03
 30
0.0
 11
896.68
 21
-1538.23
 31
0.0
  0
LINE
  8
CARROZZERIA
 62
90
 10
940.97
 20
-1546.39
 30
0.0
 11
872.76
 21
-1530.67
 31
0.0
  0
LINE
  8
CARROZZERIA
 62
90
 10
940.08
 20
-1550.29
 30
0.0
 11
871.87
 21
-1534.56
 31
0.0
  0
LINE
  8
CARROZZERIA
 62
90
 10
940.08
 20
-1550.29
 30
0.0
 11
940.97
 21
-1546.39
 31
0.0
  0
LINE
  8
CARROZZERIA
 62
90
 10
871.87
 20
-1534.56
 30
0.0
 11
872.76
 21
-1530.67
 31
0.0
  0
CIRCLE
  8
CARROZZERIA
 62
90
 10
1141.73
 20
-1712.76
 30
0.0
 40
35
  0
CIRCLE
  8
CARROZZERIA
 62
90
 10
907.86
 20
-1658.83
 30
0.0
 40
35
  0
LINE
  8
CARROZZERIA
 62
90
 10
1297.69
 20
-1736.19
 30
0.0
 11
1287.85
 21
-1734.44
 31
0.0
  0
LINE
  8
CARROZZERIA
 62
90
 10
1291.9
 20
-1740.23
 30
0.0
 11
1293.65
 21
-1730.39
 31
0.0
  0
LINE
  8
CARROZZERIA
 62
90
 10
1061.4
 20
-1694.2
 30
0.0
 11
1051.55
 21
-1692.45
 31
0.0
  0
LINE
  8
CARROZZERIA
 62
90
 10
1055.6
 20
-1698.25
 30
0.0
 11
1057.35
 21
-1688.4
 31
0.0
  0
LINE
  8
CARROZZERIA
 62
90
 10
1425.89
 20
-1786.39
 30
0.0
 11
1322.21
 21
-1767.97
 31
0.0
  0
LINE
  8
CARROZZERIA
 62
90
 10
1253.88
 20
-1755.82
 30
0.0
 11
1085.91
 21
-1725.98
 31
0.0
  0
LINE
  8
CARROZZERIA
 62
90
 10
1017.58
 20
-1713.84
 30
0.0
 11
933.6
 21
-1698.91
 31
0.0
  0
LINE
  8
CARROZZERIA
 62
90
 10
1425.89
 20
-1786.39
 30
0.0
 11
1430.61
 21
-1759.8
 31
0.0
  0
LINE
  8
CARROZZERIA
 62
90
 10
1430.61
 20
-1759.8
 30
0.0
 11
1421.77
 21
-1740.97
 31
0.0
  0
LINE
  8
CARROZZERIA
 62
90
 10
1421.77
 20
-1740.97
 30
0.0
 11
1407.77
 21
-1728.32
 31
0.0
  0
LINE
  8
CARROZZERIA
 62
90
 10
1407.77
 20
-1728.32
 30
0.0
 11
1373.09
 21
-1712
 31
0.0
  0
LINE
  8
CARROZZERIA
 62
90
 10
1373.09
 20
-1712
 30
0.0
 11
1325.26
 21
-1695.38
 31
0.0
  0
LINE
  8
CARROZZERIA
 62
90
 10
1325.26
 20
-1695.38
 30
0.0
 11
1296.25
 21
-1687.18
 31
0.0
  0
LINE
  8
CARROZZERIA
 62
90
 10
1296.25
 20
-1687.18
 30
0.0
 11
1271.63
 21
-1637.1
 31
0.0
  0
LINE
  8
CARROZZERIA
 62
90
 10
1271.63
 20
-1637.1
 30
0.0
 11
1146.59
 21
-1614.88
 31
0.0
  0
LINE
  8
CARROZZERIA
 62
90
 10
1146.59
 20
-1614.88
 30
0.0
 11
1097.91
 21
-1631.62
 31
0.0
  0
LINE
  8
CARROZZERIA
 62
90
 10
1097.91
 20
-1631.62
 30
0.0
 11
1038.48
 21
-1623.09
 31
0.0
  0
LINE
  8
CARROZZERIA
 62
90
 10
1038.48
 20
-1623.09
 30
0.0
 11
985.23
 21
-1636.99
 31
0.0
  0
LINE
  8
CARROZZERIA
 62
90
 10
985.23
 20
-1636.99
 30
0.0
 11
941.3
 21
-1655.59
 31
0.0
  0
LINE
  8
CARROZZERIA
 62
90
 10
941.3
 20
-1655.59
 30
0.0
 11
933.6
 21
-1698.91
 31
0.0
  0
LINE
  8
CARROZZERIA
 62
90
 10
1051.28
 20
-1625.37
 30
0.0
 11
1059.5
 21
-1579.09
 31
0.0
  0
LINE
  8
CARROZZERIA
 62
90
 10
1030.61
 20
-1621.69
 30
0.0
 11
1038.83
 21
-1575.42
 31
0.0
  0
LINE
  8
CARROZZERIA
 62
90
 10
1083.48
 20
-1581.32
 30
0.0
 11
1014.56
 21
-1569.08
 31
0.0
  0
LINE
  8
CARROZZERIA
 62
90
 10
1082.78
 20
-1585.26
 30
0.0
 11
1013.86
 21
-1573.01
 31
0.0
  0
LINE
  8
CARROZZERIA
 62
90
 10
1082.78
 20
-1585.26
 30
0.0
 11
1083.48
 21
-1581.32
 31
0.0
  0
LINE
  8
CARROZZERIA
 62
90
 10
1013.86
 20
-1573.01
 30
0.0
 11
1014.56
 21
-1569.08
 31
0.0
  0
CIRCLE
  8
CARROZZERIA
 62
90
 10
1292.42
 20
-1737.28
 30
0.0
 40
35
  0
CIRCLE
  8
CARROZZERIA
 62
90
 10
1056.12
 20
-1695.29
 30
0.0
 40
35
  0
LINE
  8
CARROZZERIA
 62
90
 10
1447.71
 20
-1752.63
 30
0.0
 11
1437.78
 21
-1751.37
 31
0.0
  0
LINE
  8
CARROZZERIA
 62
90
 10
1442.12
 20
-1756.96
 30
0.0
 11
1443.37
 21
-1747.04
 31
0.0
  0
LINE
  8
CARROZZERIA
 62
90
 10
1209.6
 20
-1722.55
 30
0.0
 11
1199.68
 21
-1721.3
 31
0.0
  0
LINE
  8
CARROZZERIA
 62
90
 10
1204.01
 20
-1726.88
 30
0.0
 11
1205.26
 21
-1716.96
 31
0.0
  0
LINE
  8
CARROZZERIA
 62
90
 10
1578.26
 20
-1796.33
 30
0.0
 11
1473.79
 21
-1783.13
 31
0.0
  0
LINE
  8
CARROZZERIA
 62
90
 10
1404.93
 20
-1774.44
 30
0.0
 11
1235.68
 21
-1753.06
 31
0.0
  0
LINE
  8
CARROZZERIA
 62
90
 10
1166.83
 20
-1744.36
 30
0.0
 11
1082.2
 21
-1733.67
 31
0.0
  0
LINE
  8
CARROZZERIA
 62
90
 10
1578.26
 20
-1796.33
 30
0.0
 11
1581.64
 21
-1769.54
 31
0.0
  0
LINE
  8
CARROZZERIA
 62
90
 10
1581.64
 20
-1769.54
 30
0.0
 11
1571.87
 21
-1751.17
 31
0.0
  0
LINE
  8
CARROZZERIA
 62
90
 10
1571.87
 20
-1751.17
 30
0.0
 11
1557.25
 21
-1739.25
 31
0.0
  0
LINE
  8
CARROZZERIA
 62
90
 10
1557.25
 20
-1739.25
 30
0.0
 11
1521.79
 21
-1724.69
 31
0.0
  0
LINE
  8
CARROZZERIA
 62
90
 10
1521.79
 20
-1724.69
 30
0.0
 11
1473.19
 21
-1710.49
 31
0.0
  0
LINE
  8
CARROZZERIA
 62
90
 10
1473.19
 20
-1710.49
 30
0.0
 11
1443.8
 21
-1703.75
 31
0.0
  0
LINE
  8
CARROZZERIA
 62
90
 10
1443.8
 20
-1703.75
 30
0.0
 11
1416.7
 21
-1654.97
 31
0.0
  0
LINE
  8
CARROZZERIA
 62
90
 10
1416.7
 20
-1654.97
 30
0.0
 11
1290.7
 21
-1639.06
 31
0.0
  0
LINE
  8
CARROZZERIA
 62
90
 10
1290.7
 20
-1639.06
 30
0.0
 11
1242.92
 21
-1658.22
 31
0.0
  0
LINE
  8
CARROZZERIA
 62
90
 10
1242.92
 20
-1658.22
 30
0.0
 11
1183.14
 21
-1652.68
 31
0.0
  0
LINE
  8
CARROZZERIA
 62
90
 10
1183.14
 20
-1652.68
 30
0.0
 11
1130.66
 21
-1669.24
 31
0.0
  0
LINE
  8
CARROZZERIA
 62
90
 10
1130.66
 20
-1669.24
 30
0.0
 11
1087.71
 21
-1690.02
 31
0.0
  0
LINE
  8
CARROZZERIA
 62
90
 10
1087.71
 20
-1690.02
 30
0.0
 11
1082.2
 21
-1733.67
 31
0.0
  0
LINE
  8
CARROZZERIA
 62
90
 10
1196.04
 20
-1654.31
 30
0.0
 11
1201.93
 21
-1607.68
 31
0.0
  0
LINE
  8
CARROZZERIA
 62
90
 10
1175.21
 20
-1651.68
 30
0.0
 11
1181.1
 21
-1605.05
 31
0.0
  0
LINE
  8
CARROZZERIA
 62
90
 10
1225.99
 20
-1608.71
 30
0.0
 11
1156.54
 21
-1599.94
 31
0.0
  0
LINE
  8
CARROZZERIA
 62
90
 10
1225.49
 20
-1612.68
 30
0.0
 11
1156.04
 21
-1603.9
 31
0.0
  0
LINE
  8
CARROZZERIA
 62
90
 10
1225.49
 20
-1612.68
 30
0.0
 11
1225.99
 21
-1608.71
 31
0.0
  0
LINE
  8
CARROZZERIA
 62
90
 10
1156.04
 20
-1603.9
 30
0.0
 11
1156.54
 21
-1599.94
 31
0.0
  0
CIRCLE
  8
CARROZZERIA
 62
90
 10
1442.49
 20
-1753.98
 30
0.0
 40
35
  0
CIRCLE
  8
CARROZZERIA
 62
90
 10
1204.39
 20
-1723.91
 30
0.0
 40
35
  0
LINE
  8
CARROZZERIA
 62
90
 10
1567.27
 20
-1760.3
 30
0.0
 11
1557.31
 21
-1759.44
 31
0.0
  0
LINE
  8
CARROZZERIA
 62
90
 10
1561.86
 20
-1764.85
 30
0.0
 11
1562.72
 21
-1754.89
 31
0.0
  0
LINE
  8
CARROZZERIA
 62
90
 10
1328.15
 20
-1739.74
 30
0.0
 11
1318.19
 21
-1738.88
 31
0.0
  0
LINE
  8
CARROZZERIA
 62
90
 10
1322.74
 20
-1744.29
 30
0.0
 11
1323.6
 21
-1734.33
 31
0.0
  0
LINE
  8
CARROZZERIA
 62
90
 10
1699.46
 20
-1798.77
 30
0.0
 11
1594.55
 21
-1789.75
 31
0.0
  0
LINE
  8
CARROZZERIA
 62
90
 10
1525.4
 20
-1783.8
 30
0.0
 11
1355.43
 21
-1769.18
 31
0.0
  0
LINE
  8
CARROZZERIA
 62
90
 10
1286.28
 20
-1763.24
 30
0.0
 11
1201.3
 21
-1755.93
 31
0.0
  0
LINE
  8
CARROZZERIA
 62
90
 10
1699.46
 20
-1798.77
 30
0.0
 11
1701.77
 21
-1771.87
 31
0.0
  0
LINE
  8
CARROZZERIA
 62
90
 10
1701.77
 20
-1771.87
 30
0.0
 11
1691.27
 21
-1753.9
 31
0.0
  0
LINE
  8
CARROZZERIA
 62
90
 10
1691.27
 20
-1753.9
 30
0.0
 11
1676.19
 21
-1742.57
 31
0.0
  0
LINE
  8
CARROZZERIA
 62
90
 10
1676.19
 20
-1742.57
 30
0.0
 11
1640.18
 21
-1729.43
 31
0.0
  0
LINE
  8
CARROZZERIA
 62
90
 10
1640.18
 20
-1729.43
 30
0.0
 11
1591.05
 21
-1717.18
 31
0.0
  0
LINE
  8
CARROZZERIA
 62
90
 10
1591.05
 20
-1717.18
 30
0.0
 11
1561.42
 21
-1711.62
 31
0.0
  0
LINE
  8
CARROZZERIA
 62
90
 10
1561.42
 20
-1711.62
 30
0.0
 11
1532.39
 21
-1663.96
 31
0.0
  0
LINE
  8
CARROZZERIA
 62
90
 10
1532.39
 20
-1663.96
 30
0.0
 11
1405.86
 21
-1653.08
 31
0.0
  0
LINE
  8
CARROZZERIA
 62
90
 10
1405.86
 20
-1653.08
 30
0.0
 11
1358.89
 21
-1674.13
 31
0.0
  0
LINE
  8
CARROZZERIA
 62
90
 10
1358.89
 20
-1674.13
 30
0.0
 11
1298.93
 21
-1670.98
 31
0.0
  0
LINE
  8
CARROZZERIA
 62
90
 10
1298.93
 20
-1670.98
 30
0.0
 11
1247.15
 21
-1689.62
 31
0.0
  0
LINE
  8
CARROZZERIA
 62
90
 10
1247.15
 20
-1689.62
 30
0.0
 11
1205.07
 21
-1712.09
 31
0.0
  0
LINE
  8
CARROZZERIA
 62
90
 10
1205.07
 20
-1712.09
 30
0.0
 11
1201.3
 21
-1755.93
 31
0.0
  0
LINE
  8
CARROZZERIA
 62
90
 10
1311.89
 20
-1672.1
 30
0.0
 11
1315.91
 21
-1625.27
 31
0.0
  0
LINE
  8
CARROZZERIA
 62
90
 10
1290.96
 20
-1670.3
 30
0.0
 11
1294.99
 21
-1623.47
 31
0.0
  0
LINE
  8
CARROZZERIA
 62
90
 10
1340
 20
-1625.33
 30
0.0
 11
1270.25
 21
-1619.34
 31
0.0
  0
LINE
  8
CARROZZERIA
 62
90
 10
1339.65
 20
-1629.32
 30
0.0
 11
1269.91
 21
-1623.32
 31
0.0
  0
LINE
  8
CARROZZERIA
 62
90
 10
1339.65
 20
-1629.32
 30
0.0
 11
1340
 21
-1625.33
 31
0.0
  0
LINE
  8
CARROZZERIA
 62
90
 10
1269.91
 20
-1623.32
 30
0.0
 11
1270.25
 21
-1619.34
 31
0.0
  0
CIRCLE
  8
CARROZZERIA
 62
90
 10
1562.12
 20
-1761.87
 30
0.0
 40
35
  0
CIRCLE
  8
CARROZZERIA
 62
90
 10
1323
 20
-1741.3
 30
0.0
 40
35
  0
LINE
  8
CARROZZERIA
 62
90
 10
1597.1
 20
-1761.47
 30
0.0
 11
1587.13
 21
-1760.71
 31
0.0
  0
LINE
  8
CARROZZERIA
 62
90
 10
1591.73
 20
-1766.08
 30
0.0
 11
1592.49
 21
-1756.11
 31
0.0
  0
LINE
  8
CARROZZERIA
 62
90
 10
1357.79
 20
-1743.29
 30
0.0
 11
1347.82
 21
-1742.53
 31
0.0
  0
LINE
  8
CARROZZERIA
 62
90
 10
1352.42
 20
-1747.89
 30
0.0
 11
1353.18
 21
-1737.92
 31
0.0
  0
LINE
  8
CARROZZERIA
 62
90
 10
1729.67
 20
-1798.62
 30
0.0
 11
1624.67
 21
-1790.64
 31
0.0
  0
LINE
  8
CARROZZERIA
 62
90
 10
1555.47
 20
-1785.39
 30
0.0
 11
1385.36
 21
-1772.46
 31
0.0
  0
LINE
  8
CARROZZERIA
 62
90
 10
1316.16
 20
-1767.2
 30
0.0
 11
1231.1
 21
-1760.74
 31
0.0
  0
LINE
  8
CARROZZERIA
 62
90
 10
1729.67
 20
-1798.62
 30
0.0
 11
1731.71
 21
-1771.7
 31
0.0
  0
LINE
  8
CARROZZERIA
 62
90
 10
1731.71
 20
-1771.7
 30
0.0
 11
1721.03
 21
-1753.84
 31
0.0
  0
LINE
  8
CARROZZERIA
 62
90
 10
1721.03
 20
-1753.84
 30
0.0
 11
1705.84
 21
-1742.66
 31
0.0
  0
LINE
  8
CARROZZERIA
 62
90
 10
1705.84
 20
-1742.66
 30
0.0
 11
1669.7
 21
-1729.88
 31
0.0
  0
LINE
  8
CARROZZERIA
 62
90
 10
1669.7
 20
-1729.88
 30
0.0
 11
1620.45
 21
-1718.12
 31
0.0
  0
LINE
  8
CARROZZERIA
 62
90
 10
1620.45
 20
-1718.12
 30
0.0
 11
1590.76
 21
-1712.85
 31
0.0
  0
LINE
  8
CARROZZERIA
 62
90
 10
1590.76
 20
-1712.85
 30
0.0
 11
1561.27
 21
-1665.48
 31
0.0
  0
LINE
  8
CARROZZERIA
 62
90
 10
1561.27
 20
-1665.48
 30
0.0
 11
1434.63
 21
-1655.86
 31
0.0
  0
LINE
  8
CARROZZERIA
 62
90
 10
1434.63
 20
-1655.86
 30
0.0
 11
1387.87
 21
-1677.38
 31
0.0
  0
LINE
  8
CARROZZERIA
 62
90
 10
1387.87
 20
-1677.38
 30
0.0
 11
1327.89
 21
-1674.82
 31
0.0
  0
LINE
  8
CARROZZERIA
 62
90
 10
1327.89
 20
-1674.82
 30
0.0
 11
1276.29
 21
-1693.97
 31
0.0
  0
LINE
  8
CARROZZERIA
 62
90
 10
1276.29
 20
-1693.97
 30
0.0
 11
1234.44
 21
-1716.86
 31
0.0
  0
LINE
  8
CARROZZERIA
 62
90
 10
1234.44
 20
-1716.86
 30
0.0
 11
1231.1
 21
-1760.74
 31
0.0
  0
LINE
  8
CARROZZERIA
 62
90
 10
1340.85
 20
-1675.81
 30
0.0
 11
1344.41
 21
-1628.94
 31
0.0
  0
LINE
  8
CARROZZERIA
 62
90
 10
1319.91
 20
-1674.22
 30
0.0
 11
1323.47
 21
-1627.35
 31
0.0
  0
LINE
  8
CARROZZERIA
 62
90
 10
1368.5
 20
-1628.77
 30
0.0
 11
1298.7
 21
-1623.46
 31
0.0
  0
LINE
  8
CARROZZERIA
 62
90
 10
1368.19
 20
-1632.76
 30
0.0
 11
1298.4
 21
-1627.45
 31
0.0
  0
LINE
  8
CARROZZERIA
 62
90
 10
1368.19
 20
-1632.76
 30
0.0
 11
1368.5
 21
-1628.77
 31
0.0
  0
LINE
  8
CARROZZERIA
 62
90
 10
1298.4
 20
-1627.45
 30
0.0
 11
1298.7
 21
-1623.46
 31
0.0
  0
CIRCLE
  8
CARROZZERIA
 62
90
 10
1591.96
 20
-1763.09
 30
0.0
 40
35
  0
CIRCLE
  8
CARROZZERIA
 62
90
 10
1352.65
 20
-1744.9
 30
0.0
 40
35
  0
LINE
  8
CARROZZERIA
 62
90
 10
1745.92
 20
-1763.15
 30
0.0
 11
1735.93
 21
-1762.88
 31
0.0
  0
LINE
  8
CARROZZERIA
 62
90
 10
1740.79
 20
-1768.01
 30
0.0
 11
1741.06
 21
-1758.02
 31
0.0
  0
LINE
  8
CARROZZERIA
 62
90
 10
1506.01
 20
-1756.57
 30
0.0
 11
1496.02
 21
-1756.3
 31
0.0
  0
LINE
  8
CARROZZERIA
 62
90
 10
1500.88
 20
-1761.43
 30
0.0
 11
1501.15
 21
-1751.43
 31
0.0
  0
LINE
  8
CARROZZERIA
 62
90
 10
1880.13
 20
-1793.84
 30
0.0
 11
1774.87
 21
-1790.96
 31
0.0
  0
LINE
  8
CARROZZERIA
 62
90
 10
1705.5
 20
-1789.05
 30
0.0
 11
1534.96
 21
-1784.37
 31
0.0
  0
LINE
  8
CARROZZERIA
 62
90
 10
1465.59
 20
-1782.47
 30
0.0
 11
1380.32
 21
-1780.13
 31
0.0
  0
LINE
  8
CARROZZERIA
 62
90
 10
1880.13
 20
-1793.84
 30
0.0
 11
1880.87
 21
-1766.85
 31
0.0
  0
LINE
  8
CARROZZERIA
 62
90
 10
1880.87
 20
-1766.85
 30
0.0
 11
1869.34
 21
-1749.53
 31
0.0
  0
LINE
  8
CARROZZERIA
 62
90
 10
1869.34
 20
-1749.53
 30
0.0
 11
1853.62
 21
-1739.1
 31
0.0
  0
LINE
  8
CARROZZERIA
 62
90
 10
1853.62
 20
-1739.1
 30
0.0
 11
1816.91
 21
-1728.08
 31
0.0
  0
LINE
  8
CARROZZERIA
 62
90
 10
1816.91
 20
-1728.08
 30
0.0
 11
1767.15
 21
-1718.72
 31
0.0
  0
LINE
  8
CARROZZERIA
 62
90
 10
1767.15
 20
-1718.72
 30
0.0
 11
1737.24
 21
-1714.89
 31
0.0
  0
LINE
  8
CARROZZERIA
 62
90
 10
1737.24
 20
-1714.89
 30
0.0
 11
1705.49
 21
-1669.01
 31
0.0
  0
LINE
  8
CARROZZERIA
 62
90
 10
1705.49
 20
-1669.01
 30
0.0
 11
1578.54
 21
-1665.52
 31
0.0
  0
LINE
  8
CARROZZERIA
 62
90
 10
1578.54
 20
-1665.52
 30
0.0
 11
1532.87
 21
-1689.28
 31
0.0
  0
LINE
  8
CARROZZERIA
 62
90
 10
1532.87
 20
-1689.28
 30
0.0
 11
1472.84
 21
-1689.64
 31
0.0
  0
LINE
  8
CARROZZERIA
 62
90
 10
1472.84
 20
-1689.64
 30
0.0
 11
1422.22
 21
-1711.26
 31
0.0
  0
LINE
  8
CARROZZERIA
 62
90
 10
1422.22
 20
-1711.26
 30
0.0
 11
1381.53
 21
-1736.15
 31
0.0
  0
LINE
  8
CARROZZERIA
 62
90
 10
1381.53
 20
-1736.15
 30
0.0
 11
1380.32
 21
-1780.13
 31
0.0
  0
LINE
  8
CARROZZERIA
 62
90
 10
1485.83
 20
-1689.99
 30
0.0
 11
1487.12
 21
-1643.01
 31
0.0
  0
LINE
  8
CARROZZERIA
 62
90
 10
1464.84
 20
-1689.42
 30
0.0
 11
1466.13
 21
-1642.43
 31
0.0
  0
LINE
  8
CARROZZERIA
 62
90
 10
1511.17
 20
-1641.67
 30
0.0
 11
1441.19
 21
-1639.75
 31
0.0
  0
LINE
  8
CARROZZERIA
 62
90
 10
1511.06
 20
-1645.67
 30
0.0
 11
1441.08
 21
-1643.75
 31
0.0
  0
LINE
  8
CARROZZERIA
 62
90
 10
1511.06
 20
-1645.67
 30
0.0
 11
1511.17
 21
-1641.67
 31
0.0
  0
LINE
  8
CARROZZERIA
 62
90
 10
1441.08
 20
-1643.75
 30
0.0
 11
1441.19
 21
-1639.75
 31
0.0
  0
CIRCLE
  8
CARROZZERIA
 62
90
 10
1740.87
 20
-1765.01
 30
0.0
 40
35
  0
CIRCLE
  8
CARROZZERIA
 62
90
 10
1500.96
 20
-1758.43
 30
0.0
 40
35
  0
LINE
  8
CARROZZERIA
 62
90
 10
1895.06
 20
-1763.01
 30
0.0
 11
1885.06
 21
-1762.99
 31
0.0
  0
LINE
  8
CARROZZERIA
 62
90
 10
1890.05
 20
-1768
 30
0.0
 11
1890.07
 21
-1758
 31
0.0
  0
LINE
  8
CARROZZERIA
 62
90
 10
1655.06
 20
-1762.6
 30
0.0
 11
1645.06
 21
-1762.58
 31
0.0
  0
LINE
  8
CARROZZERIA
 62
90
 10
1650.05
 20
-1767.59
 30
0.0
 11
1650.07
 21
-1757.59
 31
0.0
  0
LINE
  8
CARROZZERIA
 62
90
 10
2030.02
 20
-1790.24
 30
0.0
 11
1924.72
 21
-1790.06
 31
0.0
  0
LINE
  8
CARROZZERIA
 62
90
 10
1855.32
 20
-1789.94
 30
0.0
 11
1684.72
 21
-1789.65
 31
0.0
  0
LINE
  8
CARROZZERIA
 62
90
 10
1615.32
 20
-1789.53
 30
0.0
 11
1530.02
 21
-1789.38
 31
0.0
  0
LINE
  8
CARROZZERIA
 62
90
 10
2030.02
 20
-1790.24
 30
0.0
 11
2030.06
 21
-1763.24
 31
0.0
  0
LINE
  8
CARROZZERIA
 62
90
 10
2030.06
 20
-1763.24
 30
0.0
 11
2018.09
 21
-1746.22
 31
0.0
  0
LINE
  8
CARROZZERIA
 62
90
 10
2018.09
 20
-1746.22
 30
0.0
 11
2002.11
 21
-1736.19
 31
0.0
  0
LINE
  8
CARROZZERIA
 62
90
 10
2002.11
 20
-1736.19
 30
0.0
 11
1965.13
 21
-1726.13
 31
0.0
  0
LINE
  8
CARROZZERIA
 62
90
 10
1965.13
 20
-1726.13
 30
0.0
 11
1915.14
 21
-1718.04
 31
0.0
  0
LINE
  8
CARROZZERIA
 62
90
 10
1915.14
 20
-1718.04
 30
0.0
 11
1885.15
 21
-1714.99
 31
0.0
  0
LINE
  8
CARROZZERIA
 62
90
 10
1885.15
 20
-1714.99
 30
0.0
 11
1852.22
 21
-1669.94
 31
0.0
  0
LINE
  8
CARROZZERIA
 62
90
 10
1852.22
 20
-1669.94
 30
0.0
 11
1725.22
 21
-1669.72
 31
0.0
  0
LINE
  8
CARROZZERIA
 62
90
 10
1725.22
 20
-1669.72
 30
0.0
 11
1680.18
 21
-1694.64
 31
0.0
  0
LINE
  8
CARROZZERIA
 62
90
 10
1680.18
 20
-1694.64
 30
0.0
 11
1620.18
 21
-1696.54
 31
0.0
  0
LINE
  8
CARROZZERIA
 62
90
 10
1620.18
 20
-1696.54
 30
0.0
 11
1570.14
 21
-1719.45
 31
0.0
  0
LINE
  8
CARROZZERIA
 62
90
 10
1570.14
 20
-1719.45
 30
0.0
 11
1530.09
 21
-1745.38
 31
0.0
  0
LINE
  8
CARROZZERIA
 62
90
 10
1530.09
 20
-1745.38
 30
0.0
 11
1530.02
 21
-1789.38
 31
0.0
  0
LINE
  8
CARROZZERIA
 62
90
 10
1633.18
 20
-1696.56
 30
0.0
 11
1633.26
 21
-1649.56
 31
0.0
  0
LINE
  8
CARROZZERIA
 62
90
 10
1612.18
 20
-1696.52
 30
0.0
 11
1612.26
 21
-1649.52
 31
0.0
  0
LINE
  8
CARROZZERIA
 62
90
 10
1657.26
 20
-1647.6
 30
0.0
 11
1587.26
 21
-1647.48
 31
0.0
  0
LINE
  8
CARROZZERIA
 62
90
 10
1657.25
 20
-1651.6
 30
0.0
 11
1587.25
 21
-1651.48
 31
0.0
  0
LINE
  8
CARROZZERIA
 62
90
 10
1657.25
 20
-1651.6
 30
0.0
 11
1657.26
 21
-1647.6
 31
0.0
  0
LINE
  8
CARROZZERIA
 62
90
 10
1587.25
 20
-1651.48
 30
0.0
 11
1587.26
 21
-1647.48
 31
0.0
  0
CIRCLE
  8
CARROZZERIA
 62
90
 10
1890.06
 20
-1765
 30
0.0
 40
35
  0
CIRCLE
  8
CARROZZERIA
 62
90
 10
1650.06
 20
-1764.59
 30
0.0
 40
35
  0
CIRCLE
  8
TESTO
 62
90
 10
1699.46
 20
-1798.77
 30
0.0
 40
11
  0
LINE
  8
CRITICO
 62
90
 10
1699.46
 20
-1798.77
 30
0.0
 11
1699.46
 21
-1800
 31
0.0
  0
LINE
  8
CRITICO
 62
90
 10
1699.46
 20
-1798.77
 30
0.0
 11
1849.46
 21
-1853.77
 31
0.0
  0
TEXT
  8
CRITICO
 62
90
 10
1857.46
 20
-1861.77
 30
0.0
 40
10
  1
paraurti ANT (muso): +1.23 cm  ->  sicuro
  0
CIRCLE
  8
TESTO
 62
90
 10
1341.48
 20
-1775.9
 30
0.0
 40
9
  0
TEXT
  8
TESTO
 62
90
 10
1221.48
 20
-1753.9
 30
0.0
 40
8
  1
POST +2.90
  0
TEXT
  8
TESTO
 62
90
 10
-560
 20
-1328
 30
0.0
 40
16
  1
h = 10 cm
  0
TEXT
  8
TESTO
 62
90
 10
-300
 20
-1326
 30
0.0
 40
11
  1
ANT +1.23  |  POST +2.90  |  ventre +2.41  [cm]  ->  SICURO
  0
TEXT
  8
TESTO
 62
7
 10
-300
 20
-1346
 30
0.0
 40
9
  1
sagome ogni 150 cm (+ posa critica): 14 verdi (sicuro), 0 arancio (a rischio), 0 rosse (collisione)
  0
LINE
  8
REF
 62
8
 10
-560
 20
-1358
 30
0.0
 11
2360
 21
-1358
 31
0.0
  0
TEXT
  8
TESTO
 10
-560
 20
-1950
 30
0.0
 40
9
  1
NB1: il vincolo GOVERNANTE e' sempre il PARAURTI ANTERIORE (sbalzo 140 cm) contro il raccordo SAG; posteriore e ventre restano meno critici.
  0
TEXT
  8
TESTO
 10
-560
 20
-1968
 30
0.0
 40
9
  1
NB2: clearance ~lineare nella luce (+1 cm di h => ~+1 cm). Questo e' il profilo LIMITE (47%): non e' la rampa adottata (R=1500) e a 47% restano problemi di aderenza/usura/comfort.
  0
ENDSEC
  0
EOF
