  0
SECTION
  2
HEADER
  9
$ACADVER
  1
AC1009
  9
$EXTMIN
 10
-700.0
 20
-260.0
 30
0.0
  9
$EXTMAX
 10
2250.0
 20
530.0
 30
0.0
  9
$LIMMIN
 10
-700.0
 20
-260.0
  9
$LIMMAX
 10
2250.0
 20
530.0
  9
$LTSCALE
 40
10.0
  9
$INSUNITS
 70
5
  0
ENDSEC
  0
SECTION
  2
TABLES
  0
TABLE
  2
LTYPE
 70
2
  0
LTYPE
  2
CONTINUOUS
 70
64
  3
Solid line
 72
65
 73
0
 40
0.0
  0
LTYPE
  2
DASHED
 70
64
  3
_ _ _ _ _
 72
65
 73
2
 40
20.0
 49
12.0
 49
-8.0
  0
ENDTAB
  0
TABLE
  2
LAYER
 70
7
  0
LAYER
  2
0
 70
64
 62
7
  6
CONTINUOUS
  0
LAYER
  2
RAMPA
 70
64
 62
3
  6
CONTINUOUS
  0
LAYER
  2
CARROZZERIA
 70
64
 62
2
  6
CONTINUOUS
  0
LAYER
  2
RUOTE
 70
64
 62
4
  6
CONTINUOUS
  0
LAYER
  2
CRITICO
 70
64
 62
1
  6
CONTINUOUS
  0
LAYER
  2
QUOTE
 70
64
 62
5
  6
CONTINUOUS
  0
LAYER
  2
TESTO
 70
64
 62
7
  6
CONTINUOUS
  0
LAYER
  2
REF
 70
64
 62
8
  6
DASHED
  0
ENDTAB
  0
TABLE
  2
STYLE
 70
1
  0
STYLE
  2
STANDARD
 70
0
 40
0.0
 41
1.0
 50
0.0
 71
0
 42
2.5
  3
txt
  4

  0
ENDTAB
  0
ENDSEC
  0
SECTION
  2
ENTITIES
  0
TEXT
  8
TESTO
 10
-650
 20
500
 30
0.0
 40
18
  1
RAMPA GARAGE - PROFILO COSTRUTTIVO - PICCHETTAZIONE QUOTE OGNI 50 cm
  0
TEXT
  8
TESTO
 10
-650
 20
476
 30
0.0
 40
9
  1
Stesso profilo dell'animazione (OTTIMIZZATO: CREST R=950 + SAG R=3042, tratto retto 13 cm, picco 47%). Senza vettura.
  0
TEXT
  8
TESTO
 10
-650
 20
460
 30
0.0
 40
9
  1
Quote di altezza riferite al PIANO GARAGE (0 cm in fondo) fino al PIANO STRADA (380 cm). Progressive orizzontali dall'innesto strada (0) al garage (1700).
  0
LINE
  8
REF
 62
8
 10
-650
 20
448
 30
0.0
 11
2200
 21
448
 31
0.0
  0
LINE
  8
RAMPA
 10
-450
 20
380
 30
0.0
 11
0
 21
380
 31
0.0
  0
TEXT
  8
TESTO
 10
-430
 20
390
 30
0.0
 40
11
  1
STRADA  (q. 380)
  0
LINE
  8
RAMPA
 10
1700
 20
0
 30
0.0
 11
2150
 21
0
 31
0.0
  0
TEXT
  8
TESTO
 10
1880
 20
12
 30
0.0
 40
11
  1
GARAGE  (q. 0)
  0
ARC
  8
RAMPA
 10
0
 20
-570
 30
0.0
 40
950
 50
65
 51
90
  0
LINE
  8
RAMPA
 10
401.49
 20
290.99
 30
0.0
 11
414.24
 21
285.05
 31
0.0
  0
ARC
  8
RAMPA
 10
1700
 20
3042.37
 30
0.0
 40
3042.37
 50
245
 51
270
  0
CIRCLE
  8
CRITICO
 62
1
 10
0
 20
380
 30
0.0
 40
4
  0
TEXT
  8
CRITICO
 62
1
 10
14
 20
382
 30
0.0
 40
9
  1
quota MAX 380 cm (innesto strada)
  0
CIRCLE
  8
CRITICO
 62
1
 10
1700
 20
0
 30
0.0
 40
4
  0
TEXT
  8
CRITICO
 62
1
 10
1230
 20
-14
 30
0.0
 40
9
  1
quota MIN 0 cm (fondo garage)
  0
LINE
  8
REF
 62
8
 10
-100
 20
0
 30
0.0
 11
1800
 21
0
 31
0.0
  0
LINE
  8
QUOTE
 62
5
 10
0
 20
-55
 30
0.0
 11
1700
 21
-55
 31
0.0
  0
TEXT
  8
TESTO
 62
5
 10
-300
 20
-68
 30
0.0
 40
9
  1
QUOTA H (cm):
  0
TEXT
  8
TESTO
 62
5
 10
-300
 20
-148
 30
0.0
 40
9
  1
PROGR. (cm):
  0
LINE
  8
REF
 62
8
 10
0
 20
0
 30
0.0
 11
0
 21
380
 31
0.0
  0
LINE
  8
QUOTE
 62
5
 10
0
 20
-55
 30
0.0
 11
0
 21
-60
 31
0.0
  0
TEXT
  8
QUOTE
 62
5
 10
3
 20
-70
 30
0.0
 40
8
 50
90
  1
380.0
  0
TEXT
  8
TESTO
 62
7
 10
3
 20
-150
 30
0.0
 40
8
 50
90
  1
0
  0
LINE
  8
REF
 62
8
 10
50
 20
0
 30
0.0
 11
50
 21
378.68
 31
0.0
  0
LINE
  8
QUOTE
 62
5
 10
50
 20
-55
 30
0.0
 11
50
 21
-60
 31
0.0
  0
TEXT
  8
QUOTE
 62
5
 10
53
 20
-70
 30
0.0
 40
8
 50
90
  1
378.7
  0
TEXT
  8
TESTO
 62
7
 10
53
 20
-150
 30
0.0
 40
8
 50
90
  1
50
  0
LINE
  8
REF
 62
8
 10
100
 20
0
 30
0.0
 11
100
 21
374.72
 31
0.0
  0
LINE
  8
QUOTE
 62
5
 10
100
 20
-55
 30
0.0
 11
100
 21
-60
 31
0.0
  0
TEXT
  8
QUOTE
 62
5
 10
103
 20
-70
 30
0.0
 40
8
 50
90
  1
374.7
  0
TEXT
  8
TESTO
 62
7
 10
103
 20
-150
 30
0.0
 40
8
 50
90
  1
100
  0
LINE
  8
REF
 62
8
 10
150
 20
0
 30
0.0
 11
150
 21
368.08
 31
0.0
  0
LINE
  8
QUOTE
 62
5
 10
150
 20
-55
 30
0.0
 11
150
 21
-60
 31
0.0
  0
TEXT
  8
QUOTE
 62
5
 10
153
 20
-70
 30
0.0
 40
8
 50
90
  1
368.1
  0
TEXT
  8
TESTO
 62
7
 10
153
 20
-150
 30
0.0
 40
8
 50
90
  1
150
  0
LINE
  8
REF
 62
8
 10
200
 20
0
 30
0.0
 11
200
 21
358.71
 31
0.0
  0
LINE
  8
QUOTE
 62
5
 10
200
 20
-55
 30
0.0
 11
200
 21
-60
 31
0.0
  0
TEXT
  8
QUOTE
 62
5
 10
203
 20
-70
 30
0.0
 40
8
 50
90
  1
358.7
  0
TEXT
  8
TESTO
 62
7
 10
203
 20
-150
 30
0.0
 40
8
 50
90
  1
200
  0
LINE
  8
REF
 62
8
 10
250
 20
0
 30
0.0
 11
250
 21
346.52
 31
0.0
  0
LINE
  8
QUOTE
 62
5
 10
250
 20
-55
 30
0.0
 11
250
 21
-60
 31
0.0
  0
TEXT
  8
QUOTE
 62
5
 10
253
 20
-70
 30
0.0
 40
8
 50
90
  1
346.5
  0
TEXT
  8
TESTO
 62
7
 10
253
 20
-150
 30
0.0
 40
8
 50
90
  1
250
  0
LINE
  8
REF
 62
8
 10
300
 20
0
 30
0.0
 11
300
 21
331.39
 31
0.0
  0
LINE
  8
QUOTE
 62
5
 10
300
 20
-55
 30
0.0
 11
300
 21
-60
 31
0.0
  0
TEXT
  8
QUOTE
 62
5
 10
303
 20
-70
 30
0.0
 40
8
 50
90
  1
331.4
  0
TEXT
  8
TESTO
 62
7
 10
303
 20
-150
 30
0.0
 40
8
 50
90
  1
300
  0
LINE
  8
REF
 62
8
 10
350
 20
0
 30
0.0
 11
350
 21
313.18
 31
0.0
  0
LINE
  8
QUOTE
 62
5
 10
350
 20
-55
 30
0.0
 11
350
 21
-60
 31
0.0
  0
TEXT
  8
QUOTE
 62
5
 10
353
 20
-70
 30
0.0
 40
8
 50
90
  1
313.2
  0
TEXT
  8
TESTO
 62
7
 10
353
 20
-150
 30
0.0
 40
8
 50
90
  1
350
  0
LINE
  8
REF
 62
8
 10
400
 20
0
 30
0.0
 11
400
 21
291.68
 31
0.0
  0
LINE
  8
QUOTE
 62
5
 10
400
 20
-55
 30
0.0
 11
400
 21
-60
 31
0.0
  0
TEXT
  8
QUOTE
 62
5
 10
403
 20
-70
 30
0.0
 40
8
 50
90
  1
291.7
  0
TEXT
  8
TESTO
 62
7
 10
403
 20
-150
 30
0.0
 40
8
 50
90
  1
400
  0
LINE
  8
REF
 62
8
 10
450
 20
0
 30
0.0
 11
450
 21
268.65
 31
0.0
  0
LINE
  8
QUOTE
 62
5
 10
450
 20
-55
 30
0.0
 11
450
 21
-60
 31
0.0
  0
TEXT
  8
QUOTE
 62
5
 10
453
 20
-70
 30
0.0
 40
8
 50
90
  1
268.7
  0
TEXT
  8
TESTO
 62
7
 10
453
 20
-150
 30
0.0
 40
8
 50
90
  1
450
  0
LINE
  8
REF
 62
8
 10
500
 20
0
 30
0.0
 11
500
 21
246.66
 31
0.0
  0
LINE
  8
QUOTE
 62
5
 10
500
 20
-55
 30
0.0
 11
500
 21
-60
 31
0.0
  0
TEXT
  8
QUOTE
 62
5
 10
503
 20
-70
 30
0.0
 40
8
 50
90
  1
246.7
  0
TEXT
  8
TESTO
 62
7
 10
503
 20
-150
 30
0.0
 40
8
 50
90
  1
500
  0
LINE
  8
REF
 62
8
 10
550
 20
0
 30
0.0
 11
550
 21
225.72
 31
0.0
  0
LINE
  8
QUOTE
 62
5
 10
550
 20
-55
 30
0.0
 11
550
 21
-60
 31
0.0
  0
TEXT
  8
QUOTE
 62
5
 10
553
 20
-70
 30
0.0
 40
8
 50
90
  1
225.7
  0
TEXT
  8
TESTO
 62
7
 10
553
 20
-150
 30
0.0
 40
8
 50
90
  1
550
  0
LINE
  8
REF
 62
8
 10
600
 20
0
 30
0.0
 11
600
 21
205.82
 31
0.0
  0
LINE
  8
QUOTE
 62
5
 10
600
 20
-55
 30
0.0
 11
600
 21
-60
 31
0.0
  0
TEXT
  8
QUOTE
 62
5
 10
603
 20
-70
 30
0.0
 40
8
 50
90
  1
205.8
  0
TEXT
  8
TESTO
 62
7
 10
603
 20
-150
 30
0.0
 40
8
 50
90
  1
600
  0
LINE
  8
REF
 62
8
 10
650
 20
0
 30
0.0
 11
650
 21
186.93
 31
0.0
  0
LINE
  8
QUOTE
 62
5
 10
650
 20
-55
 30
0.0
 11
650
 21
-60
 31
0.0
  0
TEXT
  8
QUOTE
 62
5
 10
653
 20
-70
 30
0.0
 40
8
 50
90
  1
186.9
  0
TEXT
  8
TESTO
 62
7
 10
653
 20
-150
 30
0.0
 40
8
 50
90
  1
650
  0
LINE
  8
REF
 62
8
 10
700
 20
0
 30
0.0
 11
700
 21
169.04
 31
0.0
  0
LINE
  8
QUOTE
 62
5
 10
700
 20
-55
 30
0.0
 11
700
 21
-60
 31
0.0
  0
TEXT
  8
QUOTE
 62
5
 10
703
 20
-70
 30
0.0
 40
8
 50
90
  1
169.0
  0
TEXT
  8
TESTO
 62
7
 10
703
 20
-150
 30
0.0
 40
8
 50
90
  1
700
  0
LINE
  8
REF
 62
8
 10
750
 20
0
 30
0.0
 11
750
 21
152.13
 31
0.0
  0
LINE
  8
QUOTE
 62
5
 10
750
 20
-55
 30
0.0
 11
750
 21
-60
 31
0.0
  0
TEXT
  8
QUOTE
 62
5
 10
753
 20
-70
 30
0.0
 40
8
 50
90
  1
152.1
  0
TEXT
  8
TESTO
 62
7
 10
753
 20
-150
 30
0.0
 40
8
 50
90
  1
750
  0
LINE
  8
REF
 62
8
 10
800
 20
0
 30
0.0
 11
800
 21
136.17
 31
0.0
  0
LINE
  8
QUOTE
 62
5
 10
800
 20
-55
 30
0.0
 11
800
 21
-60
 31
0.0
  0
TEXT
  8
QUOTE
 62
5
 10
803
 20
-70
 30
0.0
 40
8
 50
90
  1
136.2
  0
TEXT
  8
TESTO
 62
7
 10
803
 20
-150
 30
0.0
 40
8
 50
90
  1
800
  0
LINE
  8
REF
 62
8
 10
850
 20
0
 30
0.0
 11
850
 21
121.15
 31
0.0
  0
LINE
  8
QUOTE
 62
5
 10
850
 20
-55
 30
0.0
 11
850
 21
-60
 31
0.0
  0
TEXT
  8
QUOTE
 62
5
 10
853
 20
-70
 30
0.0
 40
8
 50
90
  1
121.2
  0
TEXT
  8
TESTO
 62
7
 10
853
 20
-150
 30
0.0
 40
8
 50
90
  1
850
  0
LINE
  8
REF
 62
8
 10
900
 20
0
 30
0.0
 11
900
 21
107.06
 31
0.0
  0
LINE
  8
QUOTE
 62
5
 10
900
 20
-55
 30
0.0
 11
900
 21
-60
 31
0.0
  0
TEXT
  8
QUOTE
 62
5
 10
903
 20
-70
 30
0.0
 40
8
 50
90
  1
107.1
  0
TEXT
  8
TESTO
 62
7
 10
903
 20
-150
 30
0.0
 40
8
 50
90
  1
900
  0
LINE
  8
REF
 62
8
 10
950
 20
0
 30
0.0
 11
950
 21
93.89
 31
0.0
  0
LINE
  8
QUOTE
 62
5
 10
950
 20
-55
 30
0.0
 11
950
 21
-60
 31
0.0
  0
TEXT
  8
QUOTE
 62
5
 10
953
 20
-70
 30
0.0
 40
8
 50
90
  1
93.9
  0
TEXT
  8
TESTO
 62
7
 10
953
 20
-150
 30
0.0
 40
8
 50
90
  1
950
  0
LINE
  8
REF
 62
8
 10
1000
 20
0
 30
0.0
 11
1000
 21
81.62
 31
0.0
  0
LINE
  8
QUOTE
 62
5
 10
1000
 20
-55
 30
0.0
 11
1000
 21
-60
 31
0.0
  0
TEXT
  8
QUOTE
 62
5
 10
1003
 20
-70
 30
0.0
 40
8
 50
90
  1
81.6
  0
TEXT
  8
TESTO
 62
7
 10
1003
 20
-150
 30
0.0
 40
8
 50
90
  1
1000
  0
LINE
  8
REF
 62
8
 10
1050
 20
0
 30
0.0
 11
1050
 21
70.25
 31
0.0
  0
LINE
  8
QUOTE
 62
5
 10
1050
 20
-55
 30
0.0
 11
1050
 21
-60
 31
0.0
  0
TEXT
  8
QUOTE
 62
5
 10
1053
 20
-70
 30
0.0
 40
8
 50
90
  1
70.2
  0
TEXT
  8
TESTO
 62
7
 10
1053
 20
-150
 30
0.0
 40
8
 50
90
  1
1050
  0
LINE
  8
REF
 62
8
 10
1100
 20
0
 30
0.0
 11
1100
 21
59.75
 31
0.0
  0
LINE
  8
QUOTE
 62
5
 10
1100
 20
-55
 30
0.0
 11
1100
 21
-60
 31
0.0
  0
TEXT
  8
QUOTE
 62
5
 10
1103
 20
-70
 30
0.0
 40
8
 50
90
  1
59.8
  0
TEXT
  8
TESTO
 62
7
 10
1103
 20
-150
 30
0.0
 40
8
 50
90
  1
1100
  0
LINE
  8
REF
 62
8
 10
1150
 20
0
 30
0.0
 11
1150
 21
50.13
 31
0.0
  0
LINE
  8
QUOTE
 62
5
 10
1150
 20
-55
 30
0.0
 11
1150
 21
-60
 31
0.0
  0
TEXT
  8
QUOTE
 62
5
 10
1153
 20
-70
 30
0.0
 40
8
 50
90
  1
50.1
  0
TEXT
  8
TESTO
 62
7
 10
1153
 20
-150
 30
0.0
 40
8
 50
90
  1
1150
  0
LINE
  8
REF
 62
8
 10
1200
 20
0
 30
0.0
 11
1200
 21
41.37
 31
0.0
  0
LINE
  8
QUOTE
 62
5
 10
1200
 20
-55
 30
0.0
 11
1200
 21
-60
 31
0.0
  0
TEXT
  8
QUOTE
 62
5
 10
1203
 20
-70
 30
0.0
 40
8
 50
90
  1
41.4
  0
TEXT
  8
TESTO
 62
7
 10
1203
 20
-150
 30
0.0
 40
8
 50
90
  1
1200
  0
LINE
  8
REF
 62
8
 10
1250
 20
0
 30
0.0
 11
1250
 21
33.46
 31
0.0
  0
LINE
  8
QUOTE
 62
5
 10
1250
 20
-55
 30
0.0
 11
1250
 21
-60
 31
0.0
  0
TEXT
  8
QUOTE
 62
5
 10
1253
 20
-70
 30
0.0
 40
8
 50
90
  1
33.5
  0
TEXT
  8
TESTO
 62
7
 10
1253
 20
-150
 30
0.0
 40
8
 50
90
  1
1250
  0
LINE
  8
REF
 62
8
 10
1300
 20
0
 30
0.0
 11
1300
 21
26.41
 31
0.0
  0
LINE
  8
QUOTE
 62
5
 10
1300
 20
-55
 30
0.0
 11
1300
 21
-60
 31
0.0
  0
TEXT
  8
QUOTE
 62
5
 10
1303
 20
-70
 30
0.0
 40
8
 50
90
  1
26.4
  0
TEXT
  8
TESTO
 62
7
 10
1303
 20
-150
 30
0.0
 40
8
 50
90
  1
1300
  0
LINE
  8
REF
 62
8
 10
1350
 20
0
 30
0.0
 11
1350
 21
20.2
 31
0.0
  0
LINE
  8
QUOTE
 62
5
 10
1350
 20
-55
 30
0.0
 11
1350
 21
-60
 31
0.0
  0
TEXT
  8
QUOTE
 62
5
 10
1353
 20
-70
 30
0.0
 40
8
 50
90
  1
20.2
  0
TEXT
  8
TESTO
 62
7
 10
1353
 20
-150
 30
0.0
 40
8
 50
90
  1
1350
  0
LINE
  8
REF
 62
8
 10
1400
 20
0
 30
0.0
 11
1400
 21
14.83
 31
0.0
  0
LINE
  8
QUOTE
 62
5
 10
1400
 20
-55
 30
0.0
 11
1400
 21
-60
 31
0.0
  0
TEXT
  8
QUOTE
 62
5
 10
1403
 20
-70
 30
0.0
 40
8
 50
90
  1
14.8
  0
TEXT
  8
TESTO
 62
7
 10
1403
 20
-150
 30
0.0
 40
8
 50
90
  1
1400
  0
LINE
  8
REF
 62
8
 10
1450
 20
0
 30
0.0
 11
1450
 21
10.29
 31
0.0
  0
LINE
  8
QUOTE
 62
5
 10
1450
 20
-55
 30
0.0
 11
1450
 21
-60
 31
0.0
  0
TEXT
  8
QUOTE
 62
5
 10
1453
 20
-70
 30
0.0
 40
8
 50
90
  1
10.3
  0
TEXT
  8
TESTO
 62
7
 10
1453
 20
-150
 30
0.0
 40
8
 50
90
  1
1450
  0
LINE
  8
REF
 62
8
 10
1500
 20
0
 30
0.0
 11
1500
 21
6.58
 31
0.0
  0
LINE
  8
QUOTE
 62
5
 10
1500
 20
-55
 30
0.0
 11
1500
 21
-60
 31
0.0
  0
TEXT
  8
QUOTE
 62
5
 10
1503
 20
-70
 30
0.0
 40
8
 50
90
  1
6.6
  0
TEXT
  8
TESTO
 62
7
 10
1503
 20
-150
 30
0.0
 40
8
 50
90
  1
1500
  0
LINE
  8
REF
 62
8
 10
1550
 20
0
 30
0.0
 11
1550
 21
3.7
 31
0.0
  0
LINE
  8
QUOTE
 62
5
 10
1550
 20
-55
 30
0.0
 11
1550
 21
-60
 31
0.0
  0
TEXT
  8
QUOTE
 62
5
 10
1553
 20
-70
 30
0.0
 40
8
 50
90
  1
3.7
  0
TEXT
  8
TESTO
 62
7
 10
1553
 20
-150
 30
0.0
 40
8
 50
90
  1
1550
  0
LINE
  8
REF
 62
8
 10
1600
 20
0
 30
0.0
 11
1600
 21
1.64
 31
0.0
  0
LINE
  8
QUOTE
 62
5
 10
1600
 20
-55
 30
0.0
 11
1600
 21
-60
 31
0.0
  0
TEXT
  8
QUOTE
 62
5
 10
1603
 20
-70
 30
0.0
 40
8
 50
90
  1
1.6
  0
TEXT
  8
TESTO
 62
7
 10
1603
 20
-150
 30
0.0
 40
8
 50
90
  1
1600
  0
LINE
  8
REF
 62
8
 10
1650
 20
0
 30
0.0
 11
1650
 21
0.41
 31
0.0
  0
LINE
  8
QUOTE
 62
5
 10
1650
 20
-55
 30
0.0
 11
1650
 21
-60
 31
0.0
  0
TEXT
  8
QUOTE
 62
5
 10
1653
 20
-70
 30
0.0
 40
8
 50
90
  1
0.4
  0
TEXT
  8
TESTO
 62
7
 10
1653
 20
-150
 30
0.0
 40
8
 50
90
  1
1650
  0
LINE
  8
REF
 62
8
 10
1700
 20
0
 30
0.0
 11
1700
 21
0
 31
0.0
  0
LINE
  8
QUOTE
 62
5
 10
1700
 20
-55
 30
0.0
 11
1700
 21
-60
 31
0.0
  0
TEXT
  8
QUOTE
 62
5
 10
1703
 20
-70
 30
0.0
 40
8
 50
90
  1
0.0
  0
TEXT
  8
TESTO
 62
7
 10
1703
 20
-150
 30
0.0
 40
8
 50
90
  1
1700
  0
LINE
  8
QUOTE
 62
5
 10
-430
 20
0
 30
0.0
 11
-430
 21
380
 31
0.0
  0
LINE
  8
QUOTE
 62
5
 10
-436
 20
-6
 30
0.0
 11
-424
 21
6
 31
0.0
  0
LINE
  8
QUOTE
 62
5
 10
-436
 20
374
 30
0.0
 11
-424
 21
386
 31
0.0
  0
TEXT
  8
QUOTE
 62
5
 10
-470
 20
170
 30
0.0
 40
9
 50
90
  1
H = 380
  0
LINE
  8
REF
 62
8
 10
-430
 20
380
 30
0.0
 11
0
 21
380
 31
0.0
  0
LINE
  8
QUOTE
 62
5
 10
0
 20
410
 30
0.0
 11
1700
 21
410
 31
0.0
  0
LINE
  8
QUOTE
 62
5
 10
-6
 20
404
 30
0.0
 11
6
 21
416
 31
0.0
  0
LINE
  8
QUOTE
 62
5
 10
1694
 20
404
 30
0.0
 11
1706
 21
416
 31
0.0
  0
TEXT
  8
QUOTE
 62
5
 10
806
 20
416
 30
0.0
 40
9
  1
L = 1700 cm
  0
LINE
  8
REF
 62
8
 10
0
 20
380
 30
0.0
 11
0
 21
410
 31
0.0
  0
LINE
  8
REF
 62
8
 10
1700
 20
0
 30
0.0
 11
1700
 21
410
 31
0.0
  0
TEXT
  8
TESTO
 62
7
 10
-650
 20
-200
 30
0.0
 40
9
  1
NB: progressive e quote su proiezione ORIZZONTALE; i raccordi sono archi di cerchio. Disegno preliminare, da verificare in sito.
  0
ENDSEC
  0
EOF
