<?xml version="1.0" encoding="UTF-8"?>
<svg xmlns="http://www.w3.org/2000/svg" viewBox="0 0 3040 840" width="3040" height="840" style="background:#fff">
  <!-- Profilo_Rampa — generato da dxf_to_svg.js -->
  <line x1="120.00" y1="240.00" x2="620.00" y2="240.00" stroke="#007700" stroke-width="2"/>
  <path d="M 1055.30 304.55 A 1500 1500 0 0 0 620.00 240.00" fill="none" stroke="#007700" stroke-width="2"/>
  <line x1="1055.00" y1="304.00" x2="1885.00" y2="556.00" stroke="#007700" stroke-width="2"/>
  <path d="M 1884.70 555.45 A 1500 1500 0 0 0 2320.00 620.00" fill="none" stroke="#007700" stroke-width="2"/>
  <line x1="2320.00" y1="620.00" x2="2920.00" y2="620.00" stroke="#007700" stroke-width="2"/>
  <line x1="2320.00" y1="240.00" x2="2720.00" y2="240.00" stroke="#777777" stroke-width="0.8" stroke-dasharray="8 4"/>
  <line x1="2029.00" y1="563.00" x2="2021.00" y2="589.00" stroke="#997700" stroke-width="2"/>
  <line x1="2021.00" y1="589.00" x2="1921.00" y2="558.00" stroke="#997700" stroke-width="2"/>
  <path d="M 1920.36 557.95 A 44 44 0 1 0 1853.92 537.77" fill="none" stroke="#997700" stroke-width="2"/>
  <line x1="1854.00" y1="538.00" x2="1691.00" y2="489.00" stroke="#997700" stroke-width="2"/>
  <path d="M 1690.36 488.95 A 44 44 0 1 0 1623.92 468.77" fill="none" stroke="#997700" stroke-width="2"/>
  <line x1="1624.00" y1="469.00" x2="1543.00" y2="444.00" stroke="#997700" stroke-width="2"/>
  <line x1="1556.00" y1="402.00" x2="1543.00" y2="444.00" stroke="#997700" stroke-width="2"/>
  <line x1="1601.00" y1="388.00" x2="1556.00" y2="402.00" stroke="#997700" stroke-width="2"/>
  <line x1="1656.00" y1="381.00" x2="1601.00" y2="388.00" stroke="#997700" stroke-width="2"/>
  <line x1="1714.00" y1="396.00" x2="1656.00" y2="381.00" stroke="#997700" stroke-width="2"/>
  <line x1="1764.00" y1="386.00" x2="1714.00" y2="396.00" stroke="#997700" stroke-width="2"/>
  <line x1="1886.00" y1="422.00" x2="1764.00" y2="386.00" stroke="#997700" stroke-width="2"/>
  <line x1="1904.00" y1="475.00" x2="1886.00" y2="422.00" stroke="#997700" stroke-width="2"/>
  <line x1="1932.00" y1="487.00" x2="1904.00" y2="475.00" stroke="#997700" stroke-width="2"/>
  <line x1="1978.00" y1="509.00" x2="1932.00" y2="487.00" stroke="#997700" stroke-width="2"/>
  <line x1="2010.00" y1="529.00" x2="1978.00" y2="509.00" stroke="#997700" stroke-width="2"/>
  <line x1="2023.00" y1="543.00" x2="2010.00" y2="529.00" stroke="#997700" stroke-width="2"/>
  <line x1="2029.00" y1="563.00" x2="2023.00" y2="543.00" stroke="#997700" stroke-width="2"/>
  <line x1="1668.00" y1="385.00" x2="1682.00" y2="340.00" stroke="#997700" stroke-width="2"/>
  <line x1="1648.00" y1="379.00" x2="1662.00" y2="334.00" stroke="#997700" stroke-width="2"/>
  <line x1="1704.00" y1="349.00" x2="1637.00" y2="328.00" stroke="#997700" stroke-width="2"/>
  <line x1="1706.00" y1="345.00" x2="1639.00" y2="325.00" stroke="#997700" stroke-width="2"/>
  <line x1="1704.00" y1="349.00" x2="1706.00" y2="345.00" stroke="#997700" stroke-width="2"/>
  <line x1="1637.00" y1="328.00" x2="1639.00" y2="325.00" stroke="#997700" stroke-width="2"/>
  <circle cx="1895.00" cy="522.00" r="35.00" fill="none" stroke="#006699" stroke-width="1.5"/>
  <circle cx="1665.00" cy="453.00" r="35.00" fill="none" stroke="#006699" stroke-width="1.5"/>
  <circle cx="2021.00" cy="589.00" r="14.00" fill="none" stroke="#cc0000" stroke-width="1.5"/>
  <line x1="760.00" y1="205.00" x2="760.00" y2="232.00" stroke="#997700" stroke-width="2"/>
  <line x1="760.00" y1="232.00" x2="654.70" y2="232.00" stroke="#997700" stroke-width="2"/>
  <path d="M 654.72 232.03 A 44 44 0 1 0 585.28 232.03" fill="none" stroke="#997700" stroke-width="2"/>
  <line x1="585.30" y1="232.00" x2="414.70" y2="232.00" stroke="#997700" stroke-width="2"/>
  <path d="M 414.72 232.03 A 44 44 0 1 0 345.28 232.03" fill="none" stroke="#997700" stroke-width="2"/>
  <line x1="345.30" y1="232.00" x2="260.00" y2="232.00" stroke="#997700" stroke-width="2"/>
  <line x1="260.00" y1="232.00" x2="260.00" y2="188.00" stroke="#997700" stroke-width="2"/>
  <line x1="260.00" y1="188.00" x2="300.00" y2="162.00" stroke="#997700" stroke-width="2"/>
  <line x1="300.00" y1="162.00" x2="350.00" y2="139.00" stroke="#997700" stroke-width="2"/>
  <line x1="350.00" y1="139.00" x2="410.00" y2="137.00" stroke="#997700" stroke-width="2"/>
  <line x1="410.00" y1="137.00" x2="455.00" y2="112.00" stroke="#997700" stroke-width="2"/>
  <line x1="455.00" y1="112.00" x2="582.00" y2="112.00" stroke="#997700" stroke-width="2"/>
  <line x1="582.00" y1="112.00" x2="615.00" y2="157.00" stroke="#997700" stroke-width="2"/>
  <line x1="615.00" y1="157.00" x2="645.00" y2="160.00" stroke="#997700" stroke-width="2"/>
  <line x1="645.00" y1="160.00" x2="695.00" y2="168.00" stroke="#997700" stroke-width="2"/>
  <line x1="695.00" y1="168.00" x2="732.00" y2="178.00" stroke="#997700" stroke-width="2"/>
  <line x1="732.00" y1="178.00" x2="748.00" y2="188.00" stroke="#997700" stroke-width="2"/>
  <line x1="748.00" y1="188.00" x2="760.00" y2="205.00" stroke="#997700" stroke-width="2"/>
  <circle cx="620.00" cy="205.00" r="35.00" fill="none" stroke="#006699" stroke-width="1.5"/>
  <circle cx="380.00" cy="205.00" r="35.00" fill="none" stroke="#006699" stroke-width="1.5"/>
  <line x1="620.00" y1="240.00" x2="620.00" y2="690.00" stroke="#2244bb" stroke-width="0.8"/>
  <line x1="2320.00" y1="620.00" x2="2320.00" y2="690.00" stroke="#2244bb" stroke-width="0.8"/>
  <line x1="1055.00" y1="304.00" x2="1055.00" y2="690.00" stroke="#2244bb" stroke-width="0.8"/>
  <line x1="1885.00" y1="556.00" x2="1885.00" y2="690.00" stroke="#2244bb" stroke-width="0.8"/>
  <line x1="620.00" y1="655.00" x2="2320.00" y2="655.00" stroke="#2244bb" stroke-width="0.8"/>
  <line x1="620.00" y1="655.00" x2="624.00" y2="653.00" stroke="#2244bb" stroke-width="0.8"/>
  <line x1="620.00" y1="655.00" x2="624.00" y2="657.00" stroke="#2244bb" stroke-width="0.8"/>
  <line x1="2320.00" y1="655.00" x2="2316.00" y2="653.00" stroke="#2244bb" stroke-width="0.8"/>
  <line x1="2320.00" y1="655.00" x2="2316.00" y2="657.00" stroke="#2244bb" stroke-width="0.8"/>
  <line x1="620.00" y1="680.00" x2="1055.00" y2="680.00" stroke="#2244bb" stroke-width="0.8"/>
  <line x1="620.00" y1="680.00" x2="624.00" y2="678.00" stroke="#2244bb" stroke-width="0.8"/>
  <line x1="620.00" y1="680.00" x2="624.00" y2="682.00" stroke="#2244bb" stroke-width="0.8"/>
  <line x1="1055.00" y1="680.00" x2="1051.00" y2="678.00" stroke="#2244bb" stroke-width="0.8"/>
  <line x1="1055.00" y1="680.00" x2="1051.00" y2="682.00" stroke="#2244bb" stroke-width="0.8"/>
  <line x1="1055.00" y1="680.00" x2="1059.00" y2="678.00" stroke="#2244bb" stroke-width="0.8"/>
  <line x1="1055.00" y1="680.00" x2="1059.00" y2="682.00" stroke="#2244bb" stroke-width="0.8"/>
  <line x1="1055.00" y1="680.00" x2="1885.00" y2="680.00" stroke="#2244bb" stroke-width="0.8"/>
  <line x1="1885.00" y1="680.00" x2="1881.00" y2="678.00" stroke="#2244bb" stroke-width="0.8"/>
  <line x1="1885.00" y1="680.00" x2="1881.00" y2="682.00" stroke="#2244bb" stroke-width="0.8"/>
  <line x1="1885.00" y1="680.00" x2="1889.00" y2="678.00" stroke="#2244bb" stroke-width="0.8"/>
  <line x1="1885.00" y1="680.00" x2="1889.00" y2="682.00" stroke="#2244bb" stroke-width="0.8"/>
  <line x1="1885.00" y1="680.00" x2="2320.00" y2="680.00" stroke="#2244bb" stroke-width="0.8"/>
  <line x1="2320.00" y1="680.00" x2="2316.00" y2="678.00" stroke="#2244bb" stroke-width="0.8"/>
  <line x1="2320.00" y1="680.00" x2="2316.00" y2="682.00" stroke="#2244bb" stroke-width="0.8"/>
  <line x1="2440.00" y1="620.00" x2="2440.00" y2="240.00" stroke="#2244bb" stroke-width="0.8"/>
  <line x1="2320.00" y1="620.00" x2="2445.00" y2="620.00" stroke="#2244bb" stroke-width="0.8"/>
  <line x1="2320.00" y1="240.00" x2="2445.00" y2="240.00" stroke="#2244bb" stroke-width="0.8"/>
  <line x1="2440.00" y1="620.00" x2="2437.00" y2="616.00" stroke="#2244bb" stroke-width="0.8"/>
  <line x1="2440.00" y1="620.00" x2="2443.00" y2="616.00" stroke="#2244bb" stroke-width="0.8"/>
  <line x1="2440.00" y1="240.00" x2="2437.00" y2="244.00" stroke="#2244bb" stroke-width="0.8"/>
  <line x1="2440.00" y1="240.00" x2="2443.00" y2="244.00" stroke="#2244bb" stroke-width="0.8"/>
  <text x="170.00" y="70.00" font-size="16" fill="#111111" font-family="Arial,sans-serif" dominant-baseline="text-after-edge">PROFILO RAMPA DISCENDENTE - VISTA LATERALE</text>
  <text x="170.00" y="100.00" font-size="9" fill="#111111" font-family="Arial,sans-serif" dominant-baseline="text-after-edge">Garage interrato. H=380cm, L=1700cm, theta=16.9gradi(30.3%), R_raccordi=1500cm (adottato)</text>
  <text x="170.00" y="122.00" font-size="9" fill="#111111" font-family="Arial,sans-serif" dominant-baseline="text-after-edge">PUNTO CRITICO: asse ant. a inizio SAG (x=1265) - paraurti ant. clearance +1.5cm con R=1500cm</text>
  <text x="170.00" y="144.00" font-size="9" fill="#111111" font-family="Arial,sans-serif" dominant-baseline="text-after-edge">R=1500cm adottato. Clearance +15mm. Ruote 275/35ZR20 (R_ruota=35cm).</text>
  <text x="1320.00" y="648.00" font-size="11" fill="#111111" font-family="Arial,sans-serif" dominant-baseline="text-after-edge">L = 1700 cm</text>
  <text x="770.00" y="673.00" font-size="8" fill="#111111" font-family="Arial,sans-serif" dominant-baseline="text-after-edge">CREST 435cm</text>
  <text x="1330.00" y="673.00" font-size="8" fill="#111111" font-family="Arial,sans-serif" dominant-baseline="text-after-edge">retto 830cm</text>
  <text x="1980.00" y="673.00" font-size="8" fill="#111111" font-family="Arial,sans-serif" dominant-baseline="text-after-edge">SAG 435cm</text>
  <text x="2460.00" y="435.00" font-size="11" fill="#111111" font-family="Arial,sans-serif" dominant-baseline="text-after-edge" transform="rotate(-90.0,2460.00,435.00)">H = 380 cm</text>
  <text x="1260.00" y="420.00" font-size="9" fill="#111111" font-family="Arial,sans-serif" dominant-baseline="text-after-edge" transform="rotate(16.9,1260.00,420.00)">theta = 16.9 gradi = 30.3%</text>
  <text x="240.00" y="270.00" font-size="8" fill="#111111" font-family="Arial,sans-serif" dominant-baseline="text-after-edge">CREST arc</text>
  <text x="240.00" y="284.00" font-size="7" fill="#111111" font-family="Arial,sans-serif" dominant-baseline="text-after-edge">R=1500cm</text>
  <text x="2180.00" y="520.00" font-size="8" fill="#111111" font-family="Arial,sans-serif" dominant-baseline="text-after-edge">SAG arc</text>
  <text x="2180.00" y="534.00" font-size="7" fill="#111111" font-family="Arial,sans-serif" dominant-baseline="text-after-edge">R=1500cm</text>
  <text x="230.00" y="90.00" font-size="8" fill="#111111" font-family="Arial,sans-serif" dominant-baseline="text-after-edge">POSIZ.2: vettura in piano su strada (asse ant. a x=0)</text>
  <text x="1630.00" y="360.00" font-size="8" fill="#111111" font-family="Arial,sans-serif" dominant-baseline="text-after-edge">POSIZ.1 CRITICA</text>
  <text x="1630.00" y="374.00" font-size="7" fill="#111111" font-family="Arial,sans-serif" dominant-baseline="text-after-edge">asse ant. a x=1265</text>
  <text x="1630.00" y="388.00" font-size="7" fill="#111111" font-family="Arial,sans-serif" dominant-baseline="text-after-edge">inclinaz. -16.9 gradi</text>
  <text x="2027.00" y="576.00" font-size="7" fill="#111111" font-family="Arial,sans-serif" dominant-baseline="text-after-edge">&lt;-- CLEARANCE +1.5cm</text>
  <text x="2027.00" y="590.00" font-size="6.5" fill="#111111" font-family="Arial,sans-serif" dominant-baseline="text-after-edge">paraurti ant.</text>
  <text x="170.00" y="790.00" font-size="8" fill="#111111" font-family="Arial,sans-serif" dominant-baseline="text-after-edge">Quote in cm. Raggio ruota R=35cm (275/35ZR20). Silhouette Porsche 992 GT3 RS. Raccordi archi di cerchio.</text>
  <text x="170.00" y="810.00" font-size="8" fill="#111111" font-family="Arial,sans-serif" dominant-baseline="text-after-edge">Geometria archi: CREST centro(0,-1120); SAG centro(1700,1500); entrambi R=1500cm.</text>
</svg>