  0
SECTION
  2
HEADER
  9
$ACADVER
  1
AC1009
  9
$EXTMIN
 10
-300.0
 20
-200.0
 30
0.0
  9
$EXTMAX
 10
1600.0
 20
400.0
 30
0.0
  9
$LIMMIN
 10
-300.0
 20
-200.0
  9
$LIMMAX
 10
1600.0
 20
400.0
  9
$LTSCALE
 40
4.0
  9
$INSUNITS
 70
5
  0
ENDSEC
  0
SECTION
  2
TABLES
  0
TABLE
  2
LTYPE
 70
3
  0
LTYPE
  2
CONTINUOUS
 70
64
  3
Solid line
 72
65
 73
0
 40
0.0
  0
LTYPE
  2
DASHED
 70
64
  3
_ _ _
 72
65
 73
2
 40
8.0
 49
5.0
 49
-3.0
  0
LTYPE
  2
CENTER
 70
64
  3
____ _ ____
 72
65
 73
4
 40
20.0
 49
12.0
 49
-4.0
 49
2.0
 49
-4.0
  0
ENDTAB
  0
TABLE
  2
LAYER
 70
8
  0
LAYER
  2
0
 70
64
 62
7
  6
CONTINUOUS
  0
LAYER
  2
STRUTTURA
 70
64
 62
2
  6
CONTINUOUS
  0
LAYER
  2
TERRENO
 70
64
 62
3
  6
CONTINUOUS
  0
LAYER
  2
DETTAGLI
 70
64
 62
6
  6
CONTINUOUS
  0
LAYER
  2
QUOTE
 70
64
 62
5
  6
CONTINUOUS
  0
LAYER
  2
TESTO
 70
64
 62
7
  6
CONTINUOUS
  0
LAYER
  2
REF
 70
64
 62
8
  6
DASHED
  0
LAYER
  2
GUAINA
 70
64
 62
1
  6
CONTINUOUS
  0
ENDTAB
  0
TABLE
  2
STYLE
 70
1
  0
STYLE
  2
STANDARD
 70
0
 40
0.0
 41
1.0
 50
0.0
 71
0
 42
2.5
  3
txt
  4

  0
ENDTAB
  0
ENDSEC
  0
SECTION
  2
ENTITIES
  0
TEXT
  8
TESTO
 10
-250.0
 20
370.0
 30
0.0
 40
16.0
  1
SEZIONI E DETTAGLI COSTRUTTIVI - RAMPA GARAGE DISCENDENTE
  0
TEXT
  8
TESTO
 10
-250.0
 20
348.0
 30
0.0
 40
9.0
  1
H=380cm | L=1700cm | theta=15.6 gradi | R_raccordi=1225cm | Quote in cm
  0
LINE
  8
TESTO
 10
-250.0
 20
340.0
 30
0.0
 11
1550.0
 21
340.0
 31
0.0
  0
TEXT
  8
TESTO
 10
-200.0
 20
305.0
 30
0.0
 40
12.0
  1
DETTAGLIO A  -  SEZIONE TRASVERSALE TIPO (tratto retto)
  0
TEXT
  8
TESTO
 10
-200.0
 20
290.0
 30
0.0
 40
8.0
  1
Larghezza utile assunta = 300 cm (DA VERIFICARE). Scala 1:20 indicativa.
  0
LINE
  8
STRUTTURA
 10
-150.0
 20
6.0
 30
0.0
 11
150.0
 21
0.0
 31
0.0
  0
LINE
  8
STRUTTURA
 10
-150.0
 20
-4.0
 30
0.0
 11
150.0
 21
-10.0
 31
0.0
  0
LINE
  8
STRUTTURA
 10
-150.0
 20
-24.0
 30
0.0
 11
150.0
 21
-30.0
 31
0.0
  0
LINE
  8
TERRENO
 10
-150.0
 20
-54.0
 30
0.0
 11
150.0
 21
-60.0
 31
0.0
  0
LINE
  8
STRUTTURA
 10
-150.0
 20
6.0
 30
0.0
 11
-150.0
 21
-54.0
 31
0.0
  0
LINE
  8
STRUTTURA
 10
150.0
 20
0.0
 30
0.0
 11
150.0
 21
-60.0
 31
0.0
  0
LINE
  8
STRUTTURA
 10
-165.0
 20
-54.0
 30
0.0
 11
-165.0
 21
22.0
 31
0.0
  0
LINE
  8
STRUTTURA
 10
-165.0
 20
22.0
 30
0.0
 11
-150.0
 21
22.0
 31
0.0
  0
LINE
  8
STRUTTURA
 10
-150.0
 20
22.0
 30
0.0
 11
-150.0
 21
6.0
 31
0.0
  0
LINE
  8
STRUTTURA
 10
-150.0
 20
-54.0
 30
0.0
 11
-165.0
 21
-54.0
 31
0.0
  0
LINE
  8
STRUTTURA
 10
150.0
 20
0.0
 30
0.0
 11
150.0
 21
20.0
 31
0.0
  0
LINE
  8
STRUTTURA
 10
150.0
 20
20.0
 30
0.0
 11
172.0
 21
20.0
 31
0.0
  0
LINE
  8
STRUTTURA
 10
172.0
 20
20.0
 30
0.0
 11
172.0
 21
-20.0
 31
0.0
  0
LINE
  8
STRUTTURA
 10
172.0
 20
-20.0
 30
0.0
 11
150.0
 21
-20.0
 31
0.0
  0
LINE
  8
STRUTTURA
 10
150.0
 20
-20.0
 30
0.0
 11
150.0
 21
-60.0
 31
0.0
  0
LINE
  8
STRUTTURA
 10
172.0
 20
-60.0
 30
0.0
 11
172.0
 21
-20.0
 31
0.0
  0
LINE
  8
STRUTTURA
 10
-165.0
 20
-60.0
 30
0.0
 11
172.0
 21
-60.0
 31
0.0
  0
LINE
  8
REF
 10
150.0
 20
0.0
 30
0.0
 11
172.0
 21
-20.0
 31
0.0
  0
TEXT
  8
TESTO
 10
-180.0
 20
9.0
 30
0.0
 40
5.5
  1
PARETE
  0
TEXT
  8
TESTO
 10
-180.0
 20
0.0
 30
0.0
 40
5.5
  1
CONTENIMENTO
  0
TEXT
  8
TESTO
 10
-145.0
 20
-2.0
 30
0.0
 40
5.5
  1
CLS C25/30
  0
TEXT
  8
TESTO
 10
-145.0
 20
-10.0
 30
0.0
 40
5.5
  1
sp. 10 cm
  0
TEXT
  8
TESTO
 10
-145.0
 20
-18.0
 30
0.0
 40
5.5
  1
GHIAIA COMP.
  0
TEXT
  8
TESTO
 10
-145.0
 20
-26.0
 30
0.0
 40
5.5
  1
sp. 20 cm
  0
TEXT
  8
TESTO
 10
-145.0
 20
-40.0
 30
0.0
 40
5.5
  1
SOTTOFONDO
  0
TEXT
  8
TESTO
 10
-145.0
 20
-48.0
 30
0.0
 40
5.5
  1
COMP. sp. 30 cm
  0
TEXT
  8
TESTO
 10
156.0
 20
-6.0
 30
0.0
 40
5.5
  1
SCARICO
  0
TEXT
  8
TESTO
 10
156.0
 20
-13.0
 30
0.0
 40
5.5
  1
LINEARE
  0
TEXT
  8
TESTO
 10
156.0
 20
-20.0
 30
0.0
 40
5.5
  1
L=200mm
  0
LINE
  8
QUOTE
 10
-150.0
 20
6.0
 30
0.0
 11
-150.0
 21
80.0
 31
0.0
  0
LINE
  8
QUOTE
 10
150.0
 20
0.0
 30
0.0
 11
150.0
 21
80.0
 31
0.0
  0
LINE
  8
QUOTE
 10
-150.0
 20
72.0
 30
0.0
 11
150.0
 21
72.0
 31
0.0
  0
LINE
  8
QUOTE
 10
-150.0
 20
72.0
 30
0.0
 11
-146.0
 21
70.0
 31
0.0
  0
LINE
  8
QUOTE
 10
-150.0
 20
72.0
 30
0.0
 11
-146.0
 21
74.0
 31
0.0
  0
LINE
  8
QUOTE
 10
150.0
 20
72.0
 30
0.0
 11
146.0
 21
70.0
 31
0.0
  0
LINE
  8
QUOTE
 10
150.0
 20
72.0
 30
0.0
 11
146.0
 21
74.0
 31
0.0
  0
TEXT
  8
QUOTE
 10
-10.0
 20
76.0
 30
0.0
 40
7.0
  1
300 cm (larghezza utile)
  0
LINE
  8
QUOTE
 10
190.0
 20
0.0
 30
0.0
 11
195.0
 21
0.0
 31
0.0
  0
LINE
  8
QUOTE
 10
190.0
 20
-10.0
 30
0.0
 11
195.0
 21
-10.0
 31
0.0
  0
LINE
  8
QUOTE
 10
190.0
 20
-30.0
 30
0.0
 11
195.0
 21
-30.0
 31
0.0
  0
LINE
  8
QUOTE
 10
190.0
 20
-60.0
 30
0.0
 11
195.0
 21
-60.0
 31
0.0
  0
LINE
  8
QUOTE
 10
192.0
 20
0.0
 30
0.0
 11
192.0
 21
-60.0
 31
0.0
  0
TEXT
  8
QUOTE
 10
197.0
 20
-5.0
 30
0.0
 40
5.5
  1
10
  0
TEXT
  8
QUOTE
 10
197.0
 20
-20.0
 30
0.0
 40
5.5
  1
20
  0
TEXT
  8
QUOTE
 10
197.0
 20
-45.0
 30
0.0
 40
5.5
  1
30
  0
TEXT
  8
TESTO
 10
-30.0
 20
12.0
 30
0.0
 40
6.0
  1
2% →
  0
TEXT
  8
TESTO
 10
-250.0
 20
-80.0
 30
0.0
 40
7.0
  1
Note det. A: spessori slab/base/fill da adeguare a verifica geotecnica. Guaina bituminosa
  0
TEXT
  8
TESTO
 10
-250.0
 20
-92.0
 30
0.0
 40
7.0
  1
impermeabilizzante su tutta la superficie esterna parete di contenimento. Grig. scarico
  0
TEXT
  8
TESTO
 10
-250.0
 20
-104.0
 30
0.0
 40
 7.0
  1
classe C250 (carico ruote). LARGHEZZA 300cm DA CONFERMARE per la vettura.
  0
LINE
  8
TESTO
 10
-250.0
 20
270.0
 30
0.0
 11
1550.0
 21
270.0
 31
0.0
  0
TEXT
  8
TESTO
 10
500.0
 20
305.0
 30
0.0
 40
12.0
  1
DETTAGLIO B  -  CADITOIA / SCARICO DI FONDO
  0
TEXT
  8
TESTO
 10
500.0
 20
290.0
 30
0.0
 40
8.0
  1
Posizione: fine raccordo SAG (x=1371 nel profilo). Intercetta tutte le acque dalla rampa.
  0
LINE
  8
STRUTTURA
 10
500.0
 20
0.0
 30
0.0
 11
570.0
 21
0.0
 31
0.0
  0
LINE
  8
STRUTTURA
 10
570.0
 20
0.0
 30
0.0
 11
570.0
 21
-25.0
 31
0.0
  0
LINE
  8
STRUTTURA
 10
570.0
 20
-25.0
 30
0.0
 11
620.0
 21
-25.0
 31
0.0
  0
LINE
  8
STRUTTURA
 10
620.0
 20
-25.0
 30
0.0
 11
620.0
 21
0.0
 31
0.0
  0
LINE
  8
STRUTTURA
 10
620.0
 20
0.0
 30
0.0
 11
700.0
 21
0.0
 31
0.0
  0
LINE
  8
REF
 10
570.0
 20
0.0
 30
0.0
 11
620.0
 21
0.0
 31
0.0
  0
LINE
  8
STRUTTURA
 10
570.0
 20
-25.0
 30
0.0
 11
570.0
 21
-40.0
 31
0.0
  0
LINE
  8
STRUTTURA
 10
620.0
 20
-25.0
 30
0.0
 11
620.0
 21
-40.0
 31
0.0
  0
CIRCLE
  8
STRUTTURA
 10
595.0
 20
-50.0
 30
0.0
 40
8.0
  0
LINE
  8
STRUTTURA
 10
595.0
 20
-40.0
 30
0.0
 11
595.0
 21
-42.0
 31
0.0
  0
LINE
  8
GUAINA
 10
500.0
 20
-10.0
 30
0.0
 11
570.0
 21
-10.0
 31
0.0
  0
LINE
  8
GUAINA
 10
500.0
 20
0.0
 30
0.0
 11
500.0
 21
-10.0
 31
0.0
  0
LINE
  8
QUOTE
 10
570.0
 20
-25.0
 30
0.0
 11
570.0
 21
-28.0
 31
0.0
  0
LINE
  8
QUOTE
 10
620.0
 20
-25.0
 30
0.0
 11
620.0
 21
-28.0
 31
0.0
  0
LINE
  8
QUOTE
 10
570.0
 20
-27.0
 30
0.0
 11
620.0
 21
-27.0
 31
0.0
  0
TEXT
  8
QUOTE
 10
575.0
 20
-23.0
 30
0.0
 40
5.5
  1
50cm
  0
TEXT
  8
TESTO
 10
504.0
 20
4.0
 30
0.0
 40
6.0
  1
rampa
  0
TEXT
  8
TESTO
 10
630.0
 20
4.0
 30
0.0
 40
6.0
  1
piano garage
  0
TEXT
  8
TESTO
 10
624.0
 20
-10.0
 30
0.0
 40
6.0
  1
griglia carrabile
  0
TEXT
  8
TESTO
 10
624.0
 20
-19.0
 30
0.0
 40
6.0
  1
classe C250
  0
TEXT
  8
TESTO
 10
624.0
 20
-28.0
 30
0.0
 40
6.0
  1
scarico diam.
  0
TEXT
  8
TESTO
 10
624.0
 20
-37.0
 30
0.0
 40
6.0
  1
110mm
  0
TEXT
  8
TESTO
 10
624.0
 20
-48.0
 30
0.0
 40
6.0
  1
sifone
  0
TEXT
  8
GUAINA
 10
480.0
 20
-6.0
 30
0.0
 40
6.0
  1
guaina
  0
TEXT
  8
TESTO
 10
500.0
 20
-80.0
 30
0.0
 40
7.0
  1
Note det. B: caditoia larghezza rampa intero. Griglie rimovibili singolarmente. Pendenza
  0
TEXT
  8
TESTO
 10
500.0
 20
-92.0
 30
0.0
 40
7.0
  1
fondo caditoia verso scarico 1%. Griglia PIANA senza sporgenze (no pericolo splitter).
  0
TEXT
  8
TESTO
 10
500.0
 20
104.0
 30
0.0
 40
7.0
  1
ATTENZIONE: griglia a maglia fine (max 20x20mm) - splitter auto potrebbe incastrarsi in maglia larga.
  0
TEXT
  8
TESTO
 10
1000.0
 20
305.0
 30
0.0
 40
12.0
  1
DETTAGLIO C  -  SOGLIA GARAGE / GIUNTO DI TESTA
  0
TEXT
  8
TESTO
 10
1000.0
 20
290.0
 30
0.0
 40
8.0
  1
Giunzione piano garage con piano rampa (dopo raccordo SAG). Impermeabilizzazione e drenaggio.
  0
LINE
  8
STRUTTURA
 10
1000.0
 20
0.0
 30
0.0
 11
1060.0
 21
0.0
 31
0.0
  0
LINE
  8
STRUTTURA
 10
1060.0
 20
0.0
 30
0.0
 11
1060.0
 21
-12.0
 31
0.0
  0
LINE
  8
STRUTTURA
 10
1060.0
 20
-12.0
 30
0.0
 11
1078.0
 21
-12.0
 31
0.0
  0
LINE
  8
STRUTTURA
 10
1078.0
 20
-12.0
 30
0.0
 11
1078.0
 21
0.0
 31
0.0
  0
LINE
  8
STRUTTURA
 10
1078.0
 20
0.0
 30
0.0
 11
1078.0
 21
6.0
 31
0.0
  0
LINE
  8
STRUTTURA
 10
1078.0
 20
6.0
 30
0.0
 11
1095.0
 21
6.0
 31
0.0
  0
LINE
  8
STRUTTURA
 10
1095.0
 20
6.0
 30
0.0
 11
1095.0
 21
0.0
 31
0.0
  0
LINE
  8
STRUTTURA
 10
1095.0
 20
0.0
 30
0.0
 11
1200.0
 21
0.0
 31
0.0
  0
LINE
  8
STRUTTURA
 10
1095.0
 20
-50.0
 30
0.0
 11
1095.0
 21
180.0
 31
0.0
  0
LINE
  8
STRUTTURA
 10
1095.0
 20
-8.0
 30
0.0
 11
1000.0
 21
-8.0
 31
0.0
  0
LINE
  8
GUAINA
 10
1095.0
 20
-40.0
 30
0.0
 11
1095.0
 21
6.0
 31
0.0
  0
LINE
  8
GUAINA
 10
1095.0
 20
6.0
 30
0.0
 11
1078.0
 21
6.0
 31
0.0
  0
LINE
  8
GUAINA
 10
1078.0
 20
6.0
 30
0.0
 11
1078.0
 21
-12.0
 31
0.0
  0
LINE
  8
GUAINA
 10
1078.0
 20
-12.0
 30
0.0
 11
1060.0
 21
-12.0
 31
0.0
  0
LINE
  8
GUAINA
 10
1060.0
 20
-12.0
 30
0.0
 11
1060.0
 21
0.0
 31
0.0
  0
TEXT
  8
TESTO
 10
1005.0
 20
4.0
 30
0.0
 40
6.0
  1
rampa
  0
TEXT
  8
TESTO
 10
1110.0
 20
4.0
 30
0.0
 40
6.0
  1
pavimento garage
  0
TEXT
  8
TESTO
 10
1100.0
 20
90.0
 30
0.0
 40
6.5
  1
PARETE
  0
TEXT
  8
TESTO
 10
1100.0
 20
80.0
 30
0.0
 40
6.5
  1
GARAGE
  0
TEXT
  8
TESTO
 10
1020.0
 20
-20.0
 30
0.0
 40
6.0
  1
slab rampa sp.8cm
  0
TEXT
  8
TESTO
 10
1030.0
 20
10.0
 30
0.0
 40
6.0
  1
scarico bordo
  0
TEXT
  8
TESTO
 10
1030.0
 20
2.0
 30
0.0
 40
6.0
  1
rampa diam.50
  0
TEXT
  8
TESTO
 10
1040.0
 20
20.0
 30
0.0
 40
6.0
  1
profilato
  0
TEXT
  8
TESTO
 10
1040.0
 20
12.0
 30
0.0
 40
6.0
  1
parapioggia
  0
TEXT
  8
GUAINA
 10
1097.0
 20
-20.0
 30
0.0
 40
6.0
  1
guaina
  0
TEXT
  8
GUAINA
 10
1097.0
 20
-30.0
 30
0.0
 40
6.0
  1
impermeab.
  0
TEXT
  8
TESTO
 10
1000.0
 20
-80.0
 30
0.0
 40
7.0
  1
Note det. C: soglia rialzata 6cm impedisce infiltrazione acque in garage. Profilato
  0
TEXT
  8
TESTO
 10
1000.0
 20
-92.0
 30
0.0
 40
7.0
  1
parapioggia in alluminio anodizzato. Guaina bituminosa continua parete-rampa-scarico.
  0
TEXT
  8
TESTO
 10
1000.0
 20
-104.0
 30
0.0
 40
7.0
  1
IMPORTANTE: soglia NON superabile dalla vettura (h=8cm) → vano garage deve essere DE-LIVELLATO
  0
TEXT
  8
TESTO
 10
1000.0
 20
-116.0
 30
0.0
 40
7.0
  1
rispetto all'uscita raccordo (piano garage ≥ 0 cm rispetto fine SAG, soglia max 3cm).
  0
TEXT
  8
TESTO
 10
-250.0
 20
-160.0
 30
0.0
 40
9.0
  1
RIEPILOGO COSTRUTTIVO:
  0
TEXT
  8
TESTO
 10
-250.0
 20
-175.0
 30
0.0
 40
7.5
  1
- Superficie rampa: cls C25/30 sp.10cm, finitura spazzolata trasversale (max aderenza su 28%)
  0
TEXT
  8
TESTO
 10
-250.0
 20
-188.0
 30
0.0
 40
7.5
  1
- Raccordi: getto monolitico con armatura, raggio interno >= 1225cm, preferibile >= 1500cm
  0
TEXT
  8
TESTO
 10
-250.0
 20
-201.0
 30
0.0
 40
7.5
  1
- Impermeabilizzazione: guaina bituminosa doppio strato su tutta rampa + pareti laterali
  0
TEXT
  8
TESTO
 10
-250.0
 20
-214.0
 30
0.0
 40
7.5
  1
- Illuminazione: led lineari incassati ai lati (no ostacoli centrali, no parabolici sporgenti)
  0
TEXT
  8
TESTO
 10
-250.0
 20
-227.0
 30
0.0
 40
7.5
  1
- Riscaldamento invernale: cavi riscaldanti nello strato cls (opzionale, consigliato su 28%)
  0
ENDSEC
  0
EOF
