  0
SECTION
  2
HEADER
  9
$ACADVER
  1
AC1009
  9
$EXTMIN
 10
-600.0
 20
-1400.0
 30
0.0
  9
$EXTMAX
 10
2400.0
 20
600.0
 30
0.0
  9
$LIMMIN
 10
-600.0
 20
-200.0
  9
$LIMMAX
 10
2400.0
 20
600.0
  9
$LTSCALE
 40
10.0
  9
$INSUNITS
 70
5
  0
ENDSEC
  0
SECTION
  2
TABLES
  0
TABLE
  2
LTYPE
 70
2
  0
LTYPE
  2
CONTINUOUS
 70
64
  3
Solid line
 72
65
 73
0
 40
0.0
  0
LTYPE
  2
DASHED
 70
64
  3
_ _ _ _ _
 72
65
 73
2
 40
20.0
 49
12.0
 49
-8.0
  0
ENDTAB
  0
TABLE
  2
LAYER
 70
7
  0
LAYER
  2
0
 70
64
 62
7
  6
CONTINUOUS
  0
LAYER
  2
RAMPA
 70
64
 62
3
  6
CONTINUOUS
  0
LAYER
  2
CARROZZERIA
 70
64
 62
2
  6
CONTINUOUS
  0
LAYER
  2
RUOTE
 70
64
 62
4
  6
CONTINUOUS
  0
LAYER
  2
CRITICO
 70
64
 62
1
  6
CONTINUOUS
  0
LAYER
  2
QUOTE
 70
64
 62
5
  6
CONTINUOUS
  0
LAYER
  2
TESTO
 70
64
 62
7
  6
CONTINUOUS
  0
LAYER
  2
REF
 70
64
 62
8
  6
DASHED
  0
ENDTAB
  0
TABLE
  2
STYLE
 70
1
  0
STYLE
  2
STANDARD
 70
0
 40
0.0
 41
1.0
 50
0.0
 71
0
 42
2.5
  3
txt
  4

  0
ENDTAB
  0
ENDSEC
  0
SECTION
  2
ENTITIES
  0
TEXT
  8
TESTO
 10
-520
 20
605
 30
0.0
 40
17
  1
TAVOLA VERIFICA USCITA (SALITA) - DUE ORIENTAMENTI
  0
TEXT
  8
TESTO
 10
-520
 20
578
 30
0.0
 40
9
  1
Geometria ADOTTATA invariata: R=1500, theta=16.87 (30.3%), H=380, L=1700.  Porsche 992 GT3 RS: h=8, sbalzo ant=140, post=120, R_ruota=35.
  0
TEXT
  8
CRITICO
 10
-520
 20
558
 30
0.0
 40
10
  1
ESITO: in ENTRAMBI gli orientamenti un paraurti compenetra il raccordo SAG -> la vettura entrata NON puo' uscire senza strisciare.
  0
LINE
  8
RAMPA
 10
-520
 20
380
 30
0.0
 11
0
 21
380
 31
0.0
  0
ARC
  8
RAMPA
 10
0
 20
-1120
 30
0.0
 40
1500
 50
73.13
 51
90
  0
LINE
  8
RAMPA
 10
435
 20
316
 30
0.0
 11
1265
 21
64
 31
0.0
  0
ARC
  8
RAMPA
 10
1700
 20
1500
 30
0.0
 40
1500
 50
253.13
 51
270
  0
LINE
  8
RAMPA
 10
1700
 20
0
 30
0.0
 11
2320
 21
0
 31
0.0
  0
TEXT
  8
TESTO
 10
-505
 20
394
 30
0.0
 40
11
  1
STRADA
  0
TEXT
  8
TESTO
 10
2115
 20
16
 30
0.0
 40
11
  1
GARAGE
  0
LINE
  8
REF
 10
1265
 20
64
 30
0.0
 11
1265
 21
-58
 31
0.0
  0
TEXT
  8
TESTO
 10
1150
 20
-76
 30
0.0
 40
8
  1
tangente SAG (x=1265)
  0
LINE
  8
CARROZZERIA
 10
1267.55
 20
99.72
 30
0.0
 11
1277.32
 21
97.6
 31
0.0
  0
LINE
  8
CARROZZERIA
 10
1271.38
 20
93.77
 30
0.0
 11
1273.5
 21
103.55
 31
0.0
  0
LINE
  8
CARROZZERIA
 10
1502.07
 20
48.72
 30
0.0
 11
1511.84
 21
46.6
 31
0.0
  0
LINE
  8
CARROZZERIA
 10
1505.89
 20
42.77
 30
0.0
 11
1508.02
 21
52.54
 31
0.0
  0
LINE
  8
CARROZZERIA
 10
1129.9
 20
102.03
 30
0.0
 11
1232.79
 21
79.65
 31
0.0
  0
LINE
  8
CARROZZERIA
 10
1300.61
 20
64.9
 30
0.0
 11
1467.31
 21
28.65
 31
0.0
  0
LINE
  8
CARROZZERIA
 10
1535.13
 20
13.9
 30
0.0
 11
1618.48
 21
-4.23
 31
0.0
  0
LINE
  8
CARROZZERIA
 10
1129.9
 20
102.03
 30
0.0
 11
1135.64
 21
128.41
 31
0.0
  0
LINE
  8
CARROZZERIA
 10
1135.64
 20
128.41
 30
0.0
 11
1150.97
 21
142.47
 31
0.0
  0
LINE
  8
CARROZZERIA
 10
1150.97
 20
142.47
 30
0.0
 11
1168.73
 21
148.84
 31
0.0
  0
LINE
  8
CARROZZERIA
 10
1168.73
 20
148.84
 30
0.0
 11
1207.01
 21
150.75
 31
0.0
  0
LINE
  8
CARROZZERIA
 10
1207.01
 20
150.75
 30
0.0
 11
1257.57
 21
147.95
 31
0.0
  0
LINE
  8
CARROZZERIA
 10
1257.57
 20
147.95
 30
0.0
 11
1287.52
 21
144.5
 31
0.0
  0
LINE
  8
CARROZZERIA
 10
1287.52
 20
144.5
 30
0.0
 11
1329.33
 21
181.46
 31
0.0
  0
LINE
  8
CARROZZERIA
 10
1329.33
 20
181.46
 30
0.0
 11
1453.43
 21
154.47
 31
0.0
  0
LINE
  8
CARROZZERIA
 10
1453.43
 20
154.47
 30
0.0
 11
1492.09
 21
120.48
 31
0.0
  0
LINE
  8
CARROZZERIA
 10
1492.09
 20
120.48
 30
0.0
 11
1550.3
 21
105.78
 31
0.0
  0
LINE
  8
CARROZZERIA
 10
1550.3
 20
105.78
 30
0.0
 11
1594.27
 21
72.68
 31
0.0
  0
LINE
  8
CARROZZERIA
 10
1594.27
 20
72.68
 30
0.0
 11
1627.83
 21
38.77
 31
0.0
  0
LINE
  8
CARROZZERIA
 10
1627.83
 20
38.77
 30
0.0
 11
1618.48
 21
-4.23
 31
0.0
  0
LINE
  8
CARROZZERIA
 10
1537.59
 20
108.54
 30
0.0
 11
1547.58
 21
154.46
 31
0.0
  0
LINE
  8
CARROZZERIA
 10
1558.11
 20
104.08
 30
0.0
 11
1568.1
 21
150
 31
0.0
  0
LINE
  8
CARROZZERIA
 10
1524.55
 20
161.52
 30
0.0
 11
1592.96
 21
146.64
 31
0.0
  0
LINE
  8
CARROZZERIA
 10
1523.7
 20
157.61
 30
0.0
 11
1592.11
 21
142.74
 31
0.0
  0
LINE
  8
CARROZZERIA
 10
1523.7
 20
157.61
 30
0.0
 11
1524.55
 21
161.52
 31
0.0
  0
LINE
  8
CARROZZERIA
 10
1592.11
 20
142.74
 30
0.0
 11
1592.96
 21
146.64
 31
0.0
  0
CIRCLE
  8
RUOTE
 10
1272.44
 20
98.66
 30
0.0
 40
35
  0
CIRCLE
  8
RUOTE
 10
1506.96
 20
47.66
 30
0.0
 40
35
  0
CIRCLE
  8
CRITICO
 10
1638.02
 20
-8.48
 30
0.0
 40
11
  0
LINE
  8
CRITICO
 10
1638.02
 20
-8.48
 30
0.0
 11
1638.02
 21
1.28
 31
0.0
  0
LINE
  8
CRITICO
 10
1638.02
 20
-8.48
 30
0.0
 11
1808.02
 21
-63.48
 31
0.0
  0
TEXT
  8
CRITICO
 10
1816.02
 20
-71.48
 30
0.0
 40
10
  1
paraurti ANTERIORE (sbalzo 140) compenetra il SAG
  0
TEXT
  8
CRITICO
 10
1816.02
 20
-91.48
 30
0.0
 40
11
  1
interferenza 9.8 cm
  0
LINE
  8
QUOTE
 10
1040
 20
450
 30
0.0
 11
250
 21
450
 31
0.0
  0
LINE
  8
QUOTE
 10
250
 20
450
 30
0.0
 11
296
 21
463
 31
0.0
  0
LINE
  8
QUOTE
 10
250
 20
450
 30
0.0
 11
296
 21
437
 31
0.0
  0
TEXT
  8
QUOTE
 10
540
 20
462
 30
0.0
 40
11
  1
USCITA (salita)
  0
TEXT
  8
TESTO
 10
-520
 20
515
 30
0.0
 40
13
  1
A)  USCITA IN RETROMARCIA   (muso resta verso il garage, a destra)
  0
LINE
  8
RAMPA
 10
-520
 20
-440
 30
0.0
 11
0
 21
-440
 31
0.0
  0
ARC
  8
RAMPA
 10
0
 20
-1940
 30
0.0
 40
1500
 50
73.13
 51
90
  0
LINE
  8
RAMPA
 10
435
 20
-504
 30
0.0
 11
1265
 21
-756
 31
0.0
  0
ARC
  8
RAMPA
 10
1700
 20
680
 30
0.0
 40
1500
 50
253.13
 51
270
  0
LINE
  8
RAMPA
 10
1700
 20
-820
 30
0.0
 11
2320
 21
-820
 31
0.0
  0
TEXT
  8
TESTO
 10
-505
 20
-426
 30
0.0
 40
11
  1
STRADA
  0
TEXT
  8
TESTO
 10
2115
 20
-804
 30
0.0
 40
11
  1
GARAGE
  0
LINE
  8
REF
 10
1265
 20
-756
 30
0.0
 11
1265
 21
-878
 31
0.0
  0
TEXT
  8
TESTO
 10
1150
 20
-896
 30
0.0
 40
8
  1
tangente SAG (x=1265)
  0
LINE
  8
CARROZZERIA
 10
1512.31
 20
-773.46
 30
0.0
 11
1502.54
 21
-771.34
 31
0.0
  0
LINE
  8
CARROZZERIA
 10
1506.37
 20
-777.29
 30
0.0
 11
1508.49
 21
-767.52
 31
0.0
  0
LINE
  8
CARROZZERIA
 10
1277.78
 20
-722.54
 30
0.0
 11
1268.01
 21
-720.42
 31
0.0
  0
LINE
  8
CARROZZERIA
 10
1271.83
 20
-726.36
 30
0.0
 11
1273.95
 21
-716.59
 31
0.0
  0
LINE
  8
CARROZZERIA
 10
1638.51
 20
-828.5
 30
0.0
 11
1535.61
 21
-806.15
 31
0.0
  0
LINE
  8
CARROZZERIA
 10
1467.79
 20
-791.43
 30
0.0
 11
1301.07
 21
-755.23
 31
0.0
  0
LINE
  8
CARROZZERIA
 10
1233.25
 20
-740.5
 30
0.0
 11
1149.9
 21
-722.4
 31
0.0
  0
LINE
  8
CARROZZERIA
 10
1638.51
 20
-828.5
 30
0.0
 11
1644.24
 21
-802.11
 31
0.0
  0
LINE
  8
CARROZZERIA
 10
1644.24
 20
-802.11
 30
0.0
 11
1636.12
 21
-782.95
 31
0.0
  0
LINE
  8
CARROZZERIA
 10
1636.12
 20
-782.95
 30
0.0
 11
1622.61
 21
-769.78
 31
0.0
  0
LINE
  8
CARROZZERIA
 10
1622.61
 20
-769.78
 30
0.0
 11
1588.57
 21
-752.16
 31
0.0
  0
LINE
  8
CARROZZERIA
 10
1588.57
 20
-752.16
 30
0.0
 11
1541.41
 21
-733.73
 31
0.0
  0
LINE
  8
CARROZZERIA
 10
1541.41
 20
-733.73
 30
0.0
 11
1512.73
 21
-724.44
 31
0.0
  0
LINE
  8
CARROZZERIA
 10
1512.73
 20
-724.44
 30
0.0
 11
1490.03
 21
-673.46
 31
0.0
  0
LINE
  8
CARROZZERIA
 10
1490.03
 20
-673.46
 30
0.0
 11
1365.92
 21
-646.51
 31
0.0
  0
LINE
  8
CARROZZERIA
 10
1365.92
 20
-646.51
 30
0.0
 11
1316.64
 21
-661.39
 31
0.0
  0
LINE
  8
CARROZZERIA
 10
1316.64
 20
-661.39
 30
0.0
 11
1257.58
 21
-650.62
 31
0.0
  0
LINE
  8
CARROZZERIA
 10
1257.58
 20
-650.62
 30
0.0
 11
1203.84
 21
-662.48
 31
0.0
  0
LINE
  8
CARROZZERIA
 10
1203.84
 20
-662.48
 30
0.0
 11
1159.23
 21
-679.4
 31
0.0
  0
LINE
  8
CARROZZERIA
 10
1159.23
 20
-679.4
 30
0.0
 11
1149.9
 21
-722.4
 31
0.0
  0
LINE
  8
CARROZZERIA
 10
1270.28
 20
-653.37
 30
0.0
 11
1280.26
 21
-607.44
 31
0.0
  0
LINE
  8
CARROZZERIA
 10
1249.76
 20
-648.92
 30
0.0
 11
1259.73
 21
-602.99
 31
0.0
  0
LINE
  8
CARROZZERIA
 10
1304.13
 20
-610.58
 30
0.0
 11
1235.73
 21
-595.73
 31
0.0
  0
LINE
  8
CARROZZERIA
 10
1303.29
 20
-614.49
 30
0.0
 11
1234.88
 21
-599.64
 31
0.0
  0
LINE
  8
CARROZZERIA
 10
1303.29
 20
-614.49
 30
0.0
 11
1304.13
 21
-610.58
 31
0.0
  0
LINE
  8
CARROZZERIA
 10
1234.88
 20
-599.64
 30
0.0
 11
1235.73
 21
-595.73
 31
0.0
  0
CIRCLE
  8
RUOTE
 10
1507.43
 20
-772.4
 30
0.0
 40
35
  0
CIRCLE
  8
RUOTE
 10
1272.89
 20
-721.48
 30
0.0
 40
35
  0
CIRCLE
  8
CRITICO
 10
1618.96
 20
-824.25
 30
0.0
 40
11
  0
LINE
  8
CRITICO
 10
1618.96
 20
-824.25
 30
0.0
 11
1618.96
 21
-817.81
 31
0.0
  0
LINE
  8
CRITICO
 10
1618.96
 20
-824.25
 30
0.0
 11
1788.96
 21
-879.25
 31
0.0
  0
TEXT
  8
CRITICO
 10
1796.96
 20
-887.25
 30
0.0
 40
10
  1
paraurti POSTERIORE (sbalzo 120) compenetra il SAG
  0
TEXT
  8
CRITICO
 10
1796.96
 20
-907.25
 30
0.0
 40
11
  1
interferenza 6.4 cm
  0
LINE
  8
QUOTE
 10
1040
 20
-370
 30
0.0
 11
250
 21
-370
 31
0.0
  0
LINE
  8
QUOTE
 10
250
 20
-370
 30
0.0
 11
296
 21
-357
 31
0.0
  0
LINE
  8
QUOTE
 10
250
 20
-370
 30
0.0
 11
296
 21
-383
 31
0.0
  0
TEXT
  8
QUOTE
 10
540
 20
-358
 30
0.0
 40
11
  1
USCITA (salita)
  0
TEXT
  8
TESTO
 10
-520
 20
-305
 30
0.0
 40
13
  1
B)  USCITA DI MUSO   (vettura girata: muso verso la strada, a sinistra)
  0
TEXT
  8
TESTO
 10
-520
 20
-930
 30
0.0
 40
9
  1
Nota: il ventre (breakover) e' OK (+3.2 cm al CREST). Il vincolo e' SOLO lo sbalzo, troppo lungo per il SAG con R=1500.
  0
TEXT
  8
TESTO
 10
-520
 20
-948
 30
0.0
 40
9
  1
Il +1.5 cm del dimensionamento e' un check a posa singola (asse ant. sulla tangente) e NON e' il minimo del transito continuo.
  0
ENDSEC
  0
EOF
