<?xml version="1.0" encoding="UTF-8"?>
<svg xmlns="http://www.w3.org/2000/svg" viewBox="0 0 3040 2040" width="3040" height="2040" style="background:#fff">
  <!-- Tavola_Uscita — generato da dxf_to_svg.js -->
  <text x="100.00" y="15.00" font-size="17" fill="#111111" font-family="Arial,sans-serif" dominant-baseline="text-after-edge">TAVOLA VERIFICA USCITA (SALITA) - DUE ORIENTAMENTI</text>
  <text x="100.00" y="42.00" font-size="9" fill="#111111" font-family="Arial,sans-serif" dominant-baseline="text-after-edge">Geometria ADOTTATA invariata: R=1500, theta=16.87 (30.3%), H=380, L=1700.  Porsche 992 GT3 RS: h=8, sbalzo ant=140, post=120, R_ruota=35.</text>
  <text x="100.00" y="62.00" font-size="10" fill="#cc0000" font-family="Arial,sans-serif" dominant-baseline="text-after-edge">ESITO: in ENTRAMBI gli orientamenti un paraurti compenetra il raccordo SAG -&gt; la vettura entrata NON puo' uscire senza strisciare.</text>
  <line x1="100.00" y1="240.00" x2="620.00" y2="240.00" stroke="#007700" stroke-width="2"/>
  <path d="M 1055.30 304.55 A 1500 1500 0 0 0 620.00 240.00" fill="none" stroke="#007700" stroke-width="2"/>
  <line x1="1055.00" y1="304.00" x2="1885.00" y2="556.00" stroke="#007700" stroke-width="2"/>
  <path d="M 1884.70 555.45 A 1500 1500 0 0 0 2320.00 620.00" fill="none" stroke="#007700" stroke-width="2"/>
  <line x1="2320.00" y1="620.00" x2="2940.00" y2="620.00" stroke="#007700" stroke-width="2"/>
  <text x="115.00" y="226.00" font-size="11" fill="#111111" font-family="Arial,sans-serif" dominant-baseline="text-after-edge">STRADA</text>
  <text x="2735.00" y="604.00" font-size="11" fill="#111111" font-family="Arial,sans-serif" dominant-baseline="text-after-edge">GARAGE</text>
  <line x1="1885.00" y1="556.00" x2="1885.00" y2="678.00" stroke="#777777" stroke-width="0.8" stroke-dasharray="8 4"/>
  <text x="1770.00" y="696.00" font-size="8" fill="#111111" font-family="Arial,sans-serif" dominant-baseline="text-after-edge">tangente SAG (x=1265)</text>
  <line x1="1887.55" y1="520.28" x2="1897.32" y2="522.40" stroke="#997700" stroke-width="2"/>
  <line x1="1891.38" y1="526.23" x2="1893.50" y2="516.45" stroke="#997700" stroke-width="2"/>
  <line x1="2122.07" y1="571.28" x2="2131.84" y2="573.40" stroke="#997700" stroke-width="2"/>
  <line x1="2125.89" y1="577.23" x2="2128.02" y2="567.46" stroke="#997700" stroke-width="2"/>
  <line x1="1749.90" y1="517.97" x2="1852.79" y2="540.35" stroke="#997700" stroke-width="2"/>
  <line x1="1920.61" y1="555.10" x2="2087.31" y2="591.35" stroke="#997700" stroke-width="2"/>
  <line x1="2155.13" y1="606.10" x2="2238.48" y2="624.23" stroke="#997700" stroke-width="2"/>
  <line x1="1749.90" y1="517.97" x2="1755.64" y2="491.59" stroke="#997700" stroke-width="2"/>
  <line x1="1755.64" y1="491.59" x2="1770.97" y2="477.53" stroke="#997700" stroke-width="2"/>
  <line x1="1770.97" y1="477.53" x2="1788.73" y2="471.16" stroke="#997700" stroke-width="2"/>
  <line x1="1788.73" y1="471.16" x2="1827.01" y2="469.25" stroke="#997700" stroke-width="2"/>
  <line x1="1827.01" y1="469.25" x2="1877.57" y2="472.05" stroke="#997700" stroke-width="2"/>
  <line x1="1877.57" y1="472.05" x2="1907.52" y2="475.50" stroke="#997700" stroke-width="2"/>
  <line x1="1907.52" y1="475.50" x2="1949.33" y2="438.54" stroke="#997700" stroke-width="2"/>
  <line x1="1949.33" y1="438.54" x2="2073.43" y2="465.53" stroke="#997700" stroke-width="2"/>
  <line x1="2073.43" y1="465.53" x2="2112.09" y2="499.52" stroke="#997700" stroke-width="2"/>
  <line x1="2112.09" y1="499.52" x2="2170.30" y2="514.22" stroke="#997700" stroke-width="2"/>
  <line x1="2170.30" y1="514.22" x2="2214.27" y2="547.32" stroke="#997700" stroke-width="2"/>
  <line x1="2214.27" y1="547.32" x2="2247.83" y2="581.23" stroke="#997700" stroke-width="2"/>
  <line x1="2247.83" y1="581.23" x2="2238.48" y2="624.23" stroke="#997700" stroke-width="2"/>
  <line x1="2157.59" y1="511.46" x2="2167.58" y2="465.54" stroke="#997700" stroke-width="2"/>
  <line x1="2178.11" y1="515.92" x2="2188.10" y2="470.00" stroke="#997700" stroke-width="2"/>
  <line x1="2144.55" y1="458.48" x2="2212.96" y2="473.36" stroke="#997700" stroke-width="2"/>
  <line x1="2143.70" y1="462.39" x2="2212.11" y2="477.26" stroke="#997700" stroke-width="2"/>
  <line x1="2143.70" y1="462.39" x2="2144.55" y2="458.48" stroke="#997700" stroke-width="2"/>
  <line x1="2212.11" y1="477.26" x2="2212.96" y2="473.36" stroke="#997700" stroke-width="2"/>
  <circle cx="1892.44" cy="521.34" r="35.00" fill="none" stroke="#006699" stroke-width="1.5"/>
  <circle cx="2126.96" cy="572.34" r="35.00" fill="none" stroke="#006699" stroke-width="1.5"/>
  <circle cx="2258.02" cy="628.48" r="11.00" fill="none" stroke="#cc0000" stroke-width="1.5"/>
  <line x1="2258.02" y1="628.48" x2="2258.02" y2="618.72" stroke="#cc0000" stroke-width="1.5"/>
  <line x1="2258.02" y1="628.48" x2="2428.02" y2="683.48" stroke="#cc0000" stroke-width="1.5"/>
  <text x="2436.02" y="691.48" font-size="10" fill="#cc0000" font-family="Arial,sans-serif" dominant-baseline="text-after-edge">paraurti ANTERIORE (sbalzo 140) compenetra il SAG</text>
  <text x="2436.02" y="711.48" font-size="11" fill="#cc0000" font-family="Arial,sans-serif" dominant-baseline="text-after-edge">interferenza 9.8 cm</text>
  <line x1="1660.00" y1="170.00" x2="870.00" y2="170.00" stroke="#2244bb" stroke-width="0.8"/>
  <line x1="870.00" y1="170.00" x2="916.00" y2="157.00" stroke="#2244bb" stroke-width="0.8"/>
  <line x1="870.00" y1="170.00" x2="916.00" y2="183.00" stroke="#2244bb" stroke-width="0.8"/>
  <text x="1160.00" y="158.00" font-size="11" fill="#2244bb" font-family="Arial,sans-serif" dominant-baseline="text-after-edge">USCITA (salita)</text>
  <text x="100.00" y="105.00" font-size="13" fill="#111111" font-family="Arial,sans-serif" dominant-baseline="text-after-edge">A)  USCITA IN RETROMARCIA   (muso resta verso il garage, a destra)</text>
  <line x1="100.00" y1="1060.00" x2="620.00" y2="1060.00" stroke="#007700" stroke-width="2"/>
  <path d="M 1055.30 1124.55 A 1500 1500 0 0 0 620.00 1060.00" fill="none" stroke="#007700" stroke-width="2"/>
  <line x1="1055.00" y1="1124.00" x2="1885.00" y2="1376.00" stroke="#007700" stroke-width="2"/>
  <path d="M 1884.70 1375.45 A 1500 1500 0 0 0 2320.00 1440.00" fill="none" stroke="#007700" stroke-width="2"/>
  <line x1="2320.00" y1="1440.00" x2="2940.00" y2="1440.00" stroke="#007700" stroke-width="2"/>
  <text x="115.00" y="1046.00" font-size="11" fill="#111111" font-family="Arial,sans-serif" dominant-baseline="text-after-edge">STRADA</text>
  <text x="2735.00" y="1424.00" font-size="11" fill="#111111" font-family="Arial,sans-serif" dominant-baseline="text-after-edge">GARAGE</text>
  <line x1="1885.00" y1="1376.00" x2="1885.00" y2="1498.00" stroke="#777777" stroke-width="0.8" stroke-dasharray="8 4"/>
  <text x="1770.00" y="1516.00" font-size="8" fill="#111111" font-family="Arial,sans-serif" dominant-baseline="text-after-edge">tangente SAG (x=1265)</text>
  <line x1="2132.31" y1="1393.46" x2="2122.54" y2="1391.34" stroke="#997700" stroke-width="2"/>
  <line x1="2126.37" y1="1397.29" x2="2128.49" y2="1387.52" stroke="#997700" stroke-width="2"/>
  <line x1="1897.78" y1="1342.54" x2="1888.01" y2="1340.42" stroke="#997700" stroke-width="2"/>
  <line x1="1891.83" y1="1346.36" x2="1893.95" y2="1336.59" stroke="#997700" stroke-width="2"/>
  <line x1="2258.51" y1="1448.50" x2="2155.61" y2="1426.15" stroke="#997700" stroke-width="2"/>
  <line x1="2087.79" y1="1411.43" x2="1921.07" y2="1375.23" stroke="#997700" stroke-width="2"/>
  <line x1="1853.25" y1="1360.50" x2="1769.90" y2="1342.40" stroke="#997700" stroke-width="2"/>
  <line x1="2258.51" y1="1448.50" x2="2264.24" y2="1422.11" stroke="#997700" stroke-width="2"/>
  <line x1="2264.24" y1="1422.11" x2="2256.12" y2="1402.95" stroke="#997700" stroke-width="2"/>
  <line x1="2256.12" y1="1402.95" x2="2242.61" y2="1389.78" stroke="#997700" stroke-width="2"/>
  <line x1="2242.61" y1="1389.78" x2="2208.57" y2="1372.16" stroke="#997700" stroke-width="2"/>
  <line x1="2208.57" y1="1372.16" x2="2161.41" y2="1353.73" stroke="#997700" stroke-width="2"/>
  <line x1="2161.41" y1="1353.73" x2="2132.73" y2="1344.44" stroke="#997700" stroke-width="2"/>
  <line x1="2132.73" y1="1344.44" x2="2110.03" y2="1293.46" stroke="#997700" stroke-width="2"/>
  <line x1="2110.03" y1="1293.46" x2="1985.92" y2="1266.51" stroke="#997700" stroke-width="2"/>
  <line x1="1985.92" y1="1266.51" x2="1936.64" y2="1281.39" stroke="#997700" stroke-width="2"/>
  <line x1="1936.64" y1="1281.39" x2="1877.58" y2="1270.62" stroke="#997700" stroke-width="2"/>
  <line x1="1877.58" y1="1270.62" x2="1823.84" y2="1282.48" stroke="#997700" stroke-width="2"/>
  <line x1="1823.84" y1="1282.48" x2="1779.23" y2="1299.40" stroke="#997700" stroke-width="2"/>
  <line x1="1779.23" y1="1299.40" x2="1769.90" y2="1342.40" stroke="#997700" stroke-width="2"/>
  <line x1="1890.28" y1="1273.37" x2="1900.26" y2="1227.44" stroke="#997700" stroke-width="2"/>
  <line x1="1869.76" y1="1268.92" x2="1879.73" y2="1222.99" stroke="#997700" stroke-width="2"/>
  <line x1="1924.13" y1="1230.58" x2="1855.73" y2="1215.73" stroke="#997700" stroke-width="2"/>
  <line x1="1923.29" y1="1234.49" x2="1854.88" y2="1219.64" stroke="#997700" stroke-width="2"/>
  <line x1="1923.29" y1="1234.49" x2="1924.13" y2="1230.58" stroke="#997700" stroke-width="2"/>
  <line x1="1854.88" y1="1219.64" x2="1855.73" y2="1215.73" stroke="#997700" stroke-width="2"/>
  <circle cx="2127.43" cy="1392.40" r="35.00" fill="none" stroke="#006699" stroke-width="1.5"/>
  <circle cx="1892.89" cy="1341.48" r="35.00" fill="none" stroke="#006699" stroke-width="1.5"/>
  <circle cx="2238.96" cy="1444.25" r="11.00" fill="none" stroke="#cc0000" stroke-width="1.5"/>
  <line x1="2238.96" y1="1444.25" x2="2238.96" y2="1437.81" stroke="#cc0000" stroke-width="1.5"/>
  <line x1="2238.96" y1="1444.25" x2="2408.96" y2="1499.25" stroke="#cc0000" stroke-width="1.5"/>
  <text x="2416.96" y="1507.25" font-size="10" fill="#cc0000" font-family="Arial,sans-serif" dominant-baseline="text-after-edge">paraurti POSTERIORE (sbalzo 120) compenetra il SAG</text>
  <text x="2416.96" y="1527.25" font-size="11" fill="#cc0000" font-family="Arial,sans-serif" dominant-baseline="text-after-edge">interferenza 6.4 cm</text>
  <line x1="1660.00" y1="990.00" x2="870.00" y2="990.00" stroke="#2244bb" stroke-width="0.8"/>
  <line x1="870.00" y1="990.00" x2="916.00" y2="977.00" stroke="#2244bb" stroke-width="0.8"/>
  <line x1="870.00" y1="990.00" x2="916.00" y2="1003.00" stroke="#2244bb" stroke-width="0.8"/>
  <text x="1160.00" y="978.00" font-size="11" fill="#2244bb" font-family="Arial,sans-serif" dominant-baseline="text-after-edge">USCITA (salita)</text>
  <text x="100.00" y="925.00" font-size="13" fill="#111111" font-family="Arial,sans-serif" dominant-baseline="text-after-edge">B)  USCITA DI MUSO   (vettura girata: muso verso la strada, a sinistra)</text>
  <text x="100.00" y="1550.00" font-size="9" fill="#111111" font-family="Arial,sans-serif" dominant-baseline="text-after-edge">Nota: il ventre (breakover) e' OK (+3.2 cm al CREST). Il vincolo e' SOLO lo sbalzo, troppo lungo per il SAG con R=1500.</text>
  <text x="100.00" y="1568.00" font-size="9" fill="#111111" font-family="Arial,sans-serif" dominant-baseline="text-after-edge">Il +1.5 cm del dimensionamento e' un check a posa singola (asse ant. sulla tangente) e NON e' il minimo del transito continuo.</text>
</svg>